<?xml version="1.0" encoding="UTF-8"?>
<svg id="Layer_2" data-name="Layer 2" xmlns="http://www.w3.org/2000/svg" xmlns:xlink="http://www.w3.org/1999/xlink" viewBox="0 0 263.52 263.34">
  <defs>
    <style>
      .cls-1 {
        fill: url(#linear-gradient);
      }

      .cls-2 {
        fill: url(#linear-gradient-3);
      }

      .cls-3 {
        fill: url(#linear-gradient-2);
      }
    </style>
    <linearGradient id="linear-gradient" x1="147.15" y1="360.96" x2="131.27" y2="126.47" gradientUnits="userSpaceOnUse">
      <stop offset="0" stop-color="#fff" stop-opacity=".5"/>
      <stop offset="1" stop-color="#3de5aa"/>
    </linearGradient>
    <linearGradient id="linear-gradient-2" x1="134.58" y1="168.32" x2="130.19" y2="69.66" xlink:href="#linear-gradient"/>
    <linearGradient id="linear-gradient-3" x1="135.38" y1="250.06" x2="129.01" y2="115.37" xlink:href="#linear-gradient"/>
  </defs>
  <g id="Layer_1-2" data-name="Layer 1">
    <g>
      <path class="cls-1" d="m0,139.94C0,134.45,0,128.96,0,123.47c.15-.75.33-1.49.44-2.24.9-6.09,1.46-12.26,2.73-18.27C13.9,51.93,57.3,10.49,108.75,2.03,113.64,1.22,118.56.67,123.47,0c5.49,0,10.98,0,16.46,0,.75.15,1.49.33,2.24.44,5.92.87,11.93,1.38,17.76,2.64,79.9,17.25,125.02,103.89,93.42,179.24-24.68,58.84-86.64,91.25-149.38,78.11C51.92,249.54,10.95,206.97,1.99,154.4,1.18,149.61.66,144.76,0,139.94Zm20.58-8.4c-.15,61.14,49.62,111.09,110.89,111.3,61.13.2,111.1-49.52,111.36-110.83.26-61.21-49.68-111.33-111.02-111.42-61.18-.09-111.08,49.69-111.23,110.95Z"/>
      <path class="cls-3" d="m130.86,141.47c-27.16-.14-49.18-22.46-49.05-49.72.13-27.15,22.45-49.18,49.72-49.05,27.16.13,49.19,22.46,49.05,49.71-.14,27.16-22.47,49.19-49.72,49.06Zm29.13-49.3c.04-15.85-12.88-28.84-28.72-28.89-15.85-.04-28.85,12.88-28.89,28.72-.04,15.85,12.88,28.85,28.72,28.89,15.84.04,28.85-12.88,28.89-28.72Z"/>
      <path class="cls-2" d="m133.12,159.04c14.21-.7,27.94,1.78,40.81,8.49,9.09,4.73,16.89,11.05,23.46,18.89,3.93,4.69,3.6,10.95-.74,14.74-4.45,3.89-10.82,3.39-14.86-1.36-8.95-10.53-20.07-17.61-33.77-19.34-14.3-1.81-28.74-2.38-42.55,3.28-8.48,3.47-15.64,8.79-21.53,15.81-2.76,3.29-6.2,4.87-10.47,3.93-7.62-1.68-10.73-10.47-5.76-16.54,9.16-11.21,20.64-19.15,34.35-23.87,10.02-3.45,20.36-4.46,31.07-4.01Z"/>
    </g>
  </g>
</svg>