<?xml version="1.0" encoding="UTF-8"?>
<svg id="Layer_2" data-name="Layer 2" xmlns="http://www.w3.org/2000/svg" viewBox="0 0 378.66 264.16">
  <defs>
    <style>
      .cls-1 {
        fill: #f26a69;
      }

      .cls-2 {
        fill: #e3e3e8;
      }

      .cls-3 {
        fill: #f5d266;
      }

      .cls-4 {
        fill: #cfdbe5;
      }

      .cls-5 {
        fill: #495059;
      }
    </style>
  </defs>
  <g id="Layer_1-2" data-name="Layer 1">
    <g>
      <path class="cls-2" d="m28.47,261.85c.01-.4.02-.76-.56-.77-5.27-.14-9.64-2.58-13.81-5.48-3.82-2.66-6.65-6.21-8.69-10.35-1.69-3.45-2.66-7.11-2.91-10.99-.14-2.23-.13-4.44-.13-6.66-.01-38.1-.01-76.19,0-114.29,0-.39-.22-1.02.19-1.12.49-.11.59.55.81.92,1.98,3.45,3.76,7.01,5.74,10.46,2.04,3.56,4.12,7.1,6.25,10.61,1.76,2.91,3.55,5.8,5.41,8.65,1.7,2.61,3.54,5.13,5.25,7.74,2.07,3.16,4.3,6.21,6.52,9.26.37.51.85.94,1.18,1.49.28.46.58.93.52,1.51-1.63.01-3.26.04-4.89.03-.77,0-1.53.04-2.28.22-1.82.42-3.02,1.55-3.49,3.32-.45,1.71.07,3.21,1.39,4.41,1.03.94,2.27,1.25,3.62,1.26,4.44.01,8.88.02,13.32.04,0,.79.75,1.05,1.14,1.55,1.85,2.37,3.67,4.77,5.7,6.98,1.68,1.83,3.15,3.83,4.82,5.67,2.02,2.22,4.11,4.38,5.99,6.73.41.52.92.98,1.46,1.38,1.03.77,1.67,1.81,2.21,2.94-.38.01-.77.03-1.15.03-10.91,0-21.82,0-32.73,0-.84,0-1.66.1-2.48.25-2.71.48-4.67,4.05-2.82,6.75,1.16,1.69,2.68,2.24,4.62,2.23,14.56-.02,29.11-.01,43.67-.01.35,0,.7.02,1.05.03-.09.5.2.82.51,1.17.96,1.1,2.19,1.91,3.23,2.93,1.96,1.91,3.82,3.94,5.89,5.72,1.7,1.46,3.21,3.15,5.06,4.46.73.51,1.27,1.31,1.98,1.9,2.46,2.04,4.88,4.13,7.33,6.18,1.95,1.64,3.91,3.28,5.9,4.87,1.45,1.16,2.98,2.23,4.45,3.38.85.66,1.58,1.45,2.45,2.1,2.19,1.64,4.47,3.14,6.63,4.82,2.48,1.93,5.07,3.71,7.64,5.51,2.2,1.55,4.45,3.03,6.7,4.51,2.15,1.42,4.31,2.82,6.49,4.2.99.63,2.1,1.08,2.88,2,.14.16.41.29.33.54-.09.28-.39.19-.58.17-.74-.07-.56.37-.46.77H28.47Z"/>
      <g>
        <path class="cls-5" d="m377.7,74.65c-.92,0-1.82-.08-2.74.15-.9.23-1.83-.13-2.74-.13-31.32,0-62.65,0-93.97,0-61.66,0-123.31,0-184.97,0-28.86,0-57.72,0-86.58,0-1.49,0-2.99.08-4.48.18-.64.04-.82-.19-.81-.8.03-1.95.01-3.9.01-5.85,0-13.04-.16-26.09.06-39.13.12-7.25,2.92-13.63,7.97-18.94C14.14,5.21,19.9,2.36,26.62,1.43c1.73-.24,3.49-.27,5.24-.27,104.15.01,208.3.01,312.45.02,1.86,0,3.72-.08,5.57.03,8.04.48,14.97,3.43,20.33,9.53,2.61,2.98,4.83,6.3,5.86,10.22.36,1.36,1.01,2.67.88,4.14-.04.47.13.89.75.83v.77c-.76,0-.68.51-.76,1.05-.13.88.68.07.76.49v46.42ZM83.14,38.72c0,1.29.26,2.53.64,3.76,2.28,7.29,10.14,12.37,17.92,10.56,10.04-2.33,14.98-13.71,9.94-22.81-3.02-5.45-9.08-8.44-15.6-7.47-7.61,1.12-12.26,7.19-12.93,14.13l-.04.05.03.05.02,1.48c-.08.09-.06.17.02.25Zm178.16,14.68h0c19.77-.01,39.54-.01,59.31-.02,2.05,0,4.1.1,6.14-.06,6.55-.51,11.47-3.46,14.08-9.7,1.34-3.2,1.53-6.5.63-9.84-1.21-4.46-4.23-7.44-8.17-9.57-2.46-1.33-5.22-1.5-7.92-1.51-21.82-.05-43.64-.02-65.45-.01-20.83,0-41.65,0-62.48,0-2.08,0-4.13.21-6.11.85-8.64,2.8-12.9,12.93-8.82,21.06,2.03,4.06,5.21,6.78,9.61,8.08,2.52.75,5.09.7,7.66.7,20.51,0,41.01,0,61.52,0Zm-193.8-15.38c.1-9.19-6.68-15.49-15.57-15.25-8.2.22-14.9,5.88-14.93,15.58-.02,7.9,7.23,15.24,15.75,15.07,7.84-.16,15.08-7.57,14.75-15.4Z"/>
        <path class="cls-1" d="m229.1,171.71c.16-1.07,1.09-1.55,1.74-2.2,5.28-5.31,10.61-10.58,15.92-15.86,2.8-2.79,5.59-5.58,8.38-8.37,2.56-2.56,5.13-5.11,7.68-7.68,4.72-4.74,9.42-9.51,14.16-14.24,3.94-3.94,7.93-7.85,11.88-11.78,3.97-3.96,7.94-7.93,11.88-11.93,2.66-2.69,5.48-5.13,9.18-6.27,4.59-1.42,9.11-1.26,13.46.87,1.93.94,3.67,2.15,5.21,3.71,6.75,6.86,13.56,13.66,20.41,20.42,3.01,2.97,5.01,6.39,5.66,10.59.85,5.5-.56,10.38-4.18,14.59-1.23,1.43-2.6,2.74-3.93,4.07-22.19,22.17-44.38,44.34-66.56,66.51-1.16,1.16-2.31,2.33-3.47,3.49-.24.24-.43.57-.85.55-.88-.93-1.73-1.88-2.63-2.78-13.8-13.8-27.61-27.59-41.43-41.37-.8-.8-1.67-1.53-2.51-2.29Z"/>
        <path class="cls-5" d="m229.1,171.71c.84.76,1.71,1.49,2.51,2.29,13.82,13.79,27.62,27.58,41.43,41.37.9.9,1.75,1.85,2.63,2.78-.38.59-1.07.5-1.61.66-5.78,1.71-11.58,3.37-17.37,5.04-4.21,1.22-8.44,2.4-12.64,3.68-3.56,1.09-7.14,2.08-10.72,3.11-3,.87-6.01,1.73-8.98,2.69-2.14.69-4.19.54-6.2-.36-2.38-1.07-3.64-3.05-4.41-5.45-.54-1.67-.28-3.23.22-4.85,1.07-3.45,2.07-6.92,3.06-10.4.84-2.95,1.7-5.89,2.59-8.82,1.04-3.41,1.98-6.84,3.02-10.25.87-2.88,1.67-5.78,2.51-8.67.81-2.8,1.63-5.59,2.49-8.38.46-1.49.83-3.01,1.47-4.44Z"/>
        <path class="cls-1" d="m76.67,207.8c-.35,0-.7-.03-1.05-.03-14.56,0-29.11-.01-43.67.01-1.94,0-3.46-.54-4.62-2.23-1.85-2.7.11-6.27,2.82-6.75.82-.14,1.64-.25,2.48-.25,10.91.01,21.82,0,32.73,0,.38,0,.77-.02,1.15-.03.61.01,1.21.03,1.82.03,37.05,0,74.11,0,111.16,0,1.76,0,3.38.24,4.72,1.61,1.82,1.86,1.33,5.23-.6,6.58-1.07.75-2.21,1-3.45,1.01-5.34.01-10.69,0-16.03,0-28.7,0-57.4,0-86.1,0-.45,0-.89.02-1.34.03Z"/>
        <path class="cls-1" d="m185.32,134.09c.21,2.37-2.2,4.66-4.65,4.49-.56-.04-1.18.14-1.78.14-49.2,0-98.4-.01-147.61.04-2.07,0-4.53-2.32-4.73-4.29-.17-1.69,1.31-4.39,3.76-4.78.77-.12,1.53-.17,2.29-.17,48.95,0,97.89,0,146.84,0,1.68,0,3.34.14,4.58,1.49.81.88,1.42,1.86,1.3,3.09Z"/>
        <path class="cls-1" d="m45.18,173.28c-4.44-.01-8.88-.02-13.32-.04-1.35,0-2.59-.32-3.62-1.26-1.33-1.2-1.84-2.71-1.39-4.41.47-1.77,1.67-2.9,3.49-3.32.75-.17,1.51-.22,2.28-.22,1.63,0,3.26-.02,4.89-.03.67.01,1.34.03,2.01.03,46.65,0,93.29,0,139.94,0,1.72,0,3.31.25,4.67,1.54,2.61,2.5.79,6.61-1.83,7.33-.84.23-1.68.34-2.55.34-44.22,0-88.43,0-132.65,0-.64,0-1.28.02-1.92.03Z"/>
        <path class="cls-4" d="m261.3,53.41c-20.51,0-41.01,0-61.52,0-2.57,0-5.14.05-7.66-.7-4.4-1.31-7.58-4.03-9.61-8.08-4.07-8.13.19-18.27,8.82-21.06,1.98-.64,4.03-.85,6.11-.85,20.83,0,41.65,0,62.48,0,21.82,0,43.64-.03,65.45.01,2.7,0,5.46.18,7.92,1.51,3.94,2.13,6.96,5.11,8.17,9.57.9,3.34.71,6.64-.63,9.84-2.61,6.24-7.54,9.19-14.08,9.7-2.04.16-4.09.06-6.14.06-19.77,0-39.54,0-59.31,0h0Z"/>
        <path class="cls-3" d="m83.11,36.89c.67-6.94,5.32-13.01,12.93-14.13,6.52-.96,12.58,2.03,15.6,7.47,5.04,9.1.1,20.48-9.94,22.81-7.78,1.81-15.63-3.28-17.92-10.56-.38-1.23-.64-2.47-.64-3.76,0-.08-.01-.17-.02-.25,0-.49-.01-.99-.02-1.48.04-.03.04-.06.01-.1Z"/>
        <path class="cls-1" d="m67.5,38.03c.33,7.82-6.91,15.23-14.75,15.4-8.52.18-15.78-7.17-15.75-15.07.03-9.7,6.73-15.36,14.93-15.58,8.89-.24,15.68,6.06,15.57,15.25Z"/>
        <path class="cls-1" d="m83.12,38.47c0,.08.01.17.02.25-.09-.08-.11-.16-.02-.25Z"/>
        <path class="cls-1" d="m83.11,36.89s.03.07-.01.1c0,0-.03-.05-.03-.05l.04-.05Z"/>
        <path class="cls-5" d="m350.73,264.16H27.93c-15.4,0-27.93-12.53-27.93-27.93V27.93C0,12.53,12.53,0,27.93,0h322.8c15.4,0,27.93,12.53,27.93,27.93v208.31c0,15.4-12.53,27.93-27.93,27.93ZM27.93,2.31C13.8,2.31,2.31,13.8,2.31,27.93v208.31c0,14.13,11.49,25.62,25.62,25.62h322.8c14.13,0,25.62-11.49,25.62-25.62V27.93c0-14.13-11.49-25.62-25.62-25.62H27.93Z"/>
      </g>
    </g>
  </g>
</svg>