<?xml version="1.0" encoding="UTF-8"?>
<svg id="Layer_2" data-name="Layer 2" xmlns="http://www.w3.org/2000/svg" viewBox="0 0 378.72 247.76">
  <defs>
    <style>
      .cls-1 {
        fill: #fff6a4;
      }

      .cls-2 {
        fill: #0e124c;
      }

      .cls-3 {
        fill: #283d65;
      }

      .cls-4 {
        fill: #4d628b;
      }

      .cls-5 {
        fill: #4e638b;
      }
    </style>
  </defs>
  <g id="Layer_1-2" data-name="Layer 1">
    <g>
      <path class="cls-3" d="m344.18,100.53c-2.03.43-3.89,1.37-5.85,1.99-2.48.78-4.97,1.63-7.34,2.59-2.37.96-4.77,1.88-7.16,2.77-2.82,1.05-5.55,2.38-8.46,3.18-.37.1-.76.31-.95.72-.6-.07-1.15.15-1.69.36-2.67,1.02-5.31,2.13-8.01,3.08-3.58,1.27-7.09,2.74-10.7,3.93-2.53.84-4.98,1.94-7.49,2.86-4.78,1.75-9.65,3.28-14.35,5.2-6.78,2.78-13.74,5.08-20.57,7.72-4.55,1.76-9.17,3.36-13.74,5.07-3.53,1.32-7.07,2.63-10.59,3.99-5.83,2.25-11.72,4.33-17.59,6.49-5.44,2-10.86,4.07-16.33,5.98-2.05.72-4.12,1.61-6.4,1.29,0-51.77,0-103.53,0-155.3,0-.75.03-1.49.26-2.21,1.18-.38,2.34-.29,3.52.04,1.75.49,3.63.88,5.18,1.64,3.09,1.51,6.41,2.28,9.52,3.65,2.26.99,4.58,1.88,6.99,2.53,1.39.38,2.67,1.3,4.09,1.72,4.06,1.18,7.9,2.99,11.95,4.22.18.34.5.22.78.22,1.71,1.07,3.63,1.64,5.52,2.24,1.92.6,3.74,1.45,5.64,2.11,2.34.81,4.58,1.91,7.03,2.47,1.15.27,2.16,1.06,3.29,1.44,3.93,1.34,7.81,2.81,11.69,4.29,3.7,1.41,7.44,2.74,11.15,4.15,2.59.99,5.14,2.15,7.77,2.93,2.59.76,5,1.94,7.56,2.75,2.78.88,5.5,2.07,8.26,3.04,2.55.9,4.98,2.12,7.59,2.85,2.07.58,4.03,1.47,6.04,2.23,2.16.83,4.31,1.7,6.57,2.32,1.41.39,2.68,1.26,4.1,1.72,3.76,1.21,7.4,2.73,11.1,4.1,3.61,1.33,7.22,2.66,10.84,3.98,2.68.98,5.27,2.23,7.98,3.07,2.91.9,5.67,2.2,8.55,3.15,2.61.86,5.24,1.65,7.55,3.18,1.45.96,2.69,2.17,3.72,3.58,2.49,3.44,3.28,7.24,2.54,11.42-.13.72-.17,1.48-.31,2.21-.07.1-.18.18-.22.29-1.8,4.55-5.03,7.62-9.61,9.32-3.72,1.38-7.43,2.81-11.16,4.16-2.79,1-5.53,2.11-8.25,3.28Z"/>
      <path class="cls-4" d="m187.22.25c-.24.72-.26,1.46-.26,2.21,0,51.77,0,103.53,0,155.3h0c-1.15.04-2.24-.2-3.27-.71.09-.07.21-.22.28-.2.48.13.91.15,1.17-.35.08-.15,0-.35-.18-.41-.45-.13-.89-.11-1.33.1-.37.17-.43.47-.42.82-.75-.17-1.5-.35-2.25-.52.03-.46.39-.44.71-.51.26-.05.47-.21.44-.5-.03-.31-.3-.63-.53-.59-.69.11-1.69-.11-1.62,1.12-.58-.18-1.17-.35-1.75-.53.02-.16.01-.34.07-.48.14-.33.9-.27.56-.88-.31-.57-.77-.23-1.2-.15-.24.05-.58.05-.61-.24-.1-.98-.66-.86-1.39-.75-.67.1-1.4-.06-1.7.79-.2,0-.39-.04-.5-.23-.04-.51,1.04-.97.23-1.43-.68-.38-1.33.05-1.66.79-.02.04-.03.07-.05.11-1.79-.57-3.57-1.19-5.27-1.99.9-.61,1.56.22,2.31.41.53.13.97.28,1.4-.24-1.18-.47-2.04-1.47-3.38-1.32-.21.02-.61-.25-.68-.47-.28-.84-.79-.67-1.38-.44-.22.09-4.06-1.09-4.2-1.27-.02-.03-.04-.08-.04-.12-.06-.6-.5-.58-.92-.57-.68.02-1.22-.18-1.52-.84-.21-.46-.52-.34-.93-.25-.76.18-.74.8-.9,1.34-.9-.03-1.62-.64-2.49-.78,0-.46.47-.52.68-.8.18-.23.4-.46-.05-.65-.71-.31-1.44.11-1.64.97-.48-.31-1.2-.11-1.54-.72.36-.33,1.52-.32.86-1.06-.64-.72-1.91-.59-2.75-1.37-.26-.24-1.41.35-2.49.27.63.45,1.33.4,1.16,1.12-.59-.24-1.18-.48-1.77-.72.19-.42.74-.76.41-1.31-.2-.33-.6-.23-.91-.2-.58.05-1.04.27-.98.98-.58-.18-1.17-.35-1.75-.53,0-.37.33-.4.56-.57.26-.19.49-.49.29-.85-.16-.29-.49-.38-.76-.27-.79.32-1.32.29-1.5-.72-.06-.33-.45-.24-.75-.14-.6.2-1.25.07-1.63-.31-.44-.44.51-.64.43-1.11,0-.04-.03-.07-.08-.15-1.03.4-2.2.54-2.83,1.65-1.16-.2-2.2-.73-3.25-1.23,0-.29-.05-.59.03-.86.26-.86.16-1.27-.89-.96-.58.17-1.18-.04-1.51-.58-.23-.37-.46-.88-.87-.56-.62.49-1.85-.08-2,1.16-.5-.25-.89-.71-1.5-.73.07-.14.12-.31.22-.42.18-.18.69.03.64-.41-.05-.42-.45-.4-.79-.42-.4-.02-.93.14-1.15-.28-.64-1.22-2.56-.39-2.99-1.91,0-.01-.3.05-.46.08-.96.2-.92.86-.73,1.59-1.06.06-1.77-.85-2.75-1,0-.46.46-.53.68-.8.24-.3.41-.62-.16-.66-.72-.05-1.57-.22-1.52.97-.79-.14-1.62-.14-2.26-.73.24-.33.59-.24.91-.26.36-.02.8.06.81-.51,0-.48-.43-.39-.69-.54-.47-.27-1.19.06-1.45-.5-.3-.64-.62-.7-1.27-.52-.76.22-.84.69-.8,1.32-.63-.14-1.27-.26-1.77-.72.37-.36.77-.78.41-1.27-.33-.46-.89-.27-1.36-.13-.72.21-.3.71-.28,1.11-.75-.25-1.5-.5-2.25-.75,0-.59.64-.43.88-.75.15-.19.38-.36.24-.64-.09-.2-.29-.35-.5-.31-.75.12-1.67.06-1.63,1.23-.68-.22-1.4-.33-2-.75.23-.92.69-.21,1.02-.12.39.1.64.1.75-.34.08-.31.35-.78-.06-.86-.69-.14-1.44-.15-2.12-.02-.47.09-.3.69-.34,1.09-.33-.09-.66-.18-1-.28.27-.8.99-1.32,1.5-2.28-1.13.48-2.44.23-2.5,1.81-.4-.27-.8-.45-1.3-.56-.85-.17-1.75-.33-2.45-.95.48-.66,1.52.57,1.89-.62-.56-.25-1.61.19-1.55-1.06.02-.36-.52-.17-.84-.12-.63.11-1.31.05-1.66-.52-.23-.38-.38-.92-.82-.6-.57.41-1.74-.03-1.77,1.17-.67-.03-1.05-.76-1.75-.74.07-.14.12-.3.22-.42.18-.2.8.05.61-.52-.13-.37-.54-.29-.87-.32-.39-.04-.99.2-1.1-.27-.2-.84-.77-.7-1.33-.73-.43-.02-.83-.17-1.04-.56-.4-.72-.97-.66-1.57-.36-.74.37-.18.93-.17,1.41-1.11.19-1.71-1.01-2.75-1,.08-.18.15-.38.24-.55.14-.27.81-.08.61-.58-.19-.48-.7-.4-1.09-.3-.47.13-.98.29-1.01.93-.68-.22-1.46-.14-2.01-.72.19-.29.49-.26.78-.26.33,0,.77.02.83-.37.08-.55-.51-.42-.79-.56-.41-.2-1.14.09-1.23-.57-.14-1-.68-.62-1.24-.51-.82.17-.78.67-.59,1.28-.62-.04-1.19-.27-1.74-.53.04-.16.06-.32.12-.47.13-.39.31-.86-.07-1.13-.41-.29-.93-.17-1.39.04-.62.28-.11.7-.15,1.05l-2.25-.75c0-.59.64-.43.88-.75.15-.19.38-.36.24-.64-.09-.2-.29-.35-.5-.31-.75.12-1.67.05-1.63,1.23-.68-.22-1.4-.33-2-.75.23-.92.69-.21,1.02-.12.39.1.64.1.75-.34.08-.31.35-.78-.06-.86-.69-.14-1.44-.15-2.12-.02-.47.09-.3.69-.34,1.09-.31-.19-.63-.29-1-.28.08-.18.11-.42.24-.54.34-.31.79-.63.29-1.07-.36-.31-.85-.12-1.25.13-.39.25-.25.65-.29,1-.92-.93-2.16-1.03-3.33-1.34-.07-.02-.12-.11-.18-.16.37-.6.21-1.37.67-1.97.22-.28-.05-.54-.45-.39-.31.11-.63.2-.93.35-1.62.82-1.88.69-2.11-1.13-.04-.29-.14-.48-.39-.55-.13-.03-.42.09-.42.13.06.99-1.06.93-1.37,1.57-.17-.04-.35-.09-.52-.13-.07-.04-.14-.09-.21-.13l-7.02-2.54c-.16-.46.58-1.03,0-1.34-.52-.28-.95.31-1.4.58-.07.04-.15.07-.22.11-3.47-1.27-6.93-2.53-10.4-3.8-7.52-2.76-15.04-5.52-22.55-8.28-.15-.06-.29-.16-.44-.24-.06-.32.16-.78-.32-.91-.37-.1-.56.2-.7.5-2.75-1.02-5.59-1.82-8.1-3.4-1.23-.77-2.39-1.64-3.22-2.87.29-.15.64-.27.46-.71-.04-.09-.18-.2-.27-.2-.42-.01-.33.38-.43.61-.88-.94-1.53-2.02-2-3.22.29-.06.65-.1.52-.51-.14-.42-.56-.22-.87-.27-.74-1.76-1.11-3.58-1.01-5.5q1.95-.55,1.41-2.3s-.04-.08-.04-.12c-.1-1.01-.71-2.18.84-2.68.11-.04.23-.27.22-.4-.06-.72.34-1.23.7-1.8.2-.32.79-1.01-.23-1.23.16-.41.43-.74.8-.98.68,0,.98.23.5.88-.2.28-.25.53.06.74.29.2.49.03.75-.16.52-.37.77-1.05,1.28-1.3,1.21-.61.25-.95-.13-1.22-.3-.22-.78-.19-1.18-.27.83-.89,1.84-1.54,2.94-2.06.05.34.13.72.58.57.52-.17.75-.6.71-1.15,1.04-.78,2.33-.97,3.5-1.46.02.27-.03.65.36.63.54-.02.36-.64.63-.9.37-.12.74-.24,1.11-.36,1.58.61,1.99.45,2.15-.85.18-.07.26-.34.51-.27.12.11.19.05.24-.08.03-.14.08-.24.25-.15,1.06.82,2.93.21,3.25-1.06.71-.37,1.46-.63,2.25-.8.06.33-.17.78.29.95.37.14.6-.16.78-.42.28-.39.12-.67-.28-.86.41-.18.81-.37,1.22-.55.54.57.93.66.99-.31.45-.32.97-.42,1.48-.55.05,1.04.57.9,1.18.45.38-.28.31-.72.34-1.12.49-.48,1.19-.26,1.74-.52.23.31.41.78.89.59.46-.18.33-.67.35-1.05.23-.18.46-.36.78-.31.45-.28,1.45.95,1.46-.54.26-.33.7-.2,1.01-.41.05.35.27.47.6.42.46-.07.38-.44.39-.75,1-.39,2.01-.78,3.01-1.16.04.29.16.65.47.57.5-.14.52-.64.53-1.08.42-.09.84-.18,1.26-.26,1.01.97,2.11.54,2.49-.98.79-.39,1.62-.67,2.47-.86q1.25.75,1.77-.64c.37-.12.74-.24,1.11-.36,1.58.61,1.99.45,2.15-.85.18-.07.26-.34.51-.27.12.11.19.05.24-.08.03-.14.08-.24.25-.15,1.06.82,2.93.21,3.25-1.06.71-.37,1.46-.63,2.25-.8.06.33-.17.78.29.95.37.14.6-.16.78-.42.28-.39.12-.67-.28-.86.41-.18.81-.37,1.22-.55.54.57.93.66.99-.31.45-.32.97-.42,1.48-.55.03.32-.04.69.43.75.37.05.68-.11.84-.4.21-.39.33-.83.49-1.24.5-.1,1.01-.2,1.51-.3.23.31.41.78.89.59.46-.18.33-.67.35-1.05.23-.18.46-.36.78-.31.45-.28,1.45.95,1.46-.54.4-.22.79-.45,1.27-.45.04.26.13.5.45.42.38-.1.26-.45.28-.71,1-.39,2.01-.78,3.01-1.16.07.41.27.79.73.6.49-.2.19-.73.27-1.11.42-.09.84-.18,1.26-.27,1.01.97,2.11.54,2.49-.98.75-.26,1.5-.52,2.25-.78.88.88,1.46.67,1.99-.73.37-.12.74-.24,1.11-.36,1.58.61,1.99.45,2.15-.85.18-.07.26-.35.52-.27.93.52,1.83-.04,2.73-.13.58-.06,1.08-.42,1-1.16.51-.3,1.06-.5,1.65-.57.17.12.38.21.49.37.3.46.62.53,1.01.15.39-.39.51-.77-.09-1.08.41-.19.81-.37,1.22-.56.54.57.93.66.99-.31.45-.32.97-.42,1.49-.55.05,1.04.57.9,1.18.45.38-.28.31-.72.34-1.12.49-.48,1.19-.26,1.74-.52.23.31.41.78.89.59.46-.18.33-.67.35-1.05.23-.18.46-.36.78-.31.45-.28,1.45.95,1.46-.54.26-.33.7-.2,1.01-.41.05.35.27.47.6.42.46-.07.38-.44.39-.75,1-.39,2.01-.78,3.01-1.16.07.41.27.79.73.6.49-.2.19-.73.27-1.12.42-.09.84-.18,1.26-.26,1.01.97,2.11.54,2.49-.98.75-.26,1.5-.52,2.26-.78.88.88,1.46.67,1.99-.73.37-.12.74-.24,1.11-.36,1.58.61,1.99.45,2.15-.85.18-.07.26-.35.52-.27.93.52,1.83-.04,2.73-.13.58-.06,1.08-.42,1-1.16.71-.37,1.46-.63,2.25-.8.06.33-.17.78.29.95.37.14.6-.16.78-.42.28-.39.12-.67-.28-.86.41-.18.81-.37,1.22-.55.54.57.93.66.99-.31.45-.32.97-.42,1.48-.55.03.32-.04.69.43.75.37.05.68-.11.84-.4.21-.39.33-.83.49-1.24.5-.1,1.01-.2,1.51-.3.23.31.41.78.89.59.46-.18.33-.67.35-1.05.23-.18.46-.36.78-.31.45-.28,1.45.95,1.46-.54.4-.22.79-.45,1.27-.45.04.26.13.5.45.42.38-.1.26-.45.28-.71,1-.39,2.01-.78,3.01-1.16.07.41.27.79.73.6.49-.2.19-.73.27-1.11.42-.09.84-.18,1.26-.27,1.01.97,2.11.54,2.49-.98.75-.26,1.5-.52,2.25-.78.88.88,1.46.67,1.99-.73.37-.12.74-.24,1.11-.36,1.58.61,1.99.45,2.15-.85.18-.07.26-.35.52-.27.93.52,1.83-.04,2.73-.13.58-.06,1.08-.42,1-1.16.51-.3,1.06-.5,1.65-.57.17.12.38.21.49.37.3.46.62.53,1.01.15.39-.39.51-.77-.09-1.08.41-.19.81-.37,1.22-.56.54.57.93.66.99-.31.45-.32.95-.47,1.49-.55-.02.83.36.86.99.54.6-.31.57-.93.77-1.43.5-.1,1-.2,1.51-.3,0,.48.05.95.67.92.52-.03.58-.47.58-.9,0-.16,0-.32,0-.48.23-.18.46-.36.78-.31.54-.04,1.42.86,1.46-.54.4-.22.79-.45,1.27-.45.44.39.66.24.73-.3.79-.44,1.64-.69,2.51-.9.2.6.76.66,1.15.51.55-.21.29-.84.34-1.29.25-.03.49-.05.74-.08.05.37.14.79.62.66.48-.13.38-.63.4-1.01,1.57-.34,3.12-.88,4.75-.41Zm-121.16,112.03c.28-.07.78.04.77-.49-.01-.4-.44-.25-.7-.27-.33-.02-.74.02-.78.41-.04.42.39.29.71.34Zm-8.48-4.11c-.45.11-.99-.09-1.29.41-.08.14.02.35.21.37.55.04.84-.33,1.08-.78ZM183.65,2.09c-.08-.3-.33-.3-.58-.27-.26.03-.51.15-.48.44.04.34.36.26.58.26.26,0,.49-.07.47-.43ZM40.86,102.6c-.02-.27-.2-.32-.42-.32-.26,0-.5.08-.59.34-.09.27.11.35.33.37.31.02.56-.07.68-.39Zm93.57,36.12c.38.03.6-.1.67-.37.05-.19-.11-.33-.29-.3-.27.04-.61.06-.65.41-.01.09.21.2.26.26ZM169.61,7.73c.19-.02.3-.15.3-.32,0-.17-.1-.32-.29-.32-.24,0-.38.13-.35.38.02.2.17.25.34.26Zm-54.03,20c.15-.03.31-.07.32-.28.01-.18-.05-.32-.24-.36-.25-.05-.39.08-.4.32,0,.18.12.29.32.32ZM29.67,59.66c.05-.09.18-.21.2-.35.03-.22-.16-.25-.33-.24-.2.02-.27.17-.27.34,0,.21.13.27.4.25Zm16.26-6.28c0-.21-.15-.31-.31-.24-.12.05-.26.21-.28.34-.04.21.16.25.32.24.2-.01.26-.16.27-.34Zm2.66-1.27c-.28.03-.32.18-.31.35.02.2.16.27.33.27.2,0,.3-.14.24-.31-.05-.13-.19-.22-.27-.3ZM150.59,14.69c.3-.02.33-.18.32-.35-.02-.2-.16-.27-.34-.27-.21,0-.31.14-.24.32.05.13.2.22.26.3Zm-69.67,25.65c-.03-.2-.17-.27-.34-.27-.21,0-.31.14-.24.31.05.12.21.26.34.28.21.04.24-.16.24-.32Zm18.66-6.65c.07-.07.22-.17.27-.3.06-.17-.03-.32-.24-.32-.17,0-.32.07-.34.27-.01.17.02.33.31.35Zm54.13-20.33c-.1-.08-.18-.2-.25-.19-.08,0-.19.13-.2.22-.02.16.06.32.26.27.08-.02.12-.17.19-.29Zm5.32-1.85c-.14-.19-.21-.28-.27-.36-.08.06-.21.11-.23.19-.05.15-.01.33.2.32.1,0,.19-.09.3-.15ZM8.5,90.97c.08-.15.17-.24.18-.33,0-.17-.1-.31-.28-.24-.07.03-.12.2-.11.29,0,.08.12.15.22.27ZM124.03,24.5c-.14-.19-.21-.28-.27-.36-.08.06-.21.11-.23.19-.05.15-.01.33.2.32.1,0,.19-.09.3-.15Zm18.52-7.48c-.09.09-.21.17-.21.25,0,.07.13.19.21.2.16.02.33-.04.28-.25-.02-.08-.16-.12-.28-.2Zm-77.83,29.32c-.1-.08-.18-.2-.25-.19-.08,0-.19.13-.2.22-.02.16.06.32.26.27.08-.02.12-.17.19-.29Zm70-25.98c-.09-.09-.17-.21-.25-.21-.07,0-.19.13-.2.21-.02.16.04.33.25.28.08-.02.12-.16.2-.28Zm-61.8,22.93c-.12-.1-.2-.21-.28-.21-.1,0-.27.05-.29.12-.06.19.08.29.25.28.09,0,.18-.1.32-.18Zm10.54-3.56c.09-.13.2-.21.2-.3,0-.1-.07-.26-.14-.28-.2-.06-.28.1-.26.27,0,.09.1.17.2.31Zm4.94-2.44c.14.19.21.28.27.36.08-.06.21-.11.23-.19.05-.15.01-.33-.2-.32-.1,0-.19.09-.3.15Zm19.13-6.86c.03-.07.1-.15.08-.2-.02-.05-.13-.06-.2-.09-.03.07-.1.15-.08.2.02.05.13.06.2.09Zm11.09-3.97c-.07-.03-.15-.1-.2-.08-.05.02-.06.13-.09.2.07.03.15.1.2.08.05-.02.06-.13.09-.2ZM18.88,63.2c-.07-.03-.15-.1-.2-.08-.05.02-.07.13-.1.2.07.03.15.1.2.08.05-.02.07-.13.1-.2ZM177.77,4.44c.03-.07.1-.15.08-.2-.02-.05-.13-.06-.2-.09-.03.07-.1.15-.08.2.02.05.13.06.2.09ZM37.4,56.13c-.03.07-.06.14-.09.21.07.03.15.1.2.08.05-.02.06-.13.09-.2-.07-.03-.14-.06-.21-.09Zm16.38-5.69c.03-.07.1-.15.08-.2-.02-.05-.13-.06-.2-.09-.03.07-.1.15-.08.2.02.05.13.06.2.09Zm91.84-33.97c-.07-.03-.15-.1-.2-.08-.05.02-.06.13-.09.2.07.03.15.1.2.08.05-.02.06-.13.09-.2Zm-70.09,26.22c.03-.07.1-.15.08-.2-.02-.05-.13-.06-.2-.09-.03.07-.1.15-.08.2.02.05.13.06.2.09Z"/>
      <path class="cls-2" d="m186.96,157.76c2.28.32,4.35-.58,6.4-1.29,5.47-1.91,10.89-3.98,16.33-5.98,5.87-2.16,11.76-4.24,17.59-6.49,3.52-1.36,7.06-2.67,10.59-3.99,4.57-1.71,9.19-3.32,13.74-5.07,6.83-2.64,13.79-4.94,20.57-7.72,4.7-1.93,9.57-3.46,14.35-5.2,2.51-.92,4.95-2.02,7.49-2.86,3.61-1.19,7.12-2.66,10.7-3.93,2.69-.95,5.34-2.06,8.01-3.08.54-.21,1.09-.43,1.69-.36.01,2.62.04,5.25.04,7.87,0,28.54,0,57.07,0,85.61,0,2.87-.25,5.67-1.48,8.33-1.59,3.45-4.23,5.82-7.57,7.48-7.17,3.55-14.59,6.53-22.04,9.42-2.52.98-5.1,1.81-7.64,2.74-5.84,2.12-11.84,3.73-17.83,5.36-3.72,1.01-7.44,2.08-11.21,2.87-3.49.73-6.95,1.73-10.47,2.18-2.69.34-5.31,1.12-8.05,1.17-1.46.03-2.91.51-4.37.71-1.89.27-3.83.34-5.69.74-3.31.71-6.71.27-10.04.92-1.45.28-3.03.29-4.55.37-5.52.3-11.04.2-16.56.17,0-29.98,0-59.96,0-89.94h0Z"/>
      <path class="cls-3" d="m186.96,157.76c0,29.98,0,59.96,0,89.94-5.85.21-11.7-.22-17.55-.28-3.82-.04-7.62-.88-11.45-1.14-3.26-.22-6.47-.82-9.72-1.11-3.26-.29-6.46-1.15-9.7-1.66-6.95-1.09-13.76-2.83-20.58-4.53-2.82-.7-5.61-1.51-8.4-2.33-10.39-3.03-20.44-7-30.45-11.07-4.22-1.72-8.39-3.65-12.34-5.91-3.78-2.17-5.93-5.75-6.8-10.07-.36-1.77-.28-3.55-.28-5.33-.03-30.35-.03-60.71-.03-91.06,0-.5.06-.99.1-1.49.07-.06.14-.12.22-.18,1.35.09,2.43,1.01,3.73,1.23.06.06.11.14.18.16,1.16.31,2.41.41,3.33,1.34.33.16.67.32,1,.47.36-.02.69.09,1,.28.18.29.48.22.75.25.6.42,1.32.53,2,.75.33.16.67.32,1,.47.75.25,1.5.5,2.25.75.5.17,1,.34,1.5.51.56.26,1.12.5,1.74.53.71.41,1.42.83,2.25.99.55.58,1.33.51,2.01.72.42.17.83.33,1.25.5,1.04,0,1.64,1.19,2.75,1,1.71.7,3.41,1.45,5.25,1.77.7-.02,1.08.71,1.75.74,1.55.66,3.04,1.51,4.74,1.77.7.62,1.6.77,2.45.95.5.1.91.28,1.3.56.33.16.67.32,1,.47.33.09.66.18,1,.28.18.29.48.22.75.25.6.42,1.32.53,2,.75.33.16.67.32,1,.47.75.25,1.5.5,2.25.75.41.1.82.2,1.23.29.5.46,1.14.57,1.77.72.84.31,1.59.86,2.49,1.02.64.59,1.47.6,2.26.73.33.16.67.33,1,.49.98.15,1.69,1.05,2.75,1,1.71.7,3.41,1.45,5.25,1.77.61.02,1,.48,1.5.73.5.16.98.36,1.47.56,1.22.5,2.39,1.19,3.77,1.23,1.05.5,2.09,1.03,3.25,1.23,1.98,1.09,4.21,1.55,6.26,2.47.58.18,1.17.35,1.75.53.47.23.93.53,1.48.52.59.24,1.18.48,1.77.72,1.06.38,2.04,1,3.21,1.03.34.61,1.06.4,1.54.72.33.16.67.32,1,.48.87.14,1.59.76,2.49.78,3.35,1.42,6.75,2.69,10.23,3.76,1.71.79,3.48,1.42,5.27,1.99.43.36.95.46,1.49.53.12.19.3.22.5.23,1.3.88,2.91.97,4.26,1.71.58.18,1.17.35,1.75.53.33.16.67.32,1,.47.75.17,1.5.35,2.25.52.16.01.32.03.48.04,1.03.52,2.12.75,3.27.71Z"/>
      <path class="cls-1" d="m344.18,100.53c2.72-1.17,5.46-2.27,8.25-3.28,3.74-1.35,7.44-2.78,11.16-4.16,4.58-1.7,7.81-4.77,9.61-9.32.04-.11.15-.2.22-.29.62.42.53,1.07.53,1.69,0,10.91,0,21.82,0,32.73,0,15.16.01,30.32-.02,45.48,0,3.16,6.3,13.71,4.43,16.37-2.25,3.21-12.25-2.27-15.99-1.28-8.49,2.26-19.31,9.93-20.42,1.18-.17-1.37,1.99-16.81,1.99-18.18,0-19.57,0-39.15,0-58.72,0-.75,0-1.5.24-2.22Z"/>
      <path class="cls-5" d="m2.92,70c1.02.22.43.9.23,1.23-.36.57-.75,1.07-.7,1.8.01.13-.11.37-.22.4-1.55.5-.94,1.67-.84,2.68,0,.04.03.08.04.12q.53,1.75-1.41,2.3c-.04-3.18.98-6,2.9-8.52Z"/>
      <path class="cls-5" d="m63.71,112.77c-1.31-.22-2.38-1.14-3.73-1.23-.15-.05-.31-.11-.46-.16-.27-.2-.54-.4-.81-.61.31-.64,1.43-.58,1.37-1.57,0-.04.29-.16.42-.13.26.06.36.26.39.55.22,1.83.48,1.95,2.11,1.13.29-.15.62-.24.93-.35.4-.14.67.11.45.39-.46.6-.3,1.37-.67,1.97Z"/>
      <path class="cls-5" d="m5,67.69c.4.08.88.05,1.18.27.38.27,1.33.61.13,1.22-.5.25-.76.93-1.28,1.3-.26.18-.46.36-.75.16-.31-.21-.26-.46-.06-.74.47-.65.18-.88-.5-.88.05-.81.89-.86,1.29-1.33Z"/>
      <path class="cls-5" d="m126.22,21.55c.08.74-.42,1.1-1,1.16-.9.09-1.8.66-2.73.13,1.22-.51,2.42-1.05,3.73-1.29Z"/>
      <path class="cls-5" d="m161.21,8.56c.08.74-.42,1.1-1,1.16-.9.09-1.8.66-2.73.13,1.22-.51,2.42-1.05,3.73-1.29Z"/>
      <path class="cls-5" d="m91.22,34.55c.08.74-.42,1.1-1,1.16-.9.09-1.8.66-2.73.13,1.22-.51,2.42-1.05,3.73-1.29Z"/>
      <path class="cls-5" d="m56.22,47.55c-.32,1.27-2.19,1.88-3.25,1.06,1.1-.29,2.09-.94,3.25-1.06Z"/>
      <path class="cls-5" d="m21.22,60.55c-.32,1.27-2.19,1.88-3.25,1.06,1.1-.29,2.09-.94,3.25-1.06Z"/>
      <path class="cls-5" d="m79.47,38.83c-.38,1.51-1.49,1.95-2.49.98.77-.49,1.66-.67,2.49-.98Z"/>
      <path class="cls-5" d="m114.47,25.83c-.38,1.51-1.48,1.95-2.49.98.77-.49,1.66-.67,2.49-.98Z"/>
      <path class="cls-5" d="m149.46,12.84c-.38,1.51-1.49,1.95-2.49.98.77-.49,1.66-.67,2.49-.98Z"/>
      <path class="cls-5" d="m44.47,51.83c-.38,1.51-1.48,1.95-2.49.98.77-.49,1.66-.67,2.49-.98Z"/>
      <path class="cls-5" d="m134.71,18.11c-.16.42-.28.85-.49,1.24-.16.3-.47.45-.84.4-.47-.06-.41-.44-.43-.75.69-.09,1.02-.9,1.76-.89Z"/>
      <path class="cls-5" d="m64.72,44.1c-.16.42-.28.85-.49,1.24-.16.3-.47.45-.84.4-.47-.06-.41-.44-.43-.75.69-.09,1.02-.9,1.76-.89Z"/>
      <path class="cls-5" d="m169.71,5.11c-.2.51-.18,1.12-.77,1.43-.63.33-1.01.29-.99-.54.69-.09,1.02-.9,1.76-.9Z"/>
      <path class="cls-5" d="m118.71,24.33c-.52,1.4-1.11,1.61-1.99.73.63-.34,1.26-.67,1.99-.73Z"/>
      <path class="cls-5" d="m153.7,11.33c-.52,1.4-1.11,1.61-1.99.73.63-.34,1.26-.67,1.99-.73Z"/>
      <path class="cls-5" d="m83.71,37.32c-.52,1.4-1.11,1.61-1.99.73.63-.34,1.26-.67,1.99-.73Z"/>
      <path class="cls-5" d="m49.36,107.31c.07-.03.15-.06.22-.11.44-.27.88-.86,1.4-.58.57.31-.17.88,0,1.34-.58-.1-1.12-.32-1.61-.66Z"/>
      <path class="cls-5" d="m29.49,57.33c-.02.4.04.84-.34,1.12-.61.45-1.13.59-1.18-.45.51-.22,1.02-.45,1.52-.67Z"/>
      <path class="cls-5" d="m86.97,36.11c-.16,1.3-.57,1.47-2.15.85.68-.38,1.38-.69,2.15-.85Z"/>
      <path class="cls-5" d="m172.46,4.35c0,.16,0,.32,0,.48,0,.43-.06.87-.58.9-.61.03-.68-.44-.67-.92.41-.17.73-.57,1.24-.46Z"/>
      <path class="cls-5" d="m156.96,10.12c-.16,1.3-.57,1.47-2.15.85.68-.38,1.38-.69,2.15-.85Z"/>
      <path class="cls-5" d="m99.48,31.33c-.02.4.04.84-.34,1.12-.61.45-1.13.59-1.18-.45.51-.22,1.02-.45,1.52-.67Z"/>
      <path class="cls-5" d="m121.97,23.11c-.16,1.3-.57,1.47-2.15.85.68-.38,1.38-.69,2.15-.85Z"/>
      <path class="cls-5" d="m51.97,49.11c-.16,1.3-.57,1.47-2.15.85.68-.38,1.38-.7,2.15-.85Z"/>
      <path class="cls-5" d="m16.98,62.11c-.16,1.3-.57,1.47-2.15.85.68-.38,1.38-.7,2.15-.85Z"/>
      <path class="cls-5" d="m94.27,33.42c.6.31.49.69.09,1.08-.39.38-.71.31-1.01-.15-.1-.16-.32-.25-.49-.37.42-.32.91-.43,1.4-.56Z"/>
      <path class="cls-5" d="m180.71,1.08c-.06.46.21,1.08-.34,1.29-.4.15-.96.09-1.15-.51.5-.26,1-.52,1.5-.78Z"/>
      <path class="cls-5" d="m164.26,7.42c.6.31.49.69.09,1.08-.39.38-.71.31-1.01-.15-.1-.16-.32-.25-.49-.37.42-.32.91-.43,1.4-.56Z"/>
      <path class="cls-5" d="m24.27,59.41c.4.19.55.47.28.86-.19.26-.42.56-.78.42-.46-.17-.23-.62-.29-.95.27-.11.53-.22.8-.33Z"/>
      <path class="cls-5" d="m59.27,46.41c.4.19.55.47.28.86-.19.26-.42.56-.78.42-.46-.17-.23-.62-.29-.95.27-.11.53-.22.8-.33Z"/>
      <path class="cls-5" d="m129.26,20.42c.4.19.55.47.28.86-.19.26-.42.56-.78.42-.46-.17-.23-.62-.29-.95.27-.11.53-.22.8-.33Z"/>
      <path class="cls-5" d="m48.71,50.32q-.51,1.4-1.77.64c.55-.32,1.11-.61,1.77-.64Z"/>
      <path class="cls-5" d="m67.47,43.34c-.02.39.11.88-.35,1.05-.48.19-.67-.28-.89-.59.41-.17.73-.56,1.24-.46Z"/>
      <path class="cls-5" d="m102.47,30.35c-.02.39.11.88-.35,1.05-.48.19-.67-.28-.89-.59.41-.17.73-.56,1.24-.46Z"/>
      <path class="cls-5" d="m32.47,56.34c-.02.39.11.88-.35,1.05-.48.19-.67-.28-.89-.59.41-.17.73-.56,1.24-.46Z"/>
      <path class="cls-5" d="m137.46,17.35c-.02.39.11.88-.35,1.05-.48.19-.67-.28-.89-.59.41-.17.73-.56,1.24-.46Z"/>
      <path class="cls-5" d="m182.46.65c-.02.39.09.88-.4,1.01-.48.13-.56-.29-.62-.66.27-.31.65-.32,1.01-.35Z"/>
      <path class="cls-5" d="m75.72,40.07c-.08.38.22.91-.27,1.11-.45.19-.66-.19-.73-.6.39-.06.54-.59,1-.51Z"/>
      <path class="cls-5" d="m110.72,27.08c-.08.38.22.91-.27,1.12-.45.19-.66-.19-.73-.6.39-.06.54-.59,1-.51Z"/>
      <path class="cls-5" d="m145.71,14.08c-.08.38.22.91-.27,1.11-.45.19-.66-.19-.73-.6.39-.06.54-.59,1-.51Z"/>
      <path class="cls-5" d="m9.23,65.05c.04.56-.19.98-.71,1.15-.45.15-.53-.23-.58-.57.43-.19.86-.39,1.29-.58Z"/>
      <path class="cls-5" d="m174.7,3.5c-.04,1.4-.92.5-1.46.54.32-.64.94-.44,1.46-.54Z"/>
      <path class="cls-5" d="m40.72,53.07c0,.45-.03.95-.53,1.08-.31.08-.43-.28-.47-.57.39-.06.54-.59,1-.51Z"/>
      <path class="cls-5" d="m34.71,55.5c0,1.48-1.01.26-1.46.54.32-.64.94-.44,1.46-.54Z"/>
      <path class="cls-5" d="m139.7,16.5c0,1.48-1.01.26-1.46.54.32-.64.94-.44,1.46-.54Z"/>
      <path class="cls-5" d="m69.71,42.5c0,1.48-1.01.26-1.46.54.32-.64.94-.44,1.46-.54Z"/>
      <path class="cls-5" d="m104.71,29.5c0,1.48-1.01.26-1.46.54.32-.64.94-.44,1.46-.54Z"/>
      <path class="cls-5" d="m14.95,94.58c.14-.3.33-.6.7-.5.48.13.26.59.32.91-.39-.02-.73-.16-1.02-.41Z"/>
      <path class="cls-5" d="m106.71,28.75c-.01.31.06.67-.39.75-.33.05-.55-.07-.6-.42.33-.11.66-.22.99-.33Z"/>
      <path class="cls-5" d="m13.72,63.32c-.27.26-.1.88-.63.9-.39.02-.34-.36-.36-.63.36.03.59-.43.99-.27Z"/>
      <path class="cls-5" d="m36.71,54.75c-.01.31.06.67-.39.75-.33.05-.55-.07-.6-.42.33-.11.66-.22.99-.33Z"/>
      <path class="cls-5" d="m1.03,84.02c.3.05.73-.14.87.27.14.41-.23.45-.52.51-.12-.26-.23-.52-.35-.78Z"/>
      <path class="cls-5" d="m3.38,88.01c.1-.24.01-.62.43-.61.1,0,.24.11.27.2.18.44-.17.56-.46.71-.08-.1-.17-.2-.25-.3Z"/>
      <path class="cls-5" d="m96.48,32.55c-.06.97-.45.88-.99.31.36,0,.59-.43.99-.31Z"/>
      <path class="cls-5" d="m26.48,58.55c-.06.97-.45.88-.99.31.36,0,.59-.43.99-.31Z"/>
      <path class="cls-5" d="m166.47,6.56c-.06.97-.45.88-.99.31.36,0,.59-.43.99-.31Z"/>
      <path class="cls-5" d="m141.7,15.76c-.02.27.09.61-.28.71-.32.09-.41-.15-.45-.42.18-.27.49-.19.74-.3Z"/>
      <path class="cls-5" d="m61.48,45.55c-.06.97-.45.88-.99.31.36,0,.59-.43.99-.31Z"/>
      <path class="cls-5" d="m131.47,19.55c-.06.97-.45.88-.99.31.36,0,.59-.43.99-.31Z"/>
      <path class="cls-5" d="m71.71,41.75c-.02.27.09.61-.28.71-.32.09-.41-.15-.45-.42.18-.27.49-.19.74-.3Z"/>
      <path class="cls-5" d="m176.7,2.76c-.07.53-.29.69-.73.3.17-.27.49-.19.73-.3Z"/>
      <path class="cls-4" d="m229.24,14.26c-.28,0-.6.12-.78-.22.43-.54.55.02.78.22Z"/>
      <path class="cls-1" d="m59.52,111.38c.15.05.31.11.46.16-.07.06-.15.12-.22.18-.19-.04-.27-.15-.24-.34Z"/>
      <path class="cls-5" d="m57.99,110.51c.07.04.14.09.21.13-.07-.04-.14-.09-.21-.13Z"/>
      <path class="cls-5" d="m17.72,61.76c-.05.13-.11.19-.24.08.08-.02.16-.05.24-.08Z"/>
      <path class="cls-5" d="m52.72,48.77c-.05.13-.11.19-.24.08.08-.02.16-.05.24-.08Z"/>
      <path class="cls-5" d="m166.68,151.03c-3.48-1.07-6.88-2.34-10.23-3.76.16-.54.13-1.16.9-1.34.41-.1.72-.22.93.25.3.66.84.87,1.52.84.42-.01.86-.03.92.57,0,.04.02.08.04.12.14.18,3.98,1.36,4.2,1.27.58-.24,1.1-.4,1.38.44.07.22.46.49.68.47,1.34-.15,2.2.85,3.38,1.32-.43.52-.87.37-1.4.24-.76-.19-1.42-1.02-2.31-.41Z"/>
      <path class="cls-5" d="m143.21,142.48c-2.05-.92-4.28-1.37-6.26-2.47.63-1.12,1.8-1.26,2.83-1.65.05.09.07.12.08.15.07.47-.88.67-.43,1.11.38.38,1.03.51,1.63.31.29-.1.69-.19.75.14.18,1,.71,1.04,1.5.72.27-.11.6-.03.76.27.2.36-.03.66-.29.85-.23.16-.55.2-.56.57Z"/>
      <path class="cls-5" d="m126.96,136.26c-1.84-.32-3.54-1.07-5.25-1.77-.19-.73-.24-1.39.73-1.59.16-.03.45-.1.46-.08.43,1.52,2.35.69,2.99,1.91.22.42.75.26,1.15.28.33.02.74,0,.79.42.05.44-.46.23-.64.41-.11.11-.15.28-.22.42Z"/>
      <path class="cls-5" d="m91.97,123.27c-1.84-.32-3.54-1.07-5.25-1.77-.02-.48-.58-1.04.17-1.41.6-.3,1.17-.36,1.57.36.22.39.61.53,1.04.56.56.03,1.13-.11,1.33.73.11.47.72.23,1.1.27.33.03.74-.04.87.32.19.57-.43.31-.61.52-.1.11-.15.28-.22.42Z"/>
      <path class="cls-5" d="m98.46,125.77c-1.7-.26-3.19-1.11-4.74-1.77.03-1.2,1.19-.75,1.77-1.17.43-.31.59.23.82.6.35.58,1.03.63,1.66.52.32-.05.86-.25.84.12-.07,1.25.98.82,1.55,1.06-.37,1.19-1.41-.04-1.89.62Z"/>
      <path class="cls-5" d="m133.7,138.79c-1.38-.04-2.55-.73-3.77-1.23-.49-.2-.97-.41-1.47-.56.16-1.24,1.38-.67,2-1.16.41-.32.64.19.87.56.33.53.93.75,1.51.58,1.05-.31,1.15.09.89.96-.08.27-.03.57-.03.86Z"/>
      <path class="cls-5" d="m151.42,145.29c-1.17-.03-2.15-.65-3.21-1.03.17-.72-.54-.67-1.16-1.12,1.08.07,2.23-.51,2.49-.27.84.78,2.1.65,2.75,1.37.66.74-.5.73-.86,1.06Z"/>
      <path class="cls-5" d="m178.21,155.48c-1.35-.74-2.96-.84-4.26-1.71.3-.85,1.03-.69,1.7-.79.73-.11,1.28-.23,1.39.75.03.29.37.29.61.24.42-.08.88-.42,1.2.15.34.61-.43.56-.56.88-.06.15-.05.32-.07.48Z"/>
      <path class="cls-5" d="m115.71,132.27c-.9-.16-1.65-.71-2.49-1.02-.04-.62.04-1.1.8-1.32.65-.18.97-.12,1.27.52.26.56.99.24,1.45.5.27.15.7.06.69.54,0,.57-.45.49-.81.51-.32.02-.68-.06-.91.26Z"/>
      <path class="cls-5" d="m80.71,119.27c-.82-.16-1.54-.57-2.25-.99-.19-.6-.23-1.11.59-1.28.56-.11,1.09-.5,1.24.51.09.65.82.37,1.23.57.29.14.88.01.79.56-.06.38-.5.36-.83.37-.29,0-.59-.03-.78.26Z"/>
      <path class="cls-5" d="m104.96,128.27c-.27-.03-.57.04-.75-.25.04-.4-.14-1,.34-1.09.69-.13,1.44-.12,2.12.02.41.08.13.55.06.86-.11.44-.37.45-.75.34-.33-.09-.79-.8-1.02.12Z"/>
      <path class="cls-5" d="m69.97,115.27c-.27-.03-.57.04-.75-.25.04-.4-.14-1,.34-1.09.69-.13,1.44-.12,2.12.02.41.08.13.55.06.86-.11.44-.37.45-.75.34-.33-.09-.79-.8-1.02.12Z"/>
      <path class="cls-5" d="m103.22,127.75c-.33-.16-.67-.32-1-.47.06-1.58,1.37-1.33,2.5-1.81-.51.96-1.22,1.48-1.5,2.28Z"/>
      <path class="cls-5" d="m107.97,129.5c-.33-.16-.67-.32-1-.47-.04-1.17.88-1.11,1.63-1.23.21-.03.4.11.5.31.13.29-.09.45-.24.64-.24.31-.88.16-.88.75Z"/>
      <path class="cls-5" d="m72.97,116.5c-.33-.16-.67-.32-1-.47-.04-1.17.88-1.11,1.63-1.23.21-.03.4.11.5.31.13.29-.09.45-.24.64-.24.31-.88.16-.88.75Z"/>
      <path class="cls-5" d="m76.72,117.75c-.5-.17-1-.34-1.5-.51.05-.35-.46-.77.15-1.05.47-.21.98-.34,1.39-.04.38.27.2.74.07,1.13-.05.15-.08.31-.12.47Z"/>
      <path class="cls-5" d="m180.96,156.48c-.33-.16-.67-.32-1-.47-.07-1.24.93-1.01,1.62-1.12.24-.04.5.28.53.59.03.29-.19.44-.44.5-.32.07-.68.05-.71.51Z"/>
      <path class="cls-5" d="m146.45,143.54c-.56,0-1.01-.29-1.48-.52-.06-.71.41-.93.98-.98.31-.03.71-.14.91.2.33.55-.21.89-.41,1.31Z"/>
      <path class="cls-5" d="m111.45,130.54c-.41-.1-.82-.2-1.23-.29-.02-.4-.44-.9.28-1.11.48-.14,1.04-.33,1.36.13.35.49-.05.92-.41,1.27Z"/>
      <path class="cls-5" d="m68.22,114.75c-.33-.16-.67-.32-1-.47.04-.35-.1-.75.29-1,.4-.26.89-.44,1.25-.13.5.43.05.76-.29,1.07-.13.12-.16.36-.24.54Z"/>
      <path class="cls-5" d="m173.45,153.54c-.53-.07-1.06-.17-1.49-.53.02-.04.03-.07.05-.11.33-.74.99-1.17,1.66-.79.82.46-.27.92-.23,1.43Z"/>
      <path class="cls-5" d="m83.97,120.5c-.42-.17-.83-.33-1.25-.5.03-.64.54-.81,1.01-.93.39-.11.91-.18,1.09.3.19.5-.47.32-.61.58-.09.18-.16.37-.24.55Z"/>
      <path class="cls-5" d="m118.97,133.5c-.33-.16-.67-.33-1-.49-.05-1.19.81-1.02,1.52-.97.56.04.4.36.16.66-.22.27-.68.34-.68.8Z"/>
      <path class="cls-5" d="m153.96,146.48c-.33-.16-.67-.32-1-.48.2-.86.93-1.28,1.64-.97.44.2.23.42.05.65-.21.28-.68.34-.68.8Z"/>
      <path class="cls-5" d="m183.69,157.04c-.16-.01-.32-.03-.48-.04-.01-.35.05-.65.42-.82.44-.21.88-.22,1.33-.1.18.05.26.26.18.41-.26.51-.7.48-1.17.35-.07-.02-.19.13-.28.2Z"/>
      <path class="cls-5" d="m66.05,112.28c-.32-.05-.74.08-.71-.34.03-.39.44-.43.78-.41.26.02.69-.13.7.27.01.53-.49.41-.77.49Z"/>
      <path class="cls-5" d="m57.58,108.16c-.24.45-.53.81-1.08.78-.19-.01-.29-.23-.21-.37.3-.51.84-.3,1.29-.41Z"/>
      <path class="cls-5" d="m183.65,2.09c.02.36-.21.43-.47.43-.23,0-.55.08-.58-.26-.03-.29.22-.41.48-.44.25-.03.5-.03.58.27Z"/>
      <path class="cls-5" d="m40.86,102.6c-.12.32-.37.41-.68.39-.22-.01-.42-.1-.33-.37.09-.26.33-.34.59-.34.22,0,.4.05.42.32Z"/>
      <path class="cls-5" d="m134.44,138.72c-.06-.05-.27-.17-.26-.26.04-.36.38-.38.65-.41.18-.02.34.11.29.3-.08.26-.29.39-.67.37Z"/>
      <path class="cls-5" d="m169.62,7.73c-.17-.01-.32-.07-.35-.27-.03-.25.1-.38.35-.38.19,0,.3.15.29.32,0,.17-.1.3-.3.32Z"/>
      <path class="cls-5" d="m115.58,27.73c-.2-.03-.32-.14-.32-.32,0-.24.15-.37.4-.32.19.04.25.18.24.36-.02.21-.17.25-.32.28Z"/>
      <path class="cls-5" d="m29.67,59.66c-.27.03-.4-.04-.4-.25,0-.17.07-.32.27-.34.17-.01.36.02.33.24-.02.14-.15.26-.2.35Z"/>
      <path class="cls-5" d="m45.93,53.39c-.02.17-.07.32-.27.34-.17.01-.36-.02-.32-.24.02-.13.16-.29.28-.34.17-.07.3.04.31.24Z"/>
      <path class="cls-5" d="m48.59,52.11c.07.08.22.17.27.3.06.17-.04.31-.24.31-.17,0-.32-.07-.33-.27-.01-.17.03-.32.31-.35Z"/>
      <path class="cls-5" d="m150.59,14.69c-.07-.07-.22-.17-.26-.3-.06-.17.04-.32.24-.32.17,0,.32.07.34.27.01.17-.02.33-.32.35Z"/>
      <path class="cls-5" d="m80.92,40.34c0,.17-.03.36-.24.32-.13-.02-.29-.16-.34-.28-.07-.17.04-.31.24-.31.17,0,.31.07.34.27Z"/>
      <path class="cls-5" d="m99.58,33.69c-.3-.02-.33-.18-.31-.35.02-.2.17-.27.34-.27.21,0,.3.15.24.32-.05.13-.2.22-.27.3Z"/>
      <path class="cls-5" d="m153.71,13.36c-.08.12-.12.27-.19.29-.2.05-.28-.11-.26-.27.01-.08.12-.21.2-.22.07,0,.15.11.25.19Z"/>
      <path class="cls-5" d="m159.03,11.51c-.11.05-.2.14-.3.15-.22,0-.25-.17-.2-.32.02-.08.15-.13.23-.19.06.08.13.17.27.36Z"/>
      <path class="cls-5" d="m8.5,90.97c-.1-.12-.21-.19-.22-.27-.01-.1.04-.27.11-.29.18-.07.29.07.28.24,0,.09-.1.18-.18.33Z"/>
      <path class="cls-5" d="m124.03,24.5c-.11.05-.2.14-.3.15-.22,0-.25-.17-.2-.32.02-.08.15-.13.23-.19.06.08.13.17.27.36Z"/>
      <path class="cls-5" d="m142.55,17.03c.12.08.26.13.28.2.05.21-.12.27-.28.25-.08-.01-.21-.13-.21-.2,0-.07.12-.15.21-.25Z"/>
      <path class="cls-5" d="m64.72,46.35c-.08.12-.12.27-.19.29-.2.05-.28-.11-.26-.27.01-.08.12-.21.2-.22.07,0,.15.11.25.19Z"/>
      <path class="cls-5" d="m134.72,20.37c-.08.12-.13.26-.2.28-.21.05-.27-.12-.25-.28.01-.08.13-.21.2-.21.07,0,.15.12.25.21Z"/>
      <path class="cls-5" d="m72.92,43.3c-.14.09-.23.18-.32.18-.17,0-.31-.09-.25-.28.02-.07.19-.13.29-.12.08,0,.16.11.28.21Z"/>
      <path class="cls-5" d="m83.46,39.74c-.09-.14-.19-.22-.2-.31-.01-.16.06-.32.26-.27.07.02.14.18.14.28,0,.08-.11.17-.2.3Z"/>
      <path class="cls-5" d="m88.4,37.3c.11-.05.2-.14.3-.15.22,0,.25.17.2.32-.02.08-.15.13-.23.19-.06-.08-.13-.17-.27-.36Z"/>
      <path class="cls-5" d="m107.53,30.44c-.07-.03-.18-.05-.2-.1-.02-.05.05-.13.08-.2.07.03.18.04.2.09.02.05-.05.13-.08.2Z"/>
      <path class="cls-5" d="m118.63,26.47c-.03.07-.05.18-.1.2-.05.02-.13-.05-.2-.08.03-.07.04-.18.09-.2.05-.02.13.05.2.08Z"/>
      <path class="cls-5" d="m18.88,63.21c-.03.07-.05.18-.1.2-.05.02-.13-.05-.2-.08.03-.07.05-.18.1-.2.05-.02.13.05.2.08Z"/>
      <path class="cls-5" d="m177.77,4.44c-.07-.03-.18-.05-.2-.1-.02-.05.05-.13.08-.2.07.03.18.04.2.09.02.05-.05.13-.08.2Z"/>
      <path class="cls-5" d="m37.4,56.13l.21.09c-.03.07-.04.18-.09.2-.05.02-.13-.05-.2-.08.03-.07.06-.14.09-.21Z"/>
      <path class="cls-5" d="m53.78,50.43c-.07-.03-.18-.05-.2-.1-.02-.05.05-.13.08-.2.07.03.18.04.2.09.02.05-.05.13-.08.2Z"/>
      <path class="cls-5" d="m145.62,16.47c-.03.07-.05.18-.1.2-.05.02-.13-.05-.2-.08.03-.07.04-.18.09-.2.05-.02.13.05.2.08Z"/>
      <path class="cls-5" d="m75.53,42.69c-.07-.03-.18-.05-.2-.1-.02-.05.05-.13.08-.2.07.03.18.04.2.09.02.05-.05.13-.08.2Z"/>
    </g>
  </g>
</svg>