<?xml version="1.0" encoding="UTF-8"?>
<svg id="Layer_2" data-name="Layer 2" xmlns="http://www.w3.org/2000/svg" viewBox="0 0 510.82 448.89">
  <defs>
    <style>
      .cls-1 {
        fill: #ff468c;
      }

      .cls-2 {
        fill: #4ab8f7;
      }
    </style>
  </defs>
  <g id="Layer_1-2" data-name="Layer 1">
    <g>
      <path class="cls-2" d="m253.16,254.49c-9.69-10.05-18.17-21.14-24.65-33.66-8.53-16.47-14.91-33.5-17.13-52.15-1.26-10.61-.23-21.13-.83-31.67-.09-1.57.51-3.18.79-4.77-.93-.33-1.88-.62-2.8-.99-18.56-7.45-37.82-11.32-57.83-11.35-.02,44.83-.04,89.66-.06,134.49l-.09.11c8.97-.1,15.09,6.04,15.04,15.1-.05,8.64-6.29,14.71-15.04,14.61l.09.11c-9.19-1.03-14.9-6.76-14.9-14.97,0-8.21,5.7-13.94,14.9-14.97.02-44.83.04-89.66.06-134.49-3.77.28-7.53.78-11.3.76-2.07-.01-4.91-2.01-6.06-1.21-4.51,3.17-9.72,2.56-14.57,3.68-34.08,7.9-62.49,25.01-84.89,51.96-13.99,16.82-23.39,36.04-29.54,56.9-1.87,6.35-2.93,12.94-4.36,19.42v30.92c1,5.61,1.79,11.26,3.05,16.81,7.73,33.99,25.12,62.15,51.65,84.68,2.1,1.79,2.15,3.18,1.38,5.52-4.14,12.51-10.84,23.44-19.84,33.02-6.37,6.78-7.02,13.62-2.2,20.71,1.98,2.9,5.25,3.88,7.86,5.83h46.89c.89-1.45,2.61-1.49,3.89-1.79,12.51-2.91,23.91-8.51,32.57-17.69,7.3-7.74,14.64-12.62,25.46-10.6h0c8.27.52,16.41-.25,24.57-1.78,16.3-3.06,31.85-8.04,46.43-16.06,13.11-7.21,24.73-16.13,35.35-26.77,12.43-12.46,21.89-26.63,29.48-42.37,6.95-14.4,10.28-29.72,12.83-45.32-17.36-7.86-33-18.33-46.22-32.03Zm-162.5,29.76c-8.18-.06-14.77-6.69-14.77-14.89,0-8.38,6.85-15.07,15.26-14.89,8.18.17,14.64,6.91,14.52,15.13-.12,8.16-6.83,14.7-15.01,14.64Zm119.58.07c-8.15-.12-14.7-6.79-14.69-14.97,0-8.38,6.81-15.06,15.22-14.94,8.16.12,14.71,6.79,14.69,14.97-.01,8.4-6.81,15.06-15.22,14.94Z"/>
      <path class="cls-1" d="m507.92,122.06c-4.89-28.5-17.95-52.82-37.33-73.91-11-11.98-23.92-21.52-38.16-29.46C409.91,6.14,385.79.44,360.18.24c-.01,19.84-.02,39.68-.03,59.52,16.76.84,30,7.75,38.77,22.42,11.44,19.13,6.41,44.74-11.55,58.46-7.41,5.66-12.47,12.73-11.32,22.92.77,6.83-7,14.46-15.9,16.17l.04-.37c-9.39-.28-15.13-7.57-15.08-15.44.1-14.75,5.27-27.28,14.92-38.18.34-.66.69-1.33,1.03-1.99-1.16-1.39-1.11-2.96-.98-4.53-.13,1.56-.18,3.13.98,4.53,2.66-3.84,6.83-6.03,10.11-9.22,4.62-4.5,4.31-14.88.2-19.29-3.17-3.4-7.01-4.52-11.24-5.23v-.35c-10.51,1.99-13.18,4.79-15,15.7-1.55,9.35-8.39,15.26-16.87,14.34-7.11-.77-13.72-7.48-13.08-16.92.43-6.39,1.74-12.45,4.7-17.95,6.45-11.97,15.94-20.49,29.55-23.53,3.48-.78,7.12-.81,10.69-1.19,0,0,.01-.35.01-.35.01-19.84.02-39.68.03-59.52-3.36-.89-6.43,1.01-9.77.9-15.07-.49-29.46,3.28-43.26,8.64-23.72,9.22-44.37,23.06-60.84,42.84-19.34,23.22-31.43,49.52-34.96,79.62-.28,1.59-.87,3.2-.79,4.77.6,10.54-.44,21.07.83,31.67,2.22,18.64,8.6,35.67,17.13,52.15,6.48,12.52,14.96,23.61,24.65,33.66,13.21,13.7,28.85,24.18,46.22,32.03,19.45,8.12,39.4,13.88,60.8,12.59,2.99.05,6.07.58,8.94.04,4.2-.8,7.14.69,9.19,3.97,2.54,4.06,6.37,6.68,9.92,9.61,11.33,9.38,24.43,15.16,38.99,16.24,12.56.94,25.25.26,37.88.21,6.48-.03,11.61-3.9,13.84-9.95,2.52-6.83-.07-12.18-4.63-17.04-8.94-9.49-15.93-20.14-19.55-32.8-.49-1.72-1.19-2.85.77-4.64,9.04-8.25,17.89-16.68,25.32-26.55,18.93-25.15,28.53-53.52,29.88-84.76.45-10.53-1.03-20.96-2.82-31.37Zm-147.77,102.58s-.01-.35-.01-.35c-7.57.32-14.17-5.73-14.96-13.22-.77-7.36,4.82-16.56,14.95-16.33v-.35c9.37,1.14,15,6.83,14.99,15.13,0,8.28-5.78,14.11-14.98,15.12Z"/>
    </g>
  </g>
</svg>