<?xml version="1.0" encoding="UTF-8"?>
<svg id="Layer_2" data-name="Layer 2" xmlns="http://www.w3.org/2000/svg" xmlns:xlink="http://www.w3.org/1999/xlink" viewBox="0 0 263.52 263.34">
  <defs>
    <style>
      .cls-1 {
        fill: url(#linear-gradient);
      }

      .cls-2 {
        fill: url(#linear-gradient-3);
      }

      .cls-3 {
        fill: url(#linear-gradient-2);
      }
    </style>
    <linearGradient id="linear-gradient" x1="-17.69" y1="168.43" x2="210.52" y2="112.27" gradientUnits="userSpaceOnUse">
      <stop offset="0" stop-color="#80d8ff"/>
      <stop offset="1" stop-color="#e485fc"/>
    </linearGradient>
    <linearGradient id="linear-gradient-2" x1="86.82" y1="109.21" x2="176.71" y2="109.21" xlink:href="#linear-gradient"/>
    <linearGradient id="linear-gradient-3" x1="116.78" y1="198.99" x2="146.8" y2="198.99" xlink:href="#linear-gradient"/>
  </defs>
  <g id="Layer_1-2" data-name="Layer 1">
    <g>
      <path class="cls-1" d="m0,139.94C0,134.45,0,128.96,0,123.47c.15-.75.33-1.49.44-2.24.9-6.09,1.46-12.26,2.73-18.27C13.9,51.93,57.3,10.49,108.75,2.03,113.64,1.22,118.56.67,123.47,0c5.49,0,10.98,0,16.46,0,.75.15,1.49.33,2.24.44,5.92.87,11.93,1.38,17.76,2.64,79.9,17.25,125.02,103.89,93.42,179.24-24.68,58.84-86.64,91.25-149.38,78.11C51.92,249.54,10.95,206.97,1.99,154.4,1.18,149.61.66,144.76,0,139.94Zm20.58-8.4c-.15,61.14,49.62,111.09,110.89,111.3,61.13.2,111.1-49.52,111.36-110.83.26-61.21-49.68-111.33-111.02-111.42-61.18-.09-111.08,49.69-111.23,110.95Z"/>
      <g>
        <path class="cls-3" d="m170.59,71.65c-8.77-14.67-22-21.59-38.77-22.42,0,0-.01.35-.01.35-3.57.38-7.21.42-10.69,1.19-13.62,3.04-23.1,11.56-29.55,23.53-2.97,5.5-4.27,11.56-4.7,17.95-.64,9.44,5.97,16.15,13.08,16.92,8.48.92,15.32-4.98,16.87-14.34,1.81-10.92,4.49-13.71,15-15.7,0,0,0,.35,0,.35,4.22.71,8.06,1.83,11.24,5.23,4.11,4.41,4.42,14.79-.2,19.29-3.28,3.19-7.45,5.38-10.11,9.22-.34.66-.69,1.33-1.03,1.99-9.65,10.9-14.82,23.44-14.92,38.18-.05,7.87,5.69,15.16,15.08,15.44,0,0-.04.37-.04.37,8.9-1.71,16.67-9.34,15.9-16.17-1.15-10.19,3.91-17.27,11.32-22.92,17.96-13.72,22.99-39.33,11.55-58.46Z"/>
        <path class="cls-2" d="m131.82,183.87v.35c-10.14-.23-15.74,8.97-14.97,16.33.78,7.49,7.39,13.55,14.96,13.22,0,0,0,.35,0,.35,9.2-1,14.97-6.83,14.98-15.12,0-8.3-5.62-13.99-14.98-15.13Z"/>
      </g>
    </g>
  </g>
</svg>