<svg width="1200" height="450" viewBox="0 0 1200 450" fill="none" xmlns="http://www.w3.org/2000/svg">
<g clip-path="url(#clip0_2654_39175)">
<path d="M558.158 369.733C518.04 369.733 481.704 353.484 455.411 327.204C440.344 312.177 428.583 293.837 421.283 273.382L397.703 325.249L340.402 279.882C348.931 313.496 365.021 344.088 386.81 369.733H558.153H558.158Z" fill="url(#paint0_linear_2654_39175)"/>
<path d="M558.368 396.916L535.482 367.74L353.102 368.87L368.804 392.016L380.327 408.979L353.417 448.613H536.729L537.399 447.759L558.368 421.042L567.843 408.979L558.368 396.916Z" fill="#E87D8F"/>
<path d="M361.577 398.298L341.783 369.122L167.645 370.373L184.114 393.19L196.525 410.366L167.887 450H342.861L343.438 449.141L361.577 422.429L369.766 410.366L361.577 398.298Z" fill="#F4BECA"/>
<path d="M177.027 398.298L155.965 369.127L0 370.174L17.4837 394.393L29.8903 411.569L2.12601 450H157.116L157.732 449.141L177.027 422.429L185.744 410.366L177.027 398.298Z" fill="#D3BAC1"/>
<path d="M374.711 94.8914C348.748 131.503 333.492 176.216 333.492 224.513C333.492 237.303 334.56 249.857 336.628 262.066C336.919 263.826 337.244 265.587 337.579 267.348L394.617 312.506L417.664 261.804V261.789C416.63 257.962 415.771 254.067 415.077 250.128C413.591 241.81 412.815 233.248 412.815 224.513C412.815 199.12 419.358 175.26 430.827 154.5L376.842 169.556L374.702 94.8914H374.711Z" fill="url(#paint1_linear_2654_39175)"/>
<path d="M519.488 3.32251C473.332 11.3259 432.001 33.3911 400.096 64.9439C394.81 70.1776 389.801 75.6539 385.064 81.3727C384.19 82.4253 383.336 83.473 382.496 84.5401L384.632 159.001L436.937 144.415V144.401C439.345 140.734 441.932 137.198 444.694 133.773C448.266 129.301 452.111 125.037 456.203 121.011C475.555 101.978 500.237 88.3187 527.812 82.4641L473.953 53.7343L519.488 3.32251Z" fill="#27A77D"/>
<path d="M699.192 49.7521C660.759 18.7474 611.905 0.116413 558.691 0H558.157C552.503 0 546.892 0.208574 541.334 0.630571C538.213 0.858547 535.126 1.14473 532.039 1.50367H532.024L486.883 51.4789L540.902 80.296C543.309 80.005 545.736 79.7818 548.192 79.6169C551.488 79.3889 554.818 79.2774 558.167 79.2774H558.701C591.664 79.3889 622.035 90.4967 646.367 109.084L634.592 45.8862L699.197 49.7569L699.192 49.7521Z" fill="#0386AC"/>
<path d="M781.996 205.411C777.438 151.187 753.601 102.458 717.332 66.079L717.026 65.7734C714.536 63.2705 711.983 60.8307 709.367 58.4587L644.422 54.5686L656.091 117.204C657.367 118.368 658.629 119.561 659.857 120.788C660.212 121.128 660.585 121.482 660.925 121.836C682.486 143.382 697.276 171.661 701.907 203.238L736.015 153.588L782.001 205.416L781.996 205.411Z" fill="#9E69E2"/>
<path d="M782.827 224.512C782.827 222.475 782.793 220.443 782.729 218.406L736.826 166.67L703.208 215.612V215.626C703.388 218.551 703.485 221.491 703.485 224.459L705.184 224.508H703.485C703.485 257.433 692.525 287.783 674.051 312.147L734.443 300.913L730.375 368.685C762.731 330.114 782.38 280.556 782.812 226.399C782.827 225.769 782.827 225.138 782.827 224.508V224.512Z" fill="#D8B009"/>
<path d="M666.019 321.858C664.611 323.41 663.189 324.909 661.737 326.398C661.383 326.752 661.024 327.092 660.689 327.446C634.536 353.464 598.491 369.588 558.699 369.733L547.656 369.36L577.988 409.386L548.112 448.797C551.447 448.943 554.796 449.02 558.17 449.02H558.704C619.737 448.875 675.013 424.423 715.422 384.867C716.227 384.062 717.038 383.266 717.844 382.461C719.135 381.151 720.431 379.813 721.693 378.454L722.227 369.733L725.765 310.746L666.028 321.858H666.019Z" fill="#E26C60"/>
<path d="M547.933 369.733H537.793L558.694 397.323L567.843 409.386L558.694 421.455L537.793 449.025L548.103 448.802L577.983 409.386L547.933 369.733Z" fill="#97CF3A"/>
<path d="M1191.49 398.613L1170.27 369.486L1020.27 370.49L1037.22 393.758L1049.28 410.294L1037.22 426.829L1020.39 449.932H1171.11L1200 410.294L1191.49 398.613Z" fill="url(#paint2_linear_2654_39175)"/>
<path d="M1030.56 398.414L1009.45 369.442L842.783 370.558L886.245 409.542L841.152 449.976H1010L1039.07 410.095L1030.56 398.414Z" fill="url(#paint3_linear_2654_39175)"/>
<path d="M829.681 370.063H729.501C726.982 373.036 724.375 375.942 721.677 378.784C720.415 380.142 719.123 381.481 717.827 382.791C717.022 383.596 716.211 384.391 715.405 385.197C674.997 424.753 619.72 449.205 558.688 449.35H829.676L873.88 409.711L829.676 370.058L829.681 370.063Z" fill="url(#paint4_linear_2654_39175)"/>
<path d="M403.171 415.973C400.734 415.973 398.836 414.809 398.715 412.467H401.962C402.025 413.291 402.506 413.568 403.064 413.568C403.622 413.568 404.025 413.286 404.025 412.777C404.01 411.021 398.695 411.846 398.744 408.043C398.744 405.899 400.53 404.754 402.846 404.754C405.36 404.754 407.01 405.981 407.117 408.154H403.807C403.777 407.47 403.355 407.16 402.797 407.16C402.346 407.145 401.991 407.407 401.991 407.936C401.991 409.566 407.258 409.037 407.258 412.544C407.258 414.47 405.768 415.973 403.171 415.973Z" fill="#231F20"/>
<path d="M413.22 412.171H411.715V415.867H408.672V404.924H413.225C415.943 404.924 417.326 406.462 417.326 408.572C417.326 410.483 416.006 412.171 413.225 412.171H413.22ZM412.924 409.75C413.841 409.75 414.215 409.285 414.215 408.572C414.215 407.859 413.841 407.378 412.924 407.378H411.71V409.755H412.924V409.75Z" fill="#231F20"/>
<path d="M423.343 404.924C426.061 404.924 427.43 406.476 427.43 408.431C427.43 409.857 426.653 411.099 425.022 411.598L427.493 415.867H424.09L421.915 411.831H421.59V415.867H418.547V404.924H423.347H423.343ZM423.095 407.471H421.59V409.75H423.095C423.92 409.75 424.338 409.348 424.338 408.601C424.338 407.917 423.92 407.466 423.095 407.466V407.471Z" fill="#231F20"/>
<path d="M428.812 404.924H431.856V415.867H428.812V404.924Z" fill="#231F20"/>
<path d="M443.741 404.924V415.867H440.698L436.645 409.75V415.867H433.602V404.924H436.645L440.698 411.118V404.924H443.741Z" fill="#231F20"/>
<path d="M444.875 404.924H453.729V407.344H450.806V415.867H447.763V407.344H444.875V404.924Z" fill="#231F20"/>
<path d="M462.38 412.171H460.875V415.867H457.832V404.924H462.385C465.103 404.924 466.487 406.462 466.487 408.572C466.487 410.483 465.166 412.171 462.385 412.171H462.38ZM462.084 409.75C463.001 409.75 463.375 409.285 463.375 408.572C463.375 407.859 463.001 407.378 462.084 407.378H460.871V409.755H462.084V409.75Z" fill="#231F20"/>
<path d="M470.75 404.924V413.539H474.153V415.867H467.707V404.924H470.75Z" fill="#231F20"/>
<path d="M482.26 414.077H478.377L477.785 415.862H474.586L478.576 404.919H482.085L486.061 415.862H482.847L482.255 414.077H482.26ZM480.318 408.213L479.153 411.749H481.498L480.318 408.213Z" fill="#231F20"/>
<path d="M497.202 404.924V415.867H494.159L490.106 409.75V415.867H487.062V404.924H490.106L494.159 411.118V404.924H497.202Z" fill="#231F20"/>
<path d="M509.081 404.924V415.867H506.038L501.985 409.75V415.867H498.941V404.924H501.985L506.038 411.118V404.924H509.081Z" fill="#231F20"/>
<path d="M510.824 404.924H513.868V415.867H510.824V404.924Z" fill="#231F20"/>
<path d="M525.749 404.924V415.867H522.706L518.653 409.75V415.867H515.609V404.924H518.653L522.706 411.118V404.924H525.749Z" fill="#231F20"/>
<path d="M537.753 408.523H534.477C534.137 407.951 533.516 407.621 532.676 407.621C531.137 407.621 530.205 408.693 530.205 410.366C530.205 412.243 531.166 413.252 532.972 413.252C534.03 413.252 534.807 412.758 535.253 411.807H532.195V409.619H537.879V412.568C537.229 414.169 535.535 415.935 532.676 415.935C529.322 415.935 527.113 413.636 527.113 410.361C527.113 407.087 529.302 404.803 532.656 404.803C535.423 404.803 537.316 406.229 537.753 408.513V408.523Z" fill="#231F20"/>
<path d="M592.479 418.69C590.334 419.854 588.116 419.733 586.888 417.734L589.742 416.187C590.188 416.881 590.746 416.895 591.237 416.628C591.712 416.366 591.95 415.925 591.703 415.474C590.853 413.941 586.577 417.196 584.801 413.83C583.776 411.948 584.8 410.085 586.834 408.984C589.043 407.786 591.077 408.077 592.212 409.935L589.305 411.511C588.951 410.924 588.436 410.851 587.946 411.118C587.543 411.317 587.354 411.72 587.606 412.185C588.383 413.616 592.761 410.643 594.435 413.723C595.353 415.416 594.761 417.448 592.484 418.685L592.479 418.69Z" fill="#231F20"/>
<path d="M599.5 410.56L598.174 411.278L599.936 414.523L597.262 415.973L592.039 406.355L596.039 404.186C598.427 402.891 600.378 403.58 601.383 405.438C602.295 407.116 601.941 409.231 599.5 410.56ZM598.082 408.571C598.888 408.135 598.995 407.548 598.65 406.922C598.301 406.282 597.752 406.049 596.946 406.486L595.883 407.063L597.019 409.149L598.082 408.571Z" fill="#231F20"/>
<path d="M604.936 399.36C607.324 398.065 609.266 398.778 610.202 400.495C610.882 401.752 610.795 403.212 609.6 404.424L613.809 407L610.819 408.62L606.979 406.112L606.693 406.267L608.62 409.813L605.945 411.264L600.723 401.645L604.941 399.355L604.936 399.36ZM605.931 401.718L604.606 402.436L605.693 404.439L607.018 403.721C607.741 403.328 607.916 402.775 607.562 402.12C607.237 401.519 606.654 401.325 605.926 401.718H605.931Z" fill="#231F20"/>
<path d="M609.738 396.751L612.413 395.3L617.636 404.919L614.961 406.369L609.738 396.751Z" fill="#231F20"/>
<path d="M622.853 389.635L628.076 399.249L625.401 400.699L618.917 397.26L621.839 402.634L619.164 404.085L613.941 394.466L616.616 393.016L623.135 396.528L620.179 391.085L622.853 389.635Z" fill="#231F20"/>
<path d="M623.855 389.092L631.636 384.872L632.792 387.001L630.224 388.393L634.291 395.882L631.617 397.333L627.549 389.843L625.011 391.221L623.855 389.092Z" fill="#231F20"/>
<path d="M642.556 381.719L639.076 383.606L639.93 385.173L643.003 383.504L644.109 385.536L641.037 387.205L641.978 388.937L645.459 387.05L646.624 389.194L640.469 392.536L635.246 382.917L641.401 379.575L642.566 381.719H642.556Z" fill="#231F20"/>
<path d="M650.62 383.509L650.499 387.088L647.456 388.738L647.907 382.117L642.121 379.177L645.276 377.465L648.528 379.124L648.645 375.631L651.688 373.977L651.237 380.492L657.12 383.48L653.965 385.192L650.62 383.494V383.509Z" fill="#231F20"/>
<path d="M660.122 372.187L656.642 374.074L657.496 375.641L660.569 373.972L661.676 376.005L658.603 377.673L659.545 379.405L663.025 377.518L664.19 379.662L658.035 382.999L652.812 373.385L658.967 370.043L660.132 372.187H660.122Z" fill="#231F20"/>
<path d="M664.696 366.808C667.113 365.498 669.588 365.954 671.249 367.88L668.37 369.442C667.637 368.904 666.778 368.855 665.987 369.287C664.759 369.951 664.472 371.343 665.273 372.818C666.079 374.302 667.404 374.821 668.632 374.157C669.423 373.725 669.851 372.983 669.797 372.076L672.676 370.514C673.384 372.954 672.418 375.282 670.006 376.592C667.113 378.163 664.118 377.174 662.555 374.293C660.997 371.426 661.798 368.38 664.691 366.808H664.696Z" fill="#231F20"/>
<path d="M670.595 363.733L673.255 362.288L676.283 367.866C676.827 368.86 677.618 369.243 678.628 368.695C679.637 368.147 679.773 367.259 679.235 366.265L676.201 360.687L678.875 359.237L681.909 364.815C683.399 367.555 682.244 369.985 679.938 371.237C677.618 372.498 675.114 372.052 673.624 369.311L670.59 363.733H670.595Z" fill="#231F20"/>
<path d="M679.82 358.727L687.601 354.507L688.756 356.637L686.189 358.029L690.256 365.518L687.582 366.968L683.514 359.479L680.976 360.857L679.82 358.727Z" fill="#231F20"/>
<path d="M688.598 353.964L691.272 352.514L696.495 362.132L693.82 363.583L688.598 353.964Z" fill="#231F20"/>
<path d="M702.691 358.892C699.963 360.372 696.638 359.528 695.065 356.637C693.493 353.746 694.599 350.515 697.332 349.031C700.075 347.542 703.365 348.391 704.933 351.282C706.506 354.173 705.419 357.413 702.691 358.892ZM701.341 356.409C702.72 355.662 703.026 354.24 702.22 352.751C701.395 351.238 700.045 350.734 698.667 351.481C697.274 352.237 696.973 353.634 697.798 355.148C698.604 356.637 699.953 357.161 701.341 356.404V356.409Z" fill="#231F20"/>
<path d="M712.455 341.018L717.678 350.636L715.003 352.087L708.518 348.648L711.44 354.022L708.766 355.472L703.543 345.854L706.217 344.404L712.736 347.915L709.78 342.473L712.455 341.023V341.018Z" fill="#231F20"/>
<path d="M711.148 295.646L711.634 292.643L722.443 294.394L721.958 297.397L711.148 295.646Z" fill="#231F20"/>
<path d="M713.535 280.925L724.345 282.676L723.86 285.678L717.171 288.695L723.209 289.675L722.724 292.677L711.914 290.926L712.399 287.924L719.166 284.917L713.05 283.922L713.535 280.92V280.925Z" fill="#231F20"/>
<path d="M714.521 274.182C714.962 271.471 716.836 269.792 719.379 269.656L718.855 272.892C717.981 273.144 717.418 273.789 717.273 274.677C717.049 276.054 717.977 277.136 719.632 277.403C721.301 277.674 722.525 276.942 722.748 275.564C722.894 274.677 722.563 273.886 721.816 273.367L722.34 270.132C724.704 271.068 725.956 273.251 725.515 275.962C724.986 279.212 722.374 280.973 719.137 280.449C715.918 279.925 713.992 277.427 714.521 274.182Z" fill="#231F20"/>
<path d="M716.474 262.861C716.911 260.179 718.663 259.083 720.595 259.393C722.007 259.621 723.109 260.586 723.337 262.274L727.949 260.523L727.405 263.88L723.07 265.379L723.017 265.699L727.002 266.344L726.517 269.346L715.707 267.595L716.474 262.861ZM718.949 263.516L718.707 265L720.959 265.364L721.202 263.88C721.333 263.07 721.003 262.589 720.265 262.468C719.59 262.357 719.081 262.701 718.945 263.511L718.949 263.516Z" fill="#231F20"/>
<path d="M720.876 250.948L720.241 254.853L722.003 255.139L722.561 251.69L724.847 252.059L724.289 255.508L726.235 255.823L726.871 251.918L729.279 252.306L728.157 259.213L717.348 257.462L718.469 250.555L720.876 250.943V250.948Z" fill="#231F20"/>
<path d="M718.711 249.071L719.298 245.438L726.759 243.866L720.167 240.078L720.754 236.464L731.564 238.215L731.079 241.218L725.113 240.253L730.749 243.26L730.341 245.773L723.997 246.849L730.006 247.824L729.521 250.827L718.711 249.076V249.071Z" fill="#231F20"/>
<path d="M724.564 228.228L723.928 232.133L725.69 232.419L726.248 228.97L728.534 229.339L727.976 232.788L729.923 233.103L730.559 229.198L732.966 229.586L731.845 236.498L721.035 234.747L722.156 227.835L724.564 228.223V228.228Z" fill="#231F20"/>
<path d="M724.026 216.344L734.836 218.095L734.351 221.098L727.662 224.115L733.705 225.095L733.22 228.097L722.41 226.346L722.896 223.344L729.662 220.336L723.546 219.342L724.031 216.339L724.026 216.344Z" fill="#231F20"/>
<path d="M724.207 215.229L725.624 206.498L728.017 206.886L727.551 209.767L735.968 211.13L735.483 214.132L727.066 212.769L726.605 215.621L724.212 215.233L724.207 215.229Z" fill="#231F20"/>
<path d="M735.963 200.007L735.342 203.839L737.012 204.708L736.497 207.865L726.328 202.176L726.891 198.712L738.337 196.544L737.822 199.716L735.963 200.012V200.007ZM729.857 200.982L733.167 202.7L733.541 200.386L729.857 200.982Z" fill="#231F20"/>
<path d="M728.17 190.806L736.679 192.184L737.222 188.827L739.523 189.201L738.489 195.56L727.68 193.809L728.165 190.806H728.17Z" fill="#231F20"/>
<path d="M736.552 289.592C739.678 290.097 741.61 292.663 741.047 296.107L740.353 300.38L729.543 298.629L730.237 294.356C730.795 290.907 733.373 289.078 736.547 289.592H736.552ZM738.358 295.908C738.639 294.176 737.833 292.93 736.057 292.643C734.261 292.352 733.091 293.279 732.81 295.011L732.64 296.053L738.188 296.956L738.358 295.913V295.908Z" fill="#231F20"/>
<path d="M734.904 280.852L734.268 284.756L736.03 285.043L736.588 281.594L738.874 281.962L738.316 285.411L740.262 285.726L740.898 281.822L743.306 282.21L742.185 289.122L731.375 287.371L732.496 280.459L734.904 280.847V280.852Z" fill="#231F20"/>
<path d="M733.922 271.665L734.441 268.463L744.644 273.94L744.018 277.786L732.602 279.77L733.126 276.554L741.329 275.371L733.922 271.67V271.665Z" fill="#231F20"/>
<path d="M738.126 261.008L737.491 264.913L739.253 265.199L739.811 261.75L742.097 262.119L741.539 265.568L743.485 265.883L744.121 261.978L746.529 262.366L745.407 269.278L734.598 267.527L735.719 260.615L738.126 261.003V261.008Z" fill="#231F20"/>
<path d="M736.447 256.128L744.956 257.506L745.5 254.149L747.801 254.523L746.767 260.882L735.957 259.131L736.442 256.128H736.447Z" fill="#231F20"/>
<path d="M748.934 248.203C748.434 251.268 745.736 253.378 742.484 252.849C739.232 252.321 737.353 249.469 737.848 246.403C738.348 243.323 741.032 241.242 744.28 241.771C747.532 242.3 749.43 245.137 748.93 248.203H748.934ZM746.143 247.752C746.396 246.204 745.459 245.093 743.789 244.822C742.086 244.545 740.862 245.307 740.61 246.854C740.358 248.416 741.28 249.512 742.984 249.784C744.653 250.056 745.891 249.313 746.143 247.752Z" fill="#231F20"/>
<path d="M747.028 236.227L746.786 237.711L750.436 238.303L749.95 241.305L739.141 239.554L739.869 235.067C740.306 232.385 742.043 231.269 744.13 231.609C746.014 231.914 747.475 233.486 747.028 236.231V236.227ZM744.592 236.13C744.737 235.227 744.339 234.786 743.63 234.669C742.912 234.553 742.393 234.844 742.242 235.751L742.048 236.944L744.393 237.323L744.587 236.13H744.592Z" fill="#231F20"/>
<path d="M740.724 229.809L741.311 226.181L748.771 224.609L742.18 220.821L742.767 217.203L753.577 218.954L753.091 221.956L747.126 220.991L752.756 223.993L752.349 226.506L746.005 227.583L752.014 228.558L751.528 231.56L740.719 229.809H740.724Z" fill="#231F20"/>
<path d="M746.576 208.967L745.94 212.871L747.702 213.158L748.26 209.709L750.546 210.077L749.988 213.526L751.934 213.841L752.57 209.937L754.978 210.325L753.857 217.232L743.047 215.481L744.168 208.574L746.576 208.962V208.967Z" fill="#231F20"/>
<path d="M746.039 197.083L756.849 198.834L756.363 201.836L749.675 204.853L755.713 205.833L755.228 208.836L744.418 207.085L744.903 204.082L751.67 201.075L745.554 200.085L746.039 197.083Z" fill="#231F20"/>
<path d="M746.219 195.962L747.636 187.231L750.029 187.619L749.563 190.5L757.98 191.863L757.494 194.866L749.078 193.503L748.617 196.35L746.224 195.962H746.219Z" fill="#231F20"/>
<path d="M690.158 72.5156L694.779 78.3217L692.881 79.8303L690.153 76.4058L688.648 77.6039L690.658 80.131L688.847 81.5716L686.838 79.0445L683.484 81.7123L681.586 79.3306L690.153 72.5156H690.158Z" fill="#231F20"/>
<path d="M698.039 86.3251L695.573 83.2304L694.175 84.3412L696.35 87.0721L694.539 88.5127L692.365 85.7818L690.821 87.009L693.287 90.1037L691.379 91.6219L687.016 86.1456L695.583 79.3354L699.946 84.8117L698.039 86.3299V86.3251Z" fill="#231F20"/>
<path d="M703.335 92.9801L700.869 89.8854L699.471 90.9962L701.646 93.7271L699.835 95.1677L697.66 92.4368L696.117 93.664L698.583 96.7587L696.675 98.2769L692.316 92.8006L700.883 85.9856L705.247 91.4619L703.34 92.9801H703.335Z" fill="#231F20"/>
<path d="M708.161 103.904C705.68 105.873 702.487 105.577 700.312 102.846L697.613 99.4557L706.18 92.6455L708.879 96.036C711.054 98.7669 710.675 101.905 708.161 103.908V103.904ZM702.268 100.993C703.36 102.366 704.826 102.609 706.234 101.488C707.656 100.358 707.758 98.8688 706.666 97.4961L706.006 96.6715L701.608 100.169L702.263 100.993H702.268Z" fill="#231F20"/>
<path d="M708.096 112.62L704.723 108.38L713.29 101.57L716.556 105.674C717.94 107.41 717.988 109.118 716.566 110.248C715.532 111.068 714.367 111.005 713.469 110.35C714.052 111.553 713.683 112.858 712.707 113.634C711.261 114.783 709.552 114.458 708.091 112.625L708.096 112.62ZM711.183 109.37L710.091 107.997L708.538 109.234L709.64 110.617C710.115 111.213 710.596 111.325 711.11 110.917C711.635 110.5 711.649 109.952 711.188 109.37H711.183ZM714.246 106.659L713.29 105.456L711.785 106.654L712.741 107.857C713.207 108.439 713.702 108.56 714.197 108.167C714.707 107.76 714.712 107.241 714.246 106.659Z" fill="#231F20"/>
<path d="M716.924 120.837L714.507 117.8L712.74 118.45L710.75 115.947L721.802 112.256L723.987 115.002L717.895 124.926L715.895 122.413L716.924 120.842V120.837ZM720.307 115.666L716.813 116.956L718.274 118.79L720.307 115.661V115.666Z" fill="#231F20"/>
<path d="M730.327 122.796C732.041 124.945 732.017 127.463 730.41 129.432L728.371 126.871C728.774 126.056 728.672 125.202 728.109 124.499C727.24 123.408 725.818 123.364 724.503 124.412C723.178 125.464 722.896 126.856 723.77 127.953C724.328 128.656 725.139 128.947 726.022 128.738L728.065 131.304C725.779 132.425 723.323 131.881 721.615 129.733C719.566 127.157 720.018 124.038 722.585 122.001C725.139 119.973 728.279 120.23 730.332 122.806L730.327 122.796Z" fill="#231F20"/>
<path d="M731.494 134.307L727.737 137.295L725.844 134.913L734.411 128.103L736.304 130.485L732.61 133.424L738.42 133.148L740.604 135.893L733.945 136.053L732.164 142.863L729.873 139.987L731.489 134.317L731.494 134.307Z" fill="#231F20"/>
<path d="M744.44 145.099C744.828 144.789 744.809 144.391 744.576 144.1C744.324 143.785 743.926 143.683 743.6 143.945C743.295 144.187 743.134 144.653 743.052 145.376L742.693 148.936C742.931 148.888 743.159 148.825 743.401 148.752L744.032 148.645L745.906 151.002L744.945 151.192C744.052 151.444 743.207 151.604 742.416 151.633L742.047 155.256L739.911 152.574L740.018 151.361C738.887 151.012 737.892 150.314 737.033 149.232C735.407 147.19 735.451 145.075 737.019 143.828C738.028 143.028 739.344 142.834 740.771 143.504C740.965 142.674 741.29 142.16 741.809 141.743C743.062 140.748 744.901 140.913 746.338 142.723C747.809 144.571 747.401 146.38 746.192 147.301L744.44 145.104V145.099ZM740.251 148.786L740.513 145.822C739.921 145.599 739.402 145.672 739.052 145.953C738.552 146.351 738.465 147.112 739.067 147.864C739.416 148.301 739.814 148.601 740.256 148.786H740.251Z" fill="#231F20"/>
<path d="M678.562 87.8676C680.256 89.9921 679.892 92.0294 678.358 93.2469C677.242 94.1345 675.786 94.3043 674.378 93.3342L672.572 97.9228L670.456 95.2647L672.262 91.0496L672.058 90.7925L668.898 93.3051L667 90.9234L675.567 84.1133L678.557 87.8676H678.562ZM676.417 89.2597L675.48 88.081L673.693 89.5022L674.63 90.6809C675.145 91.326 675.718 91.4037 676.305 90.938C676.839 90.5112 676.931 89.9048 676.421 89.2597H676.417Z" fill="#231F20"/>
<path d="M684.421 99.1354L681.955 96.0407L680.557 97.1515L682.732 99.8823L680.921 101.323L678.746 98.5921L677.203 99.8193L679.669 102.914L677.761 104.432L673.402 98.9559L681.969 92.1409L686.328 97.6171L684.421 99.1354Z" fill="#231F20"/>
<path d="M691.883 104.592L693.902 107.129L682.986 110.99L680.559 107.939L686.767 98.1604L688.796 100.712L684.155 107.575L691.878 104.587L691.883 104.592Z" fill="#231F20"/>
<path d="M694.489 107.871L696.387 110.253L687.82 117.063L685.922 114.682L694.489 107.871Z" fill="#231F20"/>
<path d="M699.926 118.606L697.46 115.511L696.062 116.622L698.236 119.353L696.426 120.793L694.251 118.062L692.708 119.29L695.174 122.384L693.266 123.902L688.902 118.426L697.469 111.616L701.833 117.092L699.926 118.61V118.606Z" fill="#231F20"/>
<path d="M702.487 117.917L704.535 120.492L699.473 126.148L706.404 122.84L708.482 125.45L703.715 131.382L710.316 127.759L712.365 130.334L702.123 135.044L699.793 132.114L704.108 126.759L697.9 129.733L695.57 126.808L702.487 117.917Z" fill="#231F20"/>
<path d="M516.761 40.4633C514.339 40.7446 512.324 39.8036 511.931 37.4899L515.154 37.1164C515.309 37.9265 515.819 38.1496 516.377 38.0865C516.916 38.0235 517.304 37.6985 517.241 37.1892C517.023 35.4478 511.844 36.8739 511.45 33.0953C511.203 30.9659 512.848 29.6223 515.144 29.3555C517.644 29.0645 519.421 30.0928 519.78 32.2416L516.494 32.62C516.382 31.9457 515.931 31.6838 515.377 31.7517C514.931 31.7905 514.606 32.0913 514.664 32.6151C514.853 34.2352 520.022 33.105 520.425 36.5877C520.649 38.4988 519.338 40.1674 516.761 40.4633Z" fill="#231F20"/>
<path d="M526.31 35.5352L524.815 35.7099L525.242 39.3769L522.218 39.7261L520.961 28.856L525.48 28.3322C528.179 28.0217 529.732 29.3896 529.975 31.485C530.193 33.3816 529.077 35.2151 526.315 35.5352H526.31ZM525.737 33.1633C526.65 33.0566 526.965 32.5522 526.883 31.844C526.8 31.1212 526.378 30.6992 525.465 30.806L524.262 30.9466L524.533 33.304L525.737 33.1633Z" fill="#231F20"/>
<path d="M535.536 27.1679C538.235 26.8574 539.774 28.2398 539.997 30.1849C540.162 31.6013 539.531 32.9255 537.968 33.6046L540.914 37.5626L537.536 37.9555L534.91 34.1963L534.585 34.2351L535.051 38.2417L532.027 38.5909L530.77 27.7208L535.536 27.1679ZM535.58 29.7241L534.085 29.8987L534.347 32.1639L535.842 31.9893C536.662 31.8923 537.031 31.4461 536.944 30.7039C536.866 30.0249 536.395 29.6271 535.58 29.7193V29.7241Z" fill="#231F20"/>
<path d="M540.969 26.5421L543.993 26.1929L545.25 37.063L542.226 37.4122L540.969 26.5421Z" fill="#231F20"/>
<path d="M555.792 24.8252L557.049 35.6953L554.025 36.0445L549.292 30.4373L549.996 36.5102L546.972 36.8594L545.715 25.9893L548.739 25.6401L553.476 31.3249L552.763 25.1744L555.787 24.8252H555.792Z" fill="#231F20"/>
<path d="M556.918 24.6942L565.713 23.6755L565.99 26.0814L563.087 26.4161L564.068 34.8803L561.044 35.2295L560.063 26.7653L557.195 27.0952L556.918 24.6893V24.6942Z" fill="#231F20"/>
<path d="M518.298 47.9137C520.997 47.6033 522.535 48.9857 522.759 50.9308C522.924 52.3471 522.293 53.6713 520.73 54.3504L523.676 58.3085L520.298 58.7013L517.672 54.9422L517.346 54.981L517.812 58.9875L514.788 59.3368L513.531 48.4667L518.298 47.9137ZM518.341 50.47L516.847 50.6446L517.109 52.9098L518.604 52.7352C519.424 52.643 519.793 52.1919 519.705 51.4498C519.628 50.7707 519.157 50.373 518.341 50.4651V50.47Z" fill="#231F20"/>
<path d="M530.967 48.9031L527.03 49.3591L527.234 51.1344L530.705 50.7318L530.972 53.0309L527.501 53.4335L527.729 55.3932L531.666 54.9372L531.947 57.3576L524.992 58.1628L523.734 47.2927L530.69 46.4875L530.972 48.908L530.967 48.9031Z" fill="#231F20"/>
<path d="M531.586 46.376L540.381 45.3574L540.658 47.7633L537.755 48.098L538.736 56.5622L535.712 56.9114L534.731 48.4472L531.863 48.7771L531.586 46.3712V46.376Z" fill="#231F20"/>
<path d="M546.27 44.6784C548.969 44.3679 550.508 45.7503 550.731 47.6954C550.896 49.1118 550.265 50.436 548.702 51.1151L551.649 55.0731L548.27 55.466L545.644 51.7068L545.319 51.7456L545.785 55.7522L542.761 56.1014L541.504 45.2313L546.27 44.6784ZM546.314 47.2346L544.819 47.4092L545.081 49.6744L546.576 49.4998C547.392 49.4077 547.765 48.9566 547.678 48.2144C547.6 47.5353 547.13 47.1376 546.314 47.2298V47.2346Z" fill="#231F20"/>
<path d="M558.188 54.4231C555.101 54.7821 552.335 52.7546 551.956 49.4901C551.577 46.2209 553.81 43.6355 556.897 43.2766C559.999 42.9176 562.732 44.9306 563.11 48.1999C563.489 51.4692 561.271 54.0691 558.188 54.4231ZM557.863 51.6147C559.421 51.4352 560.237 50.2323 560.043 48.5491C559.844 46.8369 558.78 45.8668 557.222 46.0463C555.65 46.2306 554.849 47.4141 555.048 49.1263C555.242 50.8095 556.295 51.7942 557.868 51.6147H557.863Z" fill="#231F20"/>
<path d="M569.221 53.1474C566.799 53.4287 564.785 52.4877 564.392 50.174L567.615 49.8005C567.77 50.6105 568.28 50.8337 568.838 50.7706C569.377 50.7076 569.76 50.3826 569.702 49.8733C569.484 48.1319 564.305 49.558 563.911 45.7794C563.664 43.65 565.309 42.3064 567.605 42.0396C570.105 41.7486 571.881 42.7769 572.241 44.9257L568.955 45.3041C568.843 44.6298 568.391 44.3679 567.838 44.431C567.392 44.4698 567.066 44.7705 567.125 45.2943C567.314 46.9144 572.483 45.7843 572.886 49.2669C573.109 51.1781 571.799 52.8467 569.221 53.1425V53.1474Z" fill="#231F20"/>
<path d="M578.763 48.2144L577.268 48.3891L577.695 52.0561L574.671 52.4053L573.414 41.5352L577.933 41.0114C580.632 40.7009 582.18 42.0688 582.428 44.1642C582.646 46.0608 581.53 47.8943 578.768 48.2144H578.763ZM578.19 45.8425C579.103 45.7358 579.418 45.2314 579.336 44.5232C579.253 43.8004 578.826 43.3784 577.918 43.4852L576.715 43.6258L576.987 45.9832L578.19 45.8425Z" fill="#231F20"/>
<path d="M590.463 42.0203L586.526 42.4763L586.73 44.2516L590.201 43.849L590.468 46.1481L586.997 46.5507L587.225 48.5103L591.162 48.0544L591.443 50.4748L584.488 51.28L583.23 40.4099L590.186 39.6047L590.468 42.0252L590.463 42.0203Z" fill="#231F20"/>
<path d="M596.714 38.7316C599.447 38.4163 601.573 39.7648 602.398 42.1658L599.141 42.5442C598.66 41.7729 597.884 41.4091 596.991 41.511C595.602 41.6711 594.816 42.8546 595.01 44.5232C595.204 46.2015 596.238 47.1764 597.626 47.0164C598.52 46.9145 599.194 46.3809 599.485 45.5224L602.742 45.1441C602.49 47.6712 600.728 49.4707 597.995 49.786C594.724 50.1644 592.316 48.132 591.938 44.8773C591.564 41.642 593.442 39.11 596.714 38.7316Z" fill="#231F20"/>
<path d="M602.773 38.14L611.569 37.1213L611.845 39.5272L608.943 39.8619L609.923 48.3261L606.899 48.6753L605.919 40.2111L603.05 40.541L602.773 38.1351V38.14Z" fill="#231F20"/>
<path d="M612.691 36.9952L615.715 36.646L616.973 47.5161L613.949 47.8653L612.691 36.9952Z" fill="#231F20"/>
<path d="M624.805 35.5932L628.028 35.2197L625.538 46.5215L621.664 46.9678L616.641 36.5342L619.883 36.1607L623.261 43.7227L624.805 35.5932Z" fill="#231F20"/>
<path d="M636.21 36.7283L632.278 37.1843L632.482 38.9596L635.953 38.557L636.219 40.8561L632.749 41.2587L632.977 43.2184L636.909 42.7624L637.19 45.1828L630.23 45.988L628.973 35.1179L635.928 34.3127L636.21 36.7332V36.7283Z" fill="#231F20"/>
<path d="M391.457 108.182L393.7 106.125L401.097 114.192L398.854 116.248L391.457 108.182Z" fill="#231F20"/>
<path d="M402.459 98.1023L409.857 106.169L407.614 108.225L400.489 106.455L404.624 110.961L402.382 113.018L394.984 104.951L397.227 102.895L404.401 104.723L400.212 100.159L402.455 98.1023H402.459Z" fill="#231F20"/>
<path d="M403.297 97.336L409.821 91.3601L411.456 93.1451L409.306 95.1144L415.068 101.396L412.825 103.453L407.064 97.1711L404.933 99.121L403.297 97.336Z" fill="#231F20"/>
<path d="M417.47 87.6592L414.553 90.3318L415.762 91.6463L418.339 89.2841L419.902 90.9915L417.325 93.3489L418.659 94.804L421.577 92.1314L423.222 93.9261L418.058 98.6554L410.66 90.5889L415.825 85.8596L417.47 87.6543V87.6592Z" fill="#231F20"/>
<path d="M426.935 80.5628L424.518 82.7746C423.877 82.5806 423.198 82.7601 422.581 83.3276C421.45 84.3656 421.484 85.7868 422.62 87.0189C423.892 88.4013 425.28 88.4983 426.61 87.2808C427.392 86.5678 427.624 85.6753 427.319 84.6761L425.062 86.7424L423.581 85.1272L427.77 81.2904L429.765 83.4634C430.367 85.0835 430.314 87.5282 428.207 89.4587C425.731 91.7239 422.557 91.5202 420.339 89.1046C418.135 86.7036 418.193 83.5313 420.669 81.2661C422.707 79.3987 425.066 79.1707 426.93 80.5579L426.935 80.5628Z" fill="#231F20"/>
<path d="M429.138 73.6605C431.143 71.8221 433.201 72.0453 434.521 73.4859C435.487 74.5384 435.754 75.9791 434.89 77.4439L439.598 78.9233L437.094 81.2225L432.764 79.714L432.521 79.9371L435.249 82.9105L433.007 84.9671L425.609 76.9007L429.148 73.6605H429.138ZM430.677 75.7026L429.565 76.7212L431.109 78.4043L432.22 77.3857C432.827 76.8279 432.861 76.2507 432.361 75.7026C431.9 75.1981 431.284 75.1496 430.677 75.7026Z" fill="#231F20"/>
<path d="M444.465 72.0403L441.602 74.6645L442.373 76.3767L440.014 78.5401L435.559 67.7767L438.146 65.4048L448.475 70.784L446.106 72.9571L444.465 72.0403ZM439.068 69.0281L440.602 72.4235L442.33 70.8374L439.068 69.0281Z" fill="#231F20"/>
<path d="M441.363 62.4605L447.887 56.4846L449.523 58.2696L447.372 60.2389L453.134 66.5204L450.891 68.577L445.13 62.2956L442.999 64.2455L441.363 62.4605Z" fill="#231F20"/>
<path d="M448.723 55.7134L450.965 53.6567L458.362 61.7232L456.12 63.7798L448.723 55.7134Z" fill="#231F20"/>
<path d="M463.595 57.086C461.304 59.1815 457.877 59.1669 455.649 56.7416C453.426 54.3164 453.712 50.9113 456.003 48.8158C458.304 46.7059 461.702 46.735 463.925 49.1602C466.153 51.5855 465.881 54.9906 463.59 57.086H463.595ZM461.683 55.0051C462.838 53.9477 462.794 52.4926 461.649 51.246C460.484 49.9751 459.052 49.8151 457.896 50.8725C456.732 51.9444 456.775 53.3705 457.94 54.6414C459.086 55.8879 460.518 56.0723 461.683 55.0003V55.0051Z" fill="#231F20"/>
<path d="M468.737 37.3784L476.134 45.4449L473.892 47.5015L466.766 45.7311L470.902 50.2372L468.659 52.2939L461.262 44.2274L463.504 42.1708L470.678 43.9994L466.489 39.4351L468.732 37.3784H468.737Z" fill="#231F20"/>
<path d="M477.983 32.6393C477.648 32.2707 477.25 32.324 476.973 32.5763C476.677 32.8479 476.604 33.2505 476.886 33.5609C477.148 33.8471 477.629 33.9781 478.352 34.0072L481.929 34.1187C481.861 33.8859 481.784 33.6628 481.696 33.4251L481.546 32.8042L483.769 30.767L484.026 31.7129C484.342 32.5811 484.555 33.4154 484.642 34.2012L488.288 34.3128L485.759 36.6313L484.541 36.6119C484.269 37.7664 483.643 38.8044 482.623 39.7357C480.701 41.4964 478.585 41.6031 477.231 40.1286C476.362 39.1779 476.075 37.8828 476.643 36.413C475.804 36.2772 475.265 35.9911 474.813 35.5011C473.731 34.3225 473.77 32.4793 475.473 30.9174C477.211 29.3215 479.046 29.598 480.056 30.7428L477.983 32.6393ZM481.958 36.5586L478.983 36.5052C478.803 37.1115 478.91 37.6208 479.216 37.9555C479.648 38.426 480.415 38.46 481.123 37.8052C481.536 37.4268 481.808 37.0097 481.958 36.5586Z" fill="#231F20"/>
<path d="M403.605 122.321L410.129 116.34L411.765 118.125L409.615 120.1L415.376 126.381L413.134 128.438L407.372 122.156L405.241 124.106L403.605 122.321Z" fill="#231F20"/>
<path d="M417.779 112.644L414.862 115.317L416.07 116.631L418.648 114.269L420.211 115.972L417.633 118.334L418.968 119.789L421.885 117.116L423.531 118.911L418.366 123.64L410.969 115.574L416.133 110.845L417.779 112.639V112.644Z" fill="#231F20"/>
<path d="M427.763 115.181C425.967 116.83 423.782 117.252 422.103 115.608L424.496 113.416C425.098 113.978 425.641 113.862 426.054 113.483C426.457 113.115 426.573 112.63 426.229 112.251C425.03 110.971 421.671 115.162 419.132 112.329C417.686 110.753 418.225 108.696 419.928 107.134C421.782 105.436 423.826 105.228 425.374 106.756L422.938 108.992C422.452 108.512 421.933 108.565 421.52 108.943C421.176 109.234 421.093 109.671 421.452 110.059C422.554 111.262 426.078 107.314 428.452 109.899C429.753 111.315 429.67 113.435 427.763 115.186V115.181Z" fill="#231F20"/>
<path d="M423.895 103.734L430.418 97.7532L432.054 99.5382L429.899 101.512L435.66 107.794L433.418 109.85L427.656 103.569L425.53 105.519L423.895 103.734Z" fill="#231F20"/>
<path d="M431.258 96.9914L433.5 94.9348L440.898 103.001L438.655 105.058L431.258 96.9914Z" fill="#231F20"/>
<path d="M442.256 86.9072L449.654 94.9737L447.411 97.0303L440.286 95.2599L444.421 99.766L442.179 101.823L434.781 93.7562L437.024 91.6996L444.198 93.5282L440.009 88.9639L442.251 86.9072H442.256Z" fill="#231F20"/>
<path d="M453.545 81.4554L451.127 83.6672C450.487 83.4732 449.807 83.6527 449.191 84.2202C448.06 85.2582 448.094 86.6794 449.229 87.9115C450.501 89.2939 451.889 89.386 453.219 88.1734C454.001 87.4603 454.234 86.5679 453.928 85.5686L451.671 87.635L450.191 86.0197L454.379 82.1829L456.374 84.356C456.976 85.9761 456.923 88.4208 454.816 90.3513C452.341 92.6165 449.166 92.4128 446.948 89.9972C444.744 87.5962 444.803 84.4239 447.278 82.1587C449.317 80.2912 451.681 80.0633 453.54 81.4505L453.545 81.4554Z" fill="#231F20"/>
<path d="M369.826 252.597L370.069 256.381L371.889 256.842L372.088 259.961L360.91 256.774L360.691 253.354L371.37 248.775L371.574 251.909L369.826 252.597ZM364.089 254.867L367.696 255.774L367.55 253.49L364.089 254.867Z" fill="#231F20"/>
<path d="M365.21 238.361C368.37 238.157 370.821 240.175 371.039 243.58L371.311 247.805L360.385 248.508L360.113 244.284C359.895 240.878 362.001 238.565 365.21 238.361ZM368.375 243.978C368.263 242.266 367.205 241.257 365.404 241.373C363.589 241.49 362.652 242.629 362.763 244.342L362.831 245.37L368.442 245.011L368.375 243.983V243.978Z" fill="#231F20"/>
<path d="M368.373 230.032L368.616 233.816L370.436 234.277L370.635 237.396L359.457 234.209L359.238 230.789L369.917 226.21L370.121 229.344L368.373 230.032ZM362.636 232.303L366.242 233.21L366.097 230.925L362.636 232.303Z" fill="#231F20"/>
<path d="M365.884 221.04L365.977 222.509L369.666 222.272L369.855 225.24L358.929 225.943L358.642 221.505C358.473 218.857 359.919 217.407 362.026 217.276C363.933 217.154 365.705 218.333 365.88 221.044L365.884 221.04ZM363.487 221.481C363.428 220.588 362.943 220.254 362.229 220.302C361.501 220.351 361.06 220.744 361.118 221.636L361.196 222.815L363.564 222.665L363.487 221.486V221.481Z" fill="#231F20"/>
<path d="M358.346 216.902L357.793 208.273L360.21 208.118L360.395 210.965L368.904 210.417L369.093 213.385L360.584 213.933L360.764 216.752L358.346 216.907V216.902Z" fill="#231F20"/>
<path d="M357.721 207.162L357.531 204.194L368.457 203.49L368.647 206.459L357.721 207.162Z" fill="#231F20"/>
<path d="M356.958 195.273L356.754 192.111L367.918 195.089L368.161 198.887L357.472 203.287L357.268 200.105L365.001 197.175L356.958 195.273Z" fill="#231F20"/>
<path d="M358.687 184.2L358.934 188.061L360.716 187.944L360.497 184.539L362.808 184.389L363.026 187.794L364.992 187.668L364.744 183.807L367.176 183.652L367.618 190.481L356.692 191.185L356.25 184.355L358.682 184.2H358.687Z" fill="#231F20"/>
<path d="M386.669 253.844L386.766 255.313L390.455 255.076L390.644 258.044L379.718 258.748L379.432 254.309C379.262 251.661 380.708 250.216 382.815 250.08C384.722 249.958 386.494 251.137 386.669 253.844ZM384.271 254.285C384.213 253.393 383.727 253.058 383.014 253.106C382.286 253.155 381.844 253.548 381.902 254.44L381.98 255.619L384.349 255.469L384.271 254.29V254.285Z" fill="#231F20"/>
<path d="M378.906 246.146L387.507 245.593L387.294 242.275L389.619 242.125L390.022 248.411L379.096 249.115L378.906 246.146Z" fill="#231F20"/>
<path d="M387.33 234.335L387.573 238.118L389.393 238.579L389.592 241.698L378.414 238.506L378.195 235.087L388.874 230.508L389.078 233.641L387.33 234.33V234.335ZM381.593 236.605L385.2 237.512L385.054 235.227L381.593 236.605Z" fill="#231F20"/>
<path d="M377.246 220.356L388.172 219.652L388.362 222.621L382.508 226.967L388.614 226.574L388.803 229.543L377.877 230.246L377.688 227.277L383.619 222.926L377.435 223.324L377.246 220.356Z" fill="#231F20"/>
<path d="M376.504 208.773L387.43 208.069L387.619 211.038L381.766 215.384L387.872 214.991L388.061 217.96L377.135 218.663L376.946 215.694L382.877 211.343L376.693 211.741L376.504 208.773Z" fill="#231F20"/>
<path d="M376.392 207.07L376.203 204.102L387.129 203.398L387.319 206.367L376.392 207.07Z" fill="#231F20"/>
<path d="M375.457 192.523L386.383 191.82L386.572 194.788L380.719 199.134L386.825 198.742L387.014 201.71L376.088 202.413L375.899 199.445L381.83 195.094L375.646 195.492L375.457 192.523Z" fill="#231F20"/>
<path d="M378.301 180.581L378.505 183.778C377.952 184.146 377.665 184.772 377.719 185.592C377.816 187.091 378.942 187.93 380.616 187.823C382.49 187.702 383.437 186.698 383.325 184.942C383.257 183.914 382.713 183.186 381.743 182.808L381.937 185.791L379.752 185.931L379.393 180.387L382.34 180.198C383.975 180.732 385.849 182.269 386.029 185.053C386.237 188.323 384.082 190.622 380.815 190.83C377.558 191.039 375.131 189.05 374.918 185.781C374.743 183.084 376.049 181.149 378.301 180.576V180.581Z" fill="#231F20"/>
<path d="M738.185 401.131C738.185 404.298 735.962 406.607 732.467 406.607H728.133V395.664H732.467C735.962 395.664 738.185 397.915 738.185 401.126V401.131ZM732.239 403.925C733.996 403.925 735.098 402.93 735.098 401.131C735.098 399.331 733.996 398.308 732.239 398.308H731.181V403.925H732.239Z" fill="#231F20"/>
<path d="M746.559 398.104H742.598V399.889H746.093V402.203H742.598V404.172H746.559V406.607H739.555V395.664H746.559V398.099V398.104Z" fill="#231F20"/>
<path d="M751.106 395.669V404.284H754.508V406.612H748.062V395.669H751.106Z" fill="#231F20"/>
<path d="M755.688 395.669H758.731V406.612H755.688V395.669Z" fill="#231F20"/>
<path d="M767.882 395.669H771.129L767.353 406.612H763.455L759.664 395.669H762.926L765.411 403.571L767.882 395.669Z" fill="#231F20"/>
<path d="M779.078 398.104H775.118V399.889H778.612V402.203H775.118V404.172H779.078V406.607H772.074V395.664H779.078V398.099V398.104Z" fill="#231F20"/>
<path d="M785.385 395.669C788.104 395.669 789.472 397.221 789.472 399.176C789.472 400.602 788.696 401.844 787.065 402.344L789.536 406.612H786.133L783.958 402.576H783.633V406.612H780.59V395.669H785.39H785.385ZM785.138 398.216H783.633V400.495H785.138C785.963 400.495 786.381 400.093 786.381 399.346C786.381 398.662 785.963 398.211 785.138 398.211V398.216Z" fill="#231F20"/>
<path d="M790.043 395.669H793.523L795.45 399.889L797.377 395.669H800.809L796.955 403.134V406.612H793.897V403.134L790.043 395.669Z" fill="#231F20"/>
<path d="M812.987 398.414C812.987 397.92 812.662 397.687 812.288 397.687C811.885 397.687 811.56 397.934 811.56 398.356C811.56 398.744 811.822 399.161 812.337 399.675L814.899 402.174C815.006 401.955 815.103 401.737 815.196 401.504L815.506 400.946H818.52L818.069 401.815C817.71 402.668 817.307 403.43 816.841 404.065L819.452 406.612H816.021L815.137 405.773C814.157 406.442 812.992 406.782 811.613 406.782C809.002 406.782 807.371 405.433 807.371 403.43C807.371 402.14 808.041 400.995 809.453 400.296C808.924 399.627 808.725 399.055 808.725 398.385C808.725 396.785 809.997 395.451 812.312 395.451C814.628 395.451 815.836 396.896 815.807 398.414H812.997H812.987ZM813.269 403.988L811.109 401.941C810.565 402.266 810.303 402.717 810.303 403.168C810.303 403.803 810.846 404.347 811.808 404.347C812.366 404.347 812.846 404.22 813.269 403.988Z" fill="#231F20"/>
<path d="M738.185 419.757C738.185 422.924 735.962 425.233 732.467 425.233H728.133V414.29H732.467C735.962 414.29 738.185 416.541 738.185 419.752V419.757ZM732.239 422.551C733.996 422.551 735.098 421.556 735.098 419.757C735.098 417.957 733.996 416.934 732.239 416.934H731.181V422.551H732.239Z" fill="#231F20"/>
<path d="M746.559 416.73H742.598V418.515H746.093V420.829H742.598V422.798H746.559V425.233H739.555V414.29H746.559V416.725V416.73Z" fill="#231F20"/>
<path d="M752.615 421.542H751.11V425.238H748.066V414.295H752.619C755.338 414.295 756.721 415.833 756.721 417.943C756.721 419.854 755.401 421.542 752.619 421.542H752.615ZM752.318 419.121C753.236 419.121 753.61 418.656 753.61 417.943C753.61 417.23 753.236 416.75 752.318 416.75H751.105V419.126H752.318V419.121Z" fill="#231F20"/>
<path d="M760.985 414.295V422.91H764.387V425.238H757.941V414.295H760.985Z" fill="#231F20"/>
<path d="M770.816 425.345C767.71 425.345 765.195 423.016 765.195 419.728C765.195 416.439 767.71 414.125 770.816 414.125C773.923 414.125 776.422 416.439 776.422 419.728C776.422 423.016 773.923 425.345 770.816 425.345ZM770.816 422.522C772.384 422.522 773.33 421.42 773.33 419.728C773.33 418.035 772.384 416.919 770.816 416.919C769.248 416.919 768.302 418.006 768.302 419.728C768.302 421.45 769.234 422.522 770.816 422.522Z" fill="#231F20"/>
<path d="M776.984 414.295H780.465L782.392 418.515L784.319 414.295H787.75L783.896 421.76V425.238H780.838V421.76L776.984 414.295Z" fill="#231F20"/>
<path d="M788.681 414.295H792.36L795.107 421.406L797.796 414.295H801.461V425.238H798.418V419.199L796.35 425.238H793.802L791.719 419.155V425.238H788.676V414.295H788.681Z" fill="#231F20"/>
<path d="M810.207 416.73H806.247V418.515H809.741V420.829H806.247V422.798H810.207V425.233H803.203V414.29H810.207V416.725V416.73Z" fill="#231F20"/>
<path d="M821.858 414.295V425.238H818.815L814.762 419.121V425.238H811.719V414.295H814.762L818.815 420.489V414.295H821.858Z" fill="#231F20"/>
<path d="M822.992 414.295H831.846V416.716H828.924V425.238H825.88V416.716H822.992V414.295Z" fill="#231F20"/>
<path d="M895.881 395.077C898.628 395.077 900.589 396.658 901.133 399.142H897.856C897.468 398.317 896.74 397.871 895.837 397.871C894.439 397.871 893.522 398.958 893.522 400.636C893.522 402.314 894.439 403.415 895.837 403.415C896.74 403.415 897.468 402.964 897.856 402.144H901.133C900.589 404.628 898.633 406.209 895.881 406.209C892.59 406.209 890.43 403.91 890.43 400.636C890.43 397.362 892.59 395.077 895.881 395.077Z" fill="#231F20"/>
<path d="M907.828 406.233C904.721 406.233 902.207 403.905 902.207 400.617C902.207 397.328 904.721 395.014 907.828 395.014C910.934 395.014 913.434 397.328 913.434 400.617C913.434 403.905 910.934 406.233 907.828 406.233ZM907.828 403.41C909.396 403.41 910.342 402.309 910.342 400.617C910.342 398.924 909.396 397.808 907.828 397.808C906.26 397.808 905.314 398.895 905.314 400.617C905.314 402.338 906.246 403.41 907.828 403.41Z" fill="#231F20"/>
<path d="M917.844 395.184V403.799H921.247V406.127H914.801V395.184H917.844Z" fill="#231F20"/>
<path d="M925.469 395.184V403.799H928.872V406.127H922.426V395.184H925.469Z" fill="#231F20"/>
<path d="M936.979 404.342H933.096L932.503 406.127H929.305L933.295 395.184H936.804L940.779 406.127H937.566L936.974 404.342H936.979ZM935.037 398.478L933.872 402.014H936.217L935.037 398.478Z" fill="#231F20"/>
<path d="M947.199 406.127H941.777V395.184H947.029C949.252 395.184 950.616 396.208 950.616 398.027C950.616 399.346 949.84 400.214 948.767 400.51C950.073 400.806 950.864 401.907 950.864 403.149C950.864 404.997 949.544 406.127 947.199 406.127ZM946.359 397.605H944.821V399.53H946.359C947.107 399.53 947.51 399.22 947.51 398.584C947.51 397.949 947.107 397.605 946.359 397.605ZM946.578 401.689H944.821V403.677H946.592C947.354 403.677 947.743 403.367 947.743 402.717C947.743 402.067 947.325 401.694 946.578 401.694V401.689Z" fill="#231F20"/>
<path d="M957.453 406.233C954.346 406.233 951.832 403.905 951.832 400.617C951.832 397.328 954.346 395.014 957.453 395.014C960.559 395.014 963.059 397.328 963.059 400.617C963.059 403.905 960.559 406.233 957.453 406.233ZM957.453 403.41C959.021 403.41 959.967 402.309 959.967 400.617C959.967 398.924 959.021 397.808 957.453 397.808C955.885 397.808 954.939 398.895 954.939 400.617C954.939 402.338 955.871 403.41 957.453 403.41Z" fill="#231F20"/>
<path d="M969.229 395.184C971.947 395.184 973.316 396.736 973.316 398.691C973.316 400.117 972.54 401.359 970.909 401.858L973.379 406.127H969.977L967.802 402.091H967.477V406.127H964.434V395.184H969.234H969.229ZM968.982 397.731H967.477V400.01H968.982C969.807 400.01 970.224 399.608 970.224 398.861C970.224 398.177 969.807 397.726 968.982 397.726V397.731Z" fill="#231F20"/>
<path d="M981.619 404.342H977.736L977.144 406.127H973.945L977.935 395.184H981.445L985.42 406.127H982.207L981.614 404.342H981.619ZM979.678 398.478L978.513 402.014H980.857L979.678 398.478Z" fill="#231F20"/>
<path d="M985.812 395.184H994.666V397.605H991.744V406.127H988.701V397.605H985.812V395.184Z" fill="#231F20"/>
<path d="M995.805 395.184H998.848V406.127H995.805V395.184Z" fill="#231F20"/>
<path d="M1007.99 395.184H1011.24L1007.47 406.127H1003.57L999.777 395.184H1003.04L1005.52 403.086L1007.99 395.184Z" fill="#231F20"/>
<path d="M1019.2 397.619H1015.23V399.404H1018.73V401.718H1015.23V403.687H1019.2V406.122H1012.19V395.179H1019.2V397.614V397.619Z" fill="#231F20"/>
<path d="M897.809 416.245H893.848V418.03H897.343V420.344H893.848V422.313H897.809V424.748H890.805V413.805H897.809V416.24V416.245Z" fill="#231F20"/>
<path d="M909.456 413.81V424.753H906.413L902.36 418.636V424.753H899.316V413.81H902.36L906.413 420.004V413.81H909.456Z" fill="#231F20"/>
<path d="M918.608 413.81H921.856L918.079 424.753H914.182L910.391 413.81H913.652L916.138 421.712L918.608 413.81Z" fill="#231F20"/>
<path d="M922.801 413.81H925.844V424.753H922.801V413.81Z" fill="#231F20"/>
<path d="M932.382 413.81C935.1 413.81 936.469 415.362 936.469 417.317C936.469 418.743 935.692 419.985 934.061 420.484L936.532 424.753H933.129L930.955 420.717H930.629V424.753H927.586V413.81H932.386H932.382ZM932.134 416.357H930.629V418.636H932.134C932.959 418.636 933.377 418.234 933.377 417.487C933.377 416.803 932.959 416.352 932.134 416.352V416.357Z" fill="#231F20"/>
<path d="M943.101 424.86C939.995 424.86 937.48 422.531 937.48 419.243C937.48 415.954 939.995 413.64 943.101 413.64C946.208 413.64 948.708 415.954 948.708 419.243C948.708 422.531 946.208 424.86 943.101 424.86ZM943.101 422.037C944.669 422.037 945.616 420.936 945.616 419.243C945.616 417.55 944.669 416.434 943.101 416.434C941.533 416.434 940.587 417.521 940.587 419.243C940.587 420.965 941.519 422.037 943.101 422.037Z" fill="#231F20"/>
<path d="M960.218 413.81V424.753H957.175L953.122 418.636V424.753H950.078V413.81H953.122L957.175 420.004V413.81H960.218Z" fill="#231F20"/>
<path d="M961.958 413.81H965.637L968.385 420.921L971.074 413.81H974.738V424.753H971.695V418.714L969.627 424.753H967.079L964.996 418.67V424.753H961.953V413.81H961.958Z" fill="#231F20"/>
<path d="M983.485 416.245H979.524V418.03H983.019V420.344H979.524V422.313H983.485V424.748H976.48V413.805H983.485V416.24V416.245Z" fill="#231F20"/>
<path d="M995.132 413.81V424.753H992.089L988.036 418.636V424.753H984.992V413.81H988.036L992.089 420.004V413.81H995.132Z" fill="#231F20"/>
<path d="M996.27 413.81H1005.12V416.23H1002.2V424.753H999.158V416.23H996.27V413.81Z" fill="#231F20"/>
<path d="M1064.77 392.759H1067.81V403.702H1064.77V392.759Z" fill="#231F20"/>
<path d="M1068.95 392.759H1077.8V395.179H1074.88V403.702H1071.83V395.179H1068.95V392.759Z" fill="#231F20"/>
<path d="M1085.94 395.194H1081.98V396.979H1085.47V399.292H1081.98V401.262H1085.94V403.697H1078.93V392.754H1085.94V395.189V395.194Z" fill="#231F20"/>
<path d="M1092.24 392.759C1094.96 392.759 1096.33 394.311 1096.33 396.266C1096.33 397.692 1095.56 398.934 1093.92 399.433L1096.39 403.702H1092.99L1090.82 399.666H1090.49V403.702H1087.45V392.759H1092.25H1092.24ZM1092 395.305H1090.49V397.585H1092C1092.82 397.585 1093.24 397.182 1093.24 396.436C1093.24 395.752 1092.82 395.301 1092 395.301V395.305Z" fill="#231F20"/>
<path d="M1104.64 401.917H1100.76L1100.16 403.702H1096.96L1100.95 392.759H1104.46L1108.44 403.702H1105.23L1104.63 401.917H1104.64ZM1102.7 396.052L1101.53 399.588H1103.88L1102.7 396.052Z" fill="#231F20"/>
<path d="M1108.84 392.759H1117.69V395.179H1114.77V403.702H1111.72V395.179H1108.84V392.759Z" fill="#231F20"/>
<path d="M1118.82 392.759H1121.86V403.702H1118.82V392.759Z" fill="#231F20"/>
<path d="M1131.01 392.759H1134.26L1130.48 403.702H1126.58L1122.79 392.759H1126.05L1128.54 400.66L1131.01 392.759Z" fill="#231F20"/>
<path d="M1142.21 395.194H1138.25V396.979H1141.75V399.292H1138.25V401.262H1142.21V403.697H1135.21V392.754H1142.21V395.189V395.194Z" fill="#231F20"/>
<path d="M1064.77 411.385H1067.81V422.328H1064.77V411.385Z" fill="#231F20"/>
<path d="M1069.55 411.385H1073.23L1075.98 418.496L1078.67 411.385H1082.33V422.328H1079.29V416.289L1077.22 422.328H1074.67L1072.59 416.245V422.328H1069.55V411.385H1069.55Z" fill="#231F20"/>
<path d="M1088.63 418.631H1087.12V422.328H1084.08V411.385H1088.63C1091.35 411.385 1092.73 412.922 1092.73 415.032C1092.73 416.944 1091.41 418.631 1088.63 418.631H1088.63ZM1088.33 416.211C1089.25 416.211 1089.62 415.745 1089.62 415.032C1089.62 414.319 1089.25 413.839 1088.33 413.839H1087.12V416.216H1088.33V416.211Z" fill="#231F20"/>
<path d="M1098.75 411.385C1101.47 411.385 1102.84 412.937 1102.84 414.892C1102.84 416.318 1102.06 417.56 1100.43 418.059L1102.9 422.328H1099.5L1097.33 418.292H1097V422.328H1093.96V411.385H1098.76H1098.75ZM1098.51 413.931H1097V416.211H1098.51C1099.33 416.211 1099.75 415.808 1099.75 415.061C1099.75 414.378 1099.33 413.926 1098.51 413.926V413.931Z" fill="#231F20"/>
<path d="M1109.47 422.434C1106.36 422.434 1103.85 420.106 1103.85 416.817C1103.85 413.529 1106.36 411.215 1109.47 411.215C1112.58 411.215 1115.07 413.529 1115.07 416.817C1115.07 420.106 1112.58 422.434 1109.47 422.434ZM1109.47 419.611C1111.04 419.611 1111.98 418.51 1111.98 416.817C1111.98 415.125 1111.04 414.009 1109.47 414.009C1107.9 414.009 1106.95 415.096 1106.95 416.817C1106.95 418.539 1107.89 419.611 1109.47 419.611Z" fill="#231F20"/>
<path d="M1123.85 411.385H1127.1L1123.32 422.328H1119.42L1115.63 411.385H1118.89L1121.38 419.286L1123.85 411.385Z" fill="#231F20"/>
<path d="M1135.05 413.82H1131.09V415.605H1134.59V417.918H1131.09V419.888H1135.05V422.323H1128.05V411.38H1135.05V413.815V413.82Z" fill="#231F20"/>
<path d="M1136.56 411.385H1140.24L1142.99 418.496L1145.68 411.385H1149.34V422.328H1146.3V416.289L1144.23 422.328H1141.68L1139.6 416.245V422.328H1136.55V411.385H1136.56Z" fill="#231F20"/>
<path d="M1158.09 413.82H1154.13V415.605H1157.62V417.918H1154.13V419.888H1158.09V422.323H1151.08V411.38H1158.09V413.815V413.82Z" fill="#231F20"/>
<path d="M1169.74 411.385V422.328H1166.69L1162.64 416.211V422.328H1159.6V411.385H1162.64L1166.69 417.579V411.385H1169.74Z" fill="#231F20"/>
<path d="M1170.87 411.385H1179.72V413.805H1176.8V422.328H1173.76V413.805H1170.87V411.385Z" fill="#231F20"/>
<path d="M205.656 416.265H200.234V405.322H205.486C207.709 405.322 209.073 406.345 209.073 408.164C209.073 409.484 208.297 410.352 207.224 410.648C208.53 410.944 209.321 412.045 209.321 413.286C209.321 415.134 208.001 416.265 205.656 416.265ZM204.816 407.742H203.278V409.668H204.816C205.564 409.668 205.967 409.357 205.967 408.722C205.967 408.087 205.564 407.742 204.816 407.742ZM205.035 411.826H203.278V413.815H205.049C205.812 413.815 206.2 413.505 206.2 412.855C206.2 412.205 205.782 411.831 205.035 411.831V411.826Z" fill="#231F20"/>
<path d="M217.588 414.48H213.705L213.113 416.265H209.914L213.904 405.322H217.413L221.389 416.265H218.175L217.583 414.48H217.588ZM215.647 408.615L214.482 412.151H216.826L215.647 408.615Z" fill="#231F20"/>
<path d="M227.467 405.21C230.214 405.21 232.175 406.791 232.718 409.275H229.442C229.054 408.45 228.326 408.004 227.423 408.004C226.025 408.004 225.108 409.091 225.108 410.769C225.108 412.447 226.025 413.548 227.423 413.548C228.326 413.548 229.054 413.097 229.442 412.277H232.718C232.175 414.761 230.219 416.342 227.467 416.342C224.176 416.342 222.016 414.043 222.016 410.769C222.016 407.495 224.176 405.21 227.467 405.21Z" fill="#231F20"/>
<path d="M237.204 411.467V416.265H234.16V405.322H237.204V410.041L240.606 405.322H244.116L240.092 410.628L244.315 416.265H240.635L237.204 411.467Z" fill="#231F20"/>
<path d="M248.477 405.322V413.936H251.88V416.265H245.434V405.322H248.477Z" fill="#231F20"/>
<path d="M258.312 416.371C255.206 416.371 252.691 414.043 252.691 410.754C252.691 407.466 255.206 405.152 258.312 405.152C261.419 405.152 263.918 407.466 263.918 410.754C263.918 414.043 261.419 416.371 258.312 416.371ZM258.312 413.548C259.88 413.548 260.827 412.447 260.827 410.754C260.827 409.061 259.88 407.946 258.312 407.946C256.744 407.946 255.798 409.032 255.798 410.754C255.798 412.476 256.73 413.548 258.312 413.548Z" fill="#231F20"/>
<path d="M275.554 408.921H272.277C271.938 408.348 271.316 408.019 270.477 408.019C268.938 408.019 268.006 409.091 268.006 410.764C268.006 412.641 268.967 413.65 270.773 413.65C271.831 413.65 272.607 413.155 273.054 412.205H269.996V410.017H275.68V412.966C275.03 414.567 273.336 416.332 270.477 416.332C267.123 416.332 264.914 414.033 264.914 410.759C264.914 407.485 267.103 405.2 270.457 405.2C273.224 405.2 275.117 406.627 275.554 408.911V408.921Z" fill="#231F20"/>
<path d="M285.092 405.21C287.839 405.21 289.8 406.791 290.343 409.275H287.067C286.679 408.45 285.951 408.004 285.048 408.004C283.65 408.004 282.733 409.091 282.733 410.769C282.733 412.447 283.65 413.548 285.048 413.548C285.951 413.548 286.679 413.097 287.067 412.277H290.343C289.8 414.761 287.844 416.342 285.092 416.342C281.801 416.342 279.641 414.043 279.641 410.769C279.641 407.495 281.801 405.21 285.092 405.21Z" fill="#231F20"/>
<path d="M296.585 405.322C299.303 405.322 300.672 406.874 300.672 408.829C300.672 410.255 299.895 411.497 298.264 411.996L300.735 416.265H297.332L295.158 412.229H294.832V416.265H291.789V405.322H296.59H296.585ZM296.337 407.868H294.832V410.148H296.337C297.162 410.148 297.58 409.745 297.58 408.999C297.58 408.315 297.162 407.863 296.337 407.863V407.868Z" fill="#231F20"/>
<path d="M309.055 407.757H305.094V409.542H308.589V411.855H305.094V413.825H309.055V416.26H302.051V405.317H309.055V407.752V407.757Z" fill="#231F20"/>
<path d="M317.49 414.48H313.607L313.015 416.265H309.816L313.806 405.322H317.316L321.291 416.265H318.078L317.486 414.48H317.49ZM315.549 408.615L314.384 412.151H316.728L315.549 408.615Z" fill="#231F20"/>
<path d="M321.684 405.322H330.537V407.742H327.615V416.265H324.572V407.742H321.684V405.322Z" fill="#231F20"/>
<path d="M331.668 405.322H334.711V416.265H331.668V405.322Z" fill="#231F20"/>
<path d="M341.707 416.371C338.6 416.371 336.086 414.043 336.086 410.754C336.086 407.466 338.6 405.152 341.707 405.152C344.813 405.152 347.313 407.466 347.313 410.754C347.313 414.043 344.813 416.371 341.707 416.371ZM341.707 413.548C343.275 413.548 344.221 412.447 344.221 410.754C344.221 409.061 343.275 407.946 341.707 407.946C340.139 407.946 339.192 409.032 339.192 410.754C339.192 412.476 340.124 413.548 341.707 413.548Z" fill="#231F20"/>
<path d="M358.819 405.322V416.265H355.776L351.723 410.148V416.265H348.68V405.322H351.723L355.776 411.516V405.322H358.819Z" fill="#231F20"/>
<path d="M44.7461 396.979H47.7895V407.922H44.7461V396.979Z" fill="#231F20"/>
<path d="M59.6789 396.979V407.922H56.6355L52.5825 401.805V407.922H49.5391V396.979H52.5825L56.6355 403.173V396.979H59.6789Z" fill="#231F20"/>
<path d="M61.4141 396.979H64.4575V407.922H61.4141V396.979Z" fill="#231F20"/>
<path d="M65.5938 396.979H74.4473V399.399H71.5252V407.922H68.4818V399.399H65.5938V396.979Z" fill="#231F20"/>
<path d="M75.5781 396.979H78.6215V407.922H75.5781V396.979Z" fill="#231F20"/>
<path d="M87.2912 406.137H83.4081L82.8159 407.922H79.6172L83.6071 396.979H87.1165L91.0918 407.922H87.8785L87.2863 406.137H87.2912ZM85.3496 400.272L84.1847 403.808H86.5291L85.3496 400.272Z" fill="#231F20"/>
<path d="M91.4844 396.979H100.338V399.399H97.4158V407.922H94.3724V399.399H91.4844V396.979Z" fill="#231F20"/>
<path d="M101.477 396.979H104.52V407.922H101.477V396.979Z" fill="#231F20"/>
<path d="M111.508 408.028C108.401 408.028 105.887 405.7 105.887 402.411C105.887 399.123 108.401 396.809 111.508 396.809C114.614 396.809 117.114 399.123 117.114 402.411C117.114 405.7 114.614 408.028 111.508 408.028ZM111.508 405.205C113.075 405.205 114.022 404.104 114.022 402.411C114.022 400.718 113.075 399.603 111.508 399.603C109.94 399.603 108.993 400.689 108.993 402.411C108.993 404.133 109.925 405.205 111.508 405.205Z" fill="#231F20"/>
<path d="M128.624 396.979V407.922H125.581L121.528 401.805V407.922H118.484V396.979H121.528L125.581 403.173V396.979H128.624Z" fill="#231F20"/>
<path d="M141.608 399.724C141.608 399.229 141.283 398.996 140.909 398.996C140.506 398.996 140.181 399.244 140.181 399.666C140.181 400.054 140.443 400.471 140.958 400.985L143.521 403.483C143.627 403.265 143.724 403.047 143.817 402.814L144.127 402.256H147.142L146.69 403.124C146.331 403.978 145.928 404.739 145.462 405.375L148.074 407.921H144.642L143.758 407.082C142.778 407.752 141.613 408.091 140.234 408.091C137.623 408.091 135.992 406.743 135.992 404.739C135.992 403.449 136.662 402.304 138.074 401.606C137.545 400.937 137.346 400.364 137.346 399.695C137.346 398.094 138.618 396.76 140.933 396.76C143.249 396.76 144.457 398.206 144.428 399.724H141.618H141.608ZM141.89 405.297L139.73 403.25C139.186 403.575 138.924 404.026 138.924 404.477C138.924 405.113 139.468 405.656 140.429 405.656C140.987 405.656 141.467 405.53 141.89 405.297Z" fill="#231F20"/>
<path d="M52.1591 415.605H55.4063L51.63 426.548H47.7323L43.9414 415.605H47.2032L49.6884 423.506L52.1591 415.605Z" fill="#231F20"/>
<path d="M56.3516 415.605H59.395V426.548H56.3516V415.605Z" fill="#231F20"/>
<path d="M65.2684 426.654C62.8317 426.654 60.9338 425.49 60.8125 423.147H64.0598C64.1229 423.972 64.6034 424.248 65.1616 424.248C65.7198 424.248 66.1227 423.967 66.1227 423.458C66.1081 421.702 60.7931 422.526 60.8416 418.724C60.8416 416.58 62.6279 415.435 64.9432 415.435C67.4575 415.435 69.1078 416.662 69.2146 418.835H65.9042C65.8751 418.151 65.4528 417.841 64.8946 417.841C64.4432 417.826 64.0889 418.088 64.0889 418.617C64.0889 420.247 69.3554 419.718 69.3554 423.225C69.3554 425.15 67.8652 426.654 65.2684 426.654Z" fill="#231F20"/>
<path d="M70.7656 415.605H73.809V426.548H70.7656V415.605Z" fill="#231F20"/>
<path d="M80.8005 426.654C77.694 426.654 75.1797 424.326 75.1797 421.037C75.1797 417.749 77.694 415.435 80.8005 415.435C83.907 415.435 86.4068 417.749 86.4068 421.037C86.4068 424.326 83.907 426.654 80.8005 426.654ZM80.8005 423.831C82.3683 423.831 83.3148 422.73 83.3148 421.037C83.3148 419.344 82.3683 418.229 80.8005 418.229C79.2327 418.229 78.2862 419.315 78.2862 421.037C78.2862 422.759 79.2181 423.831 80.8005 423.831Z" fill="#231F20"/>
<path d="M97.9171 415.605V426.548H94.8737L90.8207 420.431V426.548H87.7773V415.605H90.8207L94.8737 421.799V415.605H97.9171Z" fill="#231F20"/>
<path d="M99.6562 415.605H102.7V426.548H99.6562V415.605Z" fill="#231F20"/>
<path d="M114.585 415.605V426.548H111.542L107.489 420.431V426.548H104.445V415.605H107.489L111.542 421.799V415.605H114.585Z" fill="#231F20"/>
<path d="M126.589 419.204H123.313C122.973 418.631 122.352 418.302 121.512 418.302C119.973 418.302 119.041 419.374 119.041 421.047C119.041 422.924 120.002 423.933 121.808 423.933C122.866 423.933 123.643 423.438 124.089 422.488H121.031V420.3H126.715V423.249C126.065 424.85 124.371 426.615 121.512 426.615C118.158 426.615 115.949 424.316 115.949 421.042C115.949 417.768 118.138 415.483 121.492 415.483C124.259 415.483 126.152 416.909 126.589 419.194V419.204Z" fill="#231F20"/>
</g>
<defs>
<linearGradient id="paint0_linear_2654_39175" x1="378.297" y1="310.629" x2="524.053" y2="372.585" gradientUnits="userSpaceOnUse">
<stop offset="0.13" stop-color="#63AA41"/>
<stop offset="1" stop-color="#97CF3A"/>
</linearGradient>
<linearGradient id="paint1_linear_2654_39175" x1="379.211" y1="168.237" x2="392.507" y2="291.67" gradientUnits="userSpaceOnUse">
<stop stop-color="#4D998C"/>
<stop offset="0.81" stop-color="#70B54A" stop-opacity="0.8"/>
<stop offset="1" stop-color="#79BD3A" stop-opacity="0.75"/>
</linearGradient>
<linearGradient id="paint2_linear_2654_39175" x1="1020.27" y1="409.707" x2="1265.7" y2="409.707" gradientUnits="userSpaceOnUse">
<stop offset="0.49" stop-color="#394E0A"/>
<stop offset="1" stop-color="#273104"/>
</linearGradient>
<linearGradient id="paint3_linear_2654_39175" x1="841.152" y1="409.707" x2="1091.82" y2="409.707" gradientUnits="userSpaceOnUse">
<stop stop-color="#97CF3A"/>
<stop offset="1" stop-color="#2E3F04"/>
</linearGradient>
<linearGradient id="paint4_linear_2654_39175" x1="558.692" y1="409.707" x2="873.89" y2="409.707" gradientUnits="userSpaceOnUse">
<stop stop-color="#80BE3D"/>
<stop offset="1" stop-color="#97CF3A"/>
</linearGradient>
<clipPath id="clip0_2654_39175">
<rect width="1200" height="450" fill="white"/>
</clipPath>
</defs>
</svg>
