<svg width="640" height="500" viewBox="0 0 640 500" fill="none" xmlns="http://www.w3.org/2000/svg">
<g clip-path="url(#clip0_2631_28829)">
<path d="M582.107 413.392H585.293V332.432H582.107V413.392Z" fill="#110809"/>
<path d="M611.493 430.389C611.493 418.43 593.176 413.427 584.01 413.392C573.108 413.374 556.527 418.011 556.527 430.389" stroke="#110809" stroke-width="2" stroke-miterlimit="10"/>
<path d="M583.711 433.579V413.723" stroke="#110809" stroke-width="2" stroke-miterlimit="10"/>
<path d="M552.043 433.266C552.043 436.125 554.051 438.461 556.543 438.461C559.034 438.461 561.043 436.142 561.043 433.266C561.043 430.389 559.034 428.071 556.543 428.071C554.051 428.071 552.043 430.389 552.043 433.266Z" fill="#110809"/>
<path d="M579.301 433.266C579.301 436.125 581.309 438.461 583.801 438.461C586.292 438.461 588.301 436.142 588.301 433.266C588.301 430.389 586.292 428.071 583.801 428.071C581.309 428.071 579.301 430.389 579.301 433.266Z" fill="#110809"/>
<path d="M606.559 433.266C606.559 436.125 608.567 438.461 611.059 438.461C613.55 438.461 615.558 436.142 615.558 433.266C615.558 430.389 613.55 428.071 611.059 428.071C608.567 428.071 606.559 430.389 606.559 433.266Z" fill="#110809"/>
<path d="M589.854 305.254V245.685C589.854 235.382 597.087 227.014 606.026 227.014H623.83C632.754 227.014 640.002 235.365 640.002 245.685V312.28C640.002 326.993 629.583 339.022 616.838 339.022H558.792C557.282 339.022 556.074 337.61 556.074 335.884C556.074 334.141 557.297 332.746 558.792 332.746H566.056C579.208 332.746 589.854 320.438 589.854 305.272V305.254Z" fill="#F7FAE6"/>
<path d="M175.467 321.833H172.281V402.793H175.467V321.833Z" fill="#110809"/>
<path d="M146.066 419.79C146.066 407.831 164.383 402.828 173.549 402.793C184.452 402.776 201.032 407.413 201.032 419.79" stroke="#110809" stroke-width="2" stroke-miterlimit="10"/>
<path d="M173.852 422.998V403.124" stroke="#110809" stroke-width="2" stroke-miterlimit="10"/>
<path d="M205.531 422.684C205.531 425.543 203.523 427.879 201.031 427.879C198.54 427.879 196.531 425.56 196.531 422.684C196.531 419.807 198.54 417.489 201.031 417.489C203.523 417.489 205.531 419.807 205.531 422.684Z" fill="#110809"/>
<path d="M178.273 422.684C178.273 425.543 176.265 427.879 173.773 427.879C171.282 427.879 169.273 425.56 169.273 422.684C169.273 419.807 171.282 417.489 173.773 417.489C176.265 417.489 178.273 419.807 178.273 422.684Z" fill="#110809"/>
<path d="M146.519 427.879C149.005 427.879 151.019 425.553 151.019 422.684C151.019 419.815 149.005 417.489 146.519 417.489C144.034 417.489 142.02 419.815 142.02 422.684C142.02 425.553 144.034 427.879 146.519 427.879Z" fill="#110809"/>
<path d="M173.836 294.655V235.086C173.836 224.783 166.603 216.415 157.663 216.415H139.86C130.936 216.415 123.688 224.766 123.688 235.086V301.681C123.688 316.394 134.107 328.423 146.852 328.423H204.897C206.407 328.423 207.616 327.011 207.616 325.285C207.616 323.542 206.392 322.147 204.897 322.147H197.634C184.482 322.147 173.836 309.839 173.836 294.672V294.655Z" fill="#F7FAE6"/>
<path d="M309.195 167.271C309.905 165.615 310.479 163.889 310.901 162.233C312.321 156.62 312.26 150.326 315.099 145.462C316.609 145.654 317.168 147.833 317.289 149.577C317.757 156.079 317.304 162.617 316.866 169.137C316.76 170.775 316.64 172.431 316.126 173.966C315.552 175.691 314.51 177.156 313.484 178.568C311.49 181.34 306.296 191.904 302.808 190.422C300.316 189.376 299.35 183.013 300.074 180.503C301.147 176.79 303.397 175.587 305.616 173.129C307.066 171.508 308.274 169.45 309.21 167.254L309.195 167.271Z" fill="#FF9575"/>
<path d="M254.034 436.491C254.17 436.753 254.336 436.997 254.532 437.206C257.16 440.204 262.55 439.577 266.144 439.594C271.233 439.612 276.352 439.647 281.426 438.67C283.027 438.374 284.748 437.868 285.835 436.421C288.281 433.144 284.37 430.39 282.166 429.744C279.901 429.082 277.515 428.908 275.205 428.437C272.894 427.984 270.569 427.199 268.802 425.508C267.383 424.148 266.386 422.213 266.008 420.069C265.616 417.82 265.797 415.136 264.378 413.601C263.124 412.242 260.542 412.172 258.957 413.166C256.993 414.386 255.634 416.687 254.895 419.023C253.717 422.702 253.988 426.885 253.626 430.703C253.445 432.656 253.173 434.87 254.034 436.491Z" fill="#110809"/>
<path d="M272.88 323.594C272.76 322.618 272.639 321.659 272.503 320.7C270.917 309.526 267.459 299.327 265.134 288.484C261.902 273.509 258.671 258.656 254.413 244.012C252.661 237.997 251.302 230.449 248.614 224.94C246.153 219.884 242.815 220.285 237.727 221.384C234.873 221.994 231.853 222.726 229.769 225.062C228.41 226.596 227.624 228.653 226.9 230.675C222.883 242.024 221.237 252.38 220.452 264.391C219.923 272.532 221.418 278.634 223.109 286.235C225.012 294.829 224.982 302.639 229.255 310.484C232.139 315.767 236.081 320.404 237.787 326.331C239.478 332.223 239.237 338.569 240.928 344.514C242.423 349.744 244.597 354.66 246.47 359.716C248.584 365.434 248.825 371.797 249.037 378.02C249.565 393.553 250.079 409.104 250.607 424.637C256.844 423.12 263.08 421.603 269.317 420.087C270.162 419.877 271.068 419.633 271.597 418.866C272.186 418.029 272.14 416.827 272.08 415.746C271.053 396.761 273.016 377.759 273.786 358.757C274.254 347.059 274.27 335.239 272.865 323.612L272.88 323.594Z" fill="#0E398A"/>
<path d="M192.831 443.552C192.967 443.813 193.133 444.057 193.329 444.266C195.956 447.265 201.347 446.637 204.941 446.655C210.03 446.672 215.149 446.707 220.223 445.731C221.823 445.434 223.545 444.929 224.632 443.482C227.078 440.204 223.167 437.45 220.963 436.805C218.698 436.142 216.312 435.968 214.001 435.497C211.691 435.044 209.366 434.26 207.599 432.569C206.179 431.209 205.183 429.274 204.805 427.13C204.413 424.881 204.594 422.196 203.174 420.662C201.921 419.285 199.339 419.232 197.753 420.226C195.79 421.446 194.431 423.748 193.691 426.084C192.514 429.762 192.785 433.946 192.423 437.764C192.242 439.716 191.97 441.93 192.831 443.552Z" fill="#110809"/>
<path d="M261.78 129.319C262.067 129.232 262.354 129.127 262.626 129.023C265.133 127.977 266.99 125.396 267.941 122.52C268.893 119.643 269.029 116.506 268.908 113.437C268.817 111.136 268.591 108.835 268.727 106.534C268.863 104.18 269.391 101.792 268.863 99.5256C267.549 93.7378 261.418 93.0231 257.13 93.18C252.011 93.3717 246.076 96.806 243.358 101.949C241.923 104.651 241.47 108.172 242.633 111.031C243.6 113.385 245.532 115.059 247.586 116.174C244.581 120.114 241.561 124.054 238.556 128.011C235.853 131.55 232.501 134.758 231.474 139.517C230.885 142.307 234.086 143.074 235.264 141.034C236.034 139.726 237.076 138.593 238.209 137.53C238.511 139.779 239.93 141.017 241.501 141.051C241.712 143.004 243.388 144.608 245.17 143.876C251.361 141.313 253.415 132.387 259.757 129.964C260.421 129.72 261.101 129.563 261.765 129.354L261.78 129.319Z" fill="#FF9575"/>
<path d="M240.324 153.325C241.23 149.489 245.76 141.679 244.099 138.21C242.71 135.334 239.478 134.166 236.654 134.689C233.831 135.212 231.339 137.06 229.044 139.012C215.846 150.152 205.563 165.632 198.858 182.839C197.439 186.483 196.155 190.283 195.868 194.275C195.566 198.511 196.397 202.73 197.212 206.862C200.761 224.696 204.324 242.53 207.873 260.364C211.693 262.23 216.193 258.673 217.658 254.175C219.123 249.695 218.443 244.692 217.794 239.95C216.994 234.075 216.299 228.183 215.71 222.29C215.061 215.84 214.593 208.919 217.265 203.183C218.443 200.673 220.195 198.459 220.829 195.687C221.237 193.926 221.146 192.044 221.66 190.318C222.883 186.238 226.824 183.868 229.013 180.538C231.716 176.424 234.404 171.176 236.262 166.434C237.923 162.198 239.267 157.788 240.324 153.307V153.325Z" fill="#F02B66"/>
<path d="M261.716 184.373C261.761 177.783 263.271 171.298 265.129 165.126C266.971 159.025 269.976 153.237 271.26 146.979C271.441 146.072 271.607 145.113 271.441 144.207C271.169 142.655 270.052 141.522 268.934 140.615C261.686 134.828 250.95 132.213 242.252 132.666C229.537 133.328 220.235 146.177 218.816 160.28C218.061 167.829 219.163 175.429 220.537 182.856C221.912 190.282 223.588 197.674 223.995 205.258C224.267 210.418 223.95 215.595 223.784 220.756C223.648 225.567 222.712 230.78 227.227 233.151C238.175 238.903 249.802 235.766 255.6 223.371C258.303 217.618 259.557 211.115 260.629 204.682C261.777 197.779 261.656 191.102 261.701 184.39L261.716 184.373Z" fill="#F02B66"/>
<path d="M300.785 175.9C296.119 181.078 291.453 186.256 286.787 191.433C285.383 192.985 283.979 194.554 282.287 195.652C280.808 188.487 279.72 181.13 278.09 174.035C276.61 167.62 277.002 160.908 275.945 154.405C275.432 151.267 274.647 148.862 273.091 146.543C271.627 144.364 270.902 141.609 268.591 140.337C268.002 140.023 267.383 139.831 266.81 139.5C265.39 138.663 264.242 136.902 262.657 136.955C262.355 136.955 262.053 137.059 261.841 137.286C261.69 137.46 261.585 137.67 261.509 137.896C261.102 139.099 261.132 140.424 261.102 141.714C261.041 144.312 260.86 147.502 259.773 149.838C258.731 152.087 257.795 153.935 257.085 156.445C255.469 162.268 254.246 168.352 254.457 174.506C254.593 178.603 256.632 180.712 257.779 184.565C259.003 188.696 259.244 193.142 259.984 197.395C261.615 206.879 265.632 215.805 271.43 222.796C272.382 223.946 273.439 225.097 274.767 225.567C284.87 229.159 293.009 214.027 298.52 206.827C304.228 199.365 309.483 189.429 312.216 179.945C309.876 176.981 307.309 174.244 304.545 171.786C303.307 173.163 302.069 174.541 300.816 175.918L300.785 175.9Z" fill="#F02B66"/>
<path d="M234.734 210.889C233.073 210.087 231.321 209.546 229.449 209.337C228.316 209.215 225.794 208.274 224.798 209.076C223.711 209.947 223.409 213.329 222.774 214.776C220.887 219.1 217.806 222.586 214.998 226.108C210.664 231.564 206.753 237.457 203.34 243.715C201.422 247.237 199.61 250.95 198.946 255.047C197.466 264.025 201.77 271.696 201.906 280.447C202.042 289.268 197.693 297.322 196.213 305.987C194.038 318.748 198.221 331.788 197.979 344.775C197.859 351.47 196.545 358.042 195.563 364.649C192.302 386.353 192.362 408.528 192.423 430.564L205.243 429.099C206.753 428.925 208.338 428.716 209.607 427.74C210.543 427.007 211.223 425.909 211.842 424.811C220.132 410.167 217.474 392.281 220.63 375.649C223.137 362.453 225.628 349.256 228.09 336.059C229.011 331.108 230.551 326.296 231.548 321.293C233.465 311.618 234.553 302.256 236.923 292.737C239.566 282.121 242.948 270.772 244.247 259.893C244.564 257.226 251.601 225.655 254.425 227.659C247.479 222.708 242.027 214.393 234.734 210.889Z" fill="#2155B5"/>
<path d="M273.887 101.844C276.062 99.613 277.572 96.6494 276.515 93.1453C275.412 89.4844 271.728 87.2355 268.451 87.9851C266.08 88.5256 264.057 90.3735 261.686 91.0359C257.397 92.2214 252.837 89.2926 248.549 90.5129C246.691 91.0359 245.015 92.3608 243.913 94.1739C242.75 96.0567 242.237 98.3927 241.089 100.293C239.217 103.326 236.106 104.634 233.207 105.906C230.836 106.952 226.698 108.086 225.354 110.77C224.418 112.67 224.041 114.937 224.312 117.098C224.418 117.953 224.63 118.807 224.584 119.679C224.463 121.736 222.984 123.287 221.866 124.909C219.556 128.256 218.65 133.137 220.371 136.92C221.534 139.465 223.663 141.226 225.868 142.568C227.438 143.527 229.099 144.329 230.851 144.538C236.74 145.253 242.644 143.283 246.842 138.297C250.24 134.27 252.188 128.639 252.097 123.008C252.052 120.236 251.674 117.029 253.411 115.094C254.8 113.542 256.416 113.298 256.839 110.84C257.126 109.114 256.31 107.162 257.126 105.558C257.76 104.32 258.923 103.466 260.116 103.117C261.807 102.629 263.589 102.978 265.295 103.396C268.542 104.181 271.094 104.616 273.676 102.071C273.751 102.001 273.827 101.914 273.902 101.844H273.887Z" fill="#1C0029"/>
<path d="M257.986 113.403C257.956 112.793 257.896 112.2 257.896 111.59C257.896 110.997 257.971 110.387 257.835 109.829C257.518 108.556 256.159 107.929 255.042 108.242C253.924 108.556 253.063 109.585 252.459 110.701C251.206 112.949 251.266 116.663 253.743 117.848C255.615 118.737 257.805 116.384 257.971 114.257C258.001 113.961 257.986 113.682 257.971 113.385L257.986 113.403Z" fill="#FF9575"/>
<path opacity="0.6" d="M231.262 244.657C228.318 242.774 219.726 236.411 219.726 236.411C219.318 236.254 213.972 245.999 213.308 250.741C213.036 252.711 213.233 254.89 214.365 256.389C215.03 257.261 215.951 257.854 216.917 258.168C219.061 258.83 221.402 258.15 223.259 256.773C225.932 254.803 229.843 247.882 231.262 244.674" stroke="#051433" stroke-miterlimit="10"/>
<path d="M263.41 118.162C263.637 119.121 264.135 120.044 264.89 120.55C265.645 121.038 266.687 121.021 267.321 120.323C267.563 120.062 267.729 119.713 267.865 119.347C268.061 118.789 268.182 118.197 268.212 117.586C268.212 117.534 268.212 117.482 268.167 117.464C268.121 117.464 268.121 117.552 268.167 117.534" fill="white"/>
<path d="M191.412 16.6138C191.503 13.5456 191.05 10.2507 190.929 7.30452C190.868 5.80527 190.808 4.30602 190.551 2.84164C190.491 2.45811 190.4 2.07458 190.219 1.74335C189.932 1.23779 189.419 0.958857 188.935 0.714793C187.909 0.174365 186.655 -0.348629 185.719 0.383563C185.387 0.64506 185.145 1.02859 184.919 1.41212C183.59 3.64356 182.941 6.2411 182.472 8.8735C182.17 10.5471 182.337 14.6787 180.962 15.5853C181.733 15.0797 180.555 8.08901 178.713 8.73404C178.275 8.89094 178.018 9.41393 177.957 9.93693C177.897 10.4599 178.003 10.9829 178.078 11.5059C178.546 15.3935 176.493 19.1939 176.689 23.1164C176.81 25.7139 177.882 28.0848 178.199 30.6475C178.546 33.2799 178.758 36.2261 178.577 38.8934C178.441 40.8633 178.592 47.0521 176.719 48.1852C179.135 46.7383 182.004 46.3548 184.632 47.1218C185.13 43.3911 185.628 39.6779 186.142 35.9472C186.474 33.4891 186.806 31.031 187.592 28.7124C188.694 25.4873 190.642 22.6631 191.201 19.2114C191.336 18.392 191.397 17.5203 191.427 16.6487L191.412 16.6138Z" fill="#FF9575"/>
<path d="M145.975 430.041C146.293 430.354 146.61 430.651 146.942 430.93C150.536 433.928 154.93 435.044 159.068 436.648C161.242 437.502 167.297 439.507 164.564 443.22C161.771 447.021 155.323 446.201 151.578 445.853C147.501 445.452 143.439 444.493 139.346 444.772C136.749 444.946 134.152 445.609 131.585 445.138C122.615 443.482 127.266 429.274 127.281 422.335C127.296 415.554 127.1 408.668 128.625 402.061C129.305 399.149 130.558 396.029 133.019 395C134.59 394.338 137.081 394.791 138.637 395.506C140.494 396.36 140.841 398.068 141.37 400.265C143.001 407.029 143.469 414.455 143.288 421.429C143.242 423.102 143.212 424.811 143.695 426.38C144.133 427.809 144.979 429.012 145.991 430.023L145.975 430.041Z" fill="#111314"/>
<path d="M117.481 106.185C117.587 106.604 117.677 107.022 117.798 107.44C118.206 109.009 118.161 110.823 118.297 112.461C118.523 115.373 118.644 118.371 119.112 121.248C119.716 124.961 127.991 141.627 131.102 141.54C134.514 141.453 137.202 125.344 136.628 121.509C135.843 116.297 133.442 105.959 133.427 105.889C132.415 102.716 130.679 99.6304 127.991 98.0963C125.152 96.475 121.181 96.8063 118.13 97.1898C117.632 97.2421 117.119 97.3467 116.741 97.7128C116.016 98.4101 116.152 99.735 116.364 100.798C116.711 102.612 117.089 104.425 117.511 106.203L117.481 106.185Z" fill="#FF9575"/>
<path d="M134.227 111.764C134.227 111.764 134.288 111.607 134.273 111.52C133.774 109.288 133.412 107.702 133.412 107.667C129.093 94.0693 116.907 98.0789 117.783 107.876C117.859 108.783 118.025 110.875 118.206 113.228L119.61 114.379C124.382 118.511 130.649 117.081 134.227 111.764Z" fill="url(#paint0_linear_2631_28829)"/>
<path d="M131.389 77.8914C129.063 76.8628 125.122 80.6981 122.706 81.4128C120.35 82.3891 116.651 83.6443 115.171 85.9455C112.03 90.8267 113.54 98.3056 116.394 103.274C116.877 104.111 117.904 106.255 118.463 107.022C122.842 113.193 129.667 112.793 132.959 111.346C136.885 109.62 138.652 105.401 138.742 99.8397C138.758 98.846 138.44 95.6383 138.35 94.6446C137.761 88.543 133.85 78.9548 131.404 77.8739L131.389 77.8914Z" fill="#FF9575"/>
<path d="M134.332 66.8387C133.834 67.0305 133.336 67.3791 132.898 67.6755C130.301 69.4362 127.129 69.3665 124.185 70.0987C119.806 71.1795 115.396 73.7422 113.071 78.3446C110.217 83.9929 112.059 91.1231 113.539 96.9806C113.645 97.3816 113.751 97.7825 113.917 98.1486C115.714 102.019 118.145 98.7588 118.492 95.8126C118.703 93.9647 118.492 92.0819 118.764 90.2514C119.383 86.1023 122.811 82.5808 126.465 82.8772C129.878 83.1561 133.985 82.0404 135.722 78.24C137.126 75.1717 137.368 71.441 136.386 68.1636C136.25 67.7103 136.069 67.2396 135.737 66.9607C135.329 66.6121 134.831 66.6469 134.347 66.8213L134.332 66.8387Z" fill="#151A36"/>
<path d="M138.288 91.6982C138.288 91.9249 138.258 92.1341 138.228 92.3433C138.107 92.3258 137.865 92.2561 137.79 92.1341C136.008 89.2925 135.766 85.5618 134.075 82.6853C133.365 81.465 132.188 81.4475 131.568 80.4887C130.678 79.0941 131.297 76.3222 132.444 75.3982C133.547 74.5091 135.238 74.7358 136.053 75.9561C136.31 76.3396 136.491 76.7929 136.642 77.2636C137.563 80.0878 137.745 83.1386 137.911 86.1371C138.001 87.8804 138.364 89.9549 138.273 91.7157L138.288 91.6982Z" fill="#151A36"/>
<path d="M117.977 100.903C117.629 101.653 117.086 102.315 116.406 102.647C115.727 102.978 114.896 102.978 114.262 102.542C113.281 101.862 112.405 99.4737 112.269 98.2185C112.133 96.9634 112.616 95.6384 113.477 94.8714C116.739 91.9775 119.381 97.7653 117.962 100.921L117.977 100.903Z" fill="#FF9575"/>
<path d="M139.316 91.3843C139.316 91.3843 139.316 91.4366 139.316 91.4715C139.376 92.1514 139.437 92.8661 139.316 93.5286C139.195 94.1911 138.878 94.871 138.35 95.2022C137.277 95.8646 135.767 94.4526 135.284 93.3891C134.68 92.0642 134.71 90.164 135.329 88.8565C135.767 87.9151 136.658 87.1306 137.564 87.3573C138.168 87.5142 138.636 88.1069 138.893 88.7519C139.135 89.4144 139.21 90.1291 139.271 90.8439C139.271 91.0182 139.301 91.1751 139.316 91.3495V91.3843Z" fill="#FF9575"/>
<path d="M153.781 126.529C153.449 125.832 152.678 125.588 152.014 125.414C150.006 124.873 148.028 124.263 146.064 123.548C144.222 122.886 142.622 121.892 140.674 121.509C140.19 121.404 139.692 121.334 139.224 121.177C138.862 121.055 138.514 120.864 138.167 120.689C137.518 120.358 136.883 120.009 136.234 119.678C136.521 122.101 136.174 124.821 134.83 126.791C133.063 129.371 129.771 130.243 127.053 129.807C124.426 129.388 121.949 127.785 120.771 124.978C120.107 123.409 119.367 121.77 118.869 120.131C117.872 119.887 115.607 120.689 114.882 120.864C112.798 121.387 110.73 121.997 108.676 122.607C105.535 123.548 102.394 124.525 99.2834 125.588C95.916 128.726 99.3891 134.2 98.921 136.606C97.5167 143.771 98.317 230.466 98.317 230.466L148.873 229.524C149.175 224.277 149.462 219.012 149.749 213.747C150.353 202.364 150.942 190.997 151.455 179.613C151.954 168.7 152.452 157.77 152.663 146.822C152.709 144.747 152.709 142.655 152.724 140.581C152.724 138.924 152.543 137.286 152.724 135.63C152.724 135.525 152.754 135.403 152.769 135.298C153.116 132.771 153.947 130.347 153.977 127.767C153.977 127.331 153.962 126.896 153.781 126.512V126.529Z" fill="#FAD100"/>
<path d="M156.654 248.109C156.428 243.21 156.171 238.311 155.899 233.43C155.688 229.682 155.401 225.76 153.725 222.552C151.46 218.211 144.755 213.975 140.859 211.586C135.318 208.187 128.326 209.965 123.434 214.184C118.299 218.612 115.083 225.446 113.075 232.471C109.783 244.012 109.39 256.634 111.972 268.419C113.347 274.712 116.487 281.685 116.638 288.205C116.82 296.137 114.102 302.866 116.956 310.781C118.405 314.791 120.897 318.173 122.407 322.13C124.747 328.266 124.551 335.222 124.325 341.917C123.403 368.415 122.467 394.913 121.546 421.412H146.809V421.377C148.772 406.053 150.569 390.712 152.2 375.336C153.695 361.233 155.054 347.094 156.277 332.956C158.708 304.61 157.968 276.612 156.639 248.126L156.654 248.109Z" fill="#D4004A"/>
<path d="M62.8017 426.903C62.6809 427.478 62.6507 428.018 62.7715 428.507C63.1339 429.988 65.112 431.174 65.9728 432.446C67.5885 434.8 70.3519 435.637 72.934 435.985C75.2746 436.299 80.2275 435.933 81.5715 438.879C81.8131 439.42 81.8735 440.047 81.8282 440.657C81.2695 448.223 69.9895 446.393 65.7161 446.062C61.6843 445.748 57.6524 445.434 53.6206 445.138C47.807 444.685 42.5521 441.878 44.651 433.998C45.0738 432.394 45.6929 430.86 46.297 429.343C47.8372 425.508 49.3774 421.69 50.9177 417.855C52.2012 414.665 53.5451 411.387 55.8404 409.086C58.6038 406.314 65.4745 405.129 66.9543 410.324C67.4677 412.119 66.9241 414.054 66.3805 415.833C65.6708 418.169 64.9761 420.505 64.2664 422.823C63.9342 423.922 63.1037 425.473 62.8017 426.885V426.903Z" fill="#111314"/>
<path d="M130.831 215.718C130.71 214.323 130.544 212.841 129.728 211.813C129.064 210.976 128.082 210.592 127.312 209.895C124.987 207.786 126.029 206.618 122.238 205.973C119.4 205.484 116.47 205.467 113.616 205.885C108.618 206.618 103.333 208.692 99.8294 213.068C93.6231 220.808 90.7541 231.686 89.8178 241.972C88.5494 255.779 90.1349 269.795 88.6853 283.585C87.8246 291.726 85.9219 299.676 84.7441 307.782C84.0797 312.332 83.6116 317.039 81.8146 321.153C80.5613 324.012 78.719 326.47 77.1184 329.085C69.9608 340.748 69.9457 354.921 65.929 367.996C61.263 383.215 52.8672 403.438 47.582 418.378C48.4277 418.762 49.1525 419.058 49.5149 419.25C51.4628 420.226 53.4259 421.098 55.3889 422.022C59.2697 423.835 63.0146 425.961 66.7595 428.106C75.4574 410.655 88.3682 388.376 97.368 371.239C106.307 354.241 115.322 339.423 120.321 320.003C128.943 286.514 133.79 250.671 130.815 215.735L130.831 215.718Z" fill="#F02B66"/>
<path d="M131.343 183.972C131.433 183.449 131.524 182.926 131.615 182.403C132.959 173.495 133.774 164.499 134.393 155.487C134.695 150.971 134.982 146.474 135.209 141.958C135.405 138.141 135.994 134.392 136.22 130.557C136.417 127.245 136.658 123.723 138.606 121.178C138.742 121.213 138.893 121.213 139.059 121.178C144.525 119.783 149.222 113.961 152.876 107.877C153.45 107.58 154.054 107.493 154.658 107.755C155.775 108.225 156.319 109.707 156.56 111.049C157.346 115.286 156.576 119.592 156.832 123.863C157.059 127.681 157.467 130.871 157.391 134.741C157.315 138.977 157.889 142.952 156.364 146.979C154.613 151.581 154.794 156.201 154.93 161.205C155.654 189.22 157.467 217.235 159.807 245.041C159.913 245.598 159.248 245.877 158.765 245.895C152.785 246.261 146.791 245.668 140.811 245.093C139.724 244.988 138.606 244.866 137.67 244.256C136.809 243.698 136.175 242.792 135.646 241.833C132.415 236.045 132.43 229.508 132.113 222.918C131.735 215.143 131.358 207.368 130.965 199.592C130.814 196.594 130.407 193.508 130.467 190.51C130.512 188.348 130.98 186.151 131.358 183.99L131.343 183.972Z" fill="#2155B5"/>
<path d="M92.8242 181.514C90.7857 200.411 87.7656 219.134 85.7572 238.049C85.576 239.723 84.7002 242.39 86.0592 243.68C86.7539 244.36 87.7052 244.552 88.6112 244.726C95.0289 245.929 101.522 246.557 108.03 246.626C112.938 246.679 120.126 247.655 124.52 244.534C128.673 241.571 129.775 235.277 130.485 229.681C131.466 221.924 132.417 214.131 132.674 206.286C132.795 202.608 132.825 198.895 132.417 195.251C131.995 191.555 132.312 187.807 131.783 184.129C131.436 181.636 130.666 179.247 129.926 176.876C127.072 167.637 124.656 158.206 122.693 148.652C120.79 139.395 119.673 129.999 118.117 120.672C118.117 120.602 118.087 120.515 118.042 120.463C117.981 120.393 117.891 120.393 117.815 120.393C115.173 120.306 112.742 121.143 110.144 121.334C107.728 121.526 105.282 121.265 102.881 121.579C100.48 121.91 97.9885 122.938 96.5087 125.152C94.1379 128.709 94.1984 134.096 94.3645 138.349C94.5155 142.289 95.1648 146.264 95.0742 150.221C94.8175 160.681 93.9567 171.124 92.8393 181.514H92.8242Z" fill="#2155B5"/>
<path d="M70.9896 272.41C71.0349 269.046 69.4494 265.89 67.9846 263.049C67.8034 262.683 67.6071 262.317 67.3051 262.073C67.0182 261.811 66.6105 261.706 66.2783 261.881C66.0669 262.003 65.9008 262.229 65.78 262.474C64.0132 265.716 65.6743 267.355 67.5014 269.639C68.1658 270.493 68.8907 271.591 68.5585 272.672C68.3773 273.265 67.9091 273.683 67.5316 274.136C66.9427 274.834 66.5199 277.588 68.0752 276.734C69.7212 275.827 70.9594 274.555 70.9896 272.41Z" fill="#FF9575"/>
<path d="M71.2751 282.452C71.2449 279.906 71.5469 276.49 69.9463 274.45C68.5419 272.637 65.9447 272.096 63.9514 271.922C58.4398 271.416 56.2804 275.304 55.4801 281.074C55.2687 282.591 57.3223 282.887 57.5337 281.371C57.8055 279.418 58.0321 277.222 59.2703 275.74C60.6595 274.066 62.7736 274.101 64.6309 274.415C66.5336 274.729 68.3607 275.287 68.9798 277.675C69.3724 279.192 69.2063 281.231 69.2214 282.8C69.2214 284.334 71.2902 283.986 71.2751 282.452Z" fill="#111314"/>
<path d="M68.9799 259.946C68.6477 261.549 68.2853 263.136 68.1343 264.775C67.9078 267.233 68.4514 269.394 68.693 271.783C68.8591 273.578 69.1611 275.949 67.8323 277.292C67.1679 277.954 66.2618 278.25 65.386 278.25C62.8945 278.25 60.4633 276.507 59.3912 273.927C58.6663 272.166 58.4398 270.196 58.3341 268.261C58.0472 262.874 60.6747 258.255 62.5773 253.495C63.0908 252.205 63.8005 250.253 64.9783 249.573C66.5941 248.632 68.2098 249.939 68.9044 251.613C69.6896 253.513 69.6745 255.709 69.3876 257.749C69.2819 258.481 69.146 259.213 68.995 259.946H68.9799Z" fill="#FF9575"/>
<path d="M96.2675 285.743L31.5021 276.306C30.6747 276.185 29.9191 276.862 29.8145 277.817L24.6943 324.567C24.5897 325.522 25.1757 326.394 26.0031 326.515L90.7685 335.952C91.5959 336.072 92.3515 335.396 92.4561 334.441L97.5763 287.691C97.6809 286.736 97.0949 285.864 96.2675 285.743Z" fill="#0E398A"/>
<path d="M97.0062 287.647L62.0639 302.657C61.7015 302.814 61.2938 302.744 60.9767 302.5L30.3682 277.936C29.447 277.204 30.0208 275.67 31.1534 275.827L96.7042 285.38C97.8367 285.537 98.0632 287.194 97.0062 287.647Z" fill="#2155B5"/>
<path d="M62.6949 301.872C62.7704 300.425 60.8376 300.147 60.7621 301.593C60.6866 303.006 60.5507 304.4 60.3694 305.795C60.1731 307.224 62.106 307.503 62.3023 306.074C62.4986 304.679 62.6194 303.284 62.6949 301.872Z" fill="#2155B5"/>
<path d="M93.2142 126.948C86.0868 133.207 81.3604 143.126 79.941 153.446C79.5484 156.253 79.3823 159.147 78.4611 161.797C77.6155 164.255 76.1659 166.364 74.8824 168.561C71.2432 174.767 68.7667 181.862 67.6493 189.219C66.3657 197.622 66.8489 206.304 65.3993 214.689C62.9077 229.019 59.5253 242.46 58.4531 257.121C59.6008 257.418 72.1039 260.05 71.8472 260.939C73.7347 254.681 75.8035 248.457 77.5702 242.146C78.9595 237.16 80.8319 232.82 82.6138 227.973C85.2865 220.651 84.2446 211.778 87.9895 205.101C89.4391 202.503 91.523 200.446 93.0934 197.953C97.9407 190.213 97.2309 179.439 101.187 171.054C103.392 166.399 106.925 162.703 108.994 157.962C112.664 149.506 110.685 139.953 109.326 131.167C108.254 124.281 105.144 119.783 98.8014 123.113C96.8232 124.159 94.9659 125.449 93.2595 126.948H93.2142Z" fill="#2155B5"/>
<path d="M135.331 190.788C135.331 192.148 134.38 193.264 133.187 193.264C131.994 193.264 131.043 192.165 131.043 190.788C131.043 189.411 131.994 188.312 133.187 188.312C134.38 188.312 135.331 189.411 135.331 190.788Z" fill="#111314"/>
<path d="M135.331 206.112C135.331 207.472 134.38 208.587 133.187 208.587C131.994 208.587 131.043 207.489 131.043 206.112C131.043 204.735 131.994 203.636 133.187 203.636C134.38 203.636 135.331 204.735 135.331 206.112Z" fill="#111314"/>
<path d="M125.891 101.112C126.374 103.71 128.427 105.471 130.617 105.087C132.807 104.686 134.302 102.298 134.075 99.6479L125.906 101.112H125.891Z" fill="white"/>
<path d="M175.118 34.0474C172.868 41.439 172.672 51.0272 171.494 58.6107C171.116 61.0687 170.724 63.5442 169.848 65.828C168.655 68.9136 166.647 71.4763 165.303 74.4923C162.736 80.2801 162.917 87.1836 160.969 93.2677C157.828 102.995 149.704 109.446 145.536 118.65C141.278 128.082 141.097 140.058 142.169 151.198C142.562 155.208 143.105 159.113 143.694 162.739C145.189 172.1 159.58 154.092 161.89 151.268C169.395 142.046 176.296 131.534 178.803 118.982C179.497 115.46 179.844 111.869 180.464 108.33C181.128 104.564 182.079 100.869 182.94 97.1379C186.474 81.6224 189.796 64.6077 189.494 48.5343C189.418 44.1063 189.207 39.6957 189.131 35.2851C184.45 35.4246 179.754 34.9539 175.148 34.0648L175.118 34.0474Z" fill="#2155B5"/>
<path d="M115.548 120.411C115.427 121.387 115.261 124.456 115.231 124.769C115.05 126.809 114.869 128.849 114.687 130.906C114.34 134.863 113.978 138.803 113.63 142.76C113.57 143.458 113.51 144.155 113.449 144.852L120.139 146.875L114.974 153.952L131.66 183.31C130.316 175.744 129.003 168.16 127.568 160.612C126.224 153.604 124.548 146.735 123.038 139.797C121.573 133.102 120.108 126.391 118.629 119.696C117.617 119.731 116.605 119.871 115.624 120.115C115.609 120.115 115.593 120.219 115.563 120.411H115.548Z" fill="#0E398A"/>
<path d="M141.039 130.4C140.662 127.279 140.329 124.159 140.042 121.038C138.699 121.003 137.475 120.428 136.237 119.766C136.298 120.881 136.011 124.019 135.996 124.42C135.89 126.181 135.724 127.924 135.512 129.668C135.105 132.963 134.41 136.188 133.897 139.448C132.84 146.142 132.855 153.028 132.583 159.844C132.432 163.767 132.296 167.689 132.16 171.594C132.1 173.547 132.024 175.517 131.949 177.469C131.903 178.48 131.873 179.509 131.828 180.52C131.798 181.113 131.979 182.63 131.707 183.1L142.141 153.935L136.388 146.857C136.584 147.101 139.559 145.863 139.876 145.776C140.646 145.532 141.417 145.323 142.172 145.061C142.579 144.922 143.002 144.887 143.123 144.451C143.274 143.911 142.776 142.446 142.685 141.853C142.066 138.036 141.522 134.218 141.054 130.382L141.039 130.4Z" fill="#0E398A"/>
<path d="M507.671 437.084C507.308 438.008 506.855 438.897 506.297 439.734C502.672 444.981 496.058 445.487 490.788 448.311C488.403 449.583 484.914 453.297 487.255 456.452C488.871 458.631 492.978 458.439 495.183 458.265C503.02 457.62 510.827 456.487 518.558 454.9C519.268 454.761 520.023 454.587 520.566 454.029C521.412 453.192 521.518 451.745 521.563 450.472C521.835 442.227 521.88 433.981 521.714 425.752C521.714 425.752 511.884 425.456 510.947 425.944C508.894 427.007 509.196 428.96 508.954 431.261C508.743 433.266 508.38 435.271 507.686 437.101L507.671 437.084Z" fill="#110809"/>
<path d="M567.634 447.578C567.075 448.293 566.365 448.921 565.535 449.513C562.092 451.902 558.468 453.924 554.693 455.528C551.824 456.748 548.638 457.934 546.946 460.88C543.096 467.557 551.023 469.178 554.859 468.864C562.696 468.219 570.503 467.086 578.234 465.5C578.944 465.36 579.699 465.186 580.243 464.628C581.088 463.791 581.194 462.344 581.239 461.072C581.511 452.826 581.556 444.58 581.39 436.351C581.39 436.456 571.349 435.898 570.503 436.543C568.887 437.781 569.672 440.413 569.521 442.314C569.355 444.528 568.751 446.201 567.649 447.596L567.634 447.578Z" fill="#110809"/>
<path d="M569.084 269.778C568.209 260.399 565.642 249.991 562.501 241.309C562.078 240.141 561.262 237.021 559.964 236.759C559.224 236.602 556.747 238.851 555.962 239.27C554.346 240.106 552.655 240.751 550.964 241.327C547.204 242.617 543.323 243.454 539.623 245.04C536.785 246.26 531.968 248.317 530.684 251.63C528.902 256.25 527.241 260.922 525.716 265.663C524.342 269.917 522.288 274.397 521.609 278.86C521.02 282.748 521.02 286.357 519.872 290.279C515.267 306.039 507.127 320.369 504.123 336.634C502.839 343.537 502.522 350.615 502.326 357.676C501.586 384.435 502.552 413.008 504.274 439.716H524.191C524.81 434.678 525.414 427.879 526.033 422.841C526.713 417.227 527.407 411.579 528.978 406.209C529.884 403.106 531.092 400.125 531.817 396.97C534.006 387.539 532.013 376.869 535.984 368.24C536.966 366.113 538.264 364.213 539.306 362.104C540.998 358.634 541.904 354.747 542.689 350.859C544.999 339.458 546.555 327.621 551.311 317.266C554.014 311.408 557.653 309.316 561.519 305.045C564.554 301.663 566.94 294.777 567.876 290.14C569.205 283.498 569.719 276.611 569.084 269.813V269.778Z" fill="#D4004A"/>
<path d="M481.533 119.504C480.537 116.436 480.778 113.054 481.05 109.846C481.428 105.314 481.352 100.729 480.794 96.231C480.643 94.9758 480.446 93.7032 479.903 92.5875C479.117 90.9488 476.732 89.3101 475.191 90.635C474.633 91.1231 474.27 91.8553 473.953 92.5875C473.228 94.2959 472.368 96.2833 472.443 98.2184C472.519 100.153 473.047 102.228 472.443 104.128C471.899 105.802 471.069 103.762 470.888 102.838C470.722 102.001 469.816 99.8048 468.819 100.328C467.686 100.903 468.713 104.773 468.955 105.802C469.951 109.916 471.915 113.664 472.458 117.935C472.745 120.167 472.609 122.45 472.805 124.699C473.138 128.552 474.361 132.161 474.92 135.979C475.312 138.628 475.584 141.313 475.705 143.998C475.765 145.41 475.795 146.805 475.916 148.217C476.158 150.936 476.747 153.604 477.351 156.253C478 159.13 478.634 161.989 479.284 164.865C479.872 167.463 480.597 169.816 481.367 172.309C483.044 177.696 485.067 181.775 488.102 186.186C490.926 190.3 492.919 196.454 498.25 196.384C500.907 196.35 504.244 195.199 506.812 194.327C509.998 193.246 513.033 191.555 515.706 189.289C520.115 185.541 523.528 180.206 525.143 174.157C525.687 172.1 526.034 169.886 525.521 167.812C524.162 162.233 518.59 161.57 514.437 162.303C512.082 162.721 509.726 163.139 507.385 163.558C505.12 163.959 502.055 166.539 500.696 163.192C497.646 155.643 493.251 148.74 489.824 141.418C487.121 135.63 485.339 129.319 482.953 123.357C482.47 122.137 481.956 120.829 481.533 119.522V119.504Z" fill="#FF9575"/>
<path d="M593.491 280.429C594.714 267.825 591.558 254.716 584.853 244.674C580.701 238.433 574.857 233.186 568.092 232.331C543.448 229.193 546.03 281.005 547.344 297.95C548.401 311.478 550.304 324.919 551.179 338.464C551.783 347.861 551.104 357.257 551.164 366.619C551.225 376.137 554.517 385.865 556.163 395.192C556.857 399.097 561.115 432.725 562.595 449.409H583.57C586.952 419.546 589.338 389.526 590.697 359.454C591.165 349.151 591.543 338.708 591.724 328.44C591.92 317.789 589.701 307.381 590.999 296.59C591.648 291.168 592.962 285.869 593.491 280.429Z" fill="#F02B66"/>
<path d="M535.999 155.19C532.405 154.179 527.844 155.225 524.598 155.905C519.418 157.003 514.541 159.235 509.497 160.891C509.226 160.995 508.954 161.1 508.697 161.204C508.38 161.344 508.048 161.483 507.731 161.64C507.7 162.32 507.655 163 507.625 163.68C508.607 174.523 510.147 185.28 511.581 196.053C521.563 191.399 530.26 183.118 535.953 172.571C536.723 171.141 537.554 168.945 538.173 166.522C538.203 165.877 538.218 165.249 538.173 164.604C537.992 161.361 536.799 158.328 535.999 155.19Z" fill="#2155B5"/>
<path d="M527.832 255.849C533.162 254.315 521.701 203.898 520.855 199.139C519.693 192.602 518.53 186.012 518.228 179.352C518.032 175.064 518.258 170.462 520.448 166.992C521.882 164.726 523.981 163.174 526.05 161.693C536.816 153.917 546.103 143.789 559.452 143.074C560.222 143.039 561.007 143.022 561.732 143.353C563.167 143.998 563.922 145.759 564.556 147.363C567.682 155.312 568.89 163.994 572.091 171.769C575.353 179.719 577.572 187.633 579.445 196.193C583.265 213.713 586.753 231.478 588.399 249.469C586.421 244.727 564.843 250.201 560.131 250.846C549.35 252.31 538.583 253.984 527.847 255.867L527.832 255.849Z" fill="#2155B5"/>
<path d="M565.978 149.28C568.409 152.453 569.647 157.352 570.433 161.71C572.516 173.32 574.63 185.035 574.434 196.89C574.328 203.933 573.392 210.924 572.471 217.88C570.81 230.431 569.149 242.966 567.488 255.518C566.657 261.794 565.812 268.07 564.996 274.345C564.589 277.483 564.725 283.027 562.777 285.625C561.704 287.054 559.938 287.368 558.307 287.577C550.455 288.588 542.557 289.164 534.66 289.286C533.542 284.544 536.804 279.628 540.76 277.867C544.717 276.106 549.141 276.664 553.354 277.239C552.221 261.619 551.074 246.017 549.941 230.396C548.582 219.379 550.636 207.821 548.522 196.995C546.408 186.134 545.834 175.046 544.988 163.872C544.717 160.246 544.505 156.306 546.257 153.272C547.782 150.622 550.485 149.245 553.037 148.042C555.725 146.77 558.624 145.497 561.463 146.194C563.305 146.648 564.77 147.763 565.948 149.315L565.978 149.28Z" fill="#FF9575"/>
<path d="M544.138 192.828C554.935 190.509 565.973 189.655 576.951 190.3C576.393 180.747 575.245 171.246 573.524 161.902C572.482 156.236 571.032 150.274 567.302 146.404C560.824 139.709 546.962 141.47 543.821 151.581C540.167 163.366 542.19 180.956 544.138 192.845V192.828Z" fill="#2155B5"/>
<path d="M542.51 140.197C542.857 142.481 544.579 152.592 544.745 154.667C545.047 158.293 541.166 176.267 538.267 177.156C535.08 178.115 528.904 163.994 528.557 160.246C528.089 155.155 527.953 144.852 527.953 144.782C528.844 130.853 541.075 130.853 542.495 140.197H542.51Z" fill="#FF9575"/>
<path d="M540.563 134.775C539.884 133.974 538.812 133.939 537.302 133.834C535.429 133.712 533.481 133.991 531.926 135.298C529.404 137.39 527.698 141.139 527.985 144.765C528.09 146.177 528.105 147.467 528.287 148.705C528.468 149.977 528.815 151.18 529.6 152.453C530.627 154.091 531.986 155.416 533.315 156.724C533.995 157.386 534.704 158.066 535.565 158.345C537.03 158.816 538.54 157.996 539.884 157.177C546.724 152.906 542.421 143.475 541.348 136.867C541.182 135.891 540.926 135.246 540.563 134.81V134.775Z" fill="url(#paint1_linear_2631_28829)"/>
<path d="M523.441 118.18C525.359 116.523 529.889 118.877 532.305 118.807C534.706 118.999 538.436 119.034 540.323 120.725C544.34 124.299 544.672 131.69 543.147 137.182C542.89 138.106 542.422 140.407 542.09 141.296C539.432 148.356 533.015 150.065 529.632 149.734C525.601 149.333 522.988 145.951 521.629 140.825C521.388 139.901 520.95 136.833 520.814 135.874C519.968 130.034 521.403 119.94 523.426 118.197L523.441 118.18Z" fill="#FF9575"/>
<path d="M519.181 107.214C521.053 105.872 523.53 105.471 525.266 106.97C527.169 108.591 527.939 110.509 530.506 110.352C532.968 110.195 534.583 109.027 537.105 110.16C541.152 111.991 543.674 117.116 544.142 121.91C544.489 125.379 544.308 129.999 544.021 133.52C543.93 133.73 543.447 133.991 543.296 133.189C543.009 131.498 542.949 129.424 542.42 127.837C542.134 126.966 541.469 126.199 540.669 126.164C539.989 126.129 539.189 126.547 538.676 126.024C538.419 125.763 538.343 125.344 538.238 124.978C537.754 123.2 536.35 121.788 534.765 121.492C531.035 120.794 527.667 122.363 523.983 122.328C517.913 122.276 512.929 113.071 518.426 107.859C518.668 107.632 518.909 107.423 519.181 107.249V107.214Z" fill="#110809"/>
<path d="M520.222 133.085C520.298 133.904 520.388 133.747 520.751 133.346C522.065 129.18 520.857 122.084 523.605 121.282C523.816 121.23 524.33 118.545 523.816 118.65C522.956 118.824 521.204 119.452 520.796 120.202C519.483 122.694 519.92 129.755 520.222 133.085Z" fill="#110809"/>
<path d="M540.927 133.189C540.896 134.95 541.817 136.397 542.98 136.432C544.143 136.467 545.109 135.055 545.14 133.294C545.17 131.533 544.249 130.086 543.086 130.051C541.923 130.017 540.957 131.429 540.927 133.189Z" fill="#FF9575"/>
<path d="M518.337 132.631C518.306 134.392 519.228 135.839 520.39 135.874C521.553 135.909 522.519 134.497 522.55 132.736C522.58 130.975 521.659 129.528 520.496 129.493C519.333 129.458 518.367 130.871 518.337 132.631Z" fill="#FF9575"/>
<path d="M533.842 138.053C533.993 140.616 532.498 142.865 530.369 143.179C528.24 143.475 526.307 141.714 525.93 139.186L533.842 138.053Z" fill="white"/>
<path d="M356.176 398.486C358.35 402.235 359.905 405.773 359.332 410.777C358.486 418.116 353.291 422.98 351.932 430.093C351.812 430.738 351.721 431.418 351.872 432.097C352.159 433.44 353.307 434.486 354.424 434.817C360.419 436.648 365.674 426.467 369.056 422.527C373.33 417.576 377.588 412.607 381.861 407.656C382.994 406.349 382.843 403.96 381.514 402.374L367.229 385.342L365.13 382.814C361.657 378.613 356.432 378.142 353.578 381.785C351.102 384.923 351.298 390.31 353.805 394.529C354.635 395.924 355.451 397.231 356.191 398.504L356.176 398.486Z" fill="#110809"/>
<path d="M403.876 410.742H407.062V329.783H403.876V410.742Z" fill="#110809"/>
<path d="M433.278 427.74C433.278 415.78 414.961 410.777 405.795 410.742C394.893 410.725 378.312 415.362 378.312 427.74" stroke="#110809" stroke-width="2" stroke-miterlimit="10"/>
<path d="M405.492 430.93V411.073" stroke="#110809" stroke-width="2" stroke-miterlimit="10"/>
<path d="M373.812 430.633C373.812 433.492 375.821 435.828 378.312 435.828C380.804 435.828 382.812 433.51 382.812 430.633C382.812 427.757 380.804 425.438 378.312 425.438C375.821 425.438 373.812 427.757 373.812 430.633Z" fill="#110809"/>
<path d="M401.07 430.633C401.07 433.492 403.079 435.828 405.57 435.828C408.062 435.828 410.07 433.51 410.07 430.633C410.07 427.757 408.062 425.438 405.57 425.438C403.079 425.438 401.07 427.757 401.07 430.633Z" fill="#110809"/>
<path d="M428.328 430.633C428.328 433.492 430.336 435.828 432.828 435.828C435.32 435.828 437.328 433.51 437.328 430.633C437.328 427.757 435.32 425.438 432.828 425.438C430.336 425.438 428.328 427.757 428.328 430.633Z" fill="#110809"/>
<path d="M408.557 302.604V243.035C408.557 232.732 415.79 224.364 424.729 224.364H442.533C451.457 224.364 458.705 232.715 458.705 243.035V309.63C458.705 324.343 448.286 336.372 435.541 336.372H377.495C375.985 336.372 374.777 334.96 374.777 333.234C374.777 331.491 376 330.096 377.495 330.096H384.759C397.911 330.096 408.557 317.788 408.557 302.622V302.604Z" fill="white"/>
<path d="M347.056 427.495C346.361 431.923 345.349 435.724 341.921 438.844C336.893 443.429 330.234 442.767 324.964 446.794C324.496 447.16 324.012 447.578 323.71 448.188C323.106 449.391 323.303 451.047 323.907 452.198C327.123 458.317 337.029 455.231 341.831 455.109C347.886 454.97 353.941 454.83 359.982 454.691C361.597 454.656 362.926 452.825 362.926 450.611V426.902L362.941 423.398C362.971 417.593 359.498 413.06 355.255 413.374C351.586 413.653 348.49 417.663 347.75 422.718C347.509 424.375 347.312 425.978 347.071 427.495H347.056Z" fill="#110809"/>
<path d="M378.525 244.918C375.052 248.823 370.96 251.613 365.826 251.142C361.99 250.793 358.532 248.475 355.21 246.226C348.249 241.467 343.81 233.29 339.491 225.707C333.511 215.23 325.765 205.781 321.823 193.926C319.875 188.069 318.501 183.1 318.909 176.702C319.302 170.496 320.661 164.203 319.468 157.997C319.06 155.905 316.991 149.507 319.634 148.356C322.05 147.293 324.33 151.843 324.843 153.848C325.463 156.218 325.448 158.729 325.629 161.187C326.399 171.856 330.249 186.5 337.83 193.351C340.291 195.583 343.357 196.681 345.969 198.651C351.103 202.521 353.942 209.285 358.155 214.428C359.182 215.683 360.405 216.903 361.885 217.078C366.219 217.601 366.838 211.638 368.544 208.623C371.821 202.782 380.353 195.774 386.604 197.378C390.878 198.476 394.351 202.87 394.909 207.873C395.151 210.035 394.894 212.231 394.638 214.393C394.381 216.52 394.124 218.647 393.55 220.686C392.433 224.661 390.168 228.043 387.948 231.32C385.124 235.487 382.165 240.822 378.525 244.901V244.918Z" fill="#FF9575"/>
<path d="M384.973 268.154C384.973 268.154 385.002 267.982 385.017 267.913L384.973 268.154Z" fill="#7A483A"/>
<path d="M397.129 201.423L396.902 202.73L397.129 201.423Z" fill="#7A483A"/>
<path d="M385.167 267.163C385.121 267.407 385.076 267.651 385.016 267.895L385.182 266.954C385.182 266.954 385.182 267.093 385.152 267.163H385.167Z" fill="#7A483A"/>
<path d="M398.184 198.337C398.138 202.573 397.776 206.67 397.776 208.971C397.776 211.83 397.731 214.707 397.157 217.496C396.659 219.937 395.752 222.238 394.801 224.504C391.887 231.39 388.519 238.834 384.125 244.604C382.238 241.711 379.912 238.59 378.236 235.382C375.669 230.466 373.208 225.498 370.731 220.512C369.372 217.757 365.159 212.667 365.929 209.599C366.488 207.385 373.072 201.911 374.672 199.575C378.402 194.205 386.164 184.547 392.627 183.972C397.489 183.536 398.274 191.137 398.184 198.354V198.337Z" fill="#FAD100"/>
<path d="M318.606 315.784C318.591 311.983 319.859 308.13 322.079 305.289C326.714 299.396 334.174 298.089 341.015 297.148C350.301 295.875 359.588 294.585 368.875 293.312C384.76 291.116 401.779 289.163 415.913 297.81C425.607 303.737 428.944 317.492 419.627 326.209C414.448 331.055 407.562 332.554 400.993 333.879C391.616 335.779 382.224 337.68 372.846 339.58C364.571 341.253 354.922 344.81 347.311 338.865C345.288 337.296 343.551 335.169 341.301 334.123C334.869 331.142 323.075 329.521 319.708 321.432C318.968 319.671 318.621 317.736 318.606 315.784Z" fill="#0E398A"/>
<path d="M331.154 299.309C333.903 298.542 336.892 298.228 340.109 298.246C348.837 298.333 355.119 308.531 350.604 317.945C349.622 319.985 348.172 321.815 347.84 324.099C347.538 326.209 348.263 328.318 348.958 330.288C356.598 351.8 368.316 374.986 370.43 398.173C364.889 401.38 348.535 403.315 345.318 396.83C342.465 391.077 339.626 385.342 336.772 379.589C334.975 375.963 333.163 372.302 330.943 369.007C328.21 364.945 324.873 361.441 322.124 357.379C314.423 345.943 311.992 330.044 315.858 316.272C318.636 306.37 324.012 301.297 331.154 299.292V299.309Z" fill="#0E398A"/>
<path d="M353.956 323.106C364.602 306.038 387.162 308.462 395.799 288.518C396.071 287.873 396.343 287.211 396.75 286.67C398.079 284.875 400.405 284.805 402.458 284.822C414.04 284.875 425.532 282.87 436.918 280.604C443.682 279.244 443.592 280.464 446.023 287.716C447.835 293.138 449.436 298.699 449.889 304.522C450.508 312.489 448.681 321.136 443.501 326.47C440.693 329.364 437.144 331.09 433.641 332.711C416.728 340.521 399.408 347.163 381.816 352.585C378.524 353.596 375.157 354.59 371.744 354.555C365.206 354.503 358.788 350.441 355.224 344.095C350.196 335.152 350.634 328.475 353.971 323.123L353.956 323.106Z" fill="#2155B5"/>
<path d="M385.533 190.404C386.529 188.644 387.843 186.987 389.579 185.471C395.272 180.502 403.457 180.956 410.207 180.711C417.274 180.45 424.93 181.06 431.559 184.163C438.339 187.336 439.743 190.666 439.954 198.406C440.226 208.709 442.899 219.099 443.896 229.385C444.953 240.298 445.451 251.263 445.375 262.246C445.33 268.086 445.149 273.927 444.771 279.732C444.349 286.252 443.85 286.304 438.308 287.193C425.337 289.268 408.047 293.609 395.197 289.39C394.517 262.839 386.756 237.247 383.539 210.958C382.588 203.235 382.286 196.175 385.533 190.387V190.404Z" fill="#FAD100"/>
<path d="M410.931 198.197C412.863 197.29 414.615 195.809 415.883 193.891C421.169 185.959 416.125 180.555 415.823 172.501C415.597 166.643 419.115 160.803 417.484 155.242C417.167 154.143 416.231 152.958 415.34 153.481C415.038 153.655 414.826 154.004 414.63 154.335C410.191 162.058 404.301 161.413 396.676 163.017C397.657 162.808 397.899 182.071 397.672 183.379C397.416 184.861 397.068 186.342 396.993 187.859C396.797 192.862 400.134 197.604 404.347 198.807C406.521 199.435 408.832 199.156 410.9 198.18L410.931 198.197Z" fill="#FF9575"/>
<path d="M415.941 167.532L399.164 168.473L400.538 182.768C406.14 186.168 418.991 185.192 415.926 178.131V167.532H415.941Z" fill="url(#paint2_linear_2631_28829)"/>
<path d="M402.987 175.639C405.252 175.83 407.426 174.697 409.449 172.675C411.201 170.932 412.666 168.822 414.342 166.974C415.354 165.876 416.456 164.847 417.226 163.505C418.253 161.727 418.585 159.548 418.902 157.438C419.295 154.823 420.005 152.435 419.476 149.733C419.189 148.216 418.54 146.822 417.86 145.479C416.879 143.544 415.807 141.644 414.674 139.813C412.379 136.135 408.589 132.98 404.451 134.758C402.503 135.595 400.948 137.408 400.012 139.552C398.774 142.394 398.592 145.706 397.505 148.635C397.143 149.593 396.69 150.5 396.282 151.441C394.591 155.346 393.217 160.28 394.092 164.656C394.847 168.404 396.524 171.995 399.362 174.139C400.57 175.046 401.778 175.534 402.971 175.639H402.987Z" fill="#FF9575"/>
<path d="M422.813 146.264C420.336 145.131 420.276 143.596 419.596 140.807C418.902 137.948 417.075 135.542 414.84 134.061C412.605 132.579 409.978 132.003 407.395 132.091C405.342 132.16 403.273 132.648 401.476 133.799C399.679 134.95 398.184 136.815 397.55 139.081C397.293 140.023 397.187 141.034 397.459 141.975C398.109 144.276 401.023 145.218 402.76 146.002C404.753 146.909 406.791 147.728 408.679 148.896C412.378 151.162 414.175 154.632 412.318 159.339C411.639 161.082 411.412 164.098 408.951 163.366C408.226 163.156 407.712 162.407 407.229 161.744C406.248 160.419 405.07 159.234 403.696 158.484C402.201 157.665 400.827 157.752 399.226 157.787C397.927 157.822 396.432 158.275 395.164 157.961C394.635 157.822 394.832 156.846 394.137 156.863C393.699 156.863 393.488 157.456 393.397 157.944C393.02 159.757 392.627 161.57 392.25 163.366C391.6 166.416 390.966 170.496 392.159 173.477C393.08 175.778 394.817 177.434 396.765 178.515C400.525 180.607 405.9 181.095 409.479 178.219C412.137 176.074 412.831 172.675 415.051 170.269C417.014 168.16 420.895 167.829 421.997 164.778C422.677 162.895 421.831 160.646 422.481 158.746C423.976 154.457 430.167 149.663 422.813 146.281V146.264ZM395.466 167.41C395.33 167.236 395.209 167.027 395.134 166.765C394.681 165.283 395.421 163.592 396.493 162.599C398.38 160.873 401.295 160.89 403.167 162.616C404.345 163.714 405.764 165.196 405.9 167.044C405.961 167.863 405.734 168.752 405.191 169.275C404.496 169.973 403.409 169.955 402.578 169.485C401.249 168.735 400.917 166.974 399.226 167.672C398.229 168.09 398.124 168.543 397.052 168.264C396.463 168.107 395.859 167.881 395.466 167.375V167.41Z" fill="#110809"/>
<path d="M414.841 158.554C414.645 158.781 414.464 159.042 414.297 159.303C413.527 160.559 412.652 162.72 412.516 164.237C413.225 164.568 414.131 164.987 414.886 164.812C415.46 164.673 415.974 164.307 416.427 163.871C417.544 162.773 418.299 161.186 418.495 159.495C418.556 158.955 418.556 158.362 418.284 157.926C417.906 157.299 417.121 157.194 416.487 157.386C415.853 157.578 415.294 157.996 414.841 158.536V158.554Z" fill="#FF9575"/>
<path d="M404.528 166.887C404.528 166.887 402.233 168.561 399.621 167.323C396.646 165.929 396.465 163.087 396.465 163.087" fill="white"/>
<path d="M447.036 272.427C448.062 272.305 449.104 272.218 450.161 272.183C446.915 267.424 442.702 263.641 439.516 258.846C435.937 253.442 436.314 248.073 434.623 242.023C433.234 237.02 430.486 232.627 429.127 227.537C425.82 215.176 429.836 192.984 445.344 198.406C449.754 199.94 453.212 204.019 455.477 208.656C457.727 213.294 458.92 218.489 460.082 223.632C462.574 234.562 465.05 245.51 467.542 256.441C468.659 261.339 469.49 266.378 470.517 271.241C471.966 278.058 475.56 285.711 467.18 288.448C462.136 290.087 456.866 290.505 451.641 290.906C441.856 291.656 431.996 292.841 422.195 293.155C416.231 293.347 410.523 291.185 404.649 290.418C399.545 289.755 394.622 291.83 389.624 290.854C387.525 290.435 385.29 288.657 385.411 286.199C385.486 284.804 386.302 283.619 387.238 282.747C390.968 279.174 396.419 279.174 401.115 280.551C402.187 280.865 403.26 281.248 404.362 281.161C405.51 281.056 406.567 280.464 407.624 279.941C414.404 276.646 420.489 279.243 427.209 278.04C433.944 276.837 440.195 273.351 447.021 272.479L447.036 272.427Z" fill="#FF9575"/>
<path d="M422.696 221.487C422.59 221.086 422.484 220.668 422.379 220.267C420.823 214.218 419.57 207.872 420.461 201.648C421.367 195.425 424.885 189.358 430.155 187.65C433.553 186.551 437.207 187.371 440.469 188.922C448.517 192.758 454.361 200.742 458.121 209.598C459.903 213.799 462.304 218.75 460.371 222.115C457.985 226.247 429.4 241.936 430.563 244.743C427.437 237.247 424.81 229.472 422.696 221.505V221.487Z" fill="#FAD100"/>
<path d="M354.573 323.838C347.914 338.255 351.009 355.95 349.711 371.5C348.065 391.252 345.936 410.951 343.293 430.563C351.9 429.779 360.613 430.581 369.009 432.952C373.826 413.985 378.658 394.895 380.41 375.231C380.953 369.234 381.21 363.132 382.796 357.379C384.713 350.406 388.519 344.182 389.772 337C391.358 327.882 384.593 312.977 376.046 311.861C368.813 310.92 358.091 316.219 354.573 323.838Z" fill="#2155B5"/>
<path d="M353.984 287.281H273.107V284.021H351.689C352.958 284.021 353.984 285.206 353.984 286.671V287.281Z" fill="white"/>
<path d="M259.198 284.004H340.031L325.61 234.72C325.111 233.029 323.647 231.878 321.986 231.878H249.126C246.559 231.878 244.732 234.528 245.502 237.143L259.213 284.021L259.198 284.004Z" fill="#FFF5F5"/>
<path d="M259.196 287.281H340.406V284.021H259.196V287.281Z" fill="#C9CDD1"/>
<path d="M288.131 257.331C288.388 259.318 290.094 260.504 291.906 260.329C293.733 260.155 295.304 258.638 295.198 256.599C295.077 254.524 293.401 252.746 291.438 252.763C291.317 252.763 291.211 252.798 291.136 252.85C291.045 252.816 290.939 252.816 290.819 252.85C289.007 253.373 287.889 255.378 288.146 257.331H288.131ZM291.121 254.053C291.121 254.053 291.226 254.018 291.272 253.984C291.317 253.984 291.347 254.001 291.392 254.001C292.344 254.053 293.235 254.524 293.673 255.413C294.73 257.557 293.235 259.022 291.664 259.109C288.72 259.248 288.493 254.803 291.106 254.053H291.121Z" fill="#C9CDD1"/>
<path d="M481.116 205.014C481.116 205.014 481.116 204.945 481.116 204.91C480.919 201.615 482.897 198.442 482.339 195.217C482.278 194.868 482.173 194.502 481.901 194.328C481.448 194.032 480.919 194.485 480.602 194.956C478.639 197.797 478.835 201.528 479.198 204.927C479.59 208.571 478.05 211.517 477.537 215.091C477.189 217.584 477.582 219.815 477.144 222.238C476.616 225.08 476.314 227.66 477.099 230.502C477.431 231.705 477.914 232.907 477.824 234.18C477.703 235.714 476.752 236.969 476.238 238.399C474.879 242.199 476.752 246.976 474.879 250.48C474.683 250.846 474.396 251.212 474.018 251.195C473.565 251.16 473.324 250.602 473.173 250.114C471.059 243.455 468.945 235.941 469.805 228.758C469.987 227.189 470.334 225.638 470.44 224.051C470.53 222.605 470.394 221.14 470.258 219.693C469.941 216.276 469.639 212.859 469.322 209.442C469.262 208.815 469.201 208.152 468.884 207.647C468.567 207.141 467.903 206.845 467.465 207.194C467.148 207.438 467.027 207.926 466.967 208.362C466.453 211.831 467.586 215.37 467.329 218.874C467.178 220.844 466.589 222.727 466.257 224.662C465.532 228.933 466.71 234.494 467.404 238.748C467.903 241.764 468.144 244.867 468.507 247.9C468.703 249.539 469.307 251.125 469.458 252.746C469.579 253.984 468.673 258.081 467.631 255.187C467.208 254.002 467.012 252.694 467.087 251.421C467.133 250.742 467.238 250.062 467.163 249.382C467.087 248.702 466.785 248.005 466.242 247.743C465.683 247.482 465.003 247.726 464.475 247.412C463.856 247.046 463.69 246.122 463.614 245.32C463.358 242.914 463.101 240.386 463.841 238.103C464.067 237.388 464.399 236.69 464.52 235.923C464.807 234.076 463.524 233.274 463.237 231.705C462.965 230.223 463.962 228.933 464.113 227.521C464.233 226.44 463.69 225.307 462.829 224.853C462.572 224.714 462.285 224.627 462.104 224.365C461.863 223.999 461.953 223.476 462.074 223.04C462.316 222.169 462.603 221.297 462.935 220.46C463.856 218.089 461.274 216.102 459.749 218.002C459.069 218.839 459.069 220.129 459.114 221.262C459.371 228.235 459.628 235.261 460.836 242.095C461.666 246.784 462.965 251.421 464.928 255.64C465.849 257.61 467.193 259.388 468.008 261.358C469.186 264.217 469.956 268.227 473.581 267.373C475.604 266.902 477.159 265.037 478.458 263.171C480.391 260.4 482.158 256.651 480.814 253.426C480.451 252.555 479.877 251.805 479.606 250.881C479.379 250.114 479.394 249.295 479.424 248.493C479.515 245.669 479.817 242.862 480.33 240.107C480.919 236.935 482.082 233.186 481.267 229.926C480.572 227.172 479.757 224.993 480.391 221.942C481.04 218.822 483.124 216.119 483.048 212.912C482.988 210.157 481.312 207.734 481.101 204.997L481.116 205.014Z" fill="#006149"/>
<path d="M481.343 269.464C484.876 266.152 486.915 260.26 486.356 255.326C486.069 252.798 485.344 249.852 486.839 247.987C487.337 247.359 488.032 246.958 488.5 246.296C489.633 244.674 488.968 242.286 488.168 240.421C486.748 237.126 485.963 233.901 487.926 230.763C489.436 228.357 492.003 226.666 492.562 223.545C493.287 219.379 489.617 214.864 491.46 211.168C491.958 210.157 492.819 209.425 493.453 208.501C494.601 206.81 494.918 204.439 494.284 202.417C493.876 201.144 492.819 199.418 491.626 199C489.904 198.407 489.92 199.331 489.346 201.249C488.289 204.735 487.836 208.448 488.017 212.144C488.304 217.705 486.401 223.877 485.631 229.368C485.208 232.349 484.725 235.33 484.196 238.294C483.879 240.124 483.653 242.042 483.17 243.82C482.928 244.709 481.765 246.47 481.826 247.289C481.297 240.107 484.438 233.291 485.238 226.143C485.314 225.515 485.359 224.836 485.087 224.278C484.876 223.842 484.514 223.528 484.257 223.127C483.004 221.105 484.665 216.415 484.921 214.044C485.374 209.965 485.525 205.816 485.782 201.702C486.099 196.733 486.703 191.957 486.19 186.918C486.175 186.727 486.144 186.518 486.024 186.395C485.842 186.204 485.525 186.291 485.359 186.5C485.193 186.709 485.133 187.023 485.102 187.302C484.091 194.572 483.819 201.998 482.837 209.303C481.765 217.27 480.995 225.237 480.21 233.238C479.455 240.961 477.824 248.632 477.039 256.39C476.873 258.081 476.359 260.207 474.895 260.417C473.596 260.608 472.599 258.987 472.433 257.47C471.995 253.443 475 250.131 476.314 246.366C477.265 243.611 477.296 240.508 476.782 237.597C476.254 234.633 475.257 231.251 476.812 228.793C477.432 227.799 478.413 227.137 478.896 226.056C479.259 225.254 479.319 224.313 479.349 223.406C479.455 220.547 479.379 217.688 479.123 214.864C478.896 212.388 478.096 209.721 478.292 207.263C478.655 202.434 479.817 197.71 479.591 192.793C479.395 188.54 476.48 195.147 476.39 196.855C476.284 199.104 476.616 201.371 476.344 203.602C476.042 206.112 474.97 208.57 475.302 211.081C475.348 211.412 475.423 211.743 475.333 212.057C475.242 212.371 474.91 212.615 474.668 212.458C474.547 212.371 474.472 212.214 474.411 212.057C472.962 207.803 476.42 200.237 473.354 196.698C470.938 200.168 471.512 208.082 471.678 212.301C472.101 223.11 473.687 234.093 471.905 244.849C471.784 245.616 471.603 246.435 471.089 246.941C470.229 247.795 468.824 247.307 468.099 246.313C467.375 245.319 467.133 243.977 466.846 242.722C466.559 241.467 466.151 240.142 465.23 239.392C464.294 240.525 464.068 242.216 464.249 243.768C464.43 245.32 464.959 246.766 465.366 248.248C466.061 250.793 466.408 253.478 466.378 256.163C466.348 258.97 465.91 261.898 466.801 264.513C468.281 268.907 474.849 273.038 478.7 271.26C479.666 270.807 480.557 270.179 481.388 269.412L481.343 269.464Z" fill="#40A876"/>
<path d="M458.918 256.076L490.629 256.703L482.278 287.943L464.158 288.24L458.918 256.076Z" fill="#0E398A"/>
<path d="M628.584 287.385H0V294.829H628.584V287.385Z" fill="white"/>
<path d="M570.448 291.168H564.332V485.443H570.448V291.168Z" fill="white"/>
<path d="M507.991 483.892H501.875L541.378 291.168H547.493L507.991 483.892Z" fill="white"/>
<path d="M114.565 483.892H120.68L81.1776 291.168H75.0469L114.565 483.892Z" fill="white"/>
<path d="M59.4789 291.168H53.3633V485.443H59.4789V291.168Z" fill="white"/>
<path d="M50.0885 445.609C49.9676 446.742 49.8619 447.875 49.7713 449.026C49.4542 453.053 48.8351 457.69 45.815 459.73C43.1121 461.56 39.4427 460.357 37.2531 457.777C35.0636 455.197 34.0669 451.553 33.4629 448.014C31.9227 438.862 32.6022 429.222 35.3807 420.488C37.1021 415.048 42.0399 406.803 41.4661 400.928C40.8772 394.739 34.5652 391.148 34.3085 384.506C34.0367 377.131 39.79 370.908 43.0819 365.259C44.2748 363.22 45.3016 360.936 45.3771 358.478C45.6489 349.814 34.7918 345.438 34.0518 336.808C33.1458 326.157 45.8905 321.886 46.0264 311.74C46.0869 306.266 41.8889 300.548 42.3118 294.028C42.7195 287.595 44.909 281.267 48.7445 276.542C50.2546 274.677 52.4441 272.933 54.5431 273.735C56.642 274.537 57.5028 277.501 57.4725 280.046C57.4423 282.609 56.8383 285.189 57.2913 287.682C58.6353 295.196 63.1201 297.898 62.5463 306.44C62.2292 311.251 60.7644 316.29 58.892 320.561C52.2025 335.78 54.1958 334.002 62.199 347.164C66.412 354.102 66.412 364.091 62.199 371.03C59.7527 375.057 55.9474 378.439 55.5095 383.338C55.3132 385.621 55.9021 387.766 56.6571 389.91C57.5481 392.385 58.6806 394.861 59.0883 397.476C59.6772 401.189 58.8014 404.989 57.9256 408.633C54.9508 421.08 51.4475 432.97 50.0583 445.626L50.0885 445.609Z" fill="#138F70"/>
<path d="M23.4814 433.72C22.8774 428.978 22.2885 424.218 21.6845 419.477C21.156 415.293 20.6124 411.022 18.9815 407.239C17.5319 403.857 15.2819 400.998 13.9531 397.563C11.084 390.102 13.0169 381.455 15.146 373.68C16.6259 368.276 18.1963 362.47 16.7467 357.066C15.9917 354.224 14.4514 351.784 13.1679 349.204C10.5706 344.026 5.73848 331.666 8.77366 325.529C13.938 315.104 18.9211 325.024 19.2835 332.171C19.6006 338.552 21.8355 344.776 25.52 349.552C27.6341 352.289 30.2615 354.678 31.4243 358.095C34.5047 367.125 25.7767 376.295 26.4713 385.97C27.0149 393.658 33.2665 399.08 35.7581 406.227C40.3788 419.459 43.5952 438.705 40.409 452.704C39.8503 455.127 39.0047 457.655 37.1926 459.05C34.3084 461.281 30.1558 459.503 28.072 456.313C25.973 453.123 25.4143 448.974 24.916 445.016C24.4479 441.251 23.9647 437.485 23.4965 433.72H23.4814Z" fill="#47BA9B"/>
<path d="M42.1769 497.455C30.8516 497.455 21.2931 487.692 19.9189 474.722L16.4609 442.192H67.3946L64.4802 474.269C63.2873 487.448 53.6532 497.455 42.1769 497.455Z" fill="#2155B5"/>
<path d="M50.8408 429.187C51.2787 424.271 50.8861 418.971 53.1058 414.735C56.0504 409.139 63.0117 406.698 64.2499 400.3C65.4429 394.042 60.2634 387.33 62.6795 381.559C64.7029 376.73 70.9394 375.806 72.8572 370.908C74.5484 366.584 71.9964 361.773 71.332 357.101C70.5166 351.452 72.7968 345.368 76.9192 342.178C77.7497 341.533 78.6859 340.992 79.6674 341.062C82.3251 341.219 83.3217 345.421 82.3855 348.297C81.4493 351.173 79.4258 353.457 78.6104 356.369C76.4058 364.231 83.3368 374.325 78.3688 380.252C76.889 382.013 74.6994 382.762 73.1441 384.436C67.9797 390.015 73.1139 400.614 70.0485 407.971C67.9948 412.904 62.755 415.153 60.5201 419.965C59.0705 423.085 59.1158 426.798 58.6326 430.285C58.1041 434.068 56.8507 437.868 54.3592 440.414C51.7468 443.098 48.0623 444.319 47.413 439.629C47.0808 437.171 50.5539 432.168 50.8257 429.169L50.8408 429.187Z" fill="#47BA9B"/>
<path d="M23.5284 463.112C29.2666 461.578 35.0198 460.131 40.6221 458.335C49.2444 455.581 57.8516 452.722 66.4136 449.706C66.5193 449.653 66.625 449.618 66.7307 449.566L67.3951 442.192H16.4766L18.8322 464.419C20.4027 463.966 21.958 463.548 23.5284 463.129" fill="url(#paint3_linear_2631_28829)"/>
<path d="M70.4589 445.713H14.4365L11.3711 431.61H72.4975L70.4589 445.713Z" fill="#2155B5"/>
<path d="M580.623 420.243C578.932 412.66 576.652 404.71 578.509 397.179C579.748 392.158 582.707 387.87 583.915 382.849C585.878 374.655 582.934 365.852 584.217 357.484C585.44 349.534 590.318 343.032 592.945 335.535C596.403 325.668 595.829 314.494 598.759 304.4C599.695 301.157 601.115 297.897 603.621 296.067C606.128 294.236 609.918 294.446 611.579 297.27C612.531 298.891 612.606 300.965 612.546 302.918C611.806 323.89 597.083 342.718 599.771 363.481C600.541 369.391 602.715 375.335 601.432 381.123C600.163 386.859 595.769 390.955 593.655 396.342C591.345 402.235 591.964 409.051 592.704 415.466C593.459 421.882 594.259 428.611 592.281 434.66C591.254 437.798 582.737 448.642 579.763 443.011C579.415 442.348 582.028 434.434 582.103 432.934C582.33 428.698 581.575 424.34 580.654 420.261L580.623 420.243Z" fill="#138F70"/>
<path d="M573.874 429.378C573.874 429.221 573.874 429.047 573.874 428.89C573.662 423.887 570.627 419.668 567.381 416.356C561.99 410.882 556.871 396.621 555.919 388.341C555.27 382.64 556.116 376.852 555.738 371.117C555.164 362.261 551.736 354.05 549.441 345.56C547.327 337.75 546.164 329.591 545.998 321.397C545.938 318.155 546.285 314.354 548.701 312.698C550.679 311.338 553.352 312.14 555.059 313.936C556.75 315.731 557.656 318.312 558.32 320.857C561.627 333.513 560.374 347.564 565.115 359.611C567.275 365.102 570.657 370.071 571.624 375.998C572.681 382.448 570.733 389.247 572.122 395.61C574.448 406.262 583.478 412.311 584.217 423.852C584.293 425.142 584.293 426.467 584.61 427.722C585.093 429.64 586.286 431.191 587.238 432.865C589.714 437.206 593.67 446.759 589.639 450.559C582.3 457.498 573.662 442.802 573.526 435.567C573.481 433.492 573.889 431.453 573.874 429.378Z" fill="#47BA9B"/>
<path d="M596.874 414.856C597.598 411.997 598.353 409.068 599.848 406.628C602.612 402.112 607.746 399.532 609.196 394.25C609.8 392.071 609.664 389.718 609.905 387.451C610.343 383.407 612.095 379.449 615.009 377.148C617.924 374.83 622.001 374.394 625.021 376.503C628.932 379.24 630.125 385.063 630.865 390.275C633.16 406.471 634.338 424.026 627.512 438.426C627.195 439.088 626.848 439.768 626.289 440.169C624.704 441.302 622.725 439.454 621.85 437.554C617.652 428.402 622.892 416.286 618.754 407.098C618.422 406.366 617.939 405.599 617.229 405.564C616.67 405.529 616.172 406 615.794 406.471C613.695 409.19 613.439 413.339 611.355 416.076C609.467 418.552 606.432 419.476 604.469 421.882C602.838 423.886 602.174 426.658 601.555 429.308C600.452 434.102 599.244 453.331 593.114 444.981C587.753 437.694 594.941 422.422 596.874 414.856Z" fill="#47BA9B"/>
<path d="M587.194 500H586.334C574.374 500 564.302 489.697 562.838 475.994L559.062 440.483H613.892L610.706 475.524C609.437 489.435 599.29 500 587.164 500H587.194Z" fill="#2155B5"/>
<path d="M585.078 457.881C594.364 454.918 603.621 451.832 612.847 448.589C612.968 448.537 613.074 448.485 613.195 448.432L613.919 440.483H559.09L561.627 464.401C569.464 462.17 577.407 460.322 585.093 457.864L585.078 457.881Z" fill="url(#paint4_linear_2631_28829)"/>
<path d="M617.196 444.283H556.87L553.578 429.099H619.386L617.196 444.283Z" fill="#2155B5"/>
<mask id="mask0_2631_28829" style="mask-type:luminance" maskUnits="userSpaceOnUse" x="457" y="368" width="60" height="109">
<path d="M496.788 445.609C497.105 442.976 497.89 440.623 499.687 439.42C502.239 437.694 505.652 439.141 508.627 438.496C516.977 436.7 516.917 423.225 516.751 415.815C516.645 411.091 516.464 406.384 516.207 401.677C516.132 400.422 516.056 399.132 515.497 398.051C514.486 396.116 512.175 395.558 510.303 396.186C506.649 397.389 504.595 401.956 503.946 406.28C503.296 410.603 503.613 415.101 502.632 419.337C502.451 420.139 502.209 420.923 501.816 421.603C501.363 422.388 500.714 422.998 499.989 423.399C498.917 423.992 497.588 424.079 496.592 423.347C495.444 422.492 495.625 421.411 495.64 420.121C495.64 418.57 495.459 416.983 495.293 415.397C494.946 411.858 494.629 408.302 494.342 404.745C493.768 397.755 493.285 390.764 492.65 383.791C492.364 380.583 492.046 377.306 490.672 374.429C484.693 362.034 475.572 372.93 474.741 381.96C472.839 402.531 482.11 421.934 481.34 442.349C481.31 443.203 481.265 444.092 480.933 444.876C479.543 448.084 475.074 447.526 473.005 445.678C469.773 442.767 470.936 436.474 470.921 432.691C470.921 429.605 470.06 426.101 467.478 424.654C464.534 423.015 460.713 424.985 459.037 428.019C456.878 431.924 457.119 438.635 457.436 442.976C457.663 446.114 458.312 449.305 459.913 451.972C461.513 454.639 464.186 456.714 467.161 456.923C468.882 457.045 470.861 456.626 472.174 457.812C473.775 459.259 473.201 461.926 473.262 464.158C473.382 468.568 476.644 472.351 480.449 474.199C484.255 476.047 488.543 476.361 492.726 476.657C496.275 470.085 496.516 462.519 496.697 455.179C496.758 452.739 496.426 448.938 496.833 445.591L496.788 445.609Z" fill="white"/>
</mask>
<g mask="url(#mask0_2631_28829)">
<path d="M496.788 445.609C497.105 442.976 497.89 440.623 499.687 439.42C502.239 437.694 505.652 439.141 508.627 438.496C516.977 436.7 516.917 423.225 516.751 415.815C516.645 411.091 516.464 406.384 516.207 401.677C516.132 400.422 516.056 399.132 515.497 398.051C514.486 396.116 512.175 395.558 510.303 396.186C506.649 397.389 504.595 401.956 503.946 406.28C503.296 410.603 503.613 415.101 502.632 419.337C502.451 420.139 502.209 420.923 501.816 421.603C501.363 422.388 500.714 422.998 499.989 423.399C498.917 423.992 497.588 424.079 496.592 423.347C495.444 422.492 495.625 421.411 495.64 420.121C495.64 418.57 495.459 416.983 495.293 415.397C494.946 411.858 494.629 408.302 494.342 404.745C493.768 397.755 493.285 390.764 492.65 383.791C492.364 380.583 492.046 377.306 490.672 374.429C484.693 362.034 475.572 372.93 474.741 381.96C472.839 402.531 482.11 421.934 481.34 442.349C481.31 443.203 481.265 444.092 480.933 444.876C479.543 448.084 475.074 447.526 473.005 445.678C469.773 442.767 470.936 436.474 470.921 432.691C470.921 429.605 470.06 426.101 467.478 424.654C464.534 423.015 460.713 424.985 459.037 428.019C456.878 431.924 457.119 438.635 457.436 442.976C457.663 446.114 458.312 449.305 459.913 451.972C461.513 454.639 464.186 456.714 467.161 456.923C468.882 457.045 470.861 456.626 472.174 457.812C473.775 459.259 473.201 461.926 473.262 464.158C473.382 468.568 476.644 472.351 480.449 474.199C484.255 476.047 488.543 476.361 492.726 476.657C496.275 470.085 496.516 462.519 496.697 455.179C496.758 452.739 496.426 448.938 496.833 445.591L496.788 445.609Z" fill="#138F70"/>
<path d="M485.539 369.618C489.797 403.734 493.467 438.461 488.227 472.421" stroke="#47BA9B" stroke-width="0.5" stroke-miterlimit="10"/>
<path d="M481.445 369.391C480.237 375.737 479.029 382.152 479.059 388.637C479.104 400.997 483.619 412.8 485.386 425.003C487.364 438.636 485.9 452.547 484.435 466.25" stroke="#47BA9B" stroke-width="0.5" stroke-miterlimit="10"/>
<path d="M490.672 429.605C495.821 428.751 501.967 427.897 505.214 423.137C505.682 422.457 506.074 421.725 506.301 420.923C507.162 417.698 506.724 414.037 506.724 410.725C506.724 407.552 506.769 401.973 506.769 397.842" stroke="#47BA9B" stroke-width="0.5" stroke-miterlimit="10"/>
<path d="M486.035 452.268C481.414 453.14 476.295 453.924 472.308 451.292C469.862 449.688 468.216 446.986 467.34 444.092C466.464 441.198 466.298 438.13 466.313 435.097C466.329 431.802 466.555 428.489 467.038 425.229" stroke="#47BA9B" stroke-width="0.5" stroke-miterlimit="10"/>
<path d="M490.734 435.062C496.608 434.051 502.377 432.342 507.873 429.954C509.036 429.448 510.214 428.89 511.075 427.914C511.981 426.868 512.403 425.456 512.766 424.096C513.581 421.011 513.913 399.899 513.023 394.739" stroke="#47BA9B" stroke-width="0.5" stroke-miterlimit="10"/>
</g>
<path d="M468.835 465.361L503.446 464.506L501.558 482.323C500.622 491.162 494.129 497.786 486.412 497.786C478.953 497.786 472.595 491.563 471.372 483.073L468.82 465.361H468.835Z" fill="#FAD100"/>
<path d="M428.012 71.9827C436.374 62.3289 436.374 46.6769 428.012 37.0231C419.65 27.3693 406.093 27.3692 397.731 37.0231C389.369 46.6769 389.369 62.3289 397.731 71.9827C406.093 81.6366 419.65 81.6366 428.012 71.9827Z" fill="#80B2BA"/>
<path d="M411.848 39.207C411.848 40.3925 412.875 58.0523 412.875 58.0523L425.106 48.6384" stroke="white" stroke-miterlimit="10"/>
<path d="M344.609 266.448L356.04 258.376H411.67C417.363 258.376 421.969 253.024 421.969 246.417V236.027C421.969 229.42 417.363 224.068 411.67 224.068H354.908C349.215 224.068 344.609 229.42 344.609 236.027V266.448Z" stroke="white" stroke-miterlimit="10"/>
<path d="M374.599 241.205C374.599 242.599 373.632 243.732 372.424 243.732C371.216 243.732 370.25 242.599 370.25 241.205C370.25 239.81 371.216 238.677 372.424 238.677C373.632 238.677 374.599 239.81 374.599 241.205Z" fill="white"/>
<path d="M387.63 241.205C387.63 242.599 386.664 243.732 385.456 243.732C384.248 243.732 383.281 242.599 383.281 241.205C383.281 239.81 384.248 238.677 385.456 238.677C386.664 238.677 387.63 239.81 387.63 241.205Z" fill="white"/>
<path d="M400.677 241.205C400.677 242.599 399.711 243.732 398.503 243.732C397.295 243.732 396.328 242.599 396.328 241.205C396.328 239.81 397.295 238.677 398.503 238.677C399.711 238.677 400.677 239.81 400.677 241.205Z" fill="white"/>
<path d="M486.883 98.6544L498.314 90.5828H553.944C559.637 90.5828 564.242 85.2309 564.242 78.6237V68.2336C564.242 61.6264 559.637 56.2744 553.944 56.2744H497.181C491.488 56.2744 486.883 61.6264 486.883 68.2336V98.6544Z" stroke="white" stroke-miterlimit="10"/>
<path d="M516.872 73.4287C516.872 74.8233 515.906 75.9565 514.698 75.9565C513.49 75.9565 512.523 74.8233 512.523 73.4287C512.523 72.034 513.49 70.9009 514.698 70.9009C515.906 70.9009 516.872 72.034 516.872 73.4287Z" fill="white"/>
<path d="M529.904 73.4287C529.904 74.8233 528.937 75.9565 527.729 75.9565C526.521 75.9565 525.555 74.8233 525.555 73.4287C525.555 72.034 526.521 70.9009 527.729 70.9009C528.937 70.9009 529.904 72.034 529.904 73.4287Z" fill="white"/>
<path d="M542.95 73.4287C542.95 74.8233 541.984 75.9565 540.776 75.9565C539.568 75.9565 538.602 74.8233 538.602 73.4287C538.602 72.034 539.568 70.9009 540.776 70.9009C541.984 70.9009 542.95 72.034 542.95 73.4287Z" fill="white"/>
<path d="M359.254 148.112L347.823 140.04H292.193C286.5 140.04 281.895 134.688 281.895 128.081V117.691C281.895 111.084 286.5 105.732 292.193 105.732H348.955C354.648 105.732 359.254 111.084 359.254 117.691V148.112Z" stroke="white" stroke-miterlimit="10"/>
<path d="M329.266 122.886C329.266 124.281 330.232 125.414 331.44 125.414C332.648 125.414 333.615 124.281 333.615 122.886C333.615 121.492 332.648 120.358 331.44 120.358C330.232 120.358 329.266 121.492 329.266 122.886Z" fill="white"/>
<path d="M316.219 122.886C316.219 124.281 317.185 125.414 318.393 125.414C319.601 125.414 320.568 124.281 320.568 122.886C320.568 121.492 319.601 120.358 318.393 120.358C317.185 120.358 316.219 121.492 316.219 122.886Z" fill="white"/>
<path d="M303.188 122.886C303.188 124.281 304.154 125.414 305.362 125.414C306.57 125.414 307.536 124.281 307.536 122.886C307.536 121.492 306.57 120.358 305.362 120.358C304.154 120.358 303.188 121.492 303.188 122.886Z" fill="white"/>
<path d="M117.391 30.7344C119.293 37.2021 120.622 43.879 121.377 50.643" stroke="white" stroke-miterlimit="10"/>
<path d="M133.244 24.5981C132.142 32.0072 131.04 39.4163 129.938 46.808" stroke="white" stroke-miterlimit="10"/>
<path d="M149.916 35.354C147.394 38.1782 145.341 41.5776 143.906 45.2909" stroke="white" stroke-miterlimit="10"/>
</g>
<defs>
<linearGradient id="paint0_linear_2631_28829" x1="120.003" y1="91.9424" x2="133.413" y2="124.02" gradientUnits="userSpaceOnUse">
<stop offset="0.27" stop-color="#371B85" stop-opacity="0.91"/>
<stop offset="0.56" stop-color="#F26D5A" stop-opacity="0"/>
</linearGradient>
<linearGradient id="paint1_linear_2631_28829" x1="538.102" y1="127.889" x2="531.802" y2="166.97" gradientUnits="userSpaceOnUse">
<stop offset="0.27" stop-color="#371B85" stop-opacity="0.91"/>
<stop offset="0.56" stop-color="#F26D5A" stop-opacity="0"/>
</linearGradient>
<linearGradient id="paint2_linear_2631_28829" x1="411.682" y1="155.956" x2="401.012" y2="193.987" gradientUnits="userSpaceOnUse">
<stop offset="0.27" stop-color="#371B85" stop-opacity="0.91"/>
<stop offset="0.56" stop-color="#F26D5A" stop-opacity="0"/>
</linearGradient>
<linearGradient id="paint3_linear_2631_28829" x1="41.1657" y1="434.905" x2="48.1955" y2="484.641" gradientUnits="userSpaceOnUse">
<stop stop-color="#201B59" stop-opacity="0.91"/>
<stop offset="0.56" stop-color="#2D3A8D" stop-opacity="0"/>
</linearGradient>
<linearGradient id="paint4_linear_2631_28829" x1="585.651" y1="432.638" x2="593.222" y2="486.208" gradientUnits="userSpaceOnUse">
<stop stop-color="#201B59" stop-opacity="0.91"/>
<stop offset="0.56" stop-color="#2D3A8D" stop-opacity="0"/>
</linearGradient>
<clipPath id="clip0_2631_28829">
<rect width="640" height="500" fill="white"/>
</clipPath>
</defs>
</svg>
