<?xml version="1.0" encoding="UTF-8"?>
<svg id="Layer_2" data-name="Layer 2" xmlns="http://www.w3.org/2000/svg" viewBox="0 0 511 414">
  <defs>
    <style>
      .cls-1 {
        fill: #faaf04;
      }

      .cls-1, .cls-2, .cls-3 {
        stroke-width: 0px;
      }

      .cls-2 {
        fill: #595758;
      }

      .cls-3 {
        fill: #9667f7;
      }
    </style>
  </defs>
  <g id="Layer_1-2" data-name="Layer 1">
    <g>
      <path class="cls-1" d="m479.7,153.07L100.52,5.31C60.53-10.28,15.52,9.63,0,49.78h0l388.66,151.46,62.96-42.91c8.47-5.77,18.58-7.35,28.09-5.26Z"/>
      <path class="cls-3" d="m504,169.75c-6.01-8.88-14.85-14.6-24.3-16.68-9.5-2.1-19.62-.51-28.09,5.26l-62.96,42.91-142.75,97.29-10.57,89.5c-.84,7.08-4.74,13.22-10.58,17.75l-.26,1.59,270.78-184.55c16.88-11.51,20.78-35.26,8.73-53.07Z"/>
      <path class="cls-2" d="m235.33,388.02l10.57-89.5,14.44-122.2-74.65-30.19-27.52,232.89c-1.97,16.65,13.71,32.16,35.02,34.64,12.24,1.43,23.68-1.76,31.56-7.88,5.84-4.53,9.74-10.67,10.58-17.75Z"/>
    </g>
  </g>
</svg>