<?xml version="1.0" encoding="UTF-8"?>
<svg id="Layer_2" data-name="Layer 2" xmlns="http://www.w3.org/2000/svg" viewBox="0 0 511 490">
  <defs>
    <style>
      .cls-1 {
        fill: #f9fbfc;
        stroke-width: 0px;
      }
    </style>
  </defs>
  <g id="Layer_1-2" data-name="Layer 1">
    <g>
      <path class="cls-1" d="m314.47,10.27c14.05,4.67,28.44,8.55,42.1,14.15,47.36,19.41,86.16,49.38,113.43,92.92,23.73,37.89,32.17,79.36,29.23,123.5-3.73,56.19-23.74,106.14-59.84,149.39-31.58,37.83-72.08,63.25-118.82,79.11-48.16,16.35-97.69,20.24-148.26,17.27-39.54-2.32-79.16-3.53-118.77-4.22-17.27-.3-34.59,1.93-52.12,3.03-2.9-4.54-1.13-7.29,3.19-10.02,19.49-12.35,33.21-29.01,37.77-51.98.94-4.71.97-9.65.98-14.49.14-59.8.83-119.61.07-179.39-.65-50.93-2.88-101.84-4.69-152.76-.3-8.56-1.65-17.13-3.18-25.58-3.24-17.84-13.12-31.16-29.35-39.59C1.59,9.21-.75,6.34,1.22.19c10.95.68,22.18,1.27,33.4,2.11,38.31,2.87,76.54,1.02,114.82-1.16,37.67-2.14,75.4-2.29,112.01,8.82,46.85,14.22,78.75,43.79,89.73,91.79,11.25,49.2-5.41,90.32-41.8,124.32-11.78,11.01-25.69,18.79-41.76,24.5,7.96,12.14,15.35,23.84,23.17,35.27,21.74,31.77,43.69,63.39,65.4,95.18,1.06,1.56,1.61,4.76.72,6.12-5.7,8.68-39.75,35.45-51.33,40.51-8.76-11.22-18.11-22.42-26.59-34.22-29.59-41.16-58.86-82.55-88.32-123.8-3.6-5.04-7.81-9.65-11.33-14.74-2.75-3.97-5.43-8.16-7.16-12.63-3.07-7.95-.49-11.43,8.12-12.53,9.49-1.21,19.08-2.06,28.42-4,27.58-5.72,46.75-21.52,54.81-48.54,10.56-35.38,11.75-70.66-7.33-103.89-5.39-9.39-13.19-17.74-21.13-25.28-9.27-8.81-20.77-12.83-34.24-11.73-21.29,1.74-42.7,2.14-64.01,3.75-11.99.91-12.69,2.42-13.34,14.17-5,89.74-3.38,179.56-2.93,269.34.16,32.81,2.66,65.64,4.9,98.41,1.17,17.02,4.43,20.18,21.32,23.77,41.09,8.73,82.7,11.19,124.04,3.68,38.18-6.93,68.97-27.88,93.98-56.88,31.5-36.51,47.04-79.66,51.13-126.95,4.09-47.27-3.84-92.75-23.42-136.14-1.54-3.42-3.1-6.88-5.12-10.02-11.06-17.13-19.46-35.54-28.03-53.96-9.07-19.49-23.82-35.01-40.21-48.92-1.82-1.54-3.6-3.12-5.41-4.69.24-.53.48-1.06.72-1.59Z"/>
      <path class="cls-1" d="m360.46,469.31c6.34-3.61,11.71-6.47,16.88-9.64,9.82-6.02,19.61-12.07,29.22-18.4,3.23-2.13,5.31-1.28,8.33.43,11.14,6.28,22.02,13.57,33.98,17.66,9.29,3.17,20.02,2.41,30.14,2.87,7.74.35,15.57-.61,23.27.04,3.03.25,5.82,3.28,8.71,5.05-2.24,2.52-4.02,5.84-6.81,7.39-5.39,2.99-11.24,5.28-17.08,7.35-37.06,13.14-73.49,8.83-109.45-4.43-5.46-2.01-10.53-5.05-17.2-8.3Z"/>
    </g>
  </g>
</svg>