<svg width="313" height="92" viewBox="0 0 313 92" fill="none" xmlns="http://www.w3.org/2000/svg">
<g clip-path="url(#clip0_873_3477)">
<path d="M18.2598 92.0002C17.9104 91.8729 17.5407 91.8106 17.1689 91.8162C14.516 91.4616 11.978 90.5074 9.74665 89.0256C6.52042 86.9976 4.20914 83.7893 3.30313 80.0811C3.0779 79.1538 2.95819 78.2039 2.94629 77.2496C2.94629 74.05 2.94629 70.8505 2.94629 67.6611C2.94629 67.5691 2.94629 67.4771 2.94629 67.3953C2.94629 67.3136 3.16039 67.3953 3.23176 67.4771C4.37115 68.5866 5.66604 69.5233 7.07544 70.2576C7.21039 70.3229 7.32142 70.4291 7.39278 70.5612C7.46415 70.6933 7.49224 70.8446 7.47306 70.9936C7.47306 72.9051 7.47306 74.8167 7.47306 76.7282C7.43197 77.9766 7.64288 79.2204 8.09315 80.3851C8.54341 81.5497 9.22374 82.6111 10.0933 83.5056C11.3583 84.7987 12.8843 85.8059 14.5691 86.4598C16.6802 87.3229 18.965 87.6732 21.2369 87.482C22.9805 87.3251 24.6789 86.8396 26.2429 86.0509C29.4952 84.4153 32.7476 82.8002 36.0101 81.1749L50.8037 73.8149L64.9346 66.782C67.2897 65.5758 69.5837 64.4002 71.898 63.2758C73.7564 62.392 75.3365 61.0128 76.4656 59.2891C77.4471 57.749 77.9368 55.9454 77.8694 54.1189C77.802 52.2925 77.1807 50.5301 76.0884 49.0669C75.0636 47.7081 73.7508 46.5944 72.2447 45.806C71.3679 45.346 70.4809 44.9167 69.5939 44.4669C69.1555 44.2522 69.1555 44.2522 69.3594 43.8331L70.9499 40.5824C71.1436 40.2042 71.164 40.1838 71.5208 40.3678C72.8156 41.022 74.1614 41.6149 75.3951 42.4122C78.5216 44.2523 80.8326 47.2163 81.859 50.7024C82.5063 52.8384 82.6064 55.1034 82.1503 57.2884C81.6941 59.4733 80.6963 61.5079 79.249 63.2042C77.6479 65.0748 75.6525 66.5656 73.407 67.5691C68.9108 69.7873 64.4452 72.0362 59.9592 74.2647L44.9413 81.778C40.1494 84.1598 35.3678 86.5518 30.5657 88.9336C29.3219 89.5469 28.1086 90.2216 26.8138 90.7327C25.2104 91.383 23.5202 91.7928 21.7977 91.9491C21.7446 91.9387 21.6899 91.9417 21.6382 91.9577C21.5866 91.9738 21.5398 92.0024 21.502 92.0411L18.2598 92.0002Z" fill="#59C5E1"/>
<path d="M0 53.1556C0.19738 52.6541 0.30106 52.1205 0.305863 51.5814C0.64378 49.4451 1.4371 47.4069 2.63174 45.6058C3.82639 43.8047 5.39429 42.2831 7.22857 41.1445C9.24142 39.8695 11.5057 39.0465 13.8658 38.732C17.2452 38.2043 20.7041 38.6144 23.8675 39.9178C25.8398 40.7373 27.6005 41.9956 29.0162 43.5978C29.3629 43.9863 29.3527 43.9965 29.0162 44.3236L25.1827 47.84L25.0298 47.9934C24.8565 48.1978 24.7036 48.1365 24.5404 47.9934C24.0997 47.514 23.6224 47.0697 23.1131 46.6645C21.5712 45.4581 19.6938 44.7616 17.7401 44.6712C15.9906 44.5414 14.2369 44.8579 12.6423 45.5912C11.298 46.2157 10.1289 47.1643 9.23941 48.3523C8.34988 49.5402 7.76762 50.9306 7.54463 52.3992C7.10826 54.5017 7.32166 56.6876 8.15635 58.6654C8.64306 59.8673 9.392 60.9447 10.3482 61.8185C11.3044 62.6923 12.4437 63.3404 13.6823 63.7152C15.0969 64.2165 16.6053 64.395 18.0975 64.2376C19.5897 64.0802 21.028 63.5909 22.3076 62.8054C23.106 62.2905 23.8328 61.6717 24.4691 60.9654C24.8055 60.6076 24.8157 60.6076 25.1827 60.9654L29.0672 64.5636C29.3629 64.8396 29.3731 64.86 29.0672 65.2178C28.0389 66.3733 26.8303 67.3537 25.4886 68.1209C23.6253 69.1907 21.5716 69.8851 19.4427 70.1654C18.2313 70.3438 17.0057 70.4055 15.7825 70.3494C12.1356 70.2561 8.61651 68.9832 5.75023 66.7205C2.98393 64.5145 1.09615 61.389 0.428208 57.9089C0.31941 57.4375 0.241082 56.9594 0.193713 56.4778C0.212126 56.2432 0.143104 56.0101 0 55.8236L0 53.1556Z" fill="#59C5E1"/>
<path d="M185.557 52.6752C186.036 51.929 186.495 51.1725 186.974 50.4365C188.601 47.8942 190.574 45.5923 192.836 43.5979C193.798 42.7507 194.868 42.0357 196.017 41.4716C196.965 40.9888 198.013 40.74 199.076 40.7459C199.474 40.7504 199.868 40.8124 200.248 40.9299C201.212 41.148 202.052 41.7353 202.589 42.5662C203.126 43.3971 203.318 44.4057 203.124 45.3765C202.908 47.0243 202.4 48.6202 201.625 50.089C201.138 51.0771 200.6 52.0393 200.014 52.9716C199.101 54.3766 198.297 55.8495 197.608 57.3774C197.408 57.823 197.258 58.2892 197.159 58.7676C197.006 59.5445 197.414 59.9534 198.179 59.7899C198.479 59.7295 198.766 59.6152 199.025 59.4525C199.734 59.018 200.39 58.5035 200.983 57.9192C201.11 57.794 201.19 57.6274 201.207 57.449C201.412 56.4357 201.755 55.4554 202.226 54.5356C202.673 53.5865 203.324 52.7486 204.133 52.0823C204.913 51.4325 205.867 51.0272 206.875 50.917C207.035 50.9077 207.19 50.8566 207.324 50.7687C207.459 50.6808 207.567 50.5593 207.64 50.4161C209.598 47.2745 211.399 44.0511 213.044 40.7459C213.329 40.1632 213.533 39.5396 213.87 38.9774C214.272 38.211 214.831 37.5386 215.511 37.0045C215.813 36.7579 216.169 36.5844 216.549 36.4975C216.929 36.4107 217.324 36.4128 217.703 36.5036C218.263 36.6331 218.749 36.9777 219.058 37.4633C219.367 37.9489 219.474 38.5366 219.355 39.1001C219.304 39.3476 219.232 39.5903 219.141 39.8259C218.193 42.295 217.826 44.9502 218.07 47.5845C218.252 49.3263 218.327 51.0776 218.294 52.8285C218.258 55.2329 217.831 57.6151 217.03 59.8819C216.697 60.7566 216.259 61.5874 215.725 62.3556C215.126 63.2519 214.332 64.0006 213.403 64.5458C212.475 65.0911 211.435 65.4187 210.362 65.5041C208.78 65.6665 207.182 65.4745 205.683 64.9419C204.194 64.4535 202.914 63.4733 202.053 62.1614C201.92 61.9468 201.808 61.9365 201.584 62.0592C201.127 62.3082 200.697 62.6028 200.299 62.9383C199.272 63.872 198.074 64.5975 196.772 65.0748C195.906 65.3976 194.974 65.4994 194.06 65.3712C193.169 65.2452 192.349 64.8139 191.739 64.1505C191.13 63.4871 190.768 62.6326 190.716 61.7321C190.63 60.3228 190.831 58.9108 191.307 57.5819C192.033 55.504 192.937 53.493 194.009 51.5712C194.92 49.8743 195.892 48.2115 196.925 46.5828C197.118 46.2761 197.292 45.9694 197.496 45.6321C197.791 45.9592 197.72 46.3476 197.751 46.7259C198.018 46.308 198.113 45.8021 198.016 45.3152C197.992 45.1818 197.939 45.0553 197.861 44.945C197.782 44.8348 197.68 44.7435 197.562 44.6778C197.443 44.6122 197.312 44.5739 197.177 44.5656C197.042 44.5574 196.907 44.5795 196.782 44.6303C196.322 44.7901 195.891 45.025 195.508 45.3254C194.401 46.1399 193.377 47.0609 192.449 48.0752C188.822 51.9057 185.904 56.3538 183.834 61.2108C183.671 61.5992 183.528 61.9876 183.385 62.3761C183.339 62.4533 183.308 62.5393 183.296 62.6287C183.283 62.7181 183.289 62.8091 183.313 62.8962C183.337 62.9832 183.378 63.0645 183.434 63.135C183.491 63.2055 183.561 63.2638 183.64 63.3063C183.844 63.4699 184.129 63.5721 184.109 63.9094C184.095 64.0802 184.038 64.2446 183.943 64.3875C183.849 64.5304 183.72 64.6472 183.569 64.7272C183.094 65.0294 182.557 65.2214 181.999 65.2894C181.294 65.4479 180.562 65.4479 179.858 65.2894C179.471 65.1956 179.111 65.0179 178.8 64.7688C178.49 64.5198 178.239 64.2055 178.063 63.8481C177.76 63.2306 177.577 62.5611 177.523 61.8752C177.419 60.8165 177.443 59.7491 177.594 58.6961C177.604 58.6455 177.604 58.5934 177.594 58.5428C177.39 58.6041 177.309 58.7779 177.197 58.9108C175.815 60.4619 174.277 61.8664 172.609 63.1019C171.331 64.0774 169.877 64.7959 168.327 65.2179C167.569 65.4629 166.761 65.5052 165.982 65.3405C165.116 65.144 164.342 64.659 163.786 63.9646C163.231 63.2702 162.926 62.4076 162.923 61.5174C162.923 61.3334 162.923 61.1392 162.923 60.8223C162.709 61.037 162.566 61.1699 162.444 61.3028C161.458 62.3875 160.341 63.3455 159.12 64.1548C158.105 64.8344 156.946 65.2683 155.735 65.4223C154.762 65.5404 153.777 65.3357 152.931 64.8396C152.414 64.5399 151.976 64.1196 151.655 63.6142C151.334 63.1089 151.139 62.5334 151.086 61.9365C150.901 60.7179 151.108 59.4718 151.677 58.3792C151.677 58.2872 151.8 58.1952 151.677 58.0828C151.739 58.1441 151.759 58.0828 151.759 58.0828H151.688C151.24 58.4938 150.887 58.9974 150.653 59.5587C150.419 60.1199 150.309 60.7255 150.332 61.3334C150.337 61.4923 150.308 61.6506 150.247 61.7971C150.185 61.9437 150.092 62.075 149.975 62.1819C148.613 63.6237 146.897 64.6813 144.999 65.2485C144.335 65.4266 143.644 65.482 142.96 65.4121C142.346 65.3504 141.76 65.1203 141.267 64.7471C140.775 64.3739 140.394 63.8719 140.167 63.2961C139.76 62.3268 139.569 61.2803 139.606 60.2294V59.5445C139.427 59.6327 139.279 59.7713 139.178 59.9432C138.071 61.3284 136.805 62.5774 135.405 63.6641C134.372 64.4848 133.176 65.0771 131.898 65.4019C131.076 65.6166 130.212 65.6166 129.39 65.4019C128.611 65.189 127.917 64.7379 127.405 64.1113C126.894 63.4847 126.59 62.7138 126.535 61.9059C126.446 60.5706 126.615 59.2306 127.035 57.9601C127.802 55.456 128.922 53.0741 130.359 50.8863C130.845 50.1708 131.21 49.3799 131.439 48.5454C131.549 48.143 131.584 47.7236 131.541 47.3085C131.521 47.0327 131.426 46.7676 131.266 46.5419C131.042 46.6134 131.001 46.8281 130.919 46.9814C129.502 49.5779 128.044 52.1539 126.444 54.6481C125.217 56.5915 123.847 58.4401 122.345 60.1783C121.792 60.8218 121.185 61.4169 120.53 61.957C120.01 62.3987 119.417 62.7448 118.777 62.9792C118.608 63.0398 118.465 63.1549 118.369 63.3063C116.276 66.1528 113.276 68.1976 109.866 69.1023C107.823 69.687 105.71 69.9897 103.585 70.0019C100.63 70.0621 97.6802 69.7182 94.8174 68.9796C91.9211 68.2893 89.3014 66.7354 87.3034 64.5228C85.5714 62.5705 84.3766 60.1994 83.8369 57.6432C82.9346 53.8275 83.1075 49.8354 84.3365 46.1125C84.8113 44.6022 85.7191 43.2655 86.9465 42.269C87.5757 41.7354 88.3118 41.3434 89.1051 41.1195C89.8983 40.8955 90.7302 40.8448 91.5447 40.9708C92.5512 41.1369 93.4771 41.6248 94.1845 42.3617C94.8919 43.0985 95.3428 44.0449 95.4699 45.0596C95.6431 46.2963 95.5633 47.5553 95.2354 48.7601C95.0599 49.4485 94.7085 50.0791 94.2159 50.5899C93.9222 50.9126 93.5492 51.1523 93.1341 51.2851C92.719 51.4178 92.2763 51.439 91.8505 51.3463C91.4623 51.2979 91.1064 51.105 90.8533 50.8059C90.6003 50.5067 90.4686 50.1231 90.4844 49.7312C90.5053 49.0628 90.6256 48.4013 90.8412 47.7685C91.0547 47.0569 91.1274 46.3103 91.0553 45.5708C91.0601 45.4993 91.0601 45.4276 91.0553 45.3561C91.0341 45.1945 90.9685 45.0421 90.8659 44.9157C90.7633 44.7894 90.6276 44.6941 90.4742 44.6405C90.3061 44.5998 90.1295 44.6124 89.9688 44.6764C89.8081 44.7405 89.6712 44.853 89.577 44.9983C89.1178 45.5207 88.814 46.1617 88.7001 46.8485C88.3996 48.3916 88.2358 49.9583 88.2108 51.5303C88.1322 53.8164 88.4637 56.0981 89.1895 58.2668C89.7936 60.1836 90.8991 61.903 92.391 63.246C93.8829 64.589 95.7065 65.5064 97.6721 65.9028C100.106 66.5242 102.645 66.6079 105.115 66.1481C107.3 65.7434 109.307 64.6718 110.862 63.08C112.417 61.4882 113.443 59.4537 113.801 57.2548C114.206 55.1325 114.019 52.9395 113.261 50.917C112.963 50.1029 112.54 49.3406 112.007 48.6579C111.953 48.5751 111.882 48.5043 111.8 48.4498C111.718 48.3953 111.625 48.3582 111.528 48.341C109.777 48.0372 108.173 47.1685 106.96 45.8672H106.848C106.72 46.0359 106.633 46.2318 106.593 46.4396C105.67 49.0203 105.137 51.7251 105.013 54.4641C104.989 55.0632 104.843 55.6511 104.585 56.1916C104.292 56.7166 103.842 57.1357 103.298 57.3896C102.754 57.6435 102.145 57.7193 101.556 57.6062C100.967 57.493 100.428 57.1967 100.016 56.7593C99.6048 56.3219 99.3411 55.7656 99.2626 55.1694C99.1181 54.0751 99.1422 52.9649 99.334 51.8779C100.527 43.4956 104.891 37.0454 111.436 31.9139C112.157 31.3404 112.996 30.9353 113.893 30.7281C114.238 30.6099 114.613 30.6067 114.96 30.7191C115.307 30.8314 115.609 31.0533 115.82 31.3516C116.059 31.6605 116.2 32.0346 116.223 32.4249C116.247 32.8152 116.153 33.2036 115.953 33.5392C115.799 33.8258 115.583 34.0739 115.32 34.265C112.731 36.1494 110.556 38.5466 108.928 41.3081C108.62 41.7847 108.347 42.2835 108.112 42.8005C108.538 42.9434 108.98 43.0293 109.427 43.0561C111.176 43.3274 112.959 43.2755 114.688 42.9028C115.933 42.6602 117.101 42.1201 118.094 41.3281C119.086 40.5362 119.873 39.5159 120.388 38.3539C121.089 36.9261 121.502 35.3731 121.601 33.7845C121.755 32.0552 121.22 30.335 120.112 29.0005C119.2 28.0119 117.996 27.342 116.676 27.089C114.959 26.652 113.155 26.6933 111.459 27.2085C109.763 27.7237 108.239 28.6932 107.052 30.0125C105.783 31.233 104.87 32.7775 104.411 34.4796C104.226 35.1447 104.185 35.8416 104.289 36.5241C104.362 36.9908 104.338 37.4677 104.218 37.9245C104.195 38.0869 104.137 38.2421 104.047 38.3793C103.957 38.5165 103.839 38.6321 103.7 38.718C103.56 38.8039 103.404 38.858 103.241 38.8763C103.079 38.8947 102.914 38.8768 102.76 38.8241C102.409 38.7325 102.08 38.5727 101.791 38.3539C100.395 37.4239 99.3992 36.0007 99.0024 34.3678C98.6057 32.7348 98.8369 31.012 99.65 29.5423C100.592 27.8655 101.895 26.4199 103.463 25.3103C105.75 23.558 108.458 22.4436 111.314 22.0801C113.134 21.7987 114.993 21.9279 116.757 22.4584C118.521 22.9889 120.144 23.9074 121.509 25.1468C123.295 26.8084 124.485 29.0146 124.894 31.4232C125.506 34.238 125.294 37.1702 124.282 39.8668C123.072 43.1806 120.616 45.8882 117.441 47.4108C116.504 47.8793 115.493 48.1836 114.454 48.3103C114.342 48.3103 114.199 48.3103 114.117 48.4636C114.733 48.6406 115.374 48.7132 116.014 48.6783C116.447 48.6897 116.88 48.6381 117.298 48.525C117.427 48.4835 117.565 48.4807 117.696 48.517C117.826 48.5534 117.943 48.6272 118.032 48.7294C119.098 49.7384 119.873 51.0167 120.275 52.4299C120.654 53.7332 120.806 55.0922 120.724 56.4472C120.724 56.6312 120.724 56.8254 120.724 57.1014L121.183 56.621C122.634 54.9413 123.956 53.1542 125.139 51.2748C126.566 49.0463 127.871 46.7361 129.084 44.3748C129.278 43.9863 129.278 43.9761 128.982 43.6592C128.471 43.1009 128.184 42.3726 128.177 41.6148C128.138 40.0152 128.622 38.4468 129.553 37.1476C129.779 36.7983 130.079 36.5029 130.432 36.2821C130.784 36.0613 131.18 35.9206 131.592 35.8699C132.266 35.8075 132.941 35.9756 133.508 36.3468C134.074 36.718 134.499 37.2705 134.712 37.9143C134.824 38.4531 134.81 39.0107 134.67 39.5429C134.53 40.0752 134.269 40.5675 133.907 40.981C133.764 41.1548 133.652 41.1139 133.499 40.981C132.715 40.4613 132.095 39.7269 131.715 38.865C131.707 38.8391 131.693 38.8158 131.673 38.7977C131.653 38.7796 131.629 38.7675 131.603 38.7628C131.48 38.9775 131.416 39.2207 131.416 39.4681C131.416 39.7155 131.48 39.9586 131.603 40.1734C131.94 40.7753 132.424 41.2817 133.01 41.6454C134.184 42.4588 135.183 43.5019 135.946 44.7121C136.84 46.0668 137.203 47.7052 136.965 49.3121C136.787 50.4054 136.384 51.4496 135.783 52.3788C134.936 53.7383 134.193 55.1598 133.56 56.6312C133.253 57.2805 133.033 57.9681 132.908 58.6756C132.887 58.8351 132.887 58.9966 132.908 59.1561C132.909 59.2794 132.939 59.4008 132.995 59.5107C133.051 59.6206 133.131 59.7163 133.23 59.7903C133.328 59.8643 133.442 59.9148 133.563 59.9377C133.684 59.9607 133.808 59.9556 133.927 59.9228C134.405 59.8239 134.855 59.6177 135.242 59.3196C136.126 58.6546 136.93 57.8897 137.638 57.0401C139.197 55.3607 140.584 53.5286 141.778 51.5712C142.012 51.1828 142.185 50.7636 142.4 50.365C143.531 48.1221 145.022 46.0811 146.814 44.3236C148.224 42.9163 149.922 41.8318 151.79 41.1445C152.919 40.6973 154.147 40.5597 155.348 40.7459C156.164 40.8603 156.933 41.1987 157.57 41.7236C158.207 42.2485 158.687 42.9395 158.957 43.7205C158.957 43.7921 158.957 43.8739 159.11 43.8943C159.255 43.7802 159.379 43.6419 159.477 43.4854C160.107 42.7107 160.838 42.0232 161.649 41.441C162.271 40.9693 163.03 40.7144 163.81 40.7152C164.109 40.6922 164.41 40.7358 164.691 40.8429C164.972 40.95 165.225 41.118 165.434 41.3348C165.642 41.5516 165.8 41.8119 165.897 42.0971C165.993 42.3823 166.026 42.6853 165.992 42.9845C165.965 43.6929 165.795 44.3884 165.492 45.029C165.183 45.7322 164.8 46.4004 164.35 47.0223C162.546 49.537 160.782 52.1334 159.253 54.781C158.72 55.6812 158.256 56.621 157.866 57.5921C157.704 57.9927 157.591 58.4114 157.53 58.8392C157.417 59.6161 157.866 60.025 158.62 59.8614C158.988 59.7538 159.334 59.5807 159.64 59.3503C160.53 58.732 161.344 58.0116 162.067 57.2036C163.809 55.3483 165.322 53.289 166.573 51.0703C167.859 48.7299 169.296 46.4762 170.875 44.3236C171.61 43.2478 172.528 42.3101 173.587 41.5534C174.236 41.0526 175.032 40.7829 175.851 40.7868C176.147 40.7674 176.443 40.8129 176.72 40.9203C176.996 41.0276 177.246 41.1941 177.452 41.4082C177.658 41.6223 177.815 41.8789 177.911 42.1599C178.008 42.441 178.042 42.7399 178.012 43.0356C177.986 43.6497 177.844 44.2532 177.594 44.8143C177.226 45.6599 176.761 46.4592 176.208 47.1961C174.495 49.5779 172.823 52.0005 171.344 54.5459C170.77 55.5049 170.269 56.5061 169.846 57.541C169.68 57.94 169.554 58.3542 169.468 58.7779C169.305 59.6979 169.795 60.1374 170.682 59.8716C171.28 59.6747 171.844 59.3849 172.354 59.013C173.806 58.0384 175.155 56.9184 176.381 55.6703C176.962 55.0979 177.513 54.505 178.043 53.8916C178.84 52.9762 179.491 51.9416 179.97 50.825C180.871 48.6919 181.952 46.64 183.202 44.6916C183.862 43.5874 184.699 42.5996 185.679 41.7681C186.143 41.3665 186.686 41.0679 187.273 40.8917C187.86 40.7155 188.477 40.6658 189.084 40.7459C189.329 40.7497 189.57 40.8052 189.792 40.9087C190.014 41.0122 190.212 41.1613 190.372 41.3465C190.533 41.5316 190.653 41.7486 190.724 41.9832C190.796 42.2179 190.817 42.465 190.787 42.7085C190.779 42.9433 190.745 43.1764 190.685 43.4036C190.427 44.3417 189.994 45.2225 189.411 46.0001C188.192 47.7685 187.069 49.6008 186.046 51.4894L185.465 52.5832C185.465 52.665 185.292 52.7468 185.465 52.8388C185.638 52.9308 185.557 52.7774 185.557 52.6752ZM171.732 45.305C171.744 45.2799 171.762 45.2589 171.786 45.2444C171.81 45.2299 171.837 45.2225 171.864 45.2232C173.184 43.8463 174.764 42.748 176.513 41.993C176.345 41.8632 176.147 41.7767 175.937 41.7411C175.728 41.7055 175.512 41.7217 175.31 41.7885C174.88 41.9208 174.481 42.14 174.138 42.4325C173.281 43.1691 172.536 44.0265 171.926 44.9779C171.864 45.0699 171.803 45.1619 171.864 45.2743L171.722 45.3561L171.732 45.305ZM149.363 44.1294H149.281H149.353H149.434H149.363ZM215.124 38.8445C215.042 38.9059 214.93 39.0081 215.022 39.0899C215.113 39.1716 215.195 39.0899 215.256 38.957C216.067 38.3457 216.943 37.8247 217.866 37.4032C217.632 37.2959 217.374 37.2527 217.118 37.2778C216.862 37.303 216.617 37.3956 216.408 37.5463C215.9 37.891 215.463 38.332 215.124 38.8445ZM160.853 43.4752C162.048 42.6708 163.389 42.1083 164.799 41.8192C164.777 41.7759 164.747 41.7373 164.71 41.7058C164.673 41.6742 164.631 41.6502 164.585 41.6352C164.348 41.5464 164.097 41.5061 163.845 41.5166C163.592 41.5272 163.345 41.5883 163.117 41.6965C162.276 42.0717 161.523 42.6183 160.904 43.3014C160.853 43.3525 160.812 43.4139 160.853 43.4854C160.894 43.557 160.772 43.4854 160.761 43.4854L160.853 43.4752ZM86.5795 44.8859C87.7218 43.5531 89.1804 42.5301 90.8208 41.9112C90.744 41.8886 90.6656 41.8715 90.5863 41.8601C89.6961 41.8361 88.8226 42.1049 88.0991 42.6254C87.3756 43.1459 86.8419 43.8896 86.5795 44.7428C86.5795 44.7428 86.5795 44.845 86.5795 44.8961V44.8859ZM184.384 45.3254C185.734 43.9974 187.304 42.9147 189.023 42.1259C188.853 41.9995 188.654 41.9167 188.444 41.8847C188.235 41.8526 188.021 41.8722 187.82 41.9419C187.357 42.094 186.929 42.3411 186.566 42.6676C185.761 43.362 185.055 44.1633 184.466 45.0494C184.395 45.1312 184.333 45.2232 184.395 45.3356C184.456 45.4481 184.333 45.3356 184.313 45.3356L184.384 45.3254ZM102.79 27.6001C102.607 27.5388 102.525 27.7023 102.423 27.7841C101.374 28.6446 100.627 29.8197 100.292 31.137C100.043 32.0879 100.001 33.0817 100.17 34.0503C100.303 33.5188 100.394 33.0281 100.568 32.4454C101.077 30.9647 101.723 29.5344 102.495 28.1725C102.619 27.9979 102.715 27.8047 102.78 27.6001C102.78 27.549 102.78 27.6001 102.78 27.6001C102.78 27.6001 102.76 27.5081 102.79 27.6001ZM156.296 46.7463C156.296 45.7241 155.97 45.4379 155.205 45.5094C154.901 45.5502 154.607 45.6473 154.338 45.7956C153.71 46.1217 153.13 46.5346 152.615 47.0223C149.687 49.6895 147.379 52.97 145.856 56.6312C145.625 57.1612 145.473 57.7228 145.407 58.2974C145.315 59.0743 145.642 59.4014 146.427 59.3196C146.675 59.2905 146.917 59.2178 147.14 59.105C147.561 58.9026 147.955 58.6485 148.313 58.3485C148.967 57.8049 149.574 57.2064 150.128 56.5596C151.575 54.8931 152.936 53.153 154.206 51.3463C154.95 50.2785 155.55 49.1167 155.99 47.8912C156.142 47.5248 156.245 47.1398 156.296 46.7463ZM212.208 48.3103C212.045 48.3819 212.014 48.5148 211.963 48.617C211.504 49.4552 211.025 50.2832 210.505 51.0908C210.23 51.5201 210.281 51.4792 210.607 51.7041C210.894 51.8841 211.135 52.1282 211.312 52.4173C211.489 52.7064 211.596 53.0325 211.627 53.3703C211.627 53.6463 211.769 53.9836 211.484 54.1779C211.198 54.3721 210.943 54.1779 210.709 53.9836C210.471 53.8137 210.186 53.7224 209.893 53.7224C209.601 53.7224 209.316 53.8137 209.078 53.9836C208.845 54.1164 208.638 54.2895 208.466 54.4948C207.805 55.2453 207.41 56.1943 207.344 57.1934C207.287 57.5628 207.337 57.9409 207.487 58.2831C207.637 58.6254 207.881 58.9176 208.191 59.1254C208.464 59.3199 208.777 59.4535 209.106 59.5172C209.435 59.5809 209.775 59.5733 210.101 59.4949C210.427 59.4165 210.733 59.2691 210.998 59.0626C211.263 58.8561 211.481 58.5952 211.637 58.2974C211.956 57.7109 212.177 57.0753 212.289 56.4165C212.614 54.4398 212.669 52.4281 212.452 50.4365C212.361 49.7108 212.279 49.0668 212.208 48.3103ZM149.526 44.0681C150.593 43.5493 151.71 43.1417 152.86 42.8516C154.023 42.5448 155.235 42.465 156.428 42.6165C156.208 42.3538 155.928 42.1471 155.613 42.0134C154.99 41.764 154.304 41.721 153.655 41.8908C152.17 42.2515 150.779 42.9278 149.577 43.8739C149.577 43.8739 149.587 43.9556 149.526 44.0681ZM132.377 36.8001C132.113 36.7168 131.831 36.7071 131.562 36.7719C131.293 36.8367 131.046 36.9736 130.848 37.1681C130.21 37.7903 129.786 38.599 129.635 39.4783C130.305 38.3649 131.25 37.4427 132.377 36.8001ZM111.987 32.7112C113.05 32.2672 114.152 31.9249 115.28 31.689C115.185 31.5939 115.069 31.5222 114.941 31.4796C114.814 31.437 114.679 31.4247 114.546 31.4436C113.579 31.5979 112.68 32.0395 111.966 32.7112H111.987Z" fill="#DADADA"/>
<path d="M279.896 51.7961C280.63 50.7024 281.344 49.5984 282.108 48.525C283.363 46.6902 284.854 45.03 286.543 43.5877C287.512 42.744 288.633 42.095 289.847 41.6761C291.033 41.2617 292.334 41.324 293.476 41.8499C294.132 42.1189 294.692 42.5796 295.083 43.1722C295.474 43.7648 295.678 44.4617 295.668 45.1721C295.645 45.3611 295.663 45.5527 295.719 45.7344C295.887 45.6355 296.032 45.5033 296.147 45.3459C297.055 44.3327 298.082 43.4334 299.206 42.6677C300.052 42.0792 301.01 41.672 302.02 41.4717C302.677 41.3413 303.354 41.3551 304.005 41.5122C304.657 41.6692 305.266 41.9658 305.792 42.3815C306.198 42.6999 306.526 43.1064 306.752 43.5703C306.978 44.0341 307.096 44.5434 307.097 45.0597C307.127 46.1036 306.961 47.1438 306.608 48.1264C306.014 49.8661 305.205 51.5247 304.202 53.0637C303.237 54.5481 302.385 56.1028 301.653 57.7148C301.416 58.2206 301.238 58.7523 301.123 59.2993C301.095 59.4236 301.078 59.5502 301.072 59.6775C301.055 59.7909 301.067 59.9067 301.107 60.0142C301.147 60.1217 301.213 60.2175 301.299 60.2928C301.385 60.3681 301.489 60.4205 301.601 60.4451C301.712 60.4698 301.828 60.4659 301.938 60.4339C302.345 60.3491 302.73 60.1821 303.07 59.9433C303.803 59.4608 304.48 58.8986 305.089 58.2668C307.027 56.3216 308.737 54.161 310.186 51.8268C310.372 51.4978 310.614 51.2037 310.9 50.9579C311.037 50.8355 311.2 50.7454 311.376 50.6941C311.553 50.6428 311.738 50.6317 311.92 50.6615C312.029 50.6609 312.137 50.6833 312.236 50.7274C312.336 50.7714 312.425 50.8361 312.499 50.9171C312.572 50.9982 312.627 51.0938 312.661 51.1977C312.694 51.3016 312.706 51.4115 312.694 51.5201C312.738 52.0082 312.639 52.4985 312.409 52.9308C310.412 56.6711 307.861 60.0865 304.844 63.061C303.971 63.9004 302.991 64.619 301.928 65.1975C301.12 65.6379 300.239 65.9288 299.328 66.0561C298.788 66.1319 298.238 66.0983 297.712 65.9574C297.185 65.8164 296.691 65.5709 296.261 65.2354C295.83 64.9 295.471 64.4813 295.205 64.0042C294.938 63.5271 294.77 63.0013 294.71 62.4579C294.584 61.2161 294.723 59.9618 295.118 58.7779C295.768 56.7915 296.597 54.8687 297.595 53.033C298.485 51.3225 299.434 49.6631 300.44 48.0548C300.751 47.5887 301.033 47.1039 301.286 46.6033C301.286 46.5215 301.357 46.4397 301.459 46.409C301.663 46.6953 301.561 47.0326 301.673 47.4313C301.897 47.0149 301.996 46.543 301.959 46.0717C301.962 45.9255 301.926 45.7812 301.855 45.6533C301.784 45.5255 301.681 45.4188 301.555 45.344C301.43 45.2693 301.287 45.2291 301.141 45.2276C300.995 45.2262 300.852 45.2635 300.725 45.3357C300.229 45.5567 299.774 45.861 299.379 46.2353C298.181 47.3034 297.092 48.4882 296.127 49.7721C293.445 53.217 291.22 56.9968 289.51 61.0166C289.199 61.6877 288.973 62.3951 288.837 63.1224C288.779 63.4256 288.814 63.7395 288.939 64.0219C289.019 64.2002 289.084 64.3849 289.133 64.5739C289.2 64.7203 289.231 64.8805 289.225 65.0414C289.218 65.2023 289.174 65.3594 289.096 65.4999C289.017 65.6404 288.907 65.7603 288.773 65.8499C288.64 65.9395 288.487 65.9961 288.327 66.0153C287.664 66.2006 286.964 66.2143 286.294 66.0552C285.623 65.8961 285.004 65.5694 284.494 65.1055C283.773 64.4377 283.333 63.5207 283.26 62.5397C283.158 61.2033 283.332 59.8601 283.77 58.5939C284.389 56.7101 285.17 54.8837 286.105 53.1353C287.012 51.3668 288.011 49.6495 289.061 47.9628C289.404 47.4571 289.698 46.9197 289.938 46.3579C290.285 46.6646 290.152 47.0837 290.326 47.4619C290.518 47.079 290.609 46.6532 290.591 46.225C290.599 46.0703 290.567 45.9159 290.498 45.7774C290.429 45.6388 290.325 45.5208 290.196 45.4351C290.067 45.3493 289.918 45.2988 289.764 45.2886C289.61 45.2783 289.455 45.3086 289.316 45.3766C288.864 45.5579 288.446 45.8174 288.083 46.1432C287.159 46.8968 286.319 47.7466 285.575 48.6784C281.968 52.9856 279.145 57.8956 277.235 63.1837L277.143 63.4393C277.01 63.8686 277.021 63.9095 277.398 64.1344C277.482 64.1645 277.558 64.2152 277.618 64.2818C277.677 64.3484 277.72 64.4289 277.741 64.5161C277.762 64.6032 277.762 64.6943 277.739 64.7811C277.717 64.8679 277.673 64.9478 277.612 65.0135C277.451 65.2352 277.232 65.4084 276.98 65.5144C275.865 66.0905 274.581 66.2465 273.36 65.9539C272.964 65.8549 272.597 65.6621 272.29 65.3918C271.984 65.1215 271.746 64.7815 271.597 64.4001C271.264 63.6782 271.083 62.8952 271.066 62.1001C271.016 61.3946 271.036 60.6856 271.128 59.9841C271.173 59.8376 271.173 59.6809 271.128 59.5344C270.967 59.6489 270.832 59.795 270.73 59.9637C269.665 61.267 268.454 62.4434 267.121 63.4699C266.055 64.3383 264.813 64.9628 263.481 65.2997C262.638 65.5098 261.754 65.4886 260.922 65.2384C260.189 65.03 259.534 64.6059 259.044 64.021C258.553 63.4361 258.248 62.7172 258.169 61.957C258.031 60.6763 258.163 59.3807 258.557 58.1544C259.309 55.5522 260.446 53.0781 261.931 50.8148C262.451 50.0536 262.841 49.2105 263.083 48.3206C263.168 47.9314 263.192 47.5314 263.155 47.1348C263.139 46.8538 263.028 46.5867 262.839 46.3784C262.687 46.5368 262.569 46.7246 262.492 46.9304C260.735 50.2273 258.809 53.4312 256.722 56.529C255.598 58.2598 254.3 59.8698 252.847 61.3335C252.424 61.7501 251.963 62.1266 251.471 62.4579C251.139 62.7119 250.762 62.8993 250.36 63.0099C249.838 63.1473 249.342 63.3682 248.891 63.6641C246.533 64.981 243.83 65.5478 241.143 65.2895C240.223 65.234 239.312 65.0693 238.431 64.7988C237.131 64.4463 235.987 63.6661 235.183 62.5834C234.379 61.5008 233.961 60.1785 233.996 58.829C233.996 58.7064 233.996 58.5837 233.945 58.461C233.894 58.3384 233.731 58.6246 233.639 58.7268C232.491 60.1435 231.222 61.4569 229.846 62.6521C228.885 63.4956 227.811 64.2008 226.655 64.7477C225.704 65.2076 224.651 65.4186 223.597 65.361C222.965 65.3587 222.348 65.1691 221.824 64.8163C221.3 64.4634 220.891 63.963 220.65 63.3779C220.271 62.4984 220.06 61.5552 220.028 60.5975C219.935 58.0862 220.214 55.5751 220.854 53.1455C222.361 47.1812 225.01 41.5673 228.653 36.6161L228.99 36.1357C228.99 36.1357 228.99 36.0641 228.99 36.0233C228.99 35.9824 228.704 35.9108 228.552 35.8904C227.854 35.8011 227.17 35.6296 226.512 35.3793C226.191 35.258 225.886 35.0966 225.605 34.8988C225.125 34.5977 224.774 34.1295 224.617 33.5842C224.461 33.0389 224.512 32.4549 224.759 31.9446C224.961 31.481 225.237 31.053 225.574 30.677C225.655 30.5794 225.751 30.4965 225.86 30.4317C226.125 30.2681 226.38 30.309 226.482 30.585C226.961 31.7912 228.032 31.9957 229.112 32.1899C229.95 32.3024 230.796 32.3434 231.641 32.3126C231.782 32.3178 231.923 32.29 232.052 32.2315C232.181 32.173 232.295 32.0853 232.385 31.9753C233.976 30.1802 235.708 28.5155 237.564 26.997C238.361 26.3156 239.254 25.7575 240.215 25.341C240.773 25.0848 241.376 24.939 241.989 24.9117C242.327 24.8966 242.664 24.9493 242.981 25.0666C243.298 25.184 243.588 25.3636 243.835 25.5949C244.082 25.8263 244.281 26.1047 244.419 26.414C244.557 26.7232 244.632 27.057 244.64 27.3957C244.662 28.3876 244.296 29.3487 243.62 30.0739C243.447 30.2988 243.253 30.5032 242.988 30.8201L245.425 30.2988C247.464 29.8184 249.564 29.3584 251.665 29.0108C253.222 28.6888 254.828 28.6888 256.385 29.0108C256.681 29.0823 256.968 29.1851 257.241 29.3175C257.807 29.553 258.281 29.9665 258.592 30.4957C258.903 31.0249 259.033 31.641 258.965 32.2512C258.964 32.523 258.933 32.7939 258.873 33.0588C258.854 33.1981 258.802 33.3309 258.723 33.4467C258.644 33.5625 258.538 33.658 258.415 33.7256C258.292 33.7932 258.155 33.8309 258.015 33.8359C257.875 33.8408 257.736 33.8127 257.609 33.7539C256.108 33.165 254.471 33.0126 252.888 33.3144C248.871 33.955 244.854 34.5853 240.837 35.2055C238.086 35.6821 235.299 35.9147 232.507 35.9006C232.472 35.8941 232.435 35.8953 232.4 35.9041C232.365 35.9129 232.332 35.9291 232.303 35.9517C233.735 36.5828 235.303 36.8396 236.861 36.6979C236.792 36.9041 236.665 37.0855 236.494 37.2192C234.699 39.1962 233.027 41.2821 231.488 43.465C229.545 46.1599 227.955 49.0939 226.757 52.1948C226.042 54.0855 225.596 56.0676 225.432 58.0828C225.392 58.3676 225.392 58.6567 225.432 58.9415C225.442 59.0838 225.483 59.2223 225.55 59.3481C225.617 59.4739 225.71 59.5841 225.822 59.6717C225.935 59.7594 226.064 59.8224 226.202 59.8569C226.341 59.8913 226.484 59.8964 226.625 59.8717C227.095 59.8431 227.551 59.6954 227.95 59.4424C228.667 58.9788 229.348 58.4629 229.989 57.8988C231.684 56.4845 233.225 54.8946 234.587 53.1557C235.1 52.4574 235.55 51.7151 235.933 50.9375C237.32 48.0099 239.316 45.4134 241.785 43.3219C243.267 42.0418 245.043 41.1528 246.954 40.7357C247.734 40.5371 248.548 40.5185 249.336 40.6814C250.123 40.8443 250.864 41.1845 251.501 41.6761C252.045 42.1017 252.474 42.6564 252.75 43.29C253.026 43.9236 253.14 44.6161 253.082 45.305C253.092 45.71 252.987 46.1095 252.78 46.457C252.572 46.8045 252.27 47.0856 251.909 47.2677C252.251 47.2827 252.591 47.3168 252.929 47.3699C253.445 47.469 253.927 47.6971 254.332 48.033C254.737 48.369 255.05 48.8019 255.243 49.2917C255.549 50.0474 255.694 50.8584 255.671 51.6735V52.7877C255.807 52.7081 255.917 52.591 255.987 52.4504C257.71 49.851 259.283 47.1547 260.698 44.3748C260.82 44.1397 260.851 43.9966 260.626 43.7819C260.357 43.5246 260.143 43.2154 259.995 42.8728C259.848 42.5303 259.772 42.1615 259.77 41.7886C259.694 40.1524 260.179 38.5395 261.146 37.2192C261.506 36.6733 262.041 36.2678 262.663 36.0706C263.285 35.8735 263.956 35.8966 264.563 36.1362C265.17 36.3758 265.676 36.8173 265.997 37.3867C266.318 37.956 266.434 38.6187 266.326 39.2637C266.213 39.8724 265.954 40.4444 265.571 40.9299C265.337 41.2366 265.337 41.2366 265.031 41.0117C264.268 40.5097 263.663 39.8007 263.287 38.9672C263.255 38.9125 263.218 38.8611 263.175 38.8139C263.062 39.061 263.012 39.3325 263.03 39.6038C263.048 39.875 263.133 40.1376 263.277 40.3677C263.61 40.9288 264.071 41.402 264.623 41.7477C265.73 42.502 266.682 43.4634 267.427 44.5793C268.238 45.7099 268.681 47.0646 268.693 48.4575C268.706 49.8503 268.289 51.2129 267.498 52.3584C266.978 53.2068 266.479 54.045 265.979 54.9139C265.477 55.8116 265.047 56.7482 264.694 57.7148C264.551 58.1062 264.462 58.5155 264.429 58.9313C264.429 59.7081 264.827 60.0761 265.581 59.9024C266.032 59.7819 266.455 59.5735 266.825 59.289C267.676 58.6956 268.459 58.01 269.16 57.2446C270.785 55.5021 272.233 53.6016 273.483 51.5713C273.588 51.3822 273.683 51.1877 273.768 50.9886C274.607 49.0892 275.578 47.2514 276.674 45.489C277.25 44.5559 277.934 43.6946 278.713 42.9233C279.48 42.1218 280.479 41.5819 281.568 41.3797C282.025 41.2826 282.497 41.2826 282.954 41.3797C283.357 41.4594 283.719 41.6799 283.974 42.0019C284.23 42.3239 284.364 42.7265 284.351 43.1379C284.342 43.7191 284.218 44.2926 283.984 44.8246C283.763 45.3768 283.479 45.9017 283.138 46.3886C281.935 48.1059 280.864 49.8948 279.835 51.7246C279.773 51.7859 279.692 51.9086 279.743 51.9393C279.794 51.9699 279.886 51.8984 279.896 51.7961ZM238.635 27.7739C238.635 27.7739 238.533 27.7739 238.553 27.7739L238.625 27.7126C238.625 27.7126 238.788 27.7126 238.727 27.6001C238.92 27.6921 239.063 27.5388 239.216 27.4775C240.457 26.9123 241.778 26.54 243.131 26.3735C243.202 26.3735 243.274 26.3735 243.274 26.2304C243.101 26.0525 242.886 25.9223 242.648 25.8524C242.41 25.7826 242.159 25.7755 241.918 25.8317C240.704 26.0918 239.596 26.7115 238.737 27.6104C238.665 27.6615 238.574 27.6921 238.635 27.7739ZM277.969 45.7548C278.071 45.7548 278.122 45.7548 278.163 45.6424C279.466 44.3494 280.998 43.3096 282.679 42.5757C282.518 42.4546 282.331 42.3723 282.133 42.3351C281.935 42.2979 281.731 42.3067 281.537 42.361C280.999 42.5138 280.506 42.7943 280.1 43.1788C279.345 43.8536 278.68 44.6232 278.122 45.4686C278.073 45.4967 278.033 45.5368 278.004 45.5852C277.976 45.6335 277.96 45.6884 277.959 45.7446V45.8059C277.959 45.8059 277.969 45.7957 277.969 45.7548ZM243.987 43.4344C245.95 42.6588 248.007 42.15 250.105 41.9215C250.076 41.8798 250.041 41.842 250.003 41.809C249.958 41.7791 249.91 41.7551 249.86 41.7375C249.095 41.4645 248.269 41.4079 247.474 41.5739C246.153 41.8619 244.915 42.4494 243.855 43.2912C243.722 43.2912 243.59 43.373 243.641 43.5775C243.767 43.5621 243.887 43.5126 243.987 43.4344ZM251.216 47.237C250.979 47.1691 250.765 47.0382 250.596 46.8583C250.428 46.6783 250.311 46.456 250.258 46.2148L250.196 46.0615C250.131 45.85 249.992 45.669 249.805 45.5509C249.618 45.4329 249.395 45.3856 249.177 45.4175C248.855 45.4554 248.543 45.5561 248.259 45.7139C247.823 45.9289 247.413 46.193 247.036 46.501C244.54 48.5693 242.631 51.259 241.5 54.3006C241.078 55.3823 240.921 56.5495 241.041 57.7046C241.049 58.3621 241.255 59.0017 241.634 59.5385C242.013 60.0753 242.546 60.4839 243.162 60.7099C243.941 61.0269 244.786 61.1479 245.623 61.0624C246.46 60.9769 247.264 60.6874 247.964 60.2193C249.797 58.934 251.13 57.0522 251.736 54.8935C251.927 54.202 251.999 53.483 251.95 52.7673C252.429 52.9717 252.531 53.4317 252.806 53.7895C252.793 53.3841 252.713 52.9837 252.572 52.6037C252.49 52.3458 252.338 52.1158 252.134 51.9393C251.972 51.7922 251.769 51.6978 251.552 51.6686C251.336 51.6394 251.115 51.6768 250.92 51.7757C250.746 51.8517 250.603 51.9857 250.515 52.1552C250.428 52.3247 250.402 52.5193 250.441 52.7059C250.441 52.941 250.441 53.1761 250.441 53.4113C250.426 53.7615 250.354 54.1069 250.227 54.4335C250.054 54.9045 249.724 55.3011 249.293 55.5563C248.862 55.8115 248.357 55.9096 247.862 55.8339C247.425 55.809 247.011 55.6319 246.691 55.3332C246.37 55.0346 246.164 54.6332 246.108 54.1984C245.93 53.4594 245.93 52.6885 246.108 51.9495C246.299 50.8571 246.798 49.8424 247.546 49.0254C248.294 48.2084 249.26 47.6233 250.329 47.3393C250.574 47.3597 250.859 47.3086 251.216 47.237ZM250.961 48.2593C249.646 48.0139 248.045 49.2815 247.729 50.8864C248.655 49.8387 249.747 48.9511 250.961 48.2593ZM261.157 39.5806C261.816 38.4286 262.765 37.47 263.909 36.8001C263.837 36.7396 263.75 36.6978 263.658 36.6782C263.566 36.6586 263.47 36.6618 263.379 36.6877C263.13 36.7303 262.892 36.8218 262.679 36.9569C262.465 37.0919 262.281 37.268 262.135 37.4748C261.66 38.0958 261.329 38.8152 261.167 39.5806H261.157ZM279.641 52.205C279.641 52.205 279.641 52.1437 279.59 52.205C279.59 52.205 279.59 52.2766 279.59 52.2664C279.59 52.2561 279.631 52.2255 279.651 52.205H279.641Z" fill="#DADADA"/>
<path d="M38.2839 54.2596C38.2839 54.0041 38.1208 53.861 37.9985 53.6872C35.9594 50.8931 33.9441 48.1058 31.9526 45.3254L27.7928 39.5805C27.7011 39.4476 27.487 39.3147 27.5991 39.1205C27.7113 38.9263 27.8948 39.049 28.0477 39.049C30.3723 39.049 32.6968 39.049 35.0214 39.049C35.1694 39.0382 35.3176 39.0676 35.4504 39.1342C35.5832 39.2008 35.6956 39.302 35.7759 39.4272C37.2916 41.533 38.8175 43.6319 40.3536 45.7241L48.9382 57.4285L57.1557 68.7956C57.38 69.0921 57.5941 69.3987 57.8184 69.7054C57.6584 69.7881 57.476 69.8168 57.2984 69.7872H50.1616C50.0052 69.8012 49.848 69.7714 49.7076 69.701C49.5671 69.6306 49.449 69.5224 49.3664 69.3885C47.1438 66.281 44.9076 63.1836 42.6578 60.0965C42.5668 59.9409 42.4455 59.8053 42.3009 59.6978C42.2495 59.5416 42.1701 59.3961 42.0664 59.2685L38.6714 54.5867C38.5694 54.4538 38.4878 54.2903 38.2839 54.2596Z" fill="#59C5E1"/>
<path d="M2.98753 41.3693C2.93098 41.1701 2.91366 40.9618 2.93656 40.7559C2.93656 37.8222 2.93656 34.8782 2.93656 31.9342C2.92122 28.6554 4.08287 25.4806 6.20929 22.9897C8.73155 20.0015 12.2015 17.9733 16.0377 17.2448L16.9961 17.0608C17.3631 17.0097 17.4039 17.0608 17.4141 17.4084V21.1906C17.4141 21.5893 17.4141 21.5995 16.9961 21.6813C15.6175 21.9537 14.2898 22.44 13.0606 23.1226C11.0263 24.1692 9.37663 25.8375 8.35033 27.8862C7.77625 29.0714 7.47652 30.3712 7.47353 31.6888C7.47353 33.7333 7.47353 35.7777 7.47353 37.8222C7.49397 37.9698 7.46504 38.1202 7.39125 38.2496C7.31747 38.3791 7.20299 38.4804 7.06571 38.5377C5.68625 39.2489 4.41303 40.1504 3.2832 41.2159C3.2489 41.2625 3.20441 41.3005 3.15315 41.3271C3.10189 41.3537 3.04523 41.3681 2.98753 41.3693Z" fill="#59C5E1"/>
<path d="M38.2841 54.2598C38.488 54.2598 38.5696 54.454 38.6716 54.5971L42.0666 59.2891C42.1703 59.4167 42.2497 59.5622 42.3011 59.7184C39.9766 62.9282 37.6588 66.1482 35.3478 69.3784C35.2621 69.5192 35.1402 69.6342 34.995 69.7116C34.8497 69.7889 34.6863 69.8257 34.522 69.818C32.1567 69.818 29.8015 69.818 27.4464 69.818H26.8652C30.7089 64.5535 34.4914 59.4015 38.2841 54.2598Z" fill="#DADADA"/>
<path d="M47.8064 51.9495C47.6832 51.8687 47.5845 51.7555 47.5209 51.6224L44.1462 47.0224C43.8914 46.6646 43.8914 46.6544 44.1462 46.2864L49.1726 39.458C49.2433 39.3349 49.3462 39.2337 49.4702 39.1652C49.5943 39.0967 49.7346 39.0636 49.8761 39.0695C52.1599 39.0695 54.4436 39.0695 56.7274 39.0695H56.9721C56.9721 39.0695 56.9721 39.0695 56.9721 39.1411C56.9721 39.1411 56.9721 39.2126 56.9721 39.1411L48.0001 51.6531C47.9899 51.7757 47.9186 51.9086 47.8064 51.9495Z" fill="#DADADA"/>
<path d="M25.9673 24.7582C25.9673 23.4395 25.9673 22.1209 25.9673 20.8124C25.9585 20.3288 26.0594 19.8494 26.2626 19.4106C26.4658 18.9719 26.7659 18.5852 27.1402 18.2799C27.5144 17.9746 27.953 17.7586 28.4228 17.6484C28.8926 17.5381 29.3813 17.5365 29.8518 17.6435C30.204 17.7039 30.5468 17.8105 30.8713 17.9604L39.4763 22.2333C40.0016 22.4782 40.4521 22.8594 40.7813 23.3373C41.157 23.9082 41.2959 24.6035 41.1683 25.2755C41.0408 25.9474 40.6569 26.543 40.0982 26.9355C39.8928 27.0844 39.6744 27.2144 39.4457 27.324L30.8917 31.5764C30.2318 31.9169 29.4809 32.038 28.7477 31.9222C28.0146 31.8064 27.3372 31.4598 26.8136 30.9324C26.552 30.6619 26.3469 30.3417 26.2104 29.9906C26.0738 29.6395 26.0085 29.2647 26.0183 28.888V24.7991L25.9673 24.7582ZM26.8849 24.7582C26.8849 26.1893 26.8849 27.6102 26.8849 29.0413C26.8763 29.3675 26.9574 29.6897 27.1193 29.9728C27.2811 30.2558 27.5175 30.4888 27.8025 30.6462C28.1898 30.9002 28.6376 31.0464 29.0998 31.0697C29.562 31.0931 30.0221 30.9928 30.4329 30.7791L39.0379 26.5062C39.3138 26.3718 39.5653 26.1922 39.7822 25.9747C40.0923 25.6542 40.2658 25.2252 40.2658 24.7787C40.2658 24.3321 40.0923 23.9031 39.7822 23.5827C39.568 23.362 39.3159 23.1819 39.0379 23.0511L30.4329 18.7782C29.8705 18.4766 29.2161 18.3964 28.5978 18.5533C28.1026 18.6283 27.6523 18.8833 27.3327 19.2698C27.013 19.6563 26.8464 20.1471 26.8645 20.6489C26.9257 22.0187 26.8849 23.3884 26.8849 24.7582Z" fill="#59C5E1"/>
<path d="M49.3258 19.2997C49.3258 17.981 49.3258 16.6624 49.3258 15.3437C49.3029 14.893 49.3795 14.4427 49.5501 14.025C49.7803 13.4903 50.1575 13.0322 50.6378 12.7046C51.1181 12.3769 51.6815 12.1932 52.2621 12.1748C52.966 12.1063 53.6746 12.2448 54.3012 12.5735L62.8552 16.8464C63.501 17.1431 64.016 17.6668 64.3029 18.3184C64.5378 18.8636 64.58 19.473 64.4224 20.0455C64.2648 20.6181 63.9169 21.1195 63.4363 21.4668C63.2358 21.6177 63.0206 21.7479 62.794 21.8553L54.291 26.1077C53.5027 26.5276 52.5863 26.637 51.7217 26.4144C51.0193 26.2816 50.389 25.8973 49.9482 25.3331C49.5074 24.7689 49.2862 24.0633 49.3258 23.3477V19.2997ZM50.2434 19.3713C50.2434 20.7717 50.2434 22.1824 50.2434 23.593C50.2347 23.9016 50.3063 24.2071 50.4511 24.4796C50.5959 24.752 50.8089 24.9819 51.0692 25.1468C51.4697 25.4313 51.9413 25.5983 52.4312 25.629C52.921 25.6597 53.4097 25.5529 53.8424 25.3206L62.4473 21.0375C62.5697 20.9659 62.7022 20.9046 62.8144 20.8228C63.0564 20.672 63.2578 20.464 63.401 20.217C63.5442 19.9701 63.6249 19.6917 63.636 19.4062C63.6471 19.1207 63.5882 18.8369 63.4645 18.5795C63.3408 18.3222 63.1561 18.0991 62.9265 17.9299C62.7273 17.7744 62.5119 17.6407 62.2842 17.5313L55.3513 14.1068C54.8008 13.8308 54.2604 13.5446 53.7099 13.289C53.3437 13.1078 52.9394 13.0179 52.5311 13.0268C52.1229 13.0357 51.7229 13.1432 51.3649 13.3401C51.0138 13.4887 50.7168 13.7421 50.5143 14.0658C50.3118 14.3895 50.2137 14.7679 50.2332 15.1495C50.2536 16.5499 50.2434 17.9606 50.2434 19.4224V19.3713Z" fill="#59C5E1"/>
<path d="M35.6841 9.72138V6.91026C35.6765 6.54813 35.7514 6.18903 35.9031 5.86029C36.0548 5.53155 36.2793 5.24182 36.5594 5.01315C36.8396 4.78448 37.1681 4.62289 37.5199 4.54068C37.8718 4.45847 38.2377 4.45779 38.5898 4.53871C38.8892 4.59841 39.1802 4.69453 39.4564 4.82493L45.4921 7.8916C45.7721 8.01251 46.0232 8.1917 46.2288 8.41727C46.4345 8.64285 46.59 8.90966 46.685 9.20004C46.7975 9.66008 46.7471 10.145 46.5426 10.572C46.338 10.9989 45.992 11.3414 45.5635 11.5409C44.7683 11.96 43.9526 12.3485 43.1472 12.7472L39.3749 14.628C38.9986 14.8243 38.5807 14.9267 38.1565 14.9267C37.7324 14.9267 37.3145 14.8243 36.9382 14.628C36.5652 14.462 36.2483 14.1912 36.0257 13.8483C35.8031 13.5054 35.6845 13.1052 35.6841 12.696C35.6841 11.7045 35.6841 10.7129 35.6841 9.72138ZM38.1922 5.4076C37.1217 5.4076 36.6119 5.92893 36.6119 6.94093C36.6119 8.85249 36.6119 10.764 36.6119 12.6756C36.5946 12.9659 36.6773 13.2533 36.8462 13.4896C37.0151 13.726 37.26 13.897 37.5397 13.9738C37.7855 14.064 38.0481 14.0989 38.3089 14.0759C38.5697 14.0529 38.8222 13.9727 39.0486 13.8409L44.9926 10.8765C45.2209 10.7727 45.4256 10.6231 45.5941 10.4369C45.7689 10.2479 45.8661 9.99962 45.8661 9.74182C45.8661 9.48402 45.7689 9.23573 45.5941 9.04671C45.4402 8.86477 45.2489 8.71832 45.0333 8.61738L39.0588 5.63249C38.7934 5.48574 38.4953 5.4084 38.1922 5.4076Z" fill="#59C5E1"/>
<path d="M57.7881 31.9344V34.633C57.8115 35.0226 57.7399 35.4119 57.5795 35.7674C57.4191 36.123 57.1747 36.434 56.8675 36.6735C56.5603 36.9131 56.1995 37.074 55.8163 37.1424C55.4331 37.2108 55.0391 37.1845 54.6683 37.0659C54.4249 37.0033 54.189 36.9142 53.9648 36.8001L48.0719 33.8561C47.5917 33.6512 47.1935 33.2914 46.9402 32.8339C46.7255 32.4229 46.663 31.9489 46.7638 31.496C46.8646 31.0431 47.1221 30.6407 47.4907 30.3601C47.7253 30.1887 47.9743 30.0382 48.235 29.9104L54.0872 27.0073C54.4694 26.8006 54.8968 26.6924 55.331 26.6924C55.7653 26.6924 56.1927 26.8006 56.5749 27.0073C56.9523 27.1943 57.2676 27.4869 57.4829 27.8497C57.6982 28.2124 57.8042 28.6299 57.7881 29.0517V31.9344ZM56.8705 31.9344V29.0006C56.8919 28.6901 56.8003 28.3825 56.6129 28.1344C56.4255 27.8864 56.1548 27.7147 55.851 27.6513C55.6088 27.5804 55.3549 27.5593 55.1044 27.5892C54.8539 27.6191 54.6119 27.6993 54.3931 27.825L48.602 30.6668C48.4062 30.7536 48.2214 30.8634 48.0515 30.9939C47.9137 31.0859 47.7985 31.208 47.7147 31.3512C47.631 31.4943 47.5808 31.6547 47.5681 31.8202C47.5553 31.9857 47.5802 32.1519 47.641 32.3063C47.7018 32.4607 47.7969 32.5992 47.919 32.7113C48.0411 32.8423 48.1862 32.9498 48.3472 33.0281L54.4644 36.0948C54.8426 36.2726 55.2661 36.3297 55.6777 36.2584C56.012 36.2247 56.3209 36.0641 56.5408 35.8094C56.7607 35.5546 56.8751 35.2252 56.8604 34.8886C56.84 33.8766 56.8705 32.8953 56.8705 31.9241V31.9344Z" fill="#59C5E1"/>
<path d="M48.2138 18.5026C48.2138 19.5248 48.2138 20.4857 48.2138 21.4772C48.2397 21.9126 48.126 22.3449 47.8893 22.7109C47.6527 23.0769 47.3055 23.3574 46.8986 23.5115C46.5508 23.6876 46.1667 23.7793 45.7771 23.7793C45.3875 23.7793 45.0033 23.6876 44.6556 23.5115C42.6165 22.4892 40.4958 21.467 38.4262 20.4448C38.0909 20.3027 37.7997 20.0733 37.5828 19.7803C37.3659 19.4873 37.2311 19.1414 37.1925 18.7786C37.1533 18.4355 37.2042 18.088 37.3401 17.7707C37.4761 17.4533 37.6923 17.1771 37.9674 16.9692C38.1236 16.8457 38.2949 16.7426 38.4771 16.6626L44.4619 13.6675C44.9109 13.4092 45.4257 13.289 45.9423 13.3217C46.4589 13.3544 46.9545 13.5386 47.3676 13.8515C47.6147 14.0147 47.8201 14.2339 47.9671 14.4913C48.1141 14.7488 48.1986 15.0374 48.2138 15.3337V18.5026ZM47.337 18.5026C47.337 17.4804 47.337 16.4581 47.337 15.4359C47.3366 15.1986 47.2682 14.9664 47.1398 14.767C47.0115 14.5677 46.8286 14.4095 46.6131 14.3115C46.3395 14.1734 46.036 14.1058 45.7298 14.1147C45.4237 14.1236 45.1246 14.2088 44.8595 14.3626L41.1381 16.223L38.8136 17.3781C38.6024 17.4652 38.4219 17.6133 38.2948 17.8035C38.1677 17.9937 38.0999 18.2174 38.0999 18.4464C38.0999 18.6753 38.1677 18.899 38.2948 19.0892C38.4219 19.2794 38.6024 19.4275 38.8136 19.5146H38.9053L45.0226 22.5812C45.3801 22.7551 45.782 22.8157 46.1747 22.755C46.519 22.7263 46.8391 22.566 47.0688 22.3072C47.2984 22.0484 47.42 21.711 47.4083 21.3648C47.3472 20.4448 47.337 19.4839 47.337 18.523V18.5026Z" fill="#59C5E1"/>
<path d="M67.2897 19.7496C66.7791 19.7763 66.2736 19.6362 65.849 19.3506C65.4244 19.0649 65.1035 18.649 64.9345 18.1652C64.8723 17.939 64.8448 17.7046 64.853 17.4701C64.853 15.5074 64.853 13.5345 64.853 11.5719C64.8552 11.0552 65.0333 10.5547 65.3577 10.1532C65.6821 9.75171 66.1335 9.47326 66.6372 9.36387C67.2545 9.20772 67.9075 9.2841 68.4724 9.57853L74.5896 12.6452C74.9514 12.7914 75.2638 13.0387 75.4897 13.3576C75.7156 13.6764 75.8455 14.0536 75.864 14.4443C75.8852 14.8617 75.7783 15.2755 75.5577 15.63C75.3372 15.9846 75.0135 16.2629 74.6304 16.4274L70.5522 18.4719L68.5131 19.4941C68.1347 19.6854 67.7128 19.7735 67.2897 19.7496ZM65.7298 14.4954V17.5621C65.7196 17.7976 65.7802 18.0308 65.9038 18.2313C66.0275 18.4318 66.2084 18.5904 66.4231 18.6865C66.6909 18.837 66.9928 18.9159 67.2999 18.9159C67.6069 18.9159 67.9088 18.837 68.1767 18.6865L74.1614 15.6914C74.3372 15.6002 74.4959 15.4792 74.6304 15.3336C74.7406 15.2377 74.829 15.1191 74.8895 14.986C74.9501 14.8528 74.9814 14.7082 74.9814 14.5619C74.9814 14.4155 74.9501 14.2709 74.8895 14.1378C74.829 14.0046 74.7406 13.886 74.6304 13.7901C74.4537 13.6094 74.242 13.4668 74.0085 13.371L68.3092 10.4679C68.1511 10.3807 67.9835 10.3121 67.8096 10.2634C67.5727 10.1791 67.3187 10.1546 67.07 10.1921C66.8214 10.2297 66.5859 10.3281 66.3842 10.4787C66.1826 10.6294 66.0211 10.8275 65.9141 11.0556C65.807 11.2837 65.7577 11.5348 65.7706 11.7865C65.7706 12.6861 65.7094 13.5856 65.7094 14.4954H65.7298Z" fill="#59C5E1"/>
<path d="M63.8646 8.93444C63.8646 9.95666 63.8646 10.8869 63.8646 11.858C63.8723 12.3943 63.6884 12.9158 63.3463 13.3281C63.0042 13.7405 62.5263 14.0167 61.9989 14.1069C61.3963 14.2453 60.7643 14.1656 60.2147 13.882C58.1756 12.8598 56.1365 11.8376 54.0362 10.8153C53.56 10.5922 53.1881 10.1934 52.9982 9.70197C52.8082 9.21057 52.8148 8.6646 53.0167 8.178C53.2328 7.66557 53.6331 7.25328 54.1382 7.02289L59.5928 4.30377C59.8375 4.18111 60.0719 4.04822 60.3166 3.946C60.8008 3.71825 61.3431 3.64514 61.8701 3.73655C62.3971 3.82797 62.8834 4.0795 63.2631 4.45711C63.4572 4.64481 63.6108 4.87052 63.7143 5.12023C63.8178 5.36993 63.8689 5.6383 63.8646 5.90866C63.8545 6.92066 63.8646 7.93266 63.8646 8.93444ZM62.998 8.93444V6.03133C63.0108 5.78588 62.9533 5.54188 62.8323 5.32815C62.7112 5.11441 62.5317 4.93986 62.3149 4.82511C62.0777 4.67451 61.8057 4.58785 61.5253 4.57353C61.2449 4.5592 60.9655 4.61769 60.7143 4.74333C58.6752 5.76555 56.5443 6.78777 54.4645 7.81C54.2698 7.90749 54.0991 8.04715 53.9649 8.21889C53.8267 8.37401 53.739 8.56769 53.7135 8.77408C53.688 8.98048 53.7259 9.18976 53.8221 9.374C53.9821 9.68065 54.246 9.91991 54.5664 10.0487L58.5834 12.0931C59.2971 12.4509 59.9904 12.8291 60.7143 13.1153C60.9574 13.2471 61.2312 13.3113 61.5075 13.3012C61.7837 13.2912 62.0521 13.2073 62.2851 13.0581C62.5181 12.909 62.707 12.7002 62.8324 12.4532C62.9577 12.2062 63.0149 11.9301 62.998 11.6536V8.93444Z" fill="#59C5E1"/>
<path d="M58.7764 29.2974C58.7764 28.2752 58.7764 27.253 58.7764 26.2307C58.7805 25.6932 58.9809 25.1759 59.3398 24.7766C59.6986 24.3772 60.191 24.1236 60.7237 24.0636C61.3326 23.9604 61.9584 24.0572 62.5079 24.3396C64.547 25.3618 66.5045 26.3841 68.5028 27.3347C68.9164 27.5043 69.2711 27.7923 69.5224 28.1627C69.8072 28.6167 69.9027 29.1648 69.7883 29.6887C69.6739 30.2127 69.3587 30.6705 68.9106 30.9636L68.7679 31.0454C66.6269 32.0676 64.4858 33.2023 62.3346 34.245C61.7568 34.5325 61.091 34.5867 60.4744 34.3965C59.8579 34.2063 59.3377 33.7862 59.0211 33.2227C58.8824 32.9475 58.8157 32.6415 58.8273 32.3334V29.2667L58.7764 29.2974ZM59.643 29.2258C59.643 30.2481 59.643 31.2703 59.643 32.2925C59.6285 32.5566 59.7004 32.8182 59.8475 33.0377C59.9947 33.2572 60.2092 33.4227 60.4586 33.509C60.7043 33.6241 60.9736 33.6795 61.2447 33.6706C61.5157 33.6618 61.7809 33.5888 62.0185 33.4578L68.0644 30.4627C68.2754 30.3632 68.4657 30.2244 68.6252 30.0538C68.7223 29.9586 68.7994 29.8449 68.8521 29.7194C68.9048 29.5939 68.9319 29.4591 68.9319 29.323C68.9319 29.1868 68.9048 29.052 68.8521 28.9265C68.7994 28.801 68.7223 28.6873 68.6252 28.5921C68.453 28.4056 68.2449 28.2561 68.0134 28.1525L62.0695 25.2085C61.9588 25.1471 61.8427 25.0958 61.7228 25.0552C61.4917 24.9732 61.2443 24.9482 61.0015 24.9822C60.7587 25.0162 60.5276 25.1083 60.3277 25.2506C60.1278 25.3929 59.965 25.5813 59.8529 25.7999C59.7408 26.0185 59.6828 26.2609 59.6838 26.5067C59.7042 27.3756 59.643 28.3058 59.643 29.2258Z" fill="#59C5E1"/>
<path d="M69.5941 22.8471C69.5941 23.348 69.5941 23.8693 69.5941 24.36C69.5917 24.5718 69.5431 24.7804 69.4518 24.9714C69.3605 25.1623 69.2286 25.3309 69.0654 25.4653C68.9021 25.5997 68.7116 25.6967 68.507 25.7495C68.3025 25.8022 68.0889 25.8095 67.8812 25.7707C67.6761 25.7236 67.4775 25.6515 67.2899 25.556C66.2704 25.0347 65.1591 24.5338 64.1089 23.9613C63.9406 23.8957 63.7883 23.7943 63.6627 23.6641C63.537 23.534 63.4408 23.3782 63.3808 23.2073C63.3208 23.0365 63.2983 22.8546 63.3149 22.6742C63.3314 22.4939 63.3867 22.3192 63.4768 22.1622C63.6117 21.9246 63.814 21.7324 64.058 21.6102C65.1693 21.0582 66.2704 20.496 67.3919 19.9542C67.6857 19.8121 68.0163 19.7653 68.3379 19.8202C68.6595 19.8752 68.956 20.0292 69.1863 20.2609C69.4294 20.5089 69.565 20.8433 69.5635 21.1911C69.5941 21.7636 69.5941 22.3053 69.5941 22.8471Z" fill="#515151"/>
<path d="M70.8177 25.617C70.8177 24.8912 70.8177 24.1654 70.8177 23.4498C70.8002 23.0741 70.8835 22.7005 71.0588 22.3679C71.2341 22.0353 71.4951 21.7559 71.8146 21.5587C72.1341 21.3615 72.5005 21.2537 72.8756 21.2465C73.2507 21.2393 73.6209 21.333 73.9477 21.5178L77.0063 23.0512L78.9435 24.0223C79.193 24.1335 79.4142 24.2997 79.5907 24.5086C79.7673 24.7174 79.8945 24.9635 79.963 25.2285C80.0553 25.618 80.0115 26.0274 79.8389 26.3883C79.6664 26.7493 79.3755 27.0399 79.0148 27.2116C78.2604 27.6001 77.4957 27.9681 76.7413 28.3463C75.7931 28.8165 74.8449 29.297 73.8865 29.757C73.4791 29.9649 73.0168 30.0393 72.565 29.9696C72.1131 29.8999 71.6945 29.6896 71.3683 29.3685C71.1889 29.1898 71.0484 28.9759 70.9554 28.7402C70.8624 28.5045 70.819 28.2521 70.8279 27.9987V25.617H70.8177ZM71.7353 25.617C71.7353 26.4041 71.7353 27.2014 71.7353 27.9987C71.7332 28.2483 71.8222 28.4901 71.9856 28.6784C72.149 28.8667 72.3755 28.9885 72.6223 29.021C72.9741 29.0649 73.3307 28.9969 73.6418 28.8267L78.1482 26.5983C78.3596 26.5025 78.5611 26.3861 78.7498 26.2507C78.8511 26.1746 78.9333 26.0758 78.9899 25.9622C79.0465 25.8487 79.076 25.7235 79.076 25.5965C79.076 25.4696 79.0465 25.3443 78.9899 25.2308C78.9333 25.1172 78.8511 25.0185 78.7498 24.9423C78.5943 24.8204 78.4227 24.7206 78.24 24.6458L73.652 22.3561C73.4449 22.2431 73.2212 22.1638 72.9893 22.121C72.8277 22.0868 72.6605 22.0899 72.5002 22.1301C72.3399 22.1702 72.1909 22.2463 72.0642 22.3526C71.9376 22.4589 71.8367 22.5927 71.7691 22.7438C71.7015 22.8949 71.669 23.0594 71.6741 23.225C71.7353 24.0734 71.7353 24.8605 71.7353 25.6578V25.617Z" fill="#59C5E1"/>
<path d="M27.0794 12.6039C27.0794 12.9821 27.0794 13.3604 27.0794 13.7386C27.0913 13.9525 27.048 14.166 26.9538 14.3583C26.8595 14.5506 26.7174 14.7153 26.5411 14.8365C26.3649 14.9577 26.1605 15.0314 25.9476 15.0503C25.7347 15.0693 25.5206 15.033 25.3258 14.9448C24.3572 14.5155 23.3988 14.0453 22.4813 13.5239C22.3003 13.4439 22.1465 13.3129 22.0385 13.1469C21.9305 12.9808 21.873 12.7868 21.873 12.5886C21.873 12.3903 21.9305 12.1964 22.0385 12.0303C22.1465 11.8642 22.3003 11.7332 22.4813 11.6533C23.3886 11.1421 24.3266 10.631 25.2748 10.2528C25.4719 10.1601 25.6897 10.1205 25.9067 10.1377C26.1237 10.155 26.3325 10.2287 26.5125 10.3514C26.6926 10.4741 26.8376 10.6418 26.9334 10.8378C27.0293 11.0338 27.0725 11.2514 27.059 11.4693C27.059 11.8475 27.0794 12.2666 27.0794 12.6039Z" fill="#515151"/>
<path d="M36.5915 17.0508C36.5915 17.4393 36.5915 17.8175 36.5915 18.1957C36.6081 18.4127 36.5678 18.6302 36.4746 18.8267C36.3814 19.0232 36.2386 19.1919 36.0602 19.3159C35.8819 19.4399 35.6743 19.515 35.4581 19.5337C35.2419 19.5524 35.0245 19.514 34.8277 19.4224C33.8548 19.0002 32.9052 18.5259 31.9832 18.0015C31.7955 17.9192 31.6369 17.7822 31.5281 17.6083C31.4192 17.4344 31.3651 17.2316 31.3728 17.0265C31.3805 16.8213 31.4496 16.6232 31.5712 16.4579C31.6928 16.2927 31.8612 16.1681 32.0545 16.1002C32.5847 15.8037 33.1454 15.5482 33.6858 15.2722L34.7053 14.7815C34.9035 14.6725 35.127 14.6183 35.3529 14.6245C35.5789 14.6307 35.7991 14.697 35.9911 14.8166C36.183 14.9362 36.3398 15.1049 36.4453 15.3053C36.5508 15.5057 36.6013 15.7307 36.5915 15.9571C36.5813 16.2944 36.5915 16.6726 36.5915 17.0508Z" fill="#515151"/>
<path d="M27.7724 12.7472C27.803 12.1547 27.803 11.561 27.7724 10.9685C27.7629 10.6792 27.8269 10.3923 27.9584 10.1346C28.0899 9.87693 28.2846 9.65701 28.5241 9.49551C28.7637 9.33401 29.0403 9.23624 29.3279 9.21138C29.6155 9.18653 29.9047 9.23541 30.1683 9.35342C30.5048 9.48631 30.8208 9.64987 31.1879 9.81342L34.2465 11.3263C34.467 11.419 34.6649 11.5583 34.8268 11.7348C34.9887 11.9112 35.1107 12.1205 35.1845 12.3485C35.2923 12.6883 35.2707 13.0561 35.1238 13.3809C34.977 13.7056 34.7152 13.9642 34.3893 14.1068C33.3697 14.6281 32.3502 15.129 31.3306 15.6503C31.0146 15.8139 30.6883 15.9774 30.3621 16.1205C30.0778 16.2587 29.7621 16.3192 29.447 16.2959C29.132 16.2725 28.8286 16.1662 28.5677 15.9876C28.3565 15.8654 28.1813 15.6896 28.0596 15.4778C27.9379 15.266 27.874 15.0258 27.8744 14.7814L27.7724 12.7472ZM28.639 12.7472V14.4236C28.639 15.2108 29.1998 15.5992 29.8931 15.2721C31.2083 14.6485 32.5133 13.9841 33.8183 13.3401C34.063 13.2072 34.2873 13.0436 34.2771 12.7268C34.2669 12.4099 34.0426 12.2565 33.7979 12.1236L33.645 12.0623L30.1072 10.3041C29.999 10.2446 29.8865 10.1933 29.7707 10.1508C29.641 10.0994 29.5005 10.0815 29.362 10.0986C29.2236 10.1156 29.0916 10.1671 28.9781 10.2484C28.8646 10.3297 28.7731 10.4382 28.7121 10.564C28.6511 10.6897 28.6225 10.8288 28.6288 10.9685L28.639 12.7472Z" fill="#59C5E1"/>
<path d="M52.4249 9.77278C52.4249 10.151 52.4249 10.5292 52.4249 10.9075C52.4345 11.1168 52.3905 11.325 52.297 11.5124C52.2036 11.6998 52.0638 11.8601 51.891 11.978C51.7182 12.0959 51.5182 12.1674 51.3101 12.1858C51.1019 12.2042 50.8925 12.1688 50.7019 12.083C49.7087 11.6686 48.7447 11.187 47.8165 10.6417C47.6331 10.555 47.4796 10.4155 47.3756 10.241C47.2717 10.0664 47.222 9.86474 47.2329 9.66172C47.2439 9.45871 47.315 9.26358 47.4371 9.10128C47.5592 8.93897 47.7268 8.81686 47.9185 8.75056C48.52 8.41323 49.142 8.12701 49.7537 7.83056C50.0188 7.68745 50.294 7.54434 50.5693 7.42167C50.7696 7.31819 50.9938 7.26982 51.2188 7.28149C51.4439 7.29316 51.6618 7.36445 51.8504 7.4881C52.039 7.61175 52.1916 7.78333 52.2925 7.98536C52.3934 8.18738 52.4391 8.41262 52.4249 8.63812C52.3943 9.01634 52.4249 9.39456 52.4249 9.77278Z" fill="#515151"/>
<path d="M64.7005 6.26623C64.7005 5.86757 64.7005 5.4689 64.7005 5.08046C64.6964 4.88168 64.7402 4.68487 64.8282 4.50668C64.9161 4.32849 65.0456 4.17418 65.2057 4.05682C65.3657 3.93947 65.5516 3.86253 65.7477 3.83253C65.9437 3.80252 66.144 3.82033 66.3317 3.88446C66.437 3.91647 66.5393 3.95751 66.6376 4.00712L69.0947 5.22357C69.3052 5.30576 69.486 5.44976 69.6135 5.63672C69.741 5.82367 69.8092 6.04487 69.8092 6.27135C69.8092 6.49782 69.741 6.71902 69.6135 6.90597C69.486 7.09293 69.3052 7.23693 69.0947 7.31912L66.6274 8.55601C66.3685 8.68399 66.078 8.73371 65.7914 8.69912C65.5017 8.67902 65.2297 8.55185 65.0282 8.34223C64.8266 8.13261 64.7099 7.85546 64.7005 7.56446V6.26623Z" fill="#515151"/>
<path d="M178.135 39.8668C177.442 39.8509 176.778 39.5829 176.268 39.1126C175.758 38.6424 175.436 38.0021 175.362 37.3112C175.3 37.026 175.343 36.7278 175.484 36.4722C175.624 36.2166 175.852 36.0207 176.126 35.921C176.878 35.6158 177.703 35.5423 178.497 35.7098C179.291 35.8773 180.016 36.2783 180.582 36.8614C180.831 37.1175 180.975 37.4579 180.987 37.8155C180.998 38.1731 180.875 38.522 180.643 38.7934C180.336 39.1547 179.95 39.4396 179.515 39.6259C179.079 39.8121 178.607 39.8946 178.135 39.8668ZM178.298 36.3401C176.932 36.0028 176.126 36.4628 176.259 37.5054C176.789 36.9062 177.509 36.509 178.298 36.381V36.3401Z" fill="#DADADA"/>
<path d="M19.5648 17.4391C19.5648 16.8257 19.5648 16.2124 19.5648 15.5991C19.5693 15.3703 19.6227 15.1451 19.7211 14.9387C19.8196 14.7323 19.961 14.5494 20.1357 14.4023C20.3105 14.2551 20.5146 14.1471 20.7344 14.0856C20.9542 14.024 21.1846 14.0103 21.4101 14.0453C21.6405 14.0774 21.8643 14.1464 22.0728 14.2497C23.3167 14.8733 24.5605 15.4764 25.7942 16.1102C26.0642 16.2161 26.2957 16.4019 26.4578 16.6429C26.6199 16.884 26.7049 17.1688 26.7016 17.4595C26.714 17.723 26.6479 17.9843 26.5117 18.21C26.3756 18.4358 26.1755 18.6157 25.9369 18.7271C24.5911 19.4222 23.2351 20.0866 21.8587 20.7715C21.523 20.9147 21.1505 20.9473 20.795 20.8646C20.4396 20.782 20.1195 20.5883 19.8808 20.3115C19.6609 20.0715 19.5374 19.7583 19.5342 19.4324C19.5648 18.7373 19.5648 18.0933 19.5648 17.4391ZM20.3906 17.3777C20.3906 17.9808 20.3906 18.5737 20.3906 19.1666C20.3788 19.2747 20.3916 19.384 20.4283 19.4863C20.4649 19.5886 20.5242 19.6812 20.6019 19.7571C20.6795 19.833 20.7734 19.8901 20.8763 19.9242C20.9793 19.9582 21.0886 19.9683 21.196 19.9537C21.4131 19.9424 21.6237 19.8755 21.8078 19.7595L25.1926 18.0728C25.3622 18.0135 25.5158 17.9155 25.6412 17.7866C25.6968 17.7406 25.7415 17.6828 25.7722 17.6174C25.803 17.552 25.8189 17.4807 25.8189 17.4084C25.8189 17.3361 25.803 17.2647 25.7722 17.1994C25.7415 17.134 25.6968 17.0762 25.6412 17.0302C25.5438 16.9504 25.4378 16.8818 25.3252 16.8257L21.8485 15.0879C21.641 14.9789 21.4099 14.9227 21.1756 14.9244C21.0719 14.9124 20.9668 14.9244 20.8684 14.9596C20.77 14.9947 20.6809 15.052 20.608 15.127C20.5352 15.202 20.4804 15.2928 20.4481 15.3924C20.4157 15.4919 20.4065 15.5976 20.4212 15.7013C20.3906 16.2839 20.3906 16.8462 20.3906 17.3777Z" fill="#59C5E1"/>
<path d="M51.1202 3.38378C51.1202 2.83178 51.1202 2.26955 51.1202 1.70733C51.1054 1.41275 51.1694 1.11956 51.3055 0.858077C51.4416 0.596593 51.6449 0.376301 51.8944 0.219977C52.1438 0.0636519 52.4304 -0.0230328 52.7245 -0.0311161C53.0186 -0.0391995 53.3095 0.0316118 53.5671 0.173998C54.0361 0.409109 54.556 0.664664 55.0556 0.92022C55.8407 1.30866 56.6359 1.69711 57.421 2.106C57.7082 2.25794 57.9342 2.50485 58.0606 2.80482C58.1869 3.1048 58.2059 3.43937 58.1143 3.75178C58.0681 3.92749 57.9852 4.09132 57.8709 4.23234C57.7566 4.37336 57.6136 4.48832 57.4515 4.56955C56.1057 5.25444 54.7599 5.93933 53.3734 6.614C53.0822 6.74567 52.7589 6.78873 52.4435 6.73785C52.1282 6.68697 51.8346 6.54438 51.5994 6.32778C51.4338 6.20086 51.3005 6.0366 51.2102 5.84834C51.1198 5.66007 51.075 5.4531 51.0794 5.24422L51.1202 3.38378ZM51.9868 3.38378C51.9868 3.96644 51.9868 4.53889 51.9868 5.12155C51.9748 5.28443 52.0251 5.44577 52.1273 5.57293C52.2295 5.70008 52.3761 5.78355 52.5373 5.80644C52.6594 5.83677 52.7863 5.84244 52.9106 5.82314C53.0348 5.80383 53.154 5.75993 53.2612 5.694C54.4439 5.11133 55.6266 4.52866 56.799 3.93578C56.9125 3.88677 57.0161 3.8175 57.1049 3.73133C57.168 3.68703 57.2195 3.62813 57.2551 3.55962C57.2907 3.49111 57.3092 3.41501 57.3092 3.33778C57.3092 3.26054 57.2907 3.18444 57.2551 3.11593C57.2195 3.04742 57.168 2.98852 57.1049 2.94422C56.9887 2.85693 56.862 2.78479 56.7277 2.72955L53.3836 1.02244C53.2662 0.970244 53.143 0.932488 53.0165 0.909998C52.8959 0.863776 52.7655 0.849364 52.6377 0.868139C52.51 0.886915 52.3892 0.93825 52.2869 1.01723C52.1846 1.09622 52.1042 1.2002 52.0534 1.31924C52.0027 1.43828 51.9832 1.56838 51.997 1.69711L51.9868 3.38378Z" fill="#59C5E1"/>
<path d="M24.958 24.0122C24.958 24.5131 24.958 25.0345 24.958 25.5251C24.96 25.7563 24.9077 25.9846 24.8054 26.1917C24.703 26.3988 24.5534 26.5788 24.3688 26.7172C24.1841 26.8555 23.9696 26.9483 23.7425 26.9881C23.5154 27.0279 23.2822 27.0134 23.0617 26.946C22.9067 26.9033 22.7564 26.8451 22.6131 26.7722L19.5544 25.2287L19.3607 25.1265C19.1606 25.0177 18.9935 24.8567 18.8771 24.6606C18.7607 24.4645 18.6992 24.2405 18.6992 24.0122C18.6992 23.784 18.7607 23.56 18.8771 23.3639C18.9935 23.1678 19.1606 23.0068 19.3607 22.898C20.4822 22.2949 21.6445 21.7429 22.7966 21.1909C23 21.0923 23.2231 21.041 23.4491 21.041C23.6751 21.041 23.8981 21.0923 24.1016 21.1909C24.3615 21.2909 24.5837 21.4697 24.7372 21.7025C24.8908 21.9352 24.968 22.2102 24.958 22.4891C24.9682 22.9594 24.958 23.5114 24.958 24.0122ZM24.0812 24.0122C24.0812 23.5216 24.0812 22.99 24.0812 22.5505C24.0756 22.453 24.0483 22.3579 24.0013 22.2724C23.9543 22.1869 23.8889 22.1129 23.8097 22.0561C23.7305 21.9992 23.6396 21.9609 23.5437 21.9438C23.4477 21.9268 23.3492 21.9315 23.2554 21.9576L23.0107 22.07L19.952 23.5829C19.7583 23.6851 19.5544 23.7874 19.5646 24.0429C19.5748 24.2985 19.7583 24.37 19.9419 24.462C20.9614 24.9834 21.9809 25.4842 23.082 26.026C23.6428 26.2918 24.0506 26.026 24.1016 25.4127C24.1526 24.7994 24.0812 24.4722 24.0812 24.002V24.0122Z" fill="#59C5E1"/>
<path d="M48.5198 26.8641C48.5198 27.3445 48.5198 27.8352 48.5198 28.3259C48.5251 28.5614 48.4739 28.7947 48.3705 29.0063C48.2672 29.2178 48.1147 29.4014 47.9259 29.5417C47.7371 29.6819 47.5175 29.7746 47.2855 29.8121C47.0536 29.8495 46.816 29.8307 46.5929 29.757C46.4721 29.728 46.3555 29.6833 46.2462 29.6241C45.1655 29.0925 44.0848 28.6019 43.0041 28.009C42.7836 27.9049 42.5971 27.7401 42.4665 27.5337C42.3359 27.3274 42.2666 27.088 42.2666 26.8436C42.2666 26.5993 42.3359 26.3599 42.4665 26.1536C42.5971 25.9472 42.7836 25.7824 43.0041 25.6783C44.095 25.1263 45.1859 24.5743 46.287 24.0325C46.5127 23.9168 46.7625 23.8564 47.016 23.8564C47.2695 23.8564 47.5193 23.9168 47.745 24.0325C47.9781 24.135 48.1759 24.304 48.3137 24.5186C48.4515 24.7331 48.5232 24.9836 48.5198 25.2388C48.5198 25.7805 48.5198 26.3223 48.5198 26.8641ZM47.6532 26.8641C47.6226 26.3978 47.6226 25.93 47.6532 25.4636C47.6679 25.3379 47.6471 25.2106 47.5931 25.0961C47.539 24.9817 47.454 24.8849 47.3476 24.8166C47.2413 24.7484 47.1179 24.7115 46.9917 24.7102C46.8654 24.709 46.7414 24.7433 46.6337 24.8094C46.1749 25.0752 45.6753 25.3001 45.1961 25.5352C44.7169 25.7703 44.0236 26.1076 43.4629 26.4143C42.9021 26.721 43.0245 26.9459 43.4629 27.2116L43.7483 27.3548L45.9302 28.4383C46.1851 28.5712 46.4399 28.7041 46.705 28.8165C46.8037 28.8838 46.9199 28.9207 47.0393 28.9226C47.1586 28.9245 47.2759 28.8914 47.3767 28.8273C47.4775 28.7631 47.5574 28.6709 47.6065 28.5618C47.6556 28.4527 47.6719 28.3316 47.6532 28.2134C47.6634 27.7943 47.6532 27.3445 47.6532 26.8948V26.8641Z" fill="#59C5E1"/>
<path d="M79.4431 19.0748C79.4125 19.5616 79.4125 20.0498 79.4431 20.5366C79.4488 20.7824 79.393 21.0257 79.2808 21.2443C79.1686 21.4629 79.0036 21.6499 78.8009 21.7881C78.5981 21.9263 78.3641 22.0115 78.12 22.0357C77.876 22.0599 77.6299 22.0225 77.404 21.9268L77.0064 21.7633L74.0089 20.2606C73.9128 20.2138 73.8208 20.1591 73.7336 20.0971C73.559 19.9828 73.4156 19.8267 73.3163 19.6428C73.217 19.459 73.165 19.2532 73.165 19.0442C73.165 18.8351 73.217 18.6293 73.3163 18.4455C73.4156 18.2617 73.559 18.1055 73.7336 17.9913C73.9625 17.8458 74.201 17.716 74.4473 17.6028C75.3445 17.1531 76.2519 16.7237 77.1593 16.2637C77.3647 16.1549 77.5907 16.0905 77.8225 16.0747C78.0543 16.0588 78.2868 16.0919 78.5051 16.1717C78.772 16.2606 79.0038 16.4324 79.1669 16.6621C79.33 16.8918 79.416 17.1675 79.4125 17.4495V19.0748H79.4431ZM78.5663 19.0748V17.7153C78.5663 17.0304 78.1686 16.7646 77.5467 17.0611L74.4269 18.6046C74.2434 18.6966 74.0803 18.8091 74.0803 19.0442C74.0803 19.2793 74.2332 19.3917 74.4167 19.4837L76.0684 20.2913C76.5578 20.5468 77.0879 20.8126 77.5671 21.0375C78.0463 21.2624 78.5255 21.0375 78.5867 20.4242C78.5765 19.9744 78.5663 19.5246 78.5663 19.0748Z" fill="#59C5E1"/>
<path d="M69.2578 36.4427C69.2578 36.8924 69.2578 37.3422 69.2578 37.792C69.2745 38.0636 69.2183 38.3347 69.0951 38.5771C68.9719 38.8196 68.7861 39.0245 68.5572 39.1706C68.3282 39.3167 68.0644 39.3986 67.7932 39.4078C67.5219 39.4171 67.2532 39.3533 67.0149 39.2231C66.4745 38.9778 65.9953 38.7018 65.4244 38.436C64.8534 38.1702 64.2315 37.8227 63.6402 37.5262C63.4593 37.4344 63.3035 37.2997 63.1865 37.1338C63.0694 36.9679 62.9945 36.7758 62.9684 36.5743C62.9423 36.3727 62.9656 36.1678 63.0365 35.9774C63.1074 35.787 63.2236 35.6169 63.3751 35.4818C63.5003 35.3748 63.6371 35.2822 63.7829 35.2058L66.9639 33.6111C67.1888 33.4929 67.4389 33.4312 67.6928 33.4312C67.9468 33.4312 68.1969 33.4929 68.4218 33.6111C68.6728 33.7156 68.8868 33.8932 69.0358 34.1211C69.1849 34.3489 69.2623 34.6164 69.2578 34.8889V36.4427ZM68.3912 36.4427C68.3912 35.9929 68.3912 35.5329 68.3912 35.0831C68.3912 34.4493 67.963 34.1529 67.3717 34.4289C66.291 34.9298 65.2306 35.4511 64.1805 36.0133C63.7421 36.2382 63.7523 36.596 64.1805 36.8209C65.2001 37.3627 66.3012 37.8431 67.3819 38.4053C67.9528 38.6813 68.4014 38.4053 68.4014 37.7409C68.4014 37.3116 68.3912 36.872 68.3912 36.4427Z" fill="#59C5E1"/>
<path d="M41.9444 31.3722C41.9444 31.8935 41.9444 32.3944 41.9444 32.9362C41.9409 33.1441 41.8919 33.3488 41.8009 33.5357C41.7098 33.7226 41.579 33.8871 41.4176 34.0178C41.2562 34.1484 41.0681 34.2419 40.8667 34.2917C40.6653 34.3415 40.4554 34.3464 40.252 34.3059C39.9533 34.2454 39.6649 34.1421 39.3955 33.9993L36.6428 32.6193C36.5616 32.5846 36.4832 32.5435 36.4083 32.4966C36.19 32.3931 36.0056 32.2296 35.8764 32.0251C35.7473 31.8206 35.6787 31.5836 35.6787 31.3415C35.6787 31.0995 35.7473 30.8624 35.8764 30.6579C36.0056 30.4534 36.19 30.2899 36.4083 30.1864C37.5026 29.6139 38.6139 29.0619 39.7422 28.5304C39.9935 28.4043 40.2742 28.3492 40.5544 28.3708C40.8345 28.3924 41.1036 28.49 41.3327 28.6531C41.5073 28.76 41.6516 28.9103 41.7515 29.0893C41.8515 29.2683 41.9039 29.4701 41.9036 29.6753L41.9444 31.3722ZM41.0778 31.3722C41.0523 30.8852 41.0523 30.3973 41.0778 29.9104C41.085 29.8161 41.0699 29.7215 41.0339 29.6342C40.9979 29.5468 40.942 29.4692 40.8705 29.4075C40.7991 29.3458 40.7142 29.3018 40.6227 29.2791C40.5312 29.2564 40.4356 29.2555 40.3437 29.2766C40.1994 29.3015 40.061 29.3535 39.9359 29.4299L37.0914 30.8406C36.9758 30.8931 36.8664 30.9583 36.7651 31.0348C36.7126 31.0704 36.6695 31.1184 36.6397 31.1745C36.61 31.2306 36.5944 31.2933 36.5944 31.3568C36.5944 31.4204 36.61 31.483 36.6397 31.5392C36.6695 31.5953 36.7126 31.6433 36.7651 31.6788C36.8544 31.7431 36.9501 31.7979 37.0506 31.8424L39.8951 33.2633C40.0198 33.3305 40.1539 33.3787 40.2927 33.4064C40.7923 33.4984 41.0472 33.2837 41.0472 32.7828C41.0472 32.2819 41.0778 31.8322 41.0778 31.3619V31.3722Z" fill="#59C5E1"/>
<path d="M66.5557 43.0459C66.5557 43.5468 66.5557 44.0682 66.5557 44.5588C66.57 44.7934 66.5264 45.0279 66.4288 45.2416C66.3312 45.4553 66.1827 45.6416 65.9962 45.7841C65.8098 45.9266 65.5912 46.0208 65.3598 46.0585C65.1285 46.0962 64.8914 46.0762 64.6696 46.0002C63.3315 45.4742 62.0391 44.8382 60.8055 44.0988C60.6606 43.9978 60.5395 43.8663 60.4506 43.7135C60.3616 43.5606 60.307 43.3902 60.2905 43.2141C60.274 43.0379 60.296 42.8603 60.355 42.6935C60.414 42.5268 60.5086 42.3749 60.6322 42.2486C60.7802 42.0882 60.9565 41.9565 61.1521 41.8602L64.2108 40.3473C64.4476 40.2154 64.7117 40.1402 64.9823 40.1278C65.253 40.1154 65.5228 40.166 65.7707 40.2757C66.0144 40.3784 66.2216 40.5523 66.3652 40.7747C66.5089 40.9972 66.5824 41.2579 66.5761 41.5228C66.5659 42.0033 66.5557 42.5246 66.5557 43.0459ZM65.6891 43.0459C65.6891 42.5553 65.6891 42.0748 65.6891 41.5842C65.6938 41.4894 65.6762 41.3948 65.6377 41.3082C65.5991 41.2215 65.5407 41.1452 65.4672 41.0855C65.3937 41.0257 65.3071 40.9842 65.2146 40.9643C65.122 40.9443 65.0261 40.9466 64.9346 40.9708C64.7957 40.9985 64.6617 41.0467 64.537 41.114L61.6415 42.5655C61.5613 42.6023 61.483 42.6433 61.407 42.6882C61.3398 42.7193 61.2829 42.769 61.2431 42.8315C61.2032 42.894 61.182 42.9666 61.182 43.0408C61.182 43.115 61.2032 43.1877 61.2431 43.2502C61.2829 43.3127 61.3398 43.3624 61.407 43.3935C61.4953 43.4506 61.5873 43.5019 61.6823 43.5468L64.4758 44.9779C64.5685 45.0344 64.6678 45.079 64.7715 45.1108C65.3017 45.254 65.7911 45.0291 65.6993 44.4362C65.6075 43.8433 65.6993 43.5059 65.6891 43.0562V43.0459Z" fill="#59C5E1"/>
<path d="M48.5204 4.94786C48.5204 5.44875 48.5204 5.97008 48.5204 6.46075C48.5254 6.69121 48.4751 6.9195 48.3739 7.12648C48.2727 7.33345 48.1234 7.51306 47.9387 7.65025C47.7539 7.78743 47.539 7.87819 47.3121 7.91489C47.0851 7.95159 46.8526 7.93318 46.6342 7.86119C46.4613 7.80993 46.2939 7.74144 46.1346 7.65675L43.3207 6.27675C43.1473 6.20186 42.9802 6.11298 42.8211 6.01097C42.6354 5.89796 42.4819 5.73889 42.3754 5.5491C42.2689 5.35931 42.2129 5.1452 42.2129 4.92741C42.2129 4.70963 42.2689 4.49552 42.3754 4.30573C42.4819 4.11593 42.6354 3.95687 42.8211 3.84386C43.127 3.65986 43.4634 3.51675 43.8407 3.35319L46.206 2.17764C46.4435 2.047 46.71 1.97852 46.9809 1.97852C47.2517 1.97852 47.5182 2.047 47.7557 2.17764C47.9791 2.27867 48.1683 2.4426 48.3004 2.64949C48.4326 2.85638 48.5019 3.09731 48.5 3.34297C48.5 3.88475 48.5 4.42653 48.5 4.9683L48.5204 4.94786ZM47.6538 4.94786V3.59853C47.6538 2.9443 47.2459 2.68875 46.6342 2.95453L45.4719 3.51675C44.8092 3.84386 44.1363 4.16075 43.494 4.53897C42.8517 4.91719 43.0046 5.12164 43.494 5.39764C43.6065 5.44687 43.7223 5.48787 43.8407 5.5203L46.155 6.67541C46.3691 6.77764 46.573 6.89008 46.7973 6.97186C46.8955 7.02919 47.0079 7.05747 47.1214 7.05342C47.235 7.04938 47.3451 7.01317 47.4389 6.949C47.5328 6.88483 47.6066 6.79531 47.6519 6.69081C47.6971 6.58631 47.7119 6.4711 47.6945 6.35852C47.664 5.89852 47.6538 5.44875 47.6538 4.99897V4.94786Z" fill="#59C5E1"/>
<path d="M35.205 7.49303C35.205 7.87125 35.205 8.24947 35.205 8.62769C35.214 8.85146 35.1637 9.07362 35.0592 9.27156C34.9547 9.46951 34.7998 9.63617 34.6102 9.75458C34.4206 9.87299 34.2032 9.93893 33.9799 9.94568C33.7566 9.95244 33.5356 9.89976 33.3392 9.79303C32.4522 9.39436 31.5754 8.96503 30.7292 8.50503C30.5225 8.42615 30.3446 8.28615 30.2191 8.10359C30.0936 7.92103 30.0264 7.70454 30.0264 7.48281C30.0264 7.26107 30.0936 7.04458 30.2191 6.86202C30.3446 6.67946 30.5225 6.53946 30.7292 6.46058C31.606 5.98014 32.5032 5.54058 33.4208 5.11125C33.6105 5.02734 33.8179 4.9915 34.0247 5.0069C34.2315 5.0223 34.4313 5.08847 34.6066 5.19956C34.7819 5.31066 34.9272 5.46328 35.0298 5.64397C35.1323 5.82466 35.189 6.02787 35.1948 6.23569C35.1948 6.64458 35.1948 7.06369 35.1948 7.47258L35.205 7.49303ZM34.2772 7.49303C34.2772 7.14547 34.2772 6.80814 34.2772 6.4708C34.2772 5.93925 34.0835 5.79614 33.6145 6.02103C32.7989 6.40266 31.9934 6.80132 31.1982 7.21703C30.8311 7.40103 30.8413 7.58503 31.1982 7.76903C31.9832 8.17792 32.7785 8.55614 33.5635 8.95481C33.628 8.98762 33.6966 9.01168 33.7674 9.02636C34.0835 9.08769 34.2466 8.96503 34.267 8.63792C34.2874 8.3108 34.2772 7.87125 34.2772 7.49303Z" fill="#59C5E1"/>
<path d="M62.467 37.8226C62.467 38.2315 62.467 38.6506 62.467 39.0595C62.4704 39.259 62.4249 39.4562 62.3344 39.6338C62.2439 39.8115 62.1112 39.9641 61.948 40.0782C61.7849 40.1923 61.5962 40.2644 61.3987 40.2882C61.2012 40.312 61.0008 40.2868 60.8153 40.2146C59.8067 39.841 58.8313 39.3828 57.8994 38.8449C57.6911 38.7614 57.5138 38.615 57.3922 38.426C57.2706 38.237 57.2107 38.0147 57.2208 37.79C57.2309 37.5653 57.3105 37.3493 57.4485 37.172C57.5866 36.9946 57.7762 36.8648 57.9912 36.8004C58.8272 36.3506 59.6938 35.9418 60.5401 35.5226C60.8605 35.3802 61.2189 35.3478 61.5596 35.4306C61.7896 35.4925 61.9951 35.6238 62.1483 35.8066C62.3014 35.9894 62.3949 36.215 62.416 36.4529C62.416 36.8822 62.416 37.3115 62.416 37.7511L62.467 37.8226ZM61.5902 37.8226C61.5902 37.5058 61.5902 37.1786 61.5902 36.8004C61.5902 36.2484 61.3455 36.0747 60.8459 36.3098C60.0507 36.688 59.2656 37.0867 58.4806 37.4955C58.1441 37.6693 58.1441 37.8635 58.4806 38.0373C59.2962 38.4564 60.122 38.8653 60.9479 39.264C61.3557 39.448 61.5902 39.264 61.6004 38.804C61.6106 38.344 61.5902 38.2009 61.5902 37.8226Z" fill="#59C5E1"/>
<path d="M73.8863 8.74012C73.8863 9.05701 73.8863 9.38412 73.8863 9.71123C73.8872 9.90126 73.8401 10.0884 73.7494 10.2553C73.6586 10.4221 73.5272 10.5631 73.3673 10.6652C73.2074 10.7673 73.0244 10.8271 72.8352 10.839C72.6461 10.851 72.457 10.8146 72.2856 10.7334C71.5108 10.3961 70.7563 10.0281 70.012 9.61923C69.8424 9.53445 69.6996 9.40392 69.5999 9.24231C69.5001 9.0807 69.4473 8.8944 69.4473 8.70434C69.4473 8.51428 69.5001 8.32798 69.5999 8.16637C69.6996 8.00476 69.8424 7.87423 70.012 7.78945C70.7053 7.41123 71.4292 7.09434 72.1225 6.76723C72.3062 6.66154 72.5151 6.60773 72.7268 6.61151C72.9386 6.6153 73.1454 6.67653 73.3253 6.78871C73.5051 6.90089 73.6513 7.05983 73.7483 7.24863C73.8453 7.43744 73.8895 7.64905 73.8761 7.86101C73.8761 8.17789 73.8863 8.43345 73.8863 8.74012ZM72.9789 8.74012C72.9789 8.44367 72.9789 8.15745 72.9789 7.87123C72.9789 7.58501 72.8362 7.46234 72.5201 7.58501C72.3522 7.653 72.1888 7.73152 72.0307 7.82012C71.5515 8.05523 71.0112 8.28012 70.583 8.53567C70.2771 8.68901 70.2771 8.79123 70.583 8.95478C70.8888 9.11834 71.3476 9.34323 71.7351 9.53745C71.9896 9.67788 72.2517 9.80415 72.5201 9.91567C72.8158 10.0281 72.9483 9.91567 72.9687 9.59878C72.9891 9.28189 72.9789 8.98545 72.9789 8.69923V8.74012Z" fill="#59C5E1"/>
<path d="M70.0839 32.9464C70.0839 32.6908 70.0839 32.4455 70.0839 32.1899C70.0769 32.0265 70.1115 31.8641 70.1846 31.7179C70.2577 31.5717 70.3667 31.4466 70.5015 31.3545C70.6362 31.2624 70.7922 31.2062 70.9547 31.1914C71.1171 31.1766 71.2806 31.2037 71.4297 31.2699C72.0934 31.5411 72.7373 31.8588 73.3566 32.2206C73.4933 32.2925 73.6078 32.4005 73.6877 32.5329C73.7675 32.6653 73.8097 32.8172 73.8097 32.9719C73.8097 33.1267 73.7675 33.2785 73.6877 33.4109C73.6078 33.5433 73.4933 33.6514 73.3566 33.7232C72.7639 34.057 72.1548 34.3607 71.5317 34.633C71.3785 34.7042 71.21 34.7361 71.0415 34.7259C70.8729 34.7156 70.7095 34.6636 70.566 34.5744C70.4225 34.4852 70.3033 34.3617 70.2191 34.2149C70.135 34.0681 70.0885 33.9027 70.0839 33.7335V32.9464Z" fill="#515151"/>
<path d="M42.8211 31.8833C42.8211 31.6277 42.8211 31.3722 42.8211 31.1268C42.8163 30.9686 42.8509 30.8117 42.9219 30.6703C42.9929 30.5289 43.0979 30.4075 43.2276 30.3171C43.3572 30.2267 43.5073 30.1703 43.6642 30.1528C43.8211 30.1353 43.9799 30.1574 44.1261 30.217C44.8091 30.5097 45.4701 30.8513 46.1041 31.2393C46.236 31.3114 46.3461 31.4178 46.4228 31.5473C46.4995 31.6768 46.54 31.8246 46.54 31.9753C46.54 32.1259 46.4995 32.2738 46.4228 32.4033C46.3461 32.5328 46.236 32.6392 46.1041 32.7113C45.4848 33.073 44.8409 33.3907 44.1771 33.6619C44.0254 33.7355 43.8568 33.7671 43.6888 33.7536C43.5207 33.7401 43.3594 33.6819 43.2212 33.5851C43.0831 33.4882 42.9732 33.3562 42.9029 33.2026C42.8326 33.049 42.8043 32.8794 42.8211 32.7113C42.8211 32.4148 42.8211 32.149 42.8211 31.8833Z" fill="#515151"/>
<path d="M61.7438 45.7342C61.9328 45.7274 62.1198 45.7734 62.2842 45.8671L63.8339 46.6337C64.0117 46.6999 64.1644 46.8203 64.2705 46.978C64.3766 47.1357 64.4307 47.3227 64.4252 47.5128C64.4246 47.6953 64.3673 47.8731 64.2613 48.0214C64.1554 48.1698 64.006 48.2814 63.8339 48.3408L62.2842 49.1177C62.1224 49.2177 61.936 49.2704 61.746 49.2699C61.5559 49.2693 61.3698 49.2155 61.2087 49.1145C61.0475 49.0135 60.9177 48.8694 60.8339 48.6983C60.7502 48.5273 60.7157 48.3362 60.7345 48.1466C60.7345 47.656 60.7345 47.1244 60.7345 46.6848C60.7327 46.5542 60.7581 46.4247 60.809 46.3044C60.8599 46.1842 60.9352 46.0759 61.0302 45.9864C61.1251 45.897 61.2376 45.8284 61.3605 45.7849C61.4834 45.7415 61.6139 45.7242 61.7438 45.7342Z" fill="#DADADA"/>
<path d="M111.813 32.7725L111.834 32.8133L111.793 32.8031L111.813 32.7725Z" fill="white"/>
</g>
<defs>
<clipPath id="clip0_873_3477">
<rect width="313" height="92" fill="white"/>
</clipPath>
</defs>
</svg>
