<?xml version="1.0" encoding="UTF-8"?>
<svg id="Layer_2" data-name="Layer 2" xmlns="http://www.w3.org/2000/svg" viewBox="0 0 2028.73 715.66">
  <defs>
    <style>
      .cls-1 {
        fill: #d2d2d2;
      }

      .cls-2 {
        fill: #75cce7;
      }
    </style>
  </defs>
  <g id="Layer_1-2" data-name="Layer 1">
    <path class="cls-1" d="m417.41,1.7c29.15-5.16,59.27,1.53,83.17,19,2.38,1.74,4.45,3.42,6.05,4.99,20.33,20.02,26.08,45.38,23.17,72.5-3.25,30.39-13.66,58.76-30.79,84.25-16.56,24.64-37.9,44.57-63.82,59.4-29.18,16.69-60.53,26.37-94.2,28.47-4.46.28-8.88,1.21-13.33,1.64-3.61.35-4.38,3.07-5.25,5.73-10.81,33.18-22.66,66-34.9,98.68-14.29,38.16-30.79,75.37-50.13,111.3-1.32,2.45-3.04,4.7-4.7,6.95-5.19,7.01-4.21,10.69,4.42,13.08,30.03,8.32,59.99,16.96,90.26,24.29,20.76,5.03,41.86,9.39,63.07,11.73,27.89,3.08,55.5.53,81.26-12.31,6.01-3,12.24-5.58,18.41-8.27,2.1-.92,4.6-1.54,6.49-.21,2.56,1.8.31,4.29-.37,6.02-9.79,24.73-20.55,49.2-39.37,68.54-16.03,16.47-35.86,26.55-59.63,27.38-31.75,1.1-61.45-7.85-90.9-18.07-36.89-12.81-72.15-29.53-108.16-44.47-8.75-3.63-14.69-3.76-22.71,3.6-22.69,20.82-49.84,31.28-81.41,32.53-46.48,1.84-78.12-29.52-91.13-61.21-9.51-23.15,5.77-49.2,25.32-56.54,24.52-9.21,49.97-8.74,75.52-4.69,10.21,1.62,20.51,2.71,30.68,4.5,6.84,1.2,13.73,2.67,20.23,5.01,6.53,2.35,8.98-.79,11.68-5.74,22.87-41.94,36.94-87.29,51.92-132.27,9.09-27.29,17.53-54.79,26.72-82.05,2.25-6.67.35-9.72-5.71-12.16-21.04-8.47-38.77-21.86-52.22-39.72-22.02-29.23-22.32-62.92,2.78-91.81,17.62-20.28,40.03-26.43,65.49-26.37,5.27.01,7.07,1.15,3.28,5.93-1.91,2.41-3.07,5.45-5.16,7.64-18.44,19.24-17.92,42.54-13.63,66.13,2.11,11.61,8.2,21.99,16.69,30.59,5.88,5.96,7.03,5.64,9.78-2.38,11.8-34.42,24.73-68.4,41.6-100.72,13.64-26.13,29.37-50.86,51.17-71.31,10.51-9.86,22.19-17.93,35.04-24.35,1.99-.99,11.47-3.13,23.32-5.23Zm41.66,64.83c-.53-5.64-2.17-14.23-9.6-19.34-7.27-5-14.61-.46-21.43,2.64-4.35,1.97-8.15,4.92-11.48,8.42-14.71,15.48-24.41,34.18-33.13,53.2-14.58,31.77-27,64.45-38.03,97.63-1.61,4.84-7.19,10.65-2.94,14.44,4.63,4.13,11.18.49,16.72-1.91,2.24-.97,4.44-2.06,6.59-3.23,18.74-10.22,34.93-23.33,48.31-40.04,25.65-32.04,42.34-67.6,45-111.82ZM86.26,552.57c11.59,1.43,21.91-2.87,31.72-8.65,2.24-1.32,6.08-2.24,5.71-5.37-.39-3.25-4.05-4.4-6.91-5.54-12.07-4.83-24.92-6.87-37.62-8.61-8.38-1.15-17.04-3.63-25.83-.48-6.82,2.44-8.82,6.2-5.08,12.53,1.54,2.61,3.35,4.98,6.14,6.74,9.7,6.09,19.76,10.68,31.86,9.38Z"/>
    <path class="cls-1" d="m2028.73,715.66c-202-3.69-404.01-.69-606.01-1.55-10.65-.05-11.29-.55-11.24-11.6.08-19.27.43-38.52,1.59-57.79,1.81-30.17-2.05-60.32-1.98-90.52.01-5.38,1.81-5.08,5.26-3.25,5.7,3.03,7.08,8.16,7.06,14.16-.09,27.73-.18,55.46.01,83.19.1,14.24,2.31,28.4,1.73,42.69-.21,5.12,2.59,7.75,7.77,7.81,1.97.02,3.95.02,5.92.02,187.7,0,375.4,0,563.1,0,11.54,0,11.59,0,11.59-11.62.02-175.34.02-350.68.02-526.02,0-11.93-.49-23.89.13-35.79.42-8.08-2.83-9.93-10.32-9.89-49.32.25-98.64.13-147.96.13-136.69,0-273.37,0-410.06,0-3.38,0-6.76.06-10.15.05-5.67-.02-7.82,2.14-8.77,8.36-3.8,25-3.67,50.13-2.76,75.18.62,17.04,1.2,34.07,1.28,51.12.02,3.05.29,6.1-1.62,8.91-2.4,3.54-4.88,8.15-9.48,6.98-4.55-1.15-2.08-6.23-2.29-9.55-1.45-22.93,2.12-45.74,1.81-68.68-.35-25.09-2.69-50.12-2-75.25.27-9.76,2.16-12.26,12.24-12.26,197.84,0,395.69,0,593.53-.06,4.02,0,7.8.73,11.6,1.74v613.48Z"/>
    <path class="cls-1" d="m698.13,511.52c-9.94,11.71-20.62,22.38-31.67,32.61-32.9,30.49-71.64,43.22-116.22,35.22-15.98-2.87-26.92-14.08-36.26-26.78-13.03-17.73-16.86-37.41-14.24-58.99,7.46-61.52,30.19-117.27,64.18-168.71,9.3-14.07,20.65-26.86,36.57-33.88,12.74-5.62,25.92-9.15,39.36-.49,10.27,6.62,14.97,20.46,11.03,34.36-5.13,18.1-16.51,32.9-25.92,48.7-16.55,27.79-34.02,55.04-44.55,85.93-5.41,15.88-6.83,32.16-5.97,48.68.71,13.65,14.82,22.28,28.52,19.51,26.75-5.41,47.3-20.82,63.29-41.14,11.66-14.82,26.43-28.33,30.86-48.1,1.17-5.2,2.78-10.24,2.39-15.63-1.11-15.13,1.69-30.1,1.84-45.19.13-13.07,12.3-24.56,25.54-25.01,7.04-.24,14.09-.21,21.13-.04,10.55.25,18.64,6.72,21.13,16.86,5.42,22.08,3.24,44.49,2.21,66.75-1.26,27.22-4.8,54.38-1.09,81.67.25,1.87.28,3.76.24,5.64-.12,5.57,2.32,7.11,7.58,6.24,11.71-1.93,19.79-9.68,26.91-17.71,32.07-36.16,55.84-77.64,76.25-121.11,3.08-6.55,4.6-13.73,4.28-21.18-.83-19.57,4.4-38.16,10.82-56.24,5.03-14.15,22.58-23.36,39.94-23.01,15.05.31,29.45,10.39,35.04,24.76,5.71,14.67,4.78,28.52-3.5,42.46-18.07,30.4-20.76,63.18-12.66,97.06,2.37,9.92,9.99,15.36,19.52,15.46,12.9.15,17.66-2.82,21.32-14.57,9.13-29.31,21.54-57.13,39.67-82,19.81-27.19,42.4-51.73,69.93-71.81,21.67-15.81,45.08-26.83,71.48-30.71,21.75-3.2,43.91-3.07,62.92,9.69,12.93,8.68,20.03,21.95,21.03,38.18,2.16,35.03-11.25,63.55-35.37,88.19-39.55,40.41-88.93,61.59-143.34,72.91-12.35,2.57-12.28,1.95-12.52,13.59-.63,31.01,21.08,51.16,56.34,47.71,39.78-3.9,70.69-23.65,98.81-49.6,24.74-22.83,45.53-48.65,60.11-79.12,1.91-4,4.91-5.37,8.78-2.39,6.44,4.95,12.78,10.02,19.16,15.06,3.85,3.04,4.62,6.44,2.27,11.03-15.37,30-32.99,58.71-56.32,83.1-17.38,18.17-38.07,32.82-60.04,45.63-35.91,20.93-74.62,29.59-115.68,25.97-44.72-3.94-76.46-28.9-88.47-71.84-2.98-10.64-5.87-11.05-14.59-8.86-13.61,3.42-27.13,5.67-41.15-.5-14.19-6.25-23.56-16.7-31.37-29.24-3.4-5.46-6.91-10.87-10.01-16.5-2.86-5.19-4.79-4.1-7.58.13-12.46,18.9-24.31,38.19-38.2,56.16-15.01,19.42-32.66,36.42-50.94,52.45-16.33,14.32-37.57,18.23-58.81,14.55-18.01-3.12-28.38-16.81-33.72-33.23-4.45-13.69-9.09-27.54-10.28-42.67Zm497.85-192.29c-6.95,1.76-16,3.47-24.12,8.35-38.57,23.2-61.59,59.37-82.39,97.37-1.2,2.19-3.55,5.29-1.07,7.55,1.99,1.82,4.86-.45,7.07-1.29,31.71-11.96,59.69-29.75,82.67-54.6,12.98-14.04,23.22-29.94,25.04-49.76.36-3.89,1.45-8.38-7.2-7.63Z"/>
    <path class="cls-2" d="m1663.26,376.14c-11.27,0-22.55-.23-33.82.09-6.59.18-11.02-1.64-14.18-7.96-9.65-19.36-25.06-32.31-45.51-39.92-4.65-1.73-9.34-2.37-14.05-2.55-21.51-.83-42.66,6.42-59.26,20.13-10.87,8.98-19.57,20.08-22.99,36.57-6.17,29.77-2.08,56.04,17.12,80.34,24.75,31.31,70.88,36.64,103.07,10.72,10.92-8.79,18.89-19,23.45-31.93,2.16-6.12,5.52-8.62,12.4-8.5,23.95.44,47.91.26,71.87.1,5.49-.04,8.81.8,7.2,7.46-8.42,34.67-23.6,65.83-49.03,91.34-22.59,22.66-51.57,32.46-82.15,39.24-29.07,6.45-57.7,3.42-84.89-5.91-33.75-11.58-63.57-30.16-84.07-60.91-15.19-22.78-24.34-47.37-27.61-74.59-6.56-54.57,9.02-101.82,47.36-140.91,28.87-29.44,65.09-43.62,106.52-45.77,28.78-1.49,56.11,2.4,82.67,13.94,38.25,16.63,64.2,44.49,79.65,82.51,3.56,8.75,6.16,17.9,9.1,26.89,2.77,8.47,1.92,9.61-7.32,9.68-11.84.09-23.67.02-35.51.02v-.08Z"/>
    <path class="cls-2" d="m1966.4,566.9c-12.23-1.59-24.52-.19-36.78-.44-16.06-.33-32.13-.5-48.18-.16-6.82.14-11.25-2.56-14.55-8.01-13.77-22.77-27.59-45.52-41.28-68.34-4.34-7.23-5.62-7.55-10.02-.29-13.22,21.81-25.1,44.39-36.19,67.31-3.26,6.73-6.88,9.37-13.88,9.34-26.21-.14-52.41-.1-78.62-.07-3.08,0-6.22,0-9.21.58-2.49.49-5.23,1.98-6.89-.59-1.64-2.53-.37-5.29,1.15-7.85,7.89-13.24,15.72-26.51,23.46-39.84,23.34-40.23,46.52-80.55,70.03-120.68,3.48-5.94,3.42-10.69-.58-16.14-15.97-21.81-31.53-43.94-47.25-65.88-13.75-19.18-26.26-39.46-40.23-58.66-2.02-2.77-4.65-7.18,2.62-6.99,26.46.7,52.93-.43,79.4.85,11.39.55,18.13,7.13,23.59,15.45,11.77,17.93,23.49,35.97,34.77,54.14,17.92,28.86,36.45,57.32,54.58,86.04,26.09,41.35,52.52,82.48,78.68,123.79,6.5,10.27,12.51,20.84,18.75,31.26l-3.36,5.19Z"/>
    <path class="cls-1" d="m1913.99,250.09c14.06,0,28.13-.03,42.19.01,9.37.03,10.05.72,5.51,8.58-8.92,15.44-18.4,30.57-27.56,45.88-11.88,19.86-23.84,39.68-35.38,59.73-3.17,5.51-5.09,6.72-8.98.75-14.41-22.1-28.99-44.08-43.63-66.03-3.41-5.11-3.72-11.69-.8-17.1,4.75-8.78,9.5-17.57,14.18-26.4,2.48-4.68,6.73-5.4,11.43-5.39,14.35.02,28.69,0,43.04,0v-.04Z"/>
    <path class="cls-1" d="m690.87,150.87c12.53-1.41,23.13,4.4,31.15,13.87,10.1,11.93,8.26,26.1,2.16,38.81-14.01,29.23-56.02,48.15-88.16,29.16-22.57-13.34-23.88-45-2.85-61.93,15.66-12.6,36.48-19.88,57.7-19.92Z"/>
    <path class="cls-1" d="m1969.25,567.33c.09-2.02.17-4.03.26-6.04,1.2,2.07,6.03,4.29-.26,6.04Z"/>
  </g>
</svg>