<?xml version="1.0" encoding="UTF-8"?>
<svg id="Layer_2" data-name="Layer 2" xmlns="http://www.w3.org/2000/svg" viewBox="0 0 1416.22 327.67">
  <defs>
    <style>
      .cls-1 {
        fill: #010101;
      }

      .cls-1, .cls-2, .cls-3 {
        stroke-width: 0px;
        fill: #fff;
      }

      .cls-2 {
        fill: #f7f7f7;
      }

      .cls-3 {
        fill: #eb1d25;
      }
    </style>
  </defs>
  <g id="Layer_1-2" data-name="Layer 1">
    <g>
      <path class="cls-2" d="m164.23.02c89.98-1.43,161.89,74.13,163.75,158.93,2.09,95.64-75.26,168.94-164.39,168.72C75.64,327.44-3.38,255.08.11,156.35,3.03,73.99,72.91-1.27,164.23.02Zm-.28,8.26C77.9,9.22,7.62,77.46,8.71,166.08c1.02,82.64,68.18,153.54,158.41,152.4,81.62-1.03,153.34-69.27,152.06-157.36-1.21-83.49-69.76-152.41-155.23-152.85Z"/>
      <path class="cls-2" d="m924.22,97.49c-2.83,3.13-3.32,6.75-4.12,9.95-3.85,15.41-8.28,30.64-12.77,45.87-1.8,6.12-2.23,12.61-5.19,18.47-.76,1.51-1.41,1.88-2.85,1.86-4.5-.05-8.99-.06-13.49,0-2.55.03-3.48-.48-2.64-3.47,6.46-23.08,12.62-46.24,18.97-69.34,3.08-11.2,5.39-22.66,9.49-33.61,1.63-4.37,4.1-6.92,8.74-7.23,4.98-.34,9.01,1.77,10.94,6.13,6.55,14.75,12.61,29.72,19.04,44.53,4.82,11.1,9.93,22.08,15.28,33.92,3.27-7.4,6.31-14.26,9.32-21.14,5.45-12.46,10.85-24.93,16.31-37.39,2.96-6.77,6.07-13.49,8.95-20.3,2.01-4.75,5.85-6.21,10.41-5.65,4.35.54,7.09,3.14,8.29,7.69,3.95,14.91,8.55,29.66,12.21,44.64,4.36,17.83,10.41,35.19,14.05,53.22,1.64,8.09,2.09,8-6.19,8-11.3,0-11.33,0-13.99-10.52-4.56-18.07-10.19-35.86-14.56-53.99-1-4.16-1.89-8.61-4.1-12.58-9.92,22.28-19.86,44.59-29.77,66.91-.6,1.35-.86,2.85-1.51,4.16-2.15,4.38-5.06,7.49-10.59,7.3-5.3-.18-7.78-3.33-9.66-7.62-10.09-23.08-20.2-46.15-30.56-69.8Z"/>
      <path class="cls-2" d="m799.72,138.37c3.32-12.3,6.38-23.62,9.43-34.94,3.55-13.18,7.18-26.35,10.55-39.58.54-2.13,1.71-2.15,3.17-2.17,4.66-.05,9.34.15,13.99-.09,3.13-.16,3.25,1.3,2.63,3.61-2.81,10.35-5.6,20.71-8.42,31.06-4.69,17.22-9.27,34.47-14.18,51.63-1.89,6.59-3.57,13.23-5.46,19.81-1.09,3.8-3.67,7.28-8.85,7.21-5.59-.08-8.77-1.87-11.31-7.65-4.25-9.68-8.38-19.42-12.59-29.12-6.12-14.12-12.9-27.95-18.34-42.37-.51-1.35-1-3.62-2.99-3.63-1.81-.01-1.91,2.22-2.43,3.39-5.82,13.12-11.4,26.34-17.11,39.5-3.52,8.11-6.94,16.27-10.79,24.22-1.71,3.53-2.61,7.34-4.77,10.75-2.62,4.13-6.02,5.2-10.47,4.76-4.36-.42-6.17-3.48-7.27-7.06-1.99-6.49-3.77-13.05-5.57-19.6-3.66-13.33-7.27-26.67-10.92-40.01-3.05-11.13-6.19-22.23-9.15-33.39-.76-2.85-1.76-5.63-2.41-8.54-.88-3.94-.16-4.94,3.73-4.59,3.47.31,7.02.34,10.48-.01,3.56-.36,5.07,1.21,5.88,4.38,3.78,14.81,7.7,29.6,11.74,44.34,2.2,8.05,4.45,16.11,6.58,24.19.26,1,.29,2,1.53,2.22,1.69.29,1.64-1.08,2.09-2.12,5.4-12.53,10.85-25.04,16.29-37.56,4.47-10.29,8.77-20.66,13.5-30.83,2-4.3,5.72-6.77,10.81-6.18,4.41.51,7.43,2.81,9.23,6.95,8.29,19.07,16.84,38.03,24.88,57.2,1.9,4.53,3.77,9.01,6.53,14.21Z"/>
      <path class="cls-2" d="m601.65,61.56c9.46.57,19.01-.93,28.38,1.23,18.02,4.16,30.17,15.14,36.66,32.31,6.88,18.2,4.69,36.03-4.79,52.46-7.25,12.58-18.55,20.78-33.18,24.15-15.82,3.64-31.92,2.94-47.56,1.28-21.81-2.31-40.34-17.89-45.48-41.1-3.16-14.27-2.61-28.1,3.22-41.39,5.45-12.43,15.35-20.54,27.78-25.72,11.34-4.73,23.27-2.54,34.97-3.22Zm-.25,91.56c5.16,0,10.33.26,15.47-.06,7.88-.5,15.39-2.39,21.35-8.07,10.97-10.46,14.68-23.3,10.91-37.78-3.31-12.74-11.26-22.1-24.63-24.64-14.44-2.73-29.2-1.93-43.73-.5-9.78.96-17.15,7.01-22.02,15.52-6.32,11.03-6.44,22.63-2.2,34.43,2.98,8.29,8.63,14.15,16.45,17.91,9.06,4.36,18.83,3.02,28.41,3.19Z"/>
      <path class="cls-2" d="m1062.93,117.47c0-17.15.1-34.3-.08-51.44-.04-3.44.8-4.47,4.36-4.45,30.64.14,61.29.13,91.93.01,3.2-.01,4.53.7,4.2,4.1-.49,4.94,2.01,11.29-.98,14.5-3.02,3.24-9.43,1.01-14.34,1.04-20.32.13-40.64.14-60.96-.03-3.45-.03-4.58.78-4.4,4.34.31,5.98.26,11.99.02,17.97-.13,3.31,1.02,4.07,4.21,4.05,19.99-.15,39.97.04,59.96-.16,4.13-.04,6.27.61,5.58,5.34-.68,4.71,2.04,10.86-1.15,13.89-2.9,2.76-8.9.77-13.53.79-16.99.09-33.98.12-50.96-.04-3.24-.03-4.28.79-4.11,4.09.28,5.48.33,11,0,16.47-.25,4.05.83,5.35,5.13,5.31,23.15-.23,46.3.08,69.45-.25,5.29-.08,6.67,1.54,6.12,6.42-.39,3.45-.28,7-.02,10.48.24,3.21-1.05,3.83-4.01,3.82-30.81-.1-61.62-.12-92.43.02-3.47.02-4.06-1.2-4.04-4.3.13-17.31.06-34.63.06-51.94Z"/>
      <path class="cls-2" d="m495.93,140.86c1.25-2.04.74-3.91.74-5.67.04-23.32.1-46.63-.05-69.95-.02-3.79.83-5.13,4.93-5.07,13.83.2,13.83.02,13.83,13.87,0,28.98.01,57.96-.02,86.93,0,3.09.12,6.12-1.9,8.98-3.93,5.58-10.22,6.76-15.18,2.09-9.42-8.87-18.75-17.85-27.89-27-11.89-11.91-23.55-24.04-35.31-36.08-4.11-4.21-8.11-8.52-12.35-12.58-1.07-1.02-2.17-2.5-4.1-2.45-1.24,1.64-.61,3.53-.61,5.27-.05,23.15-.11,46.3.04,69.45.03,3.73-.65,5.51-4.83,5.05-3.46-.38-7-.24-10.48-.02-2.7.17-3.36-.88-3.35-3.42.07-33.14.06-66.28.04-99.42,0-4.61,1.07-8.6,5.92-10.35,4.93-1.77,9.23.09,12.59,3.37,9.05,8.82,17.44,18.33,26.75,26.85,7.82,7.16,15.08,14.86,22.72,22.19,9.32,8.94,18.26,18.27,27.38,27.42.21.21.56.28,1.12.54Z"/>
      <path class="cls-2" d="m1365.64,128.95c-6.02-10.19-11.46-19.42-16.93-28.63-1.77-2.98-3.91-5.78-5.34-8.92-1.67-3.66-3.34-1.87-4.37-.06-4.37,7.65-8.69,15.3-13.37,22.78-5.13,8.2-9.66,16.77-14.57,25.11-6.31,10.73-12.86,21.32-18.98,32.16-1.04,1.85-2.01,2.21-3.67,2.22-5.5,0-11-.15-16.49.06-3.82.15-3.93-1.3-2.27-4.02,5.19-8.46,10.49-16.86,15.54-25.41,7.59-12.86,15.64-25.44,22.9-38.51,4.8-8.63,10.41-16.8,15.59-25.22,2.97-4.83,5.71-9.79,8.71-14.6,5.17-8.29,14.31-8.3,19.37.07,8.34,13.78,16.45,27.7,24.77,41.5,11.14,18.48,22.35,36.92,33.66,55.3.79,1.28,1.36,2.6,2.03,3.9q3.55,6.93-4.08,6.93c-2.67,0-5.45-.49-7.98.09-7.36,1.7-10.11-3.41-13.06-8.3-3.36-5.57-6.24-11.39-9.92-16.81-1.8-2.64-3.42-3.04-5.96-3.03-14.83.03-29.66-.04-44.49.05-3.34.02-4.84-.32-2.37-3.9,2.31-3.35,4.26-6.97,6.06-10.62,1.17-2.38,3.04-2.15,5.02-2.15,9.66,0,19.31,0,30.2,0Z"/>
      <path class="cls-2" d="m1228.75,61.65c15.98,0,31.97.13,47.95-.09,3.97-.05,5.29,1.14,4.88,5.04-.33,3.13-.34,6.35,0,9.47.47,4.37-1.46,5.34-5.44,5.27-10.98-.21-21.98.1-32.96-.17-3.73-.09-4.69.88-4.67,4.65.18,27.62.02,55.25.19,82.88.02,3.87-.88,5.4-4.9,4.98-4.76-.5-10.93,1.93-14-.88-3.15-2.89-.95-9.12-.97-13.87-.12-24.13-.15-48.26.04-72.39.03-4.04-.86-5.49-5.16-5.37-10.98.31-21.98-.04-32.96.18-3.58.07-4.68-1.09-4.44-4.53.26-3.64.32-7.34-.02-10.97-.35-3.72,1.22-4.3,4.52-4.26,15.98.16,31.96.07,47.95.07Z"/>
      <path class="cls-3" d="m1365.5,225.83c-.92,5.04-.39,9.83-.45,14.58-.1,7.49-.2,14.99.03,22.48.17,5.26-3.5,3.62-6.17,3.87-2.9.27-5,.11-4.95-4,.22-16.65.14-33.31.06-49.96-.01-3.03,1.11-5.27,3.79-6.4,2.65-1.13,4.72.23,6.65,2.14,12.25,12.09,24.57,24.12,36.84,36.19.91.9,1.5,2.57,3.07,1.85,1.46-.68.86-2.36.86-3.6.05-10.66.2-21.32-.06-31.97-.1-4.29,1.87-4.9,5.46-4.88,3.51.02,5.62.45,5.58,4.79-.18,16.48-.08,32.97-.07,49.46,0,2.81-.57,5.48-3.48,6.48-2.89.99-5.41-.03-7.64-2.28-11.44-11.57-22.96-23.06-34.47-34.55-1.46-1.46-2.67-3.27-5.06-4.18Z"/>
      <path class="cls-3" d="m1219.72,266.75c-4.94-.29-9.98.67-14.86-.89-8.92-2.85-15.33-8.11-19.27-17.04-5.53-12.51-1.64-27.24,7.26-35.09,5.08-4.49,11.12-6.6,17.72-6.72,7.13-.12,14.26-.34,21.42.45,15.21,1.66,24.97,15.3,24.29,29.88-.49,10.45-4.7,19.08-13.54,25.02-7,4.71-14.99,4.78-23.03,4.39Zm-.81-10.97c2.77,0,4.77,0,6.76,0,10.56,0,16.78-4.64,19.03-14.86,2.49-11.31-4.56-22.85-17.15-23.11-4.98-.1-9.97.03-14.95-.06-9.79-.19-15.9,6.12-17.67,13.68-2.11,9.02.73,18.34,10.12,22.92,4.89,2.39,9.81.67,13.87,1.43Z"/>
      <path class="cls-3" d="m945.33,266.71c-7.66.63-15.97-.03-23.31-5.28-13.53-9.67-16.5-30.91-6.31-43.64,4.98-6.23,11.23-10.2,19.39-10.46,10.9-.36,21.96-2.15,32.39,2.82,11.5,5.48,18.18,21.6,14.35,33.74-4.81,15.25-13.69,24.32-36.5,22.82Zm-.06-10.93c3.28,0,5.78.02,8.27,0,9.89-.08,17.65-8.09,18.4-17.83.76-9.82-7.82-20.32-17.44-20.15-5.65.1-11.32-.18-16.96.09-9.17.44-14.82,6.24-16.96,16.95-1.28,6.4,4.19,15.93,10.35,19.32,4.97,2.74,10.11.9,14.33,1.62Z"/>
      <path class="cls-3" d="m568.79,266.3c-1.01.26-1.17.3-1.33.34-10.99,3.07-16.79-3.48-21.4-11.8-2.16-3.89-5.14-4.9-9.31-4.59-4.31.32-8.66-.03-12.99.09-4.39.12-2.9-3.09-3.07-5.26-.18-2.3-.56-4.65,3.26-4.52,6.99.24,13.99.17,20.99.04,8.68-.17,13.21-6.11,11.56-14.62-.97-5.01-4.26-7.78-8.86-7.97-10.48-.43-20.98-.17-31.47-.27-3.02-.03-2.94,1.88-2.93,4,.03,13.32-.16,26.65.12,39.96.09,4.25-1.26,5.24-5.32,5.22-3.98-.01-5.41-.78-5.34-5.13.28-16.81.11-33.63.12-50.45,0-2.09-.59-4.54,2.94-4.45,14.64.37,29.28-.45,43.93.5,11.66.75,18.31,11.38,17.67,22.35-.42,7.11-2.43,13.36-9.03,17.21-2.43,1.41-1.99,3.08-.56,4.94,3.59,4.66,7.15,9.34,11.04,14.42Z"/>
      <path class="cls-3" d="m714.79,236.89c0-8.66,0-17.31,0-25.97,0-2.05-.23-4.1,2.87-4.02,14.64.35,29.29-.59,43.92.52,15.05,1.15,20.74,18.61,15.29,30.89-3.55,8-10.24,11.43-18.55,11.82-7.48.35-14.98.08-22.47.23-4.78.1-3.07-3.41-3.13-5.65-.06-2.35-1.28-5.68,3.33-5.6,6.99.13,14-.22,20.98.1,7,.32,11.38-5.29,11.15-10.55-.27-6.27-4.35-10.7-11.01-10.83-9.16-.18-18.32.05-27.47-.13-3.25-.07-4.3.94-4.26,4.24.17,13.31-.21,26.64.2,39.94.16,5.26-2.55,4.75-6.07,5-4.1.29-4.99-1.23-4.87-5.03.27-8.31.08-16.64.08-24.97Z"/>
      <path class="cls-3" d="m1121.91,266.77c-6.77-.8-14.8.98-22.86-2.27-13.36-5.39-19.66-20.84-17.38-33.83,2.56-14.62,13.3-23.36,27.95-23.72,9.65-.24,19.3.09,28.95-.11,4.78-.09,4.63,2.73,4.81,6.17.19,3.75-1.02,4.91-4.78,4.81-9.15-.24-18.3-.14-27.45-.06-9.28.08-16.61,5.65-18.25,13.69-2.14,10.48,2.19,19.53,11.11,23.46,1.93.85,3.88.84,5.86.85,9.32.03,18.64.24,27.95-.08,4.55-.15,5.59,1.58,5.61,5.8.02,4.07-1.03,5.67-5.29,5.37-4.97-.35-9.98-.08-16.21-.08Z"/>
      <path class="cls-3" d="m439.57,266.77c-6.16-.8-13.58.94-21.02-1.64-14.44-5.01-19.71-17.51-19.25-31.28.54-16.06,12.52-26.76,28.53-26.93,9.49-.1,18.99.16,28.48-.09,5.35-.14,4.03,3.43,4.32,6.4.33,3.36-.7,4.69-4.36,4.6-9.32-.25-18.66.16-27.98-.13-8.5-.27-16.66,7.15-17.73,14.31-1.82,12.24,3.43,19.81,11.66,23.09,1.78.71,3.92.64,5.9.65,9.49.06,19,.23,28.48-.05,4.7-.14,4.03,2.77,3.97,5.55-.06,2.63,1.07,5.9-3.81,5.6-5.31-.32-10.66-.07-17.21-.07Z"/>
      <path class="cls-3" d="m632.6,253.87c1.81-6.35-1.62-11.82-6.67-17.25-7.84-8.43-15-17.48-22.45-26.26-.63-.74-1.82-1.37-1.45-2.43.48-1.37,1.95-.91,3.06-1.03,6.44-.71,11.76.21,15.8,6.48,3.9,6.05,9.36,11.06,13.79,16.8,2.69,3.49,4.41,3.08,6.95-.12,5.33-6.71,10.98-13.17,16.47-19.75,2.3-2.76,11.58-4.85,14.6-3.22,1.58.85.95,1.81.12,2.77-8.05,9.36-15.85,18.94-24.25,27.97-3.85,4.14-6.32,8.14-5.67,13.95.39,3.45-.21,7.02.15,10.48.41,3.95-1.26,4.51-4.79,4.66-4.56.2-6.38-1.14-5.7-5.76.29-1.96.05-3.99.05-7.29Z"/>
      <path class="cls-3" d="m844.81,206.91c7.65,0,15.32.22,22.96-.08,5.03-.2,4.45,2.87,4.66,6.14.23,3.63-.77,5.13-4.66,4.86-4.64-.33-9.32.13-13.97-.15-3.34-.2-4.17.99-4.13,4.2.16,13.47-.16,26.95.19,40.41.12,4.63-2.09,4.51-5.37,4.55-3.45.05-5.43-.23-5.32-4.68.32-13.3.01-26.61.18-39.91.04-3.44-.93-4.76-4.48-4.57-4.81.26-9.67-.21-14.47.15-4,.29-3.96-2.04-3.65-4.63.3-2.54-1.76-6.43,3.61-6.33,8.15.15,16.31.04,24.46.04Z"/>
      <path class="cls-3" d="m1309.47,236.74c0,8.66-.26,17.34.11,25.98.2,4.67-2.52,4.1-5.35,4.05-2.91-.05-5.99.85-5.92-4.17.23-17.15.17-34.31.04-51.47-.04-4.85,2.98-4.55,6.32-4.74,3.72-.21,4.98,1.13,4.88,4.87-.23,8.49-.07,16.99-.07,25.48Z"/>
      <path class="cls-1" d="m163.95,8.28c85.46.43,154.01,69.36,155.23,152.85,1.28,88.09-70.45,156.33-152.06,157.36-90.22,1.14-157.39-69.76-158.41-152.4C7.62,77.46,77.9,9.22,163.95,8.28Zm.4,3.88C79.71,10.85,13.44,80.49,12.04,160.42c-1.51,86.15,68.14,152.72,147.31,154.89,89.3,2.44,155.7-70.46,156.67-149.25,1.06-85.74-68.91-155.19-151.66-153.89Z"/>
      <path class="cls-3" d="m164.36,12.16c82.75-1.3,152.71,68.15,151.66,153.89-.97,78.79-67.37,151.69-156.67,149.25-79.16-2.16-148.82-68.74-147.31-154.89C13.44,80.49,79.71,10.85,164.36,12.16Zm-93.38,38.97c-.22,2.16-.37,2.97-.37,3.77-.01,51.14,0,102.27-.07,153.41,0,2.65,1.08,4.22,3.01,5.74,17.18,13.51,34.34,27.07,51.48,40.64,11.85,9.38,23.68,18.78,35.5,28.19,2.09,1.66,3.99,2.76,6.54.57,9.49-8.16,19.76-15.37,29.43-23.28,18.66-15.25,37.65-30.07,56.64-44.88,3.14-2.45,4.41-5.14,4.4-9.21-.14-49.64-.09-99.27-.09-148.91v-5.59c-2.63,3.06-4.4,4.96-5.99,7.01-12.25,15.77-24.52,31.51-36.62,47.39-2.13,2.79-3.84,3.65-7.43,2.35-11.12-4.03-22.77-5.94-34.53-6.91-18.3-1.52-36.04,1.61-53.39,7.26-2.04.67-3.69,1.12-5.18-1.07-3.79-5.54-8.13-10.66-12.29-15.91-10.31-13-20.2-26.33-31.04-40.55Z"/>
      <path class="cls-2" d="m70.98,51.13c10.84,14.22,20.73,27.55,31.04,40.55,4.17,5.25,8.51,10.37,12.29,15.91,1.49,2.18,3.14,1.73,5.18,1.07,17.35-5.65,35.09-8.78,53.39-7.26,11.75.98,23.4,2.89,34.53,6.91,3.59,1.3,5.3.44,7.43-2.35,12.1-15.88,24.38-31.62,36.62-47.39,1.59-2.04,3.36-3.94,5.99-7.01v5.59c0,49.64-.05,99.27.09,148.91.01,4.08-1.26,6.77-4.4,9.21-19,14.81-37.99,29.63-56.64,44.88-9.67,7.91-19.94,15.11-29.43,23.28-2.55,2.19-4.45,1.09-6.54-.57-11.82-9.41-23.65-18.81-35.5-28.19-17.14-13.57-34.3-27.12-51.48-40.64-1.92-1.51-3.01-3.09-3.01-5.74.08-51.14.06-102.27.07-153.41,0-.81.15-1.61.37-3.77Zm92.41,162.94c3.05-2.33,3.46-5.61,4.49-8.46,7.62-21.04,20.36-38.63,36.64-53.66,11.26-10.4,23.94-18.88,38.24-24.73,2.64-1.08,4.06-2.63,3.99-5.93-.26-11.15-.08-22.3-.13-33.45,0-1.01.58-2.38-1.16-3.07-9.02,11.72-18.07,23.48-27.11,35.24-1.66,2.16-3.33,3.18-6.32,1.79-8.26-3.82-17.21-6.12-26-7.55-22.53-3.67-44.91-2.07-66.4,6.37-4.87,1.91-8.55,2.25-11.58-2.8-1.82-3.03-4.25-5.71-6.44-8.52-5.26-6.74-10.54-13.46-15.84-20.17-.87-1.09-1.65-2.98-3.3-2.3-1.65.68-.88,2.66-.89,4.06-.06,9.99.13,19.98-.12,29.96-.09,3.61,1.34,5.37,4.49,6.67,4.26,1.76,8.55,3.6,12.47,5.98,13.96,8.48,26.55,18.55,37.31,31,12.57,14.55,21.37,31.04,27.65,49.57Zm83.26-41.82c0-10.15-.08-20.29.05-30.44.04-3.14-1.18-4.14-3.77-2.63-7.65,4.47-15.69,8.49-22.63,13.91-7.7,6.02-14.75,12.91-21.02,20.61-10.95,13.44-18.89,28.34-24.09,44.83-4.33,13.75-6.08,27.78-5.51,42.13.05,1.33-.72,3.35,1.07,3.97,1.45.51,2.8-.82,3.93-1.69,6.94-5.45,13.78-11.02,20.71-16.48,9.52-7.51,19.11-14.91,28.61-22.44,6.66-5.27,13.17-10.73,19.84-15.98,2.16-1.7,2.92-3.62,2.88-6.36-.15-9.81-.06-19.63-.06-29.44Zm-165.1.07c0,9.83,0,19.66,0,29.48,0,2-.17,4.04,1.66,5.49,7.05,5.58,14.09,11.17,21.14,16.74,9.44,7.46,18.87,14.92,28.33,22.35,7.45,5.86,14.95,11.67,22.4,17.53,1.8,1.42,2.85,1.63,2.97-1.2.55-13.19.32-26.45-3.44-39.1-4.67-15.72-11.38-30.5-21.27-44.01-12.67-17.3-28.8-29.97-47.33-40.08-3.07-1.68-4.54-.96-4.49,2.81.12,9.99.04,19.99.04,29.98Z"/>
      <path class="cls-3" d="m163.38,214.07c-6.28-18.53-15.08-35.02-27.65-49.57-10.76-12.45-23.36-22.52-37.31-31-3.92-2.38-8.21-4.22-12.47-5.98-3.15-1.3-4.58-3.06-4.49-6.67.24-9.98.06-19.97.12-29.96,0-1.4-.76-3.39.89-4.06,1.64-.68,2.43,1.21,3.3,2.3,5.3,6.7,10.58,13.43,15.84,20.17,2.19,2.81,4.62,5.48,6.44,8.52,3.03,5.06,6.71,4.71,11.58,2.8,21.48-8.43,43.87-10.03,66.4-6.37,8.79,1.43,17.74,3.73,26,7.55,2.99,1.38,4.65.37,6.32-1.79,9.04-11.76,18.09-23.52,27.11-35.24,1.74.69,1.15,2.06,1.16,3.07.06,11.15-.12,22.31.13,33.45.08,3.3-1.35,4.85-3.99,5.93-14.3,5.85-26.98,14.33-38.24,24.73-16.27,15.03-29.02,32.63-36.64,53.66-1.03,2.84-1.44,6.12-4.49,8.46Z"/>
      <path class="cls-3" d="m246.64,172.25c0,9.81-.09,19.63.06,29.44.04,2.74-.71,4.66-2.88,6.36-6.67,5.25-13.18,10.7-19.84,15.98-9.5,7.53-19.1,14.93-28.61,22.44-6.93,5.46-13.77,11.04-20.71,16.48-1.12.88-2.47,2.2-3.93,1.69-1.78-.62-1.02-2.64-1.07-3.97-.57-14.35,1.18-28.38,5.51-42.13,5.2-16.5,13.14-31.39,24.09-44.83,6.27-7.7,13.32-14.59,21.02-20.61,6.93-5.42,14.97-9.44,22.63-13.91,2.6-1.52,3.81-.52,3.77,2.63-.13,10.14-.05,20.29-.05,30.44Zm-44.63,20.14c7.43-1.62,14.98-2.85,18.18-11.23.17-.43.61-.76.92-1.14,1.58-1.98,5.1-3.95,3.61-6.3-1.53-2.4-4.54.49-6.86,1.03-7.3,1.7-14.96,10.34-15.83,17.64Z"/>
      <path class="cls-3" d="m81.54,172.32c0-9.99.08-19.99-.04-29.98-.05-3.77,1.42-4.48,4.49-2.81,18.52,10.11,34.66,22.77,47.33,40.08,9.89,13.5,16.6,28.29,21.27,44.01,3.76,12.65,3.99,25.91,3.44,39.1-.12,2.84-1.16,2.62-2.97,1.2-7.45-5.87-14.94-11.67-22.4-17.53-9.45-7.43-18.89-14.89-28.33-22.35-7.05-5.57-14.09-11.17-21.14-16.74-1.83-1.45-1.66-3.48-1.66-5.49,0-9.83,0-19.66,0-29.48Zm19.34,0c7.4,8.56,11.41,20.51,25.45,19.64-4.2-11.5-11.93-18.67-25.45-19.64Z"/>
      <path class="cls-2" d="m202.02,192.39c.87-7.3,8.53-15.94,15.83-17.64,2.32-.54,5.33-3.43,6.86-1.03,1.5,2.35-2.02,4.32-3.61,6.3-.31.38-.75.71-.92,1.14-3.2,8.38-10.75,9.6-18.18,11.23Z"/>
      <path class="cls-2" d="m100.88,172.31c13.52.97,21.25,8.14,25.45,19.64-14.04.87-18.05-11.09-25.45-19.64Z"/>
    </g>
  </g>
</svg>