<svg width="97" height="97" viewBox="0 0 97 97" fill="none" xmlns="http://www.w3.org/2000/svg">
<path d="M96 48.5C96 74.7335 74.7335 96 48.5 96C22.2665 96 1 74.7335 1 48.5C1 22.2665 22.2665 1 48.5 1C74.7335 1 96 22.2665 96 48.5Z" stroke="#F0F0F0" stroke-width="2"/>
<path d="M31.3956 77.895C30.6085 77.6207 30.2025 77.0413 29.9299 76.2644C27.8705 70.4159 25.7805 64.578 23.7035 58.7355C23.1323 57.1285 23.8911 56.0583 25.6035 56.0583C40.8461 56.0583 56.0887 56.0583 71.33 56.0583C73.0424 56.0583 73.8024 57.1285 73.2312 58.7355C71.1542 64.578 69.0642 70.4159 67.0049 76.2644C66.7311 77.0413 66.3251 77.6195 65.5391 77.895H31.3956ZM48.4863 70.2302C49.5802 70.2007 50.6494 70.0056 51.5711 69.3292C52.7666 68.4506 52.7524 67.1925 51.5534 66.3115C49.9709 65.1492 46.9592 65.148 45.3849 66.3104C44.1646 67.2102 44.1682 68.4885 45.4073 69.3635C46.3219 70.0091 47.371 70.2054 48.4863 70.2314V70.2302Z" fill="#5DB8CA"/>
<path d="M56.773 36.1348C56.6325 39.5061 54.7018 41.9325 52.4832 44.1413C50.3306 46.2852 46.6781 46.252 44.4642 44.1555C43.0303 42.7981 41.7912 41.2549 40.9981 39.4351C40.5521 38.4099 40.3408 37.2818 40.0234 36.1999C40.0788 36.1798 40.1331 36.1597 40.1886 36.1408C39.9313 36.0521 39.6587 35.993 39.4191 35.8688C38.6379 35.4644 38.3027 34.4581 38.7547 33.6978C38.973 33.3312 38.914 33.064 38.7771 32.7199C37.8035 30.2804 37.3515 27.7689 37.9534 25.1675C38.7004 21.9381 40.8636 20.0249 43.9201 19.1002C47.4712 18.0253 51.0293 18.0833 54.4316 19.6501C57.8315 21.2156 59.3114 24.0429 59.25 27.7251C59.2205 29.4917 58.8063 31.185 58.1443 32.8216C58.0617 33.0261 58.031 33.33 58.123 33.5157C58.7025 34.6958 58.267 35.7009 56.9889 36.0521C56.9146 36.0722 56.8449 36.1077 56.7741 36.1348H56.773Z" fill="#5DB8CA"/>
<path d="M68.9261 54.7691H63.2013C61.9846 54.7691 60.7679 54.7467 59.5523 54.7798C59.0508 54.794 58.6778 54.6639 58.3828 54.1684C58.6625 54.088 58.9316 54.0194 59.1959 53.9343C60.1318 53.6328 60.5035 53.1219 60.4646 52.1381C60.3867 50.1705 59.8179 48.3554 58.7404 46.7047C58.6554 46.5734 58.5716 46.4422 58.489 46.3086C58.4808 46.2944 58.4878 46.2695 58.4878 46.1868C59.9571 46.551 61.4122 46.9081 62.865 47.2711C63.4916 47.4272 64.1277 47.5608 64.7414 47.7594C67.1583 48.5411 68.8069 50.7759 68.9237 53.4034C68.9426 53.8314 68.9261 54.2607 68.9261 54.7691Z" fill="#5DB8CA"/>
<path d="M28.0381 54.7267C27.7714 51.4608 29.1663 48.9847 31.9656 47.8779C32.7905 47.5515 33.7145 47.4818 34.5902 47.2807C35.8258 46.997 37.0578 46.7002 38.2167 46.427C37.7718 47.4806 37.2585 48.5318 36.8891 49.6315C36.6436 50.3646 36.5527 51.164 36.4867 51.942C36.3828 53.1623 36.7675 53.6566 37.9418 53.9913C38.127 54.0433 38.3135 54.0882 38.5755 54.2975C38.2828 54.4548 37.9913 54.7445 37.6963 54.748C34.5619 54.7811 31.4263 54.7681 28.2906 54.7658C28.2163 54.7658 28.142 54.7433 28.0369 54.7279L28.0381 54.7267Z" fill="#5DB8CA"/>
<path d="M44.0893 46.9581C46.7965 49.3006 50.1717 49.2781 52.9155 46.9001C52.7786 47.8627 52.7267 48.6916 52.5331 49.4874C52.1401 51.105 51.6657 52.7025 51.2385 54.3119C51.15 54.6477 51.0048 54.7848 50.6331 54.7789C49.1839 54.7553 47.7335 54.7789 46.2843 54.7565C46.1038 54.7541 45.8123 54.6098 45.7651 54.4668C44.9933 52.1586 44.3005 49.8303 44.0905 47.3873C44.081 47.2738 44.0893 47.1591 44.0893 46.9581Z" fill="#5DB8CA"/>
<path d="M55.112 52.805C55.7634 53.3974 56.416 53.9898 57.0674 54.5822L56.9919 54.7135H52.4814C52.7694 53.6954 53.0821 52.6749 53.3465 51.6426C53.8834 49.5473 54.3366 47.4401 54.1077 45.249C54.0557 44.75 54.3283 44.536 54.7355 44.8115C55.5545 45.3649 56.4184 45.9159 57.0722 46.6408C58.414 48.1283 59.0406 49.9623 59.1704 51.9583C59.2165 52.656 58.9781 52.8866 58.2818 52.8582C57.7531 52.8357 57.2268 52.7872 56.6992 52.7506C56.1965 52.7151 55.6938 52.6785 55.1922 52.6418C55.1651 52.6962 55.1379 52.7506 55.112 52.8038V52.805Z" fill="#5DB8CA"/>
<path d="M44.4722 54.7395H39.8615C40.5389 54.036 41.162 53.3891 41.8842 52.6383C40.9165 52.7021 40.0857 52.7565 39.2549 52.8109C38.9811 52.8287 38.7061 52.8724 38.4335 52.8582C38.0063 52.8358 37.7195 52.6288 37.7537 52.1535C37.9744 49.0684 39.1628 46.5403 41.9255 44.9369C42.1391 44.8127 42.4306 44.8245 42.6867 44.7737C42.728 45.0114 42.8224 45.2526 42.8035 45.4855C42.597 48.0479 43.2591 50.4767 43.9187 52.9055C44.0828 53.5086 44.2787 54.1022 44.471 54.7395H44.4722Z" fill="#5DB8CA"/>
</svg>
