<svg width="97" height="97" viewBox="0 0 97 97" fill="none" xmlns="http://www.w3.org/2000/svg">
<path d="M96 48.5C96 74.7335 74.7335 96 48.5 96C22.2665 96 1 74.7335 1 48.5C1 22.2665 22.2665 1 48.5 1C74.7335 1 96 22.2665 96 48.5Z" stroke="#F0F0F0" stroke-width="2"/>
<path d="M48.2148 48.4126C49.7285 48.4126 51.2437 48.4065 52.7574 48.4126C56.1787 48.4292 58.856 50.9526 58.956 54.3513C59.0272 56.7916 58.9803 59.2363 58.9712 61.6795C58.9681 62.4718 58.6105 63.072 57.912 63.4726C55.465 64.8772 53.0301 66.3075 50.5709 67.6924C49.0224 68.5647 47.4284 68.5542 45.8814 67.6788C43.4465 66.3014 41.0343 64.8863 38.6054 63.4984C37.9645 63.1325 37.5251 62.6109 37.5251 61.8791C37.5221 59.1365 37.4175 56.3818 37.6327 53.6528C37.8675 50.6729 40.5025 48.464 43.5207 48.4141C45.0859 48.3884 46.6511 48.4096 48.2148 48.4096V48.4126Z" fill="#8B5CF6"/>
<path d="M28.9949 42.1547C30.6343 42.1547 32.2737 42.126 33.9132 42.1623C35.6723 42.2016 37.1224 42.947 38.2769 44.2593C38.9921 45.0727 38.9118 45.8891 38.0482 46.5226C35.1708 48.6348 33.8056 51.4787 33.8571 55.0286C33.8753 56.3122 33.8723 57.5958 33.8571 58.8794C33.8435 59.9574 33.192 60.3581 32.2768 59.8334C28.3206 57.5686 24.3675 55.3007 20.4295 53.0072C19.1446 52.2588 18.3885 51.084 18.3749 49.6039C18.3643 48.3898 18.3476 47.0805 18.7643 45.9768C19.6795 43.5472 21.6007 42.2515 24.2311 42.1593C25.8175 42.1033 27.4085 42.1487 28.9979 42.1487V42.1532L28.9949 42.1547Z" fill="#8B5CF6"/>
<path d="M62.7051 56.4846C62.6096 55.1828 62.6293 53.8599 62.396 52.5823C61.9445 50.1028 60.605 48.1298 58.5747 46.627C57.5125 45.8408 57.4322 45.0697 58.3337 44.1096C59.511 42.8563 60.9581 42.1638 62.6899 42.1547C65.8688 42.1381 69.0477 42.123 72.225 42.1578C75.4357 42.1925 77.9691 44.6509 78.1373 47.8486C78.1707 48.4745 78.1707 49.1095 78.1116 49.7324C77.9737 51.1793 77.2691 52.3072 76.0085 53.0389C72.1099 55.3007 68.2007 57.5474 64.2915 59.7911C63.2839 60.3701 62.6308 59.9861 62.6202 58.831C62.6172 58.4289 62.6217 58.0252 62.6233 57.623C62.6233 57.245 62.6233 56.8686 62.6233 56.4906C62.6505 56.4891 62.6778 56.4861 62.7051 56.4846Z" fill="#8B5CF6"/>
<path d="M67.4676 27.9247C71.0465 27.8869 73.9754 30.755 74.0239 34.3427C74.0724 37.9788 71.2071 40.9482 67.6146 40.986C63.9009 41.0238 60.9477 38.2041 60.8962 34.568C60.8432 30.8774 63.7251 27.964 67.4676 27.9247Z" fill="#8B5CF6"/>
<path d="M28.9858 27.9249C32.6647 27.9112 35.5951 30.8141 35.5845 34.4653C35.5739 38.0894 32.6753 40.9801 29.0434 40.9877C25.3887 40.9953 22.4735 38.1347 22.4523 34.5228C22.4311 30.8458 25.3069 27.94 28.9858 27.9264V27.9249Z" fill="#8B5CF6"/>
<path d="M54.7862 40.7441C54.7862 44.3545 51.8619 47.2816 48.2481 47.2891C44.6056 47.2967 41.6783 44.3485 41.6934 40.6866C41.7086 37.0792 44.6511 34.1673 48.2663 34.1824C51.8786 34.1976 54.7877 37.1246 54.7862 40.7441Z" fill="#8B5CF6"/>
</svg>
