<svg width="97" height="97" viewBox="0 0 97 97" fill="none" xmlns="http://www.w3.org/2000/svg">
<path d="M77.3703 31.0315C77.0545 31.666 76.8608 32.2931 76.4793 32.7697C75.9266 33.4624 75.2576 34.0686 74.6035 34.6718C73.5695 35.6236 72.1199 35.6221 71.1186 34.6286C67.7231 31.2624 64.341 27.8827 60.9753 24.4881C59.9487 23.4529 59.9606 22.0081 60.9529 20.952C61.5459 20.3204 62.1598 19.7053 62.7915 19.1125C63.821 18.1473 65.2692 18.1055 66.2749 19.099C69.6943 22.4758 73.0943 25.8718 76.4615 29.3022C76.8786 29.7282 77.0485 30.397 77.3718 31.0315H77.3703Z" fill="#01A1FE"/>
<path d="M65.2237 77.3655C64.5995 77.0557 63.9737 76.8621 63.4969 76.4808C62.8041 75.9282 62.1992 75.2579 61.5943 74.604C60.6408 73.5748 60.6378 72.1255 61.633 71.12C64.9988 67.724 68.3794 64.3443 71.7734 60.9765C72.8089 59.9502 74.2541 59.9592 75.3105 60.9497C75.9422 61.5425 76.559 62.1547 77.149 62.7892C78.116 63.8274 78.1622 65.2633 77.1669 66.2717C73.7729 69.7095 70.3565 73.1249 66.9088 76.5076C66.5006 76.9083 65.8465 77.0572 65.2237 77.3641V77.3655Z" fill="#01A1FE"/>
<path d="M96 48.5C96 74.7335 74.7335 96 48.5 96C22.2665 96 1 74.7335 1 48.5C1 22.2665 22.2665 1 48.5 1C74.7335 1 96 22.2665 96 48.5Z" stroke="#F0F0F0" stroke-width="2"/>
<path d="M44.2642 32.2038C45.033 32.9575 45.8137 33.7126 46.584 34.4797C47.5867 35.4792 47.8102 36.4578 47.2858 37.4796C46.7792 38.4686 45.8763 38.8365 44.5011 38.6146C44.4549 38.6072 44.4058 38.6235 44.2896 38.6384C45.0375 39.8941 45.2088 41.1542 43.9364 42.1164C42.7669 42.9997 41.6122 42.6795 40.5275 41.543C40.9104 42.8582 40.8136 43.9098 39.7528 44.6218C38.7351 45.304 37.7309 45.0895 36.7312 44.3298C36.7863 44.6352 36.84 44.8765 36.8728 45.1193C37.0039 46.0785 36.5614 46.9737 35.7359 47.437C34.9254 47.8913 33.8259 47.863 33.1629 47.2165C31.2051 45.3099 29.076 43.5613 28.1344 40.8057C27.6368 39.3504 26.783 38.0128 26.0589 36.6395C25.7341 36.0258 25.9829 35.6222 26.4031 35.2036C28.8272 32.7921 31.2409 30.3717 33.659 27.9542C34.0449 27.5684 34.3935 27.132 34.8316 26.8192C35.0938 26.6315 35.5974 26.4587 35.8179 26.5853C37.3212 27.4403 39.0093 27.4284 40.6303 27.7218C41.3127 27.8455 42.0025 27.9199 42.6864 28.0332C45.1343 28.4383 45.8361 30.2078 44.2672 32.2038H44.2642Z" fill="#01A1FE"/>
<path d="M64.0563 44.2568C63.2741 45.0597 62.5217 45.8461 61.7529 46.6177C60.7949 47.5814 59.816 47.8034 58.8103 47.3059C57.812 46.8113 57.4366 45.9147 57.6452 44.5369C57.6556 44.4683 57.6333 44.3939 57.6258 44.3179C56.0331 45.091 55.008 45.0061 54.2035 44.0423C53.4079 43.0891 53.5121 42.0673 54.5864 40.5733C53.4213 40.904 52.3709 40.8205 51.6542 39.7764C50.945 38.7412 51.1804 37.7209 51.9224 36.7319C51.5335 36.7959 51.1983 36.9002 50.8616 36.8987C49.914 36.8987 49.169 36.4786 48.7668 35.6177C48.3585 34.7448 48.4047 33.8363 49.0811 33.1183C50.2016 31.9297 51.3547 30.7664 52.569 29.6761C53.0682 29.2262 53.7505 28.97 54.3674 28.6617C56.1314 27.7784 57.9059 26.9175 59.67 26.0342C60.2123 25.7631 60.6071 25.9493 60.9915 26.3366C62.5276 27.8827 64.0712 29.4214 65.6118 30.963C66.838 32.1889 68.0522 33.4266 69.2948 34.6346C69.7999 35.1247 69.7522 35.5671 69.5571 36.2224C69.1131 37.703 68.8374 39.2342 68.5231 40.7505C68.383 41.4283 68.3264 42.1224 68.2146 42.8046C67.8347 45.1178 65.9932 45.8074 64.0533 44.2539L64.0563 44.2568Z" fill="#01A1FE"/>
<path d="M32.2064 52.0142C32.9677 51.2322 33.7038 50.4636 34.4532 49.7084C35.4917 48.6613 36.554 48.4378 37.579 49.0322C38.5668 49.6056 38.8842 50.5857 38.5624 51.9307C39.1285 51.7624 39.7469 51.4094 40.3369 51.4511C40.9179 51.4928 41.5854 51.8146 42.01 52.2272C42.901 53.0926 42.7416 54.2737 41.6629 55.6903C42.8965 55.3551 43.9812 55.4668 44.674 56.5959C45.2953 57.6073 45.0584 58.5888 44.3224 59.5421C44.6368 59.4825 44.8915 59.417 45.1493 59.3902C46.1297 59.2889 46.897 59.6553 47.411 60.4969C47.8907 61.2848 47.8773 62.4094 47.2352 63.0693C45.3653 64.9922 43.6639 67.0999 40.9746 68.0591C39.4534 68.6013 38.0513 69.4816 36.6016 70.2219C36.1398 70.4587 35.7435 70.3962 35.3859 70.0387C32.5282 67.1848 29.6631 64.3368 26.8338 61.4546C26.6118 61.2282 26.4568 60.6444 26.5909 60.409C27.4699 58.8584 27.4312 57.1157 27.7441 55.449C27.8678 54.7921 27.9348 54.1263 28.0421 53.4664C28.422 51.1487 30.265 50.4546 32.2034 52.0112L32.2064 52.0142Z" fill="#01A1FE"/>
<path d="M52.0113 64.0567C51.2306 63.2985 50.4618 62.5642 49.7064 61.8165C48.6694 60.7902 48.4399 59.7908 48.9867 58.7615C49.5321 57.7367 50.4975 57.3941 51.9264 57.7144C51.9696 57.7248 52.0187 57.7084 52.0649 57.7025C51.1769 56.3619 51.1814 55.2254 52.0768 54.3421C52.9916 53.4395 54.0763 53.5035 55.6884 54.573C55.3547 53.4455 55.4366 52.4117 56.4438 51.6923C57.4867 50.9461 58.5282 51.1665 59.5219 51.9336C59.4609 51.5151 59.3521 51.1516 59.364 50.7912C59.3938 49.8453 59.8378 49.1214 60.7154 48.7446C61.5765 48.3752 62.4541 48.4362 63.1454 49.0901C64.3314 50.2117 65.4995 51.3601 66.5871 52.5771C67.0505 53.0954 67.3083 53.8059 67.6286 54.4434C68.5032 56.1832 69.3554 57.9348 70.2285 59.6761C70.4982 60.2153 70.3149 60.613 69.926 60.9987C68.3452 62.5687 66.7719 64.1476 65.197 65.7235C64.0066 66.9136 62.8042 68.0933 61.6317 69.3013C61.143 69.8047 60.699 69.763 60.0434 69.5664C58.5639 69.1225 57.0338 68.844 55.5171 68.5297C54.8406 68.3897 54.1463 68.3346 53.4625 68.2214C51.1456 67.8415 50.4469 65.9916 52.0113 64.0567Z" fill="#01A1FE"/>
<path d="M35.5564 23.398C35.2107 24.0474 35.0185 24.7281 34.5835 25.172C31.252 28.5666 27.8833 31.9239 24.5057 35.2738C23.4434 36.3269 21.9922 36.312 20.912 35.2857C20.3011 34.7063 19.7052 34.109 19.1271 33.4983C18.1333 32.4467 18.105 30.9915 19.1271 29.9593C22.4883 26.5617 25.869 23.182 29.2645 19.8157C30.2851 18.8029 31.766 18.8207 32.812 19.8038C33.4437 20.3966 34.0963 20.982 34.6341 21.6553C35.017 22.1334 35.2227 22.7515 35.5549 23.398H35.5564Z" fill="#01A1FE"/>
<path d="M23.4518 60.728C24.0642 61.0632 24.7391 61.2643 25.1831 61.7007C28.5607 65.0148 31.8982 68.3677 35.2341 71.7236C36.3187 72.8154 36.3173 74.2632 35.2624 75.3729C34.6828 75.9836 34.0883 76.5823 33.473 77.1558C32.439 78.121 30.9923 78.1642 29.9896 77.1737C26.5538 73.7791 23.1389 70.3622 19.7449 66.9244C18.8376 66.0068 18.8271 64.5501 19.6704 63.6058C20.329 62.867 21.0203 62.1446 21.7816 61.519C22.2137 61.1645 22.8171 61.0185 23.4533 60.7295L23.4518 60.728Z" fill="#01A1FE"/>
</svg>
