<svg width="97" height="97" viewBox="0 0 97 97" fill="none" xmlns="http://www.w3.org/2000/svg">
<path d="M96 48.5C96 74.7335 74.7335 96 48.5 96C22.2665 96 1 74.7335 1 48.5C1 22.2665 22.2665 1 48.5 1C74.7335 1 96 22.2665 96 48.5Z" stroke="#F0F0F0" stroke-width="2"/>
<path d="M78.5742 67.7372C78.5118 65.8787 78.4099 63.9974 78.0548 62.1807C77.4713 59.1964 75.9435 56.5899 74.4233 53.9929C74.0928 53.4291 73.8889 52.7077 73.8719 52.0528C73.8076 49.4919 73.87 46.9272 73.8265 44.3662C73.8114 43.586 74.0343 42.9956 74.5196 42.3919C77.3806 38.8381 77.8887 33.7182 75.3316 29.9974C74.0532 28.1407 73.734 26.3392 73.8511 24.2699C73.8719 23.8922 73.853 23.5106 73.8492 23.1309C73.8322 21.1699 73.2487 20.5757 71.3205 20.5757C63.0433 20.5757 54.7661 20.5757 46.4889 20.5757V20.6421C38.1494 20.6421 29.8099 20.6421 21.4703 20.644C19.6952 20.644 19.1135 21.2211 19.1116 23.0322C19.1041 33.1885 19.106 43.343 19.1098 53.4994C19.1098 54.7485 19.7726 55.4452 21.0001 55.4965C21.8783 55.5325 22.7583 55.5648 23.6383 55.5648C31.3169 55.5591 38.9973 55.5363 46.6759 55.5667C47.2122 55.5686 47.8392 55.8363 48.266 56.1799C50.1809 57.7195 52.0278 59.3445 53.9239 60.9088C54.4885 61.3739 54.7944 61.8048 54.481 62.585C54.277 63.0976 54.2355 63.6994 54.226 64.2651C54.1542 68.1511 54.1108 72.039 54.0598 75.9269C54.0504 76.7451 54.4507 77.1381 55.276 77.1324C57.0701 77.1191 58.8622 77.1267 60.6563 77.1286C66.1329 77.1342 71.6095 77.1305 77.0842 77.1589C78.2701 77.1646 78.6157 76.9102 78.6176 75.7086C78.6176 73.0508 78.6629 70.3912 78.5742 67.7372ZM71.8115 26.2708C71.3224 26.0373 70.9844 25.8456 70.6237 25.7127C66.1045 24.0326 61.761 23.9624 57.8594 27.2656C57.1475 27.8693 56.5432 28.6286 56.0068 29.3994C55.6537 29.91 55.2987 30.0904 54.6981 30.0714C53.2516 30.0296 51.8012 30.0372 50.3546 30.079C50.0902 30.0866 49.8315 30.3467 49.5709 30.4909C49.8334 30.6352 50.094 30.8972 50.3622 30.9029C51.8673 30.9447 53.3743 30.9238 54.9663 30.9238C54.7019 32.0685 54.4828 33.1335 54.1864 34.1776C54.1448 34.3257 53.7293 34.4396 53.4819 34.4472C52.4131 34.4757 51.3423 34.4339 50.2734 34.4795C50.0336 34.4889 49.8051 34.7414 49.5709 34.8838C49.7975 35.0376 50.0185 35.3109 50.2508 35.3223C51.2875 35.3717 52.3281 35.3717 53.3649 35.3356C53.9597 35.3166 54.226 35.5046 54.2355 36.131C54.2468 36.7879 54.3469 37.4447 54.4262 38.28C53.1949 38.28 51.9863 38.2496 50.7814 38.299C50.3584 38.3161 49.6578 37.9516 49.6295 38.7774C49.6295 38.8989 50.3735 39.14 50.7777 39.1609C51.8144 39.2178 52.8569 39.2178 53.8918 39.1666C54.5433 39.1343 54.9587 39.3013 55.1816 39.9582C55.3497 40.4556 55.6273 40.9131 55.9351 41.5509H52.5358C51.8125 41.5509 51.0855 41.513 50.366 41.5718C50.0865 41.5927 49.8259 41.8338 49.5577 41.9743C49.8183 42.1242 50.077 42.3957 50.3414 42.4033C51.9145 42.4451 53.4952 42.5153 55.0607 42.3976C56.3317 42.3008 57.2419 42.6957 58.0011 43.9239C55.5366 43.9239 53.1892 43.9049 50.8419 43.9429C50.4151 43.9486 49.6351 43.5936 49.62 44.3492C49.603 45.1389 50.3943 44.7763 50.8135 44.782C53.5197 44.8162 56.2259 44.7896 58.934 44.8086C59.2928 44.8124 59.6743 44.913 60.0066 45.0572C63.793 46.6823 67.5719 47.1132 71.3545 45.0553C71.4319 45.0117 71.5245 44.9984 71.7152 44.9377V49.8867C71.6076 49.8678 71.5131 49.8753 71.498 49.8431C70.7445 48.2807 69.466 48.1117 67.9024 48.2693C66.3444 48.425 64.7562 48.2579 63.185 48.332C62.7582 48.3528 62.2162 48.6224 61.9499 48.9565C60.9528 50.2171 60.052 51.5535 59.104 52.8539C58.9434 53.076 58.7168 53.4462 58.545 53.4329C56.9209 53.2981 55.1665 54.0841 53.718 52.6508C52.7568 51.6997 51.6615 50.8853 50.636 50.0006C49.7132 49.2059 48.7929 49.2236 47.8751 50.0538C46.4832 48.8768 45.0782 47.6903 43.6128 46.4526C43.9074 46.2096 44.1189 46.0311 44.3323 45.8603C48.2886 42.6881 49.6125 37.3498 47.5956 32.6874C45.641 28.1711 40.9273 25.5874 35.8776 26.267C31.1375 26.9049 27.2151 30.8972 26.6674 35.852C26.2048 40.0417 27.6664 43.5423 31.0638 46.0463C34.4234 48.5218 38.1267 48.8616 41.966 47.248C42.5986 46.9822 42.9952 46.9575 43.5278 47.4397C44.761 48.5598 46.064 49.5982 47.3727 50.6992C46.7023 51.6124 46.0886 52.4818 45.4257 53.3095C45.3048 53.4595 44.9706 53.4899 44.7345 53.4899C37.1183 53.4994 29.502 53.4918 21.8858 53.507C21.2286 53.5089 20.9623 53.2545 20.9926 52.6204C21.0039 52.3679 20.9888 52.1135 20.9888 51.8611C20.9888 42.6235 20.9888 33.3841 20.985 24.1465C20.985 23.1493 21.4899 22.65 22.4996 22.6487H70.4632C71.8078 22.6487 71.8077 22.6525 71.8115 23.9909C71.8134 24.6838 71.8115 25.3748 71.8115 26.2708ZM38.0682 41.7617C37.8057 41.5282 37.6036 41.0877 37.5866 40.7327C37.4393 37.7864 37.4525 37.7845 39.9604 36.2734C42.0038 35.0414 44.0509 33.8131 46.1547 32.5469C47.2632 34.6123 47.5842 36.7214 47.1707 38.9331C46.6759 41.5699 45.2973 43.6524 43.1444 45.2338C42.7516 45.5224 42.4872 45.5451 42.0944 45.1977C40.7706 44.0321 39.3863 42.9349 38.0682 41.7617ZM41.7734 45.9742C40.4363 46.6918 39.1465 46.9841 37.6886 46.9727V42.5343C39.1106 43.7322 40.3778 44.7991 41.7734 45.9742ZM37.2977 46.986C33.9098 46.8171 31.3018 45.3857 29.4775 42.6463C27.2888 39.3602 27.1396 35.871 29.028 32.4178C30.7182 29.3253 33.4244 27.6832 37.1277 27.3358V40.9283C36.6197 40.5353 36.1703 40.186 35.7227 39.8367C35.6207 39.8709 35.5206 39.9031 35.4205 39.9373C35.4904 40.2221 35.4734 40.6663 35.6472 40.7631C37.2033 41.6345 37.4601 43.0127 37.3109 44.6206C37.241 45.3667 37.2977 46.126 37.2977 46.986Z" fill="#8DB230"/>
</svg>
