<svg width="100" height="95" viewBox="0 0 100 95" fill="none" xmlns="http://www.w3.org/2000/svg">
<path d="M99.9076 79.1814C99.8029 76.0611 99.6316 72.9025 99.0351 69.8523C98.0547 64.8419 95.488 60.4657 92.934 56.1056C92.3788 55.1589 92.0361 53.9478 92.0076 52.8482C91.8997 48.5485 92.0044 44.2425 91.9314 39.9429C91.906 38.6329 92.2804 37.6417 93.0958 36.6281C97.9024 30.6616 98.7559 22.0655 94.4601 15.8184C92.3121 12.7013 91.776 9.67656 91.9727 6.20243C92.0076 5.56816 91.9758 4.92752 91.9695 4.29007C91.9409 0.997616 90.9606 0 87.7212 0C73.8153 0 59.9093 0 46.0034 0V0.111555C31.9927 0.111555 17.9821 0.111555 3.97143 0.114742C0.98909 0.114742 0.0118976 1.08367 0.00872493 4.12433C-0.00396588 21.1762 -0.000793175 38.225 0.00555223 55.2769C0.00555223 57.3741 1.11917 58.5438 3.18143 58.6299C4.65673 58.6904 6.13521 58.7446 7.61369 58.7446C20.5139 58.7351 33.4173 58.6968 46.3175 58.7478C47.2185 58.751 48.2719 59.2004 48.9889 59.7773C52.206 62.3622 55.3089 65.0905 58.4943 67.7168C59.4429 68.4977 59.9569 69.2212 59.4303 70.5312C59.0876 71.3917 59.0178 72.4021 59.0019 73.3519C58.8814 79.8762 58.8084 86.4038 58.7227 92.9313C58.7069 94.305 59.3795 94.9648 60.766 94.9552C63.78 94.9329 66.7909 94.9457 69.805 94.9488C79.0058 94.9584 88.2067 94.952 97.4043 94.9998C99.3968 95.0094 99.9774 94.5823 99.9806 92.5648C99.9806 88.1026 100.057 83.6372 99.9076 79.1814ZM88.5461 9.56182C87.7244 9.16978 87.1565 8.84787 86.5505 8.62476C78.9582 5.80402 71.661 5.68609 65.1062 11.2319C63.9101 12.2455 62.8948 13.5204 61.9938 14.8144C61.4005 15.6718 60.804 15.9746 59.7951 15.9427C57.3648 15.8726 54.9282 15.8854 52.4979 15.9555C52.0537 15.9682 51.6191 16.4049 51.1812 16.6471C51.6222 16.8894 52.0601 17.3292 52.5106 17.3388C55.0392 17.4089 57.5711 17.3738 60.2456 17.3738C59.8015 19.2957 59.4334 21.0838 58.9353 22.8368C58.8655 23.0854 58.1675 23.2767 57.7519 23.2894C55.9561 23.3372 54.1572 23.2671 52.3615 23.3436C51.9585 23.3595 51.5747 23.7834 51.1812 24.0225C51.562 24.2806 51.9332 24.7396 52.3234 24.7587C54.0652 24.8416 55.8134 24.8416 57.5552 24.781C58.5546 24.7492 59.0019 25.0647 59.0178 26.1165C59.0368 27.2193 59.205 28.3221 59.3382 29.7245C57.2696 29.7245 55.2391 29.6735 53.2149 29.7564C52.5042 29.7851 51.3272 29.1731 51.2796 30.5596C51.2796 30.7636 52.5296 31.1683 53.2086 31.2034C54.9504 31.299 56.7017 31.299 58.4404 31.213C59.535 31.1588 60.233 31.4393 60.6073 32.5421C60.8897 33.3771 61.3561 34.1453 61.8732 35.2162H56.1624C54.9472 35.2162 53.7257 35.1524 52.5169 35.2512C52.0474 35.2863 51.6095 35.6911 51.159 35.9269C51.5969 36.1787 52.0315 36.6345 52.4757 36.6473C55.1186 36.7174 57.7741 36.8353 60.4043 36.6377C62.5395 36.4751 64.0688 37.1381 65.3442 39.2003C61.2038 39.2003 57.2601 39.1684 53.3165 39.2321C52.5994 39.2417 51.2891 38.6457 51.2637 39.9142C51.2352 41.2401 52.5645 40.6314 53.2689 40.6409C57.8154 40.6983 62.3618 40.6537 66.9115 40.6855C67.5143 40.6919 68.1552 40.8608 68.7136 41.1031C75.0749 43.8314 81.4234 44.5549 87.7784 41.0999C87.9084 41.0266 88.0639 41.0043 88.3843 40.9023V49.2115C88.2035 49.1796 88.0449 49.1924 88.0195 49.1382C86.7536 46.5151 84.6057 46.2314 81.9787 46.4959C79.3612 46.7573 76.6929 46.4768 74.0532 46.6011C73.3362 46.6362 72.4256 47.0888 71.9783 47.6497C70.3031 49.7661 68.7897 52.0099 67.197 54.1932C66.9274 54.5661 66.5466 55.1876 66.2579 55.1653C63.5294 54.939 60.5819 56.2585 58.1485 53.8522C56.5336 52.2553 54.6934 50.888 52.9706 49.4027C51.4202 48.0683 49.8741 48.0981 48.3321 49.492C45.9939 47.5159 43.6334 45.5238 41.1714 43.4457C41.6663 43.0377 42.0216 42.7381 42.3802 42.4513C49.027 37.1254 51.251 28.1627 47.8626 20.3348C44.5788 12.7523 36.6598 8.4144 28.176 9.55544C20.2125 10.6264 13.6228 17.3292 12.7027 25.648C11.9254 32.6823 14.3811 38.5596 20.0888 42.7636C25.733 46.9198 31.9547 47.4904 38.4048 44.7812C39.4676 44.335 40.1339 44.2935 41.0286 45.1031C43.1004 46.9836 45.2895 48.727 47.4882 50.5756C46.3619 52.1087 45.3308 53.5685 44.2172 54.9581C44.0141 55.2099 43.4525 55.2609 43.0559 55.2609C30.2604 55.2769 17.4649 55.2641 4.66942 55.2896C3.56532 55.2928 3.11797 54.8657 3.16874 53.8012C3.18777 53.3773 3.16239 52.9502 3.16239 52.5263C3.16239 37.017 3.16239 21.5045 3.15605 5.99526C3.15605 4.32088 4.00421 3.48263 5.70055 3.4805H86.2808C88.5398 3.4805 88.5398 3.48688 88.5461 5.7339C88.5493 6.89726 88.5461 8.05743 88.5461 9.56182ZM31.8563 35.57C31.4153 35.1779 31.0758 34.4385 31.0473 33.8425C30.7998 28.8958 30.822 28.8926 35.0354 26.3556C38.4682 24.287 41.9074 22.2249 45.4418 20.0989C47.3042 23.5667 47.8436 27.1078 47.1487 30.8209C46.3175 35.248 44.0014 38.7445 40.3845 41.3995C39.7246 41.8839 39.2804 41.9222 38.6205 41.3389C36.3964 39.3819 34.0709 37.5397 31.8563 35.57ZM38.0811 42.6425C35.8349 43.8473 33.6679 44.3381 31.2186 44.319V36.8672C33.6076 38.8783 35.7365 40.6696 38.0811 42.6425ZM30.5618 44.3413C24.87 44.0577 20.4885 41.6545 17.4237 37.0552C13.7465 31.5381 13.4959 25.6799 16.6686 19.8822C19.5082 14.6901 24.0546 11.9331 30.2763 11.3499V34.1707C29.4228 33.511 28.6677 32.9245 27.9158 32.3381C27.7445 32.3954 27.5763 32.4496 27.4082 32.507C27.5256 32.9851 27.497 33.7309 27.7889 33.8935C30.4032 35.3564 30.8347 37.6704 30.5841 40.37C30.4667 41.6226 30.5618 42.8975 30.5618 44.3413Z" fill="#8DB230"/>
</svg>
