<svg width="100" height="100" viewBox="0 0 100 100" fill="none" xmlns="http://www.w3.org/2000/svg">
<path d="M43.4978 23.2366C44.7893 24.5027 46.1008 25.7713 47.3947 27.0599C49.0792 28.7389 49.4546 30.3828 48.5736 32.0993C47.7226 33.7607 46.2059 34.3787 43.8957 34.0059C43.8182 33.9934 43.7356 34.0209 43.5403 34.046C44.7968 36.1553 45.0846 38.2721 42.9472 39.8885C40.9824 41.3723 39.0427 40.8343 37.2206 38.9252C37.8639 41.1346 37.7012 42.9011 35.9191 44.0972C34.2097 45.2432 32.5228 44.8828 30.8433 43.6067C30.936 44.1197 31.0261 44.525 31.0811 44.9329C31.3014 46.5443 30.558 48.0481 29.1714 48.8263C27.8099 49.5894 25.9628 49.5419 24.849 48.4559C21.5603 45.2532 17.9837 42.3156 16.4019 37.6866C15.5659 35.242 14.1318 32.995 12.9154 30.688C12.3698 29.6572 12.7877 28.9791 13.4936 28.276C17.5657 24.225 21.6203 20.1589 25.6825 16.0979C26.3307 15.4499 26.9164 14.7167 27.6522 14.1913C28.0927 13.876 28.9387 13.5857 29.3091 13.7984C31.8345 15.2347 34.6702 15.2146 37.3933 15.7076C38.5396 15.9153 39.6985 16.0404 40.8473 16.2305C44.9595 16.9111 46.1383 19.8837 43.5028 23.2366H43.4978Z" fill="#01A1FE"/>
<path d="M76.7439 43.4846C75.4299 44.8333 74.166 46.1544 72.8745 47.4505C71.2652 49.0694 69.6208 49.4423 67.9314 48.6065C66.2545 47.7758 65.6237 46.2695 65.9741 43.955C65.9917 43.8399 65.9541 43.7148 65.9416 43.5872C63.266 44.8858 61.5441 44.7432 60.1925 43.1243C58.856 41.5229 59.0312 39.8064 60.8358 37.2967C58.8785 37.8522 57.114 37.7121 55.9102 35.9581C54.7188 34.2191 55.1142 32.5051 56.3607 30.8437C55.7074 30.9512 55.1443 31.1264 54.5786 31.1239C52.9868 31.1239 51.7354 30.4183 51.0596 28.972C50.3738 27.5058 50.4514 25.9794 51.5877 24.7734C53.4699 22.7767 55.4071 20.8225 57.4469 18.9909C58.2854 18.2352 59.4317 17.8049 60.4679 17.2869C63.4312 15.8031 66.4121 14.3569 69.3755 12.8731C70.2866 12.4177 70.9498 12.7305 71.5955 13.381C74.176 15.9783 76.769 18.563 79.3569 21.1528C81.4168 23.212 83.4566 25.2913 85.544 27.3206C86.3924 28.1438 86.3123 28.887 85.9845 29.9879C85.2386 32.4751 84.7756 35.0473 84.2475 37.5945C84.0122 38.733 83.9171 39.899 83.7294 41.045C83.0912 44.9309 79.9976 46.0894 76.7389 43.4796L76.7439 43.4846Z" fill="#01A1FE"/>
<path d="M23.2399 56.5155C24.5189 55.2018 25.7553 53.9107 27.0142 52.6421C28.7587 50.8831 30.5432 50.5077 32.2652 51.5061C33.9246 52.4694 34.4577 54.1159 33.9171 56.3753C34.8682 56.0926 35.9068 55.4996 36.898 55.5696C37.8741 55.6397 38.9954 56.1802 39.7087 56.8733C41.2054 58.327 40.9376 60.3112 39.1255 62.6908C41.1979 62.1278 43.02 62.3155 44.1838 64.2121C45.2275 65.9111 44.8295 67.56 43.5931 69.1614C44.1212 69.0613 44.5492 68.9512 44.9822 68.9062C46.6291 68.736 47.9181 69.3516 48.7815 70.7653C49.5875 72.0889 49.5649 73.9781 48.4862 75.0865C45.3451 78.3168 42.4869 81.8574 37.9692 83.4688C35.4138 84.3796 33.0586 85.8584 30.6233 87.1019C29.8474 87.4998 29.1817 87.3947 28.581 86.7942C23.7805 82 18.9675 77.2159 14.2146 72.3742C13.8417 71.9939 13.5814 71.013 13.8066 70.6177C15.2833 68.0129 15.2182 65.0854 15.7438 62.2854C15.9516 61.182 16.0642 60.0635 16.2444 58.9551C16.8826 55.0617 19.9787 53.8957 23.2349 56.5104L23.2399 56.5155Z" fill="#01A1FE"/>
<path d="M56.5102 76.7459C55.1987 75.4723 53.9072 74.2388 52.6383 72.9827C50.8963 71.2587 50.5109 69.5797 51.4294 67.8507C52.3455 66.1292 53.9673 65.5537 56.3676 66.0917C56.4401 66.1092 56.5227 66.0817 56.6003 66.0717C55.1086 63.8197 55.1161 61.9106 56.6203 60.4268C58.1571 58.9105 59.9792 59.0181 62.6873 60.8146C62.1266 58.9205 62.2643 57.184 63.9562 55.9754C65.7082 54.7218 67.4577 55.0922 69.1271 56.3808C69.0245 55.6777 68.8418 55.0671 68.8618 54.4616C68.9119 52.8727 69.6577 51.6567 71.1319 51.0236C72.5785 50.4031 74.0527 50.5057 75.2141 51.6041C77.2063 53.4883 79.1686 55.4175 80.9957 57.4617C81.774 58.3325 82.207 59.526 82.7451 60.5969C84.2143 63.5195 85.646 66.462 87.1126 69.387C87.5657 70.2928 87.2578 70.9609 86.6046 71.609C83.949 74.2463 81.306 76.8986 78.6605 79.5458C76.6607 81.5451 74.6409 83.5268 72.6712 85.5561C71.8502 86.4018 71.1044 86.3317 70.0031 86.0014C67.5178 85.2558 64.9473 84.7879 62.3994 84.2599C61.2631 84.0247 60.0968 83.9322 58.948 83.742C55.0561 83.1039 53.8822 79.9962 56.5102 76.7459Z" fill="#01A1FE"/>
<path d="M99.1115 21.2677C98.5809 22.3336 98.2555 23.3871 97.6148 24.1878C96.6862 25.3513 95.5625 26.3696 94.4637 27.383C92.7267 28.9819 90.2915 28.9794 88.6095 27.3105C82.9055 21.6556 77.224 15.9781 71.5701 10.2757C69.8456 8.5367 69.8656 6.1096 71.5325 4.33556C72.5287 3.27464 73.5599 2.24125 74.6211 1.24539C76.3505 -0.376019 78.7833 -0.44608 80.4727 1.22287C86.2168 6.89528 91.9283 12.6002 97.5848 18.3627C98.2856 19.0783 98.5709 20.2018 99.114 21.2677H99.1115Z" fill="#01A1FE"/>
<path d="M28.8689 8.44424C28.2883 9.53519 27.9654 10.6787 27.2346 11.4243C21.6382 17.1268 15.9792 22.7666 10.3053 28.394C8.52072 30.163 6.08294 30.138 4.26837 28.414C3.2422 27.4407 2.24106 26.4373 1.26995 25.4114C-0.399456 23.6449 -0.44701 21.2003 1.26995 19.4663C6.91639 13.7588 12.5954 8.08143 18.2994 2.42653C20.0138 0.725056 22.5017 0.755083 24.2587 2.40651C25.3199 3.40237 26.4161 4.38573 27.3197 5.51671C27.9629 6.3199 28.3083 7.3583 28.8664 8.44424H28.8689Z" fill="#01A1FE"/>
<path d="M78.7059 99.1022C77.6572 98.5817 76.606 98.2565 75.8051 97.6159C74.6412 96.6876 73.6251 95.5616 72.6089 94.4632C71.0071 92.7342 71.0021 90.2996 72.674 88.6106C78.3279 82.9057 84.0069 77.2283 89.7084 71.5709C91.4479 69.8469 93.8757 69.8619 95.6502 71.5258C96.7114 72.5217 97.7476 73.5501 98.7387 74.616C100.363 76.36 100.441 78.7721 98.7688 80.4661C93.0673 86.2411 87.3282 91.9785 81.5366 97.6609C80.8508 98.334 79.7521 98.5842 78.7059 99.0997V99.1022Z" fill="#01A1FE"/>
<path d="M8.53566 71.1533C9.56434 71.7163 10.6981 72.0541 11.444 72.7872C17.118 78.3546 22.7244 83.9869 28.3282 89.6243C30.1503 91.4584 30.1478 93.8905 28.3758 95.7546C27.4022 96.7805 26.4036 97.7864 25.3699 98.7497C23.6329 100.371 21.2026 100.444 19.5182 98.7797C13.7466 93.0773 8.01006 87.3373 2.30856 81.5623C0.784319 80.021 0.766799 77.5739 2.18342 75.9875C3.28968 74.7464 4.451 73.5329 5.72996 72.482C6.45579 71.8865 7.46945 71.6412 8.53817 71.1558L8.53566 71.1533Z" fill="#01A1FE"/>
</svg>
