<svg width="575" height="613" viewBox="0 0 575 613" fill="none" xmlns="http://www.w3.org/2000/svg">
<path d="M551.943 113.599C551.96 112.842 551.758 112.096 551.362 111.452C550.966 110.807 550.392 110.29 549.71 109.963C549.028 109.636 548.265 109.512 547.515 109.607C546.764 109.703 546.057 110.012 545.478 110.499C544.898 110.986 544.472 111.63 544.249 112.353C544.026 113.076 544.017 113.849 544.222 114.577C544.426 115.306 544.837 115.96 545.404 116.461C545.971 116.962 546.67 117.289 547.418 117.403V187.015H509.383V241.106H510.694V188.327H548.73V117.403C549.622 117.237 550.429 116.767 551.015 116.074C551.6 115.381 551.928 114.506 551.943 113.599ZM548.008 116.222C547.49 116.222 546.982 116.068 546.551 115.78C546.12 115.492 545.784 115.082 545.585 114.603C545.386 114.123 545.335 113.596 545.436 113.087C545.537 112.578 545.787 112.11 546.154 111.743C546.52 111.376 546.988 111.126 547.497 111.025C548.006 110.924 548.533 110.976 549.012 111.174C549.492 111.373 549.901 111.709 550.19 112.141C550.478 112.572 550.632 113.08 550.632 113.599C550.615 114.272 550.34 114.913 549.864 115.389C549.388 115.865 548.747 116.14 548.074 116.157L548.008 116.222Z" fill="#A6D7FF"/>
<path d="M490.115 146.567C489.155 146.58 488.234 146.949 487.531 147.604C486.828 148.258 486.394 149.15 486.312 150.107C486.23 151.064 486.507 152.017 487.089 152.782C487.67 153.546 488.515 154.066 489.459 154.242V241.105H490.771V154.242C491.715 154.066 492.56 153.546 493.142 152.782C493.724 152.017 494 151.064 493.919 150.107C493.837 149.15 493.402 148.258 492.699 147.604C491.996 146.949 491.075 146.58 490.115 146.567ZM490.115 153.009C489.594 153.022 489.08 152.879 488.64 152.599C488.201 152.318 487.854 151.913 487.646 151.435C487.437 150.957 487.376 150.427 487.469 149.914C487.563 149.401 487.807 148.927 488.172 148.554C488.536 148.18 489.003 147.924 489.513 147.817C490.024 147.71 490.555 147.758 491.038 147.955C491.521 148.151 491.935 148.487 492.226 148.92C492.517 149.353 492.673 149.863 492.673 150.385C492.673 151.069 492.406 151.727 491.928 152.217C491.45 152.707 490.8 152.991 490.115 153.009Z" fill="#A6D7FF"/>
<path d="M399.67 60.4913H328.754C328.589 59.5182 328.066 58.6424 327.286 58.0375C326.507 57.4326 325.528 57.1427 324.545 57.2252C323.562 57.3077 322.646 57.7567 321.978 58.4831C321.31 59.2095 320.939 60.1604 320.939 61.1472C320.939 62.1341 321.31 63.085 321.978 63.8114C322.646 64.5378 323.562 64.9867 324.545 65.0693C325.528 65.1518 326.507 64.8619 327.286 64.257C328.066 63.652 328.589 62.7763 328.754 61.8032H398.359V78.8584H452.421V77.5465H399.67V60.4913ZM324.911 63.7186C324.39 63.7317 323.876 63.589 323.436 63.3087C322.996 63.0284 322.65 62.6233 322.441 62.1452C322.233 61.667 322.171 61.1375 322.265 60.6243C322.359 60.111 322.603 59.6374 322.967 59.2639C323.331 58.8903 323.798 58.6338 324.309 58.5271C324.82 58.4205 325.35 58.4685 325.833 58.665C326.317 58.8615 326.73 59.1976 327.021 59.6304C327.313 60.0632 327.468 60.5731 327.469 61.0948C327.466 61.7706 327.202 62.4192 326.733 62.9056C326.264 63.392 325.625 63.6785 324.95 63.7055L324.911 63.7186Z" fill="#A6D7FF"/>
<path d="M386.241 89.6032C385.485 89.5891 384.741 89.7931 384.098 90.1909C383.454 90.5887 382.94 91.1634 382.615 91.8462C382.29 92.529 382.168 93.291 382.265 94.041C382.361 94.7911 382.672 95.4974 383.159 96.0755C383.647 96.6535 384.291 97.0789 385.014 97.3006C385.736 97.5223 386.508 97.531 387.235 97.3257C387.963 97.1204 388.616 96.7097 389.117 96.1428C389.617 95.5758 389.944 94.8767 390.057 94.1291H450.651V92.8172H390.057C389.891 91.9228 389.419 91.1138 388.723 90.5278C388.027 89.9418 387.15 89.6151 386.241 89.6032ZM386.241 96.0443C385.722 96.0443 385.215 95.8905 384.783 95.6022C384.352 95.3139 384.016 94.9041 383.817 94.4247C383.619 93.9453 383.567 93.4178 383.668 92.9088C383.769 92.3999 384.019 91.9324 384.386 91.5654C384.753 91.1985 385.22 90.9486 385.729 90.8474C386.238 90.7462 386.765 90.7981 387.244 90.9967C387.724 91.1953 388.133 91.5316 388.422 91.963C388.71 92.3945 388.864 92.9018 388.864 93.4207C388.864 94.1165 388.587 94.7838 388.095 95.2759C387.603 95.7679 386.936 96.0443 386.241 96.0443Z" fill="#A6D7FF"/>
<path d="M299.178 192.17C300.08 192.067 300.919 191.654 301.552 191.002C302.185 190.351 302.573 189.5 302.65 188.595C302.728 187.689 302.489 186.785 301.976 186.035C301.463 185.286 300.706 184.737 299.834 184.482V123.871H298.522V184.482C297.65 184.737 296.894 185.286 296.38 186.035C295.867 186.785 295.628 187.689 295.706 188.595C295.783 189.5 296.171 190.351 296.804 191.002C297.437 191.654 298.276 192.067 299.178 192.17ZM299.178 185.729C299.7 185.729 300.209 185.884 300.642 186.176C301.075 186.467 301.411 186.881 301.607 187.364C301.804 187.847 301.852 188.378 301.745 188.889C301.638 189.4 301.382 189.867 301.008 190.231C300.635 190.595 300.161 190.84 299.648 190.934C299.135 191.027 298.606 190.966 298.128 190.757C297.65 190.549 297.245 190.202 296.965 189.762C296.685 189.322 296.542 188.808 296.555 188.287C296.572 187.602 296.856 186.952 297.346 186.474C297.836 185.996 298.494 185.728 299.178 185.729Z" fill="#A6D7FF"/>
<path d="M312.295 171.573V110.961H310.983V171.573C310.01 171.737 309.135 172.262 308.53 173.041C307.925 173.821 307.635 174.799 307.718 175.783C307.8 176.766 308.249 177.683 308.975 178.351C309.702 179.019 310.652 179.39 311.639 179.39C312.625 179.39 313.576 179.019 314.302 178.351C315.028 177.683 315.477 176.766 315.56 175.783C315.642 174.799 315.352 173.821 314.748 173.041C314.143 172.262 313.267 171.737 312.295 171.573ZM311.639 177.949C311.117 177.962 310.604 177.819 310.164 177.539C309.724 177.259 309.378 176.854 309.169 176.376C308.96 175.897 308.899 175.368 308.993 174.855C309.086 174.341 309.331 173.868 309.695 173.494C310.059 173.121 310.526 172.864 311.037 172.758C311.547 172.651 312.078 172.699 312.561 172.895C313.044 173.092 313.458 173.428 313.749 173.861C314.04 174.294 314.196 174.803 314.196 175.325C314.196 176.012 313.927 176.672 313.447 177.162C312.966 177.653 312.312 177.935 311.626 177.949H311.639Z" fill="#A6D7FF"/>
<path d="M68.4218 408.876V407.564H7.81435C7.64992 406.591 7.12604 405.715 6.34654 405.11C5.56703 404.505 4.58878 404.215 3.60565 404.298C2.62252 404.38 1.70626 404.829 1.03845 405.556C0.370632 406.282 0 407.233 0 408.22C0 409.206 0.370632 410.157 1.03845 410.884C1.70626 411.61 2.62252 412.059 3.60565 412.141C4.58878 412.224 5.56703 411.934 6.34654 411.329C7.12604 410.724 7.64992 409.849 7.81435 408.876H68.4218ZM4.0764 410.778C3.55759 410.778 3.05043 410.624 2.61906 410.336C2.18769 410.047 1.85148 409.638 1.65294 409.158C1.4544 408.679 1.40245 408.151 1.50367 407.642C1.60488 407.133 1.85471 406.666 2.22156 406.299C2.58841 405.932 3.05581 405.682 3.56465 405.581C4.07349 405.48 4.60091 405.532 5.08022 405.73C5.55954 405.929 5.96921 406.265 6.25745 406.696C6.54568 407.128 6.69952 407.635 6.69952 408.154C6.69952 408.85 6.42316 409.517 5.93123 410.009C5.4393 410.501 4.77209 410.778 4.0764 410.778Z" fill="#A6D7FF"/>
<path d="M16.9166 416.748C16.1608 416.732 15.4163 416.934 14.7722 417.33C14.1281 417.725 13.6117 418.298 13.2846 418.98C12.9576 419.662 12.8339 420.423 12.9282 421.174C13.0226 421.924 13.331 422.631 13.8166 423.211C14.3022 423.79 14.9445 424.217 15.6665 424.441C16.3886 424.665 17.1599 424.677 17.8881 424.474C18.6164 424.271 19.2708 423.862 19.773 423.297C20.2752 422.732 20.6041 422.034 20.7202 421.287H81.3276V419.975H20.7202C20.5566 419.08 20.0884 418.27 19.3949 417.682C18.7015 417.093 17.8258 416.763 16.9166 416.748ZM16.9166 423.189C16.3951 423.189 15.8854 423.033 15.4527 422.742C15.02 422.451 14.684 422.037 14.4875 421.554C14.2911 421.071 14.2431 420.54 14.3498 420.029C14.4564 419.518 14.7128 419.051 15.0863 418.687C15.4597 418.323 15.9332 418.078 16.4463 417.984C16.9594 417.891 17.4887 417.952 17.9667 418.161C18.4448 418.369 18.8497 418.716 19.1299 419.156C19.4101 419.596 19.5528 420.11 19.5398 420.631C19.5227 421.315 19.2388 421.966 18.7487 422.444C18.2586 422.922 17.6011 423.189 16.9166 423.189Z" fill="#A6D7FF"/>
<path d="M303.834 543.691C302.925 543.706 302.049 544.036 301.356 544.625C300.663 545.213 300.194 546.024 300.031 546.918H230.439V508.872H176.363V510.184H229.128V548.23H300.031C300.147 548.977 300.476 549.675 300.978 550.241C301.48 550.806 302.135 551.214 302.863 551.417C303.591 551.62 304.362 551.609 305.084 551.385C305.806 551.161 306.449 550.734 306.934 550.154C307.42 549.575 307.728 548.867 307.823 548.117C307.917 547.367 307.793 546.605 307.466 545.923C307.139 545.242 306.623 544.668 305.979 544.273C305.335 543.877 304.59 543.675 303.834 543.691ZM303.834 550.133C303.315 550.133 302.808 549.979 302.377 549.69C301.946 549.402 301.609 548.992 301.411 548.513C301.212 548.033 301.16 547.506 301.262 546.997C301.363 546.488 301.613 546.02 301.979 545.653C302.346 545.286 302.814 545.036 303.323 544.935C303.831 544.834 304.359 544.886 304.838 545.085C305.317 545.283 305.727 545.619 306.015 546.051C306.304 546.482 306.457 546.99 306.457 547.509C306.457 548.205 306.181 548.872 305.689 549.364C305.197 549.856 304.53 550.133 303.834 550.133Z" fill="#A6D7FF"/>
<path d="M267.006 493.43C267.761 493.446 268.506 493.245 269.15 492.849C269.794 492.453 270.311 491.88 270.638 491.198C270.965 490.516 271.088 489.755 270.994 489.004C270.9 488.254 270.591 487.547 270.106 486.968C269.62 486.388 268.978 485.961 268.256 485.737C267.534 485.513 266.762 485.502 266.034 485.704C265.306 485.907 264.652 486.316 264.149 486.881C263.647 487.446 263.318 488.144 263.202 488.891H176.363V490.203H263.202C263.366 491.098 263.834 491.908 264.527 492.496C265.221 493.085 266.096 493.415 267.006 493.43ZM267.006 486.989C267.53 486.976 268.046 487.121 268.487 487.404C268.928 487.687 269.275 488.096 269.481 488.578C269.688 489.06 269.745 489.593 269.646 490.108C269.547 490.623 269.296 491.096 268.925 491.467C268.554 491.838 268.081 492.089 267.566 492.188C267.051 492.287 266.519 492.23 266.037 492.023C265.555 491.817 265.146 491.47 264.863 491.029C264.58 490.588 264.435 490.071 264.448 489.547C264.475 488.881 264.754 488.25 265.229 487.782C265.704 487.314 266.339 487.045 267.006 487.028V486.989Z" fill="#A6D7FF"/>
<path d="M44.5509 573.459H27.5006V605.024C26.5278 605.189 25.6523 605.713 25.0476 606.493C24.4428 607.272 24.153 608.251 24.2355 609.234C24.318 610.218 24.7668 611.134 25.493 611.802C26.2192 612.47 27.1698 612.841 28.1564 612.841C29.143 612.841 30.0935 612.47 30.8198 611.802C31.546 611.134 31.9948 610.218 32.0773 609.234C32.1598 608.251 31.87 607.272 31.2652 606.493C30.6605 605.713 29.7849 605.189 28.8122 605.024V574.771H45.8625V520.706H44.5509V573.459ZM30.7139 608.881C30.7138 609.403 30.5581 609.913 30.2669 610.346C29.9756 610.779 29.562 611.115 29.0789 611.311C28.5957 611.508 28.065 611.556 27.5545 611.449C27.0439 611.342 26.5767 611.086 26.2126 610.712C25.8485 610.339 25.604 609.865 25.5103 609.352C25.4167 608.839 25.478 608.309 25.6867 607.831C25.8953 607.353 26.2417 606.948 26.6816 606.668C27.1215 606.387 27.635 606.245 28.1564 606.258C28.8406 606.275 29.4911 606.559 29.969 607.049C30.4468 607.539 30.7141 608.197 30.7139 608.881Z" fill="#A6D7FF"/>
<path d="M61.1432 583.102V522.478H59.8317V583.102C58.8589 583.267 57.9834 583.791 57.3786 584.57C56.7739 585.35 56.484 586.329 56.5665 587.312C56.649 588.296 57.0979 589.212 57.8241 589.88C58.5503 590.548 59.5008 590.919 60.4874 590.919C61.474 590.919 62.4246 590.548 63.1508 589.88C63.877 589.212 64.3258 588.296 64.4083 587.312C64.4909 586.329 64.201 585.35 63.5963 584.57C62.9915 583.791 62.116 583.267 61.1432 583.102ZM60.4743 589.465C59.9715 589.452 59.4836 589.291 59.0717 589.002C58.6599 588.714 58.3423 588.31 58.1587 587.841C57.9752 587.373 57.9338 586.861 58.0397 586.369C58.1457 585.877 58.3943 585.427 58.7545 585.076C59.1146 584.725 59.5703 584.487 60.0646 584.394C60.5588 584.3 61.0697 584.355 61.5332 584.55C61.9967 584.746 62.3923 585.073 62.6706 585.493C62.9488 585.912 63.0973 586.404 63.0974 586.907C63.0976 587.248 63.0293 587.586 62.8967 587.901C62.7641 588.216 62.5698 588.501 62.3253 588.739C62.0808 588.978 61.7911 589.165 61.4732 589.29C61.1553 589.414 60.8157 589.474 60.4743 589.465Z" fill="#A6D7FF"/>
<path d="M475.597 39.395H492.647V7.81658C493.62 7.65211 494.495 7.12808 495.1 6.34835C495.705 5.56862 495.995 4.59009 495.912 3.60668C495.83 2.62327 495.381 1.70675 494.655 1.03874C493.928 0.370737 492.978 0 491.991 0C491.005 0 490.054 0.370737 489.328 1.03874C488.602 1.70675 488.153 2.62327 488.07 3.60668C487.988 4.59009 488.278 5.56862 488.882 6.34835C489.487 7.12808 490.363 7.65211 491.335 7.81658V38.083H474.285V92.1611H475.597V39.395ZM489.434 4.07756C489.447 3.57457 489.607 3.08656 489.896 2.67457C490.185 2.26258 490.589 1.94491 491.057 1.7613C491.525 1.57769 492.038 1.53629 492.529 1.64229C493.021 1.74828 493.47 1.99696 493.822 2.35722C494.173 2.71748 494.41 3.17331 494.503 3.66769C494.597 4.16208 494.543 4.67306 494.347 5.13672C494.152 5.60037 493.824 5.99611 493.405 6.27443C492.986 6.55274 492.494 6.70127 491.991 6.70144C491.307 6.68432 490.657 6.40034 490.179 5.91011C489.701 5.41988 489.433 4.76224 489.434 4.07756Z" fill="#A6D7FF"/>
<path d="M459.006 29.778V90.3896H460.317V29.778C461.29 29.6135 462.166 29.0895 462.77 28.3098C463.375 27.53 463.665 26.5515 463.582 25.5681C463.5 24.5847 463.051 23.6682 462.325 23.0002C461.599 22.3322 460.648 21.9614 459.661 21.9614C458.675 21.9614 457.724 22.3322 456.998 23.0002C456.272 23.6682 455.823 24.5847 455.741 25.5681C455.658 26.5515 455.948 27.53 456.553 28.3098C457.157 29.0895 458.033 29.6135 459.006 29.778ZM459.661 23.4151C460.164 23.4153 460.656 23.5638 461.075 23.8421C461.494 24.1204 461.822 24.5162 462.017 24.9798C462.213 25.4435 462.267 25.9545 462.174 26.4488C462.08 26.9432 461.843 27.3991 461.492 27.7593C461.141 28.1196 460.691 28.3683 460.199 28.4743C459.708 28.5803 459.196 28.5389 458.727 28.3552C458.259 28.1716 457.855 27.854 457.566 27.442C457.278 27.03 457.117 26.542 457.104 26.039C457.095 25.6975 457.155 25.3578 457.279 25.0398C457.404 24.7218 457.591 24.432 457.829 24.1875C458.068 23.9429 458.353 23.7486 458.667 23.6159C458.982 23.4833 459.32 23.415 459.661 23.4151Z" fill="#A6D7FF"/>
<path opacity="0.5" d="M548.074 470.707C548.076 471.156 547.988 471.6 547.818 472.015C547.647 472.429 547.396 472.806 547.079 473.123C546.762 473.44 546.385 473.691 545.971 473.862C545.556 474.033 545.112 474.12 544.664 474.118H4.56146C4.11316 474.12 3.66895 474.033 3.25443 473.862C2.83992 473.691 2.46331 473.44 2.14631 473.123C1.82931 472.806 1.57819 472.429 1.40744 472.015C1.23668 471.6 1.14966 471.156 1.15139 470.707C1.15139 470.26 1.23969 469.817 1.41122 469.404C1.58275 468.991 1.83414 468.616 2.15097 468.3C2.4678 467.984 2.84382 467.734 3.25747 467.564C3.67113 467.394 4.11426 467.308 4.56146 467.31H544.664C545.111 467.308 545.554 467.394 545.968 467.564C546.381 467.734 546.757 467.984 547.074 468.3C547.391 468.616 547.642 468.991 547.814 469.404C547.985 469.817 548.074 470.26 548.074 470.707Z" fill="#A6D7FF"/>
<path d="M234.558 135.271H81.2098C70.9167 135.271 62.5724 143.618 62.5724 153.914V448.667C62.5724 458.964 70.9167 467.31 81.2098 467.31H234.558C244.851 467.31 253.195 458.964 253.195 448.667V153.914C253.195 143.618 244.851 135.271 234.558 135.271Z" fill="#223D94"/>
<path d="M170.304 446.581C170.306 449.042 169.579 451.449 168.214 453.496C166.849 455.543 164.907 457.139 162.634 458.082C160.362 459.025 157.861 459.273 155.448 458.793C153.035 458.314 150.818 457.129 149.078 455.389C147.339 453.649 146.154 451.431 145.675 449.018C145.195 446.604 145.443 444.102 146.385 441.829C147.328 439.556 148.924 437.613 150.971 436.248C153.017 434.882 155.423 434.155 157.883 434.157C161.176 434.161 164.334 435.471 166.662 437.8C168.991 440.129 170.3 443.287 170.304 446.581Z" fill="white"/>
<path d="M182.344 156.38C182.344 157.1 182.058 157.791 181.548 158.3C181.039 158.809 180.349 159.096 179.629 159.096H136.124C135.404 159.096 134.714 158.809 134.204 158.3C133.695 157.791 133.409 157.1 133.409 156.38C133.409 155.66 133.695 154.969 134.204 154.46C134.714 153.951 135.404 153.665 136.124 153.665H179.629C179.986 153.663 180.34 153.732 180.67 153.868C181 154.004 181.3 154.204 181.552 154.456C181.805 154.709 182.005 155.009 182.141 155.339C182.276 155.669 182.345 156.023 182.344 156.38Z" fill="white"/>
<path d="M160.336 145.924C160.338 146.413 160.196 146.892 159.926 147.299C159.656 147.707 159.271 148.025 158.82 148.213C158.369 148.402 157.872 148.452 157.392 148.357C156.913 148.262 156.472 148.027 156.126 147.681C155.781 147.336 155.546 146.895 155.451 146.415C155.356 145.936 155.406 145.439 155.595 144.988C155.783 144.536 156.101 144.151 156.508 143.881C156.916 143.611 157.394 143.469 157.883 143.471C158.533 143.475 159.154 143.734 159.614 144.194C160.073 144.653 160.332 145.275 160.336 145.924Z" fill="white"/>
<path d="M244.841 165.813H70.9277V427.545H244.841V165.813Z" fill="#DCC5F9"/>
<path opacity="0.5" d="M70.9277 427.545L244.841 165.813V427.545H70.9277Z" fill="#D0B7F9"/>
<path d="M229.889 179.405H85.8788V243.375H229.889V179.405Z" fill="white"/>
<g opacity="0.4">
<path opacity="0.4" d="M146.079 194.86L167.615 223.29L179.419 207.704L197.558 231.66H173.95H161.28H118.195L146.079 194.86Z" fill="#9EC7EF"/>
<path opacity="0.4" d="M164.532 201.262C164.532 202.137 164.791 202.991 165.277 203.718C165.763 204.445 166.453 205.012 167.261 205.347C168.068 205.681 168.957 205.769 169.814 205.598C170.672 205.428 171.459 205.007 172.078 204.388C172.696 203.77 173.117 202.982 173.287 202.125C173.458 201.267 173.37 200.378 173.036 199.57C172.701 198.763 172.135 198.072 171.408 197.586C170.681 197.101 169.826 196.841 168.952 196.841C167.78 196.841 166.656 197.307 165.827 198.136C164.998 198.965 164.532 200.09 164.532 201.262Z" fill="#9EC7EF"/>
</g>
<path d="M150.932 265.337H85.8788V268.237H150.932V265.337Z" fill="#B492F4"/>
<path d="M150.932 272.448H85.8788V275.347H150.932V272.448Z" fill="#B492F4"/>
<path d="M150.932 279.558H85.8788V282.457H150.932V279.558Z" fill="#B492F4"/>
<path d="M150.932 286.669H85.8788V289.568H150.932V286.669Z" fill="#B492F4"/>
<path d="M150.932 252.611H85.8788V259.013H150.932V252.611Z" fill="white"/>
<path d="M229.889 252.611H164.835V259.013H229.889V252.611Z" fill="white"/>
<path d="M229.889 265.337H164.835V268.237H229.889V265.337Z" fill="#B492F4"/>
<path d="M229.889 272.448H164.835V275.347H229.889V272.448Z" fill="#B492F4"/>
<path d="M229.889 279.558H164.835V282.457H229.889V279.558Z" fill="#B492F4"/>
<path d="M229.889 286.669H164.835V289.568H229.889V286.669Z" fill="#B492F4"/>
<path d="M150.933 310.835H85.8789V313.734H150.933V310.835Z" fill="#B492F4"/>
<path d="M150.932 317.933H85.8788V320.832H150.932V317.933Z" fill="#B492F4"/>
<path d="M150.932 325.043H85.8788V327.943H150.932V325.043Z" fill="#B492F4"/>
<path d="M150.932 332.154H85.8788V335.053H150.932V332.154Z" fill="#B492F4"/>
<path d="M150.932 298.096H85.8788V304.498H150.932V298.096Z" fill="white"/>
<path d="M229.889 298.096H164.835V304.498H229.889V298.096Z" fill="white"/>
<path d="M229.888 310.835H164.834V313.734H229.888V310.835Z" fill="#B492F4"/>
<path d="M229.889 317.933H164.835V320.832H229.889V317.933Z" fill="#B492F4"/>
<path d="M229.889 325.043H164.835V327.943H229.889V325.043Z" fill="#B492F4"/>
<path d="M229.889 332.154H164.835V335.053H229.889V332.154Z" fill="#B492F4"/>
<path d="M152.192 348.095H85.8788V414.426H152.192V348.095Z" fill="white"/>
<g opacity="0.4">
<path opacity="0.4" d="M111.362 370.515L124.216 387.478L131.246 378.177L142.066 392.464H127.98H120.425H94.7316L111.362 370.515Z" fill="#9EC7EF"/>
<path opacity="0.4" d="M122.366 374.346C122.366 374.865 122.52 375.372 122.808 375.803C123.097 376.235 123.506 376.571 123.986 376.77C124.465 376.968 124.992 377.02 125.501 376.919C126.01 376.818 126.477 376.568 126.844 376.201C127.211 375.834 127.461 375.367 127.562 374.858C127.663 374.349 127.612 373.821 127.413 373.342C127.214 372.862 126.878 372.453 126.447 372.164C126.015 371.876 125.508 371.722 124.99 371.722C124.294 371.722 123.627 371.999 123.135 372.491C122.643 372.983 122.366 373.65 122.366 374.346Z" fill="#9EC7EF"/>
</g>
<path d="M229.889 348.095H164.835V354.496H229.889V348.095Z" fill="white"/>
<path d="M229.889 360.82H164.835V363.719H229.889V360.82Z" fill="#B492F4"/>
<path d="M229.889 367.93H164.835V370.829H229.889V367.93Z" fill="#B492F4"/>
<path d="M229.889 375.042H164.835V377.941H229.889V375.042Z" fill="#B492F4"/>
<path d="M229.889 382.139H164.835V385.038H229.889V382.139Z" fill="#B492F4"/>
<path d="M229.889 389.25H164.835V392.149H229.889V389.25Z" fill="#B492F4"/>
<path d="M229.889 396.36H164.835V399.259H229.889V396.36Z" fill="#B492F4"/>
<path d="M229.889 403.471H164.835V406.37H229.889V403.471Z" fill="#B492F4"/>
<path d="M229.889 410.569H164.835V413.468H229.889V410.569Z" fill="#B492F4"/>
<path d="M465.472 263.842H213.337C207.614 263.842 202.975 268.482 202.975 274.206V446.739C202.975 452.463 207.614 457.104 213.337 457.104H465.472C471.194 457.104 475.833 452.463 475.833 446.739V274.206C475.833 268.482 471.194 263.842 465.472 263.842Z" fill="#4D7AC1"/>
<path d="M465.852 276.437H212.943V444.496H465.852V276.437Z" fill="#223D94"/>
<path d="M182.252 444.548V455.384C182.266 458.549 183.529 461.579 185.768 463.816C188.006 466.052 191.037 467.313 194.2 467.323H484.594C487.756 467.313 490.786 466.052 493.022 463.815C495.258 461.578 496.519 458.548 496.529 455.384V444.561L182.252 444.548Z" fill="#5BA1F4"/>
<path d="M286.26 444.548V448.208C286.263 449.278 286.69 450.304 287.447 451.061C288.204 451.818 289.229 452.245 290.299 452.248H388.496C389.567 452.245 390.592 451.818 391.349 451.061C392.106 450.304 392.532 449.278 392.536 448.208V444.548H286.26Z" fill="#8DC6FF"/>
<path d="M276.055 287.731H223.593V291.667H276.055V287.731Z" fill="#9EC7EF"/>
<path d="M411.593 287.731H295.297V291.667H411.593V287.731Z" fill="#DCC5F9"/>
<path d="M259.831 300.852H223.593V304.787H259.831V300.852Z" fill="#9EC7EF"/>
<path d="M353.438 300.852H273.118V304.787H353.438V300.852Z" fill="#DCC5F9"/>
<path d="M263.241 313.971H223.593V317.906H263.241V313.971Z" fill="#9EC7EF"/>
<path d="M365.688 313.971H277.787V317.906H365.688V313.971Z" fill="#DCC5F9"/>
<path d="M247.358 327.09H223.593V331.026H247.358V327.09Z" fill="#9EC7EF"/>
<path d="M401.52 327.09H256.067V331.026H401.52V327.09Z" fill="#DCC5F9"/>
<path d="M276.055 340.209H223.593V344.145H276.055V340.209Z" fill="#9EC7EF"/>
<path d="M411.593 340.209H295.297V344.145H411.593V340.209Z" fill="#DCC5F9"/>
<path d="M259.831 353.329H223.593V357.264H259.831V353.329Z" fill="#9EC7EF"/>
<path d="M353.438 353.329H273.118V357.264H353.438V353.329Z" fill="#DCC5F9"/>
<path d="M268.737 366.448H223.593V370.384H268.737V366.448Z" fill="#9EC7EF"/>
<path d="M385.348 366.448H285.289V370.384H385.348V366.448Z" fill="#DCC5F9"/>
<path d="M247.358 379.567H223.593V383.503H247.358V379.567Z" fill="#9EC7EF"/>
<path d="M401.52 379.567H256.067V383.503H401.52V379.567Z" fill="#DCC5F9"/>
<path d="M280.567 392.687H223.593V396.622H280.567V392.687Z" fill="#9EC7EF"/>
<path d="M427.765 392.687H301.461V396.622H427.765V392.687Z" fill="#DCC5F9"/>
<path d="M272.278 405.806H223.593V409.742H272.278V405.806Z" fill="#9EC7EF"/>
<path d="M398.044 405.806H290.129V409.742H398.044V405.806Z" fill="#DCC5F9"/>
<path d="M266.651 418.926H223.593V422.861H266.651V418.926Z" fill="#9EC7EF"/>
<path d="M377.899 418.926H282.443V422.861H377.899V418.926Z" fill="#DCC5F9"/>
<path d="M249.404 432.045H223.593V435.981H249.404V432.045Z" fill="#9EC7EF"/>
<path d="M416.839 432.045H258.861V435.981H416.839V432.045Z" fill="#DCC5F9"/>
<path d="M526.079 383.529V369.452H518.472C517.396 362.91 514.824 356.705 510.957 351.321L516.347 345.929L506.406 335.998L501.015 341.39C495.64 337.516 489.44 334.943 482.902 333.872V326.25H468.79V333.872C462.248 334.943 456.044 337.516 450.664 341.39L445.287 335.998L435.332 345.942L440.722 351.334C436.85 356.716 434.277 362.922 433.207 369.465H425.587V383.542H433.207C434.293 390.057 436.865 396.234 440.722 401.595L435.332 406.987L445.287 416.944L450.664 411.552C456.048 415.418 462.251 417.991 468.79 419.07V426.679H482.863V419.07C489.399 417.993 495.598 415.42 500.976 411.552L506.366 416.944L516.321 406.987L510.931 401.595C514.797 396.215 517.369 390.015 518.446 383.477L526.079 383.529ZM475.846 405.452C470.119 405.452 464.52 403.753 459.757 400.57C454.995 397.387 451.283 392.863 449.091 387.57C446.899 382.276 446.326 376.452 447.443 370.833C448.561 365.214 451.319 360.052 455.369 356.001C459.419 351.95 464.579 349.191 470.196 348.073C475.814 346.955 481.637 347.529 486.928 349.722C492.22 351.914 496.743 355.627 499.925 360.391C503.107 365.154 504.805 370.755 504.805 376.484C504.807 380.291 504.058 384.061 502.602 387.578C501.146 391.095 499.01 394.29 496.318 396.98C493.626 399.671 490.43 401.804 486.912 403.258C483.395 404.711 479.626 405.457 475.82 405.452H475.846Z" fill="#A6D7FF"/>
<path d="M319.206 273.248V254.435H309.028C307.594 245.696 304.16 237.408 298.994 230.216L306.195 223.014L292.896 209.711L285.695 216.913C278.506 211.746 270.219 208.312 261.484 206.877V196.696H242.676V206.877C233.941 208.314 225.655 211.749 218.464 216.913L211.303 209.711L198.004 223.014L205.217 230.216C200.048 237.407 196.61 245.696 195.171 254.435H184.993V273.248H195.171C196.612 281.986 200.05 290.274 205.217 297.466L198.004 304.669L211.303 317.972L218.504 310.756C225.694 315.925 233.979 319.364 242.715 320.806V330.986H261.523V320.806C270.26 319.366 278.546 315.927 285.734 310.756L292.935 317.972L306.234 304.669L299.034 297.466C304.191 290.27 307.624 281.984 309.067 273.248H319.206ZM252.08 302.543C244.427 302.543 236.947 300.274 230.584 296.021C224.221 291.768 219.262 285.724 216.334 278.652C213.405 271.58 212.639 263.798 214.132 256.291C215.625 248.783 219.31 241.887 224.721 236.475C230.132 231.062 237.026 227.376 244.531 225.883C252.037 224.389 259.816 225.156 266.886 228.085C273.956 231.014 279.999 235.975 284.25 242.34C288.502 248.704 290.771 256.187 290.771 263.841C290.771 274.106 286.694 283.95 279.438 291.208C272.182 298.466 262.341 302.543 252.08 302.543Z" fill="#A6D7FF"/>
<path d="M458.115 177.122V164.698H451.4C450.449 158.925 448.183 153.448 444.776 148.692L449.524 143.943L440.75 135.153L435.989 139.916C431.24 136.503 425.769 134.231 420.001 133.277V126.56H407.58V133.277C401.81 134.227 396.338 136.499 391.592 139.916L386.831 135.153L378.044 143.943L382.805 148.692C379.388 153.443 377.12 158.922 376.181 164.698H369.453V177.122H376.181C377.123 182.894 379.39 188.368 382.805 193.115L378.044 197.864L386.831 206.654L391.592 201.892C396.338 205.308 401.81 207.58 407.58 208.53V215.3H420.001V208.582C425.769 207.628 431.24 205.357 435.989 201.944L440.75 206.706L449.524 197.916L444.763 193.115C448.175 188.365 450.446 182.892 451.4 177.122H458.115ZM413.784 196.46C408.731 196.458 403.793 194.957 399.593 192.147C395.393 189.337 392.121 185.345 390.189 180.675C388.257 176.004 387.753 170.866 388.74 165.91C389.728 160.953 392.162 156.401 395.736 152.828C399.309 149.255 403.862 146.822 408.818 145.837C413.773 144.852 418.91 145.359 423.577 147.294C428.245 149.228 432.235 152.504 435.041 156.706C437.848 160.909 439.346 165.85 439.346 170.904C439.346 174.261 438.685 177.585 437.4 180.687C436.116 183.788 434.232 186.606 431.859 188.979C429.485 191.353 426.667 193.235 423.565 194.519C420.464 195.802 417.14 196.462 413.784 196.46Z" fill="#A6D7FF"/>
<path d="M421.941 248.217H339.522V165.774H421.941V248.217ZM340.834 246.905H420.63V167.086H340.834V246.905Z" fill="#EFC45E"/>
<path d="M415.005 172.592H346.804V240.813H415.005V172.592Z" fill="#EFC45E"/>
<path d="M371.084 203.881V207.193H367.268V203.881H365.324V212.281H367.268V208.837H371.084V212.281H373.028V203.881H371.084ZM376.756 212.281H378.7V205.465H381.388V203.881H374.068V205.465H376.756V212.281ZM391.902 212.281L391.878 203.881H390.282L387.186 209.101L384.042 203.881H382.434V212.281H384.258V207.349L386.718 211.393H387.594L390.066 207.241L390.078 212.281H391.902ZM365.324 227.281H371.48V225.697H367.268V218.881H365.324V227.281Z" fill="#223D94"/>
<path d="M332.623 155.173H276.317V98.8516H332.623V155.173ZM277.629 153.861H331.311V100.164H277.629V153.861Z" fill="#7946F2"/>
<path d="M327.563 104.294H281.317V150.553H327.563V104.294Z" fill="#7946F2"/>
<path d="M299.719 133.138C301.838 133.138 302.955 132.047 302.955 129.825V123.996H297.729V125.665H300.888V129.941C300.888 130.929 300.451 131.43 299.616 131.43C298.974 131.43 298.435 131.096 297.947 130.442L296.792 131.828C297.446 132.676 298.512 133.138 299.719 133.138ZM301.016 149.138C303.584 149.138 304.829 147.854 304.829 146.352C304.829 143.052 299.604 144.195 299.604 142.538C299.604 141.973 300.079 141.511 301.311 141.511C302.107 141.511 302.968 141.742 303.802 142.217L304.444 140.638C303.61 140.111 302.454 139.842 301.324 139.842C298.769 139.842 297.536 141.113 297.536 142.641C297.536 145.979 302.762 144.824 302.762 146.506C302.762 147.058 302.261 147.469 301.029 147.469C299.95 147.469 298.82 147.084 298.063 146.531L297.357 148.098C298.153 148.714 299.591 149.138 301.016 149.138Z" fill="white"/>
<path d="M498.078 115.408H441.772V59.0869H498.078V115.408ZM443.084 114.097H496.766V60.3989H443.084V114.097Z" fill="#5BA1F4"/>
<path d="M492.663 63.6836H446.417V109.943H492.663V63.6836Z" fill="#5BA1F4"/>
<path d="M463.928 91.3517C465.27 91.3517 466.381 90.8677 467.107 89.9767L465.963 88.9207C465.446 89.5257 464.797 89.8337 464.027 89.8337C462.586 89.8337 461.563 88.8217 461.563 87.3697C461.563 85.9177 462.586 84.9057 464.027 84.9057C464.797 84.9057 465.446 85.2137 465.963 85.8077L467.107 84.7517C466.381 83.8717 465.27 83.3877 463.939 83.3877C461.541 83.3877 459.759 85.0487 459.759 87.3697C459.759 89.6907 461.541 91.3517 463.928 91.3517ZM470.776 91.3517C472.976 91.3517 474.043 90.2517 474.043 88.9647C474.043 86.1377 469.566 87.1167 469.566 85.6977C469.566 85.2137 469.973 84.8177 471.029 84.8177C471.711 84.8177 472.448 85.0157 473.163 85.4227L473.713 84.0697C472.998 83.6187 472.008 83.3877 471.04 83.3877C468.851 83.3877 467.795 84.4767 467.795 85.7857C467.795 88.6457 472.272 87.6557 472.272 89.0967C472.272 89.5697 471.843 89.9217 470.787 89.9217C469.863 89.9217 468.895 89.5917 468.246 89.1187L467.641 90.4607C468.323 90.9887 469.555 91.3517 470.776 91.3517ZM462.773 104.352C464.973 104.352 466.04 103.252 466.04 101.965C466.04 99.1377 461.563 100.117 461.563 98.6977C461.563 98.2137 461.97 97.8177 463.026 97.8177C463.708 97.8177 464.445 98.0157 465.16 98.4227L465.71 97.0697C464.995 96.6187 464.005 96.3877 463.037 96.3877C460.848 96.3877 459.792 97.4767 459.792 98.7857C459.792 101.646 464.269 100.656 464.269 102.097C464.269 102.57 463.84 102.922 462.784 102.922C461.86 102.922 460.892 102.592 460.243 102.119L459.638 103.461C460.32 103.989 461.552 104.352 462.773 104.352Z" fill="white"/>
<path d="M523.626 290.238H456.565V223.171H523.599L523.626 290.238ZM457.903 288.926H522.314V224.483H457.877L457.903 288.926Z" fill="#7946F2"/>
<path d="M517.367 228.893H462.098V284.178H517.367V228.893Z" fill="#7946F2"/>
<path d="M478.975 261.163C480.625 261.163 481.495 260.313 481.495 258.583V254.043H477.425V255.343H479.885V258.673C479.885 259.443 479.545 259.833 478.895 259.833C478.395 259.833 477.975 259.573 477.595 259.063L476.695 260.143C477.205 260.803 478.035 261.163 478.975 261.163ZM488.179 261.043H489.879L486.749 254.043H485.149L482.029 261.043H483.689L484.309 259.543H487.559L488.179 261.043ZM484.829 258.313L485.939 255.633L487.049 258.313H484.829ZM495.345 254.043L493.185 259.043L491.055 254.043H489.305L492.325 261.043H493.925L496.955 254.043H495.345ZM482.915 273.043H484.615L481.485 266.043H479.885L476.765 273.043H478.425L479.045 271.543H482.295L482.915 273.043ZM479.565 270.313L480.675 267.633L481.785 270.313H479.565Z" fill="white"/>
<path d="M108.097 454.414H41.0625V387.36H108.097V454.414ZM42.3741 453.102H106.785V388.672H42.3741V453.102Z" fill="#5BA1F4"/>
<path d="M102.309 393.178H47.04V448.463H102.309V393.178Z" fill="#5BA1F4"/>
<path d="M66.9658 417.629H63.6328V425.329H65.4148V423.206H66.9658C69.0228 423.206 70.3098 422.139 70.3098 420.423C70.3098 418.696 69.0228 417.629 66.9658 417.629ZM66.8668 421.754H65.4148V419.081H66.8668C67.9558 419.081 68.5058 419.576 68.5058 420.423C68.5058 421.259 67.9558 421.754 66.8668 421.754ZM76.8621 417.629V420.665H73.3641V417.629H71.5821V425.329H73.3641V422.172H76.8621V425.329H78.6441V417.629H76.8621ZM66.9658 430.629H63.6328V438.329H65.4148V436.206H66.9658C69.0228 436.206 70.3098 435.139 70.3098 433.423C70.3098 431.696 69.0228 430.629 66.9658 430.629ZM66.8668 434.754H65.4148V432.081H66.8668C67.9558 432.081 68.5058 432.576 68.5058 433.423C68.5058 434.259 67.9558 434.754 66.8668 434.754Z" fill="white"/>
<path d="M199.093 532.238H116.674V449.795H199.093V532.238ZM117.985 530.926H197.781V451.107H117.985V530.926Z" fill="#7946F2"/>
<path d="M191.796 456.862H123.595V525.083H191.796V456.862Z" fill="#7946F2"/>
<path d="M151.079 496.885C152.909 496.885 154.424 496.225 155.414 495.01L153.854 493.57C153.149 494.395 152.264 494.815 151.214 494.815C149.249 494.815 147.854 493.435 147.854 491.455C147.854 489.475 149.249 488.095 151.214 488.095C152.264 488.095 153.149 488.515 153.854 489.325L155.414 487.885C154.424 486.685 152.909 486.025 151.094 486.025C147.824 486.025 145.394 488.29 145.394 491.455C145.394 494.62 147.824 496.885 151.079 496.885ZM163.792 490.54H161.182V487.99H159.247V490.54H156.652V492.37H159.247V494.92H161.182V492.37H163.792V490.54ZM152.879 508.54H150.269V505.99H148.334V508.54H145.739V510.37H148.334V512.92H150.269V510.37H152.879V508.54Z" fill="white"/>
<path d="M79.4653 553.281H23.173V496.959H79.4653V553.281ZM24.4845 551.969H78.1538V498.271H24.4845V551.969Z" fill="#EFC45E"/>
<path d="M74.8385 502.087H28.5928V548.346H74.8385V502.087Z" fill="#EFC45E"/>
<path d="M48.8839 522.625L43.1719 524.797V526.357L48.8839 528.529V527.029L44.8879 525.577L48.8839 524.113V522.625ZM49.2155 530.977H50.8835L54.8435 519.673H53.1755L49.2155 530.977ZM43.1719 537.625V539.113L47.1679 540.577L43.1719 542.029V543.529L48.8839 541.357V539.797L43.1719 537.625Z" fill="#223D94"/>
<path d="M143.391 97.3954L132.177 101.515L143.391 105.595V109.806L127.364 103.706V99.324L143.391 93.2891V97.3954Z" fill="#A6D7FF"/>
<path d="M158.841 84.9326H163.523L152.401 116.682H147.719L158.841 84.9326Z" fill="#A6D7FF"/>
<path d="M183.525 99.324V103.706L167.484 109.806V105.595L178.711 101.515L167.484 97.3954V93.2891L183.525 99.324Z" fill="#A6D7FF"/>
<path d="M249.654 57.7752H244.736V52.8555H242.113V57.7752H237.194V60.3991H242.113V65.3189H244.736V60.3991H249.654V57.7752Z" fill="#A6D7FF"/>
<path d="M523.98 147.079H519.062V142.159H516.439V147.079H511.52V149.703H516.439V154.623H519.062V149.703H523.98V147.079Z" fill="#A6D7FF"/>
<path d="M564.403 266.937H559.485V262.018H556.862V266.937H551.943V269.561H556.862V274.481H559.485V269.561H564.403V266.937Z" fill="#A6D7FF"/>
<path d="M66.7167 51.5433H61.7983V46.6235H59.1752V51.5433H54.2568V54.1672H59.1752V59.087H61.7983V54.1672H66.7167V51.5433Z" fill="#A6D7FF"/>
<path d="M40.5117 190.858H35.5933V185.938H32.9702V190.858H28.0518V193.482H32.9702V198.401H35.5933V193.482H40.5117V190.858Z" fill="#A6D7FF"/>
<path d="M558.173 327.746H553.254V322.826H550.631V327.746H545.713V330.37H550.631V335.29H553.254V330.37H558.173V327.746Z" fill="#A6D7FF"/>
<path d="M30.5175 316.62H25.5991V311.701H22.976V316.62H18.0576V319.244H22.976V324.164H25.5991V319.244H30.5175V316.62Z" fill="#A6D7FF"/>
<path d="M301.526 507.56H296.608V502.64H293.985V507.56H289.066V510.184H293.985V515.104H296.608V510.184H301.526V507.56Z" fill="#A6D7FF"/>
<path d="M433.995 551.97H429.077V547.05H426.454V551.97H421.535V554.593H426.454V559.513H429.077V554.593H433.995V551.97Z" fill="#A6D7FF"/>
<g opacity="0.5">
<path opacity="0.5" d="M363.445 548.401C357.969 548.401 352.616 546.777 348.063 543.733C343.51 540.69 339.961 536.365 337.866 531.304C335.77 526.244 335.222 520.675 336.29 515.303C337.358 509.93 339.995 504.996 343.867 501.122C347.739 497.249 352.673 494.612 358.044 493.543C363.414 492.474 368.981 493.023 374.041 495.119C379.1 497.215 383.424 500.765 386.466 505.319C389.508 509.874 391.132 515.228 391.132 520.706C391.125 528.049 388.206 535.089 383.015 540.281C377.824 545.474 370.786 548.394 363.445 548.401ZM363.445 494.336C358.228 494.336 353.128 495.883 348.79 498.783C344.453 501.683 341.072 505.804 339.076 510.626C337.08 515.447 336.559 520.753 337.577 525.871C338.596 530.989 341.109 535.69 344.799 539.379C348.489 543.068 353.19 545.58 358.308 546.597C363.425 547.613 368.728 547.089 373.548 545.09C378.367 543.091 382.485 539.707 385.382 535.367C388.279 531.027 389.823 525.924 389.821 520.706C389.81 513.713 387.028 507.01 382.083 502.066C377.139 497.123 370.436 494.343 363.445 494.336Z" fill="#5BA1F4"/>
<path opacity="0.5" d="M558.173 433.579C554.845 433.579 551.592 432.592 548.824 430.743C546.057 428.893 543.9 426.264 542.627 423.189C541.353 420.113 541.02 416.729 541.669 413.463C542.318 410.198 543.921 407.199 546.274 404.845C548.628 402.491 551.626 400.888 554.89 400.238C558.154 399.589 561.538 399.922 564.613 401.196C567.687 402.47 570.316 404.628 572.165 407.396C574.014 410.164 575 413.418 575 416.747C574.997 421.21 573.223 425.49 570.068 428.646C566.913 431.801 562.635 433.576 558.173 433.579ZM558.173 401.227C555.104 401.227 552.105 402.137 549.553 403.843C547.001 405.548 545.013 407.972 543.838 410.808C542.664 413.644 542.357 416.764 542.955 419.775C543.554 422.786 545.032 425.551 547.202 427.722C549.372 429.892 552.136 431.37 555.146 431.969C558.156 432.568 561.276 432.261 564.111 431.086C566.946 429.911 569.369 427.922 571.074 425.37C572.779 422.818 573.689 419.817 573.689 416.747C573.682 412.633 572.045 408.69 569.137 405.78C566.228 402.871 562.286 401.234 558.173 401.227Z" fill="#5BA1F4"/>
<path opacity="0.5" d="M509.383 528.984C506.636 528.984 503.95 528.169 501.666 526.643C499.382 525.116 497.602 522.946 496.551 520.408C495.499 517.869 495.224 515.075 495.76 512.38C496.296 509.685 497.619 507.21 499.561 505.267C501.504 503.324 503.979 502 506.673 501.464C509.367 500.928 512.16 501.203 514.698 502.255C517.236 503.306 519.405 505.087 520.931 507.372C522.458 509.657 523.272 512.343 523.272 515.091C523.269 518.774 521.804 522.306 519.2 524.911C516.596 527.516 513.065 528.981 509.383 528.984ZM509.383 502.522C506.895 502.522 504.462 503.261 502.394 504.644C500.325 506.027 498.713 507.992 497.761 510.292C496.81 512.592 496.561 515.122 497.048 517.563C497.534 520.004 498.733 522.246 500.494 524.005C502.254 525.764 504.496 526.961 506.937 527.445C509.378 527.929 511.907 527.678 514.205 526.724C516.503 525.77 518.467 524.155 519.847 522.084C521.228 520.013 521.963 517.58 521.961 515.091C521.954 511.757 520.626 508.562 518.268 506.207C515.911 503.851 512.715 502.526 509.383 502.522Z" fill="#5BA1F4"/>
<path opacity="0.5" d="M41.0625 131.571C35.5865 131.571 30.2335 129.947 25.6804 126.904C21.1272 123.861 17.5785 119.535 15.4829 114.475C13.3874 109.414 12.8391 103.845 13.9074 98.4732C14.9757 93.1008 17.6126 88.1661 21.4847 84.2928C25.3569 80.4196 30.2902 77.7819 35.661 76.7133C41.0318 75.6447 46.5987 76.1932 51.6579 78.2893C56.7171 80.3855 61.0412 83.9352 64.0835 88.4897C67.1258 93.0441 68.7496 98.3986 68.7496 103.876C68.7427 111.219 65.8234 118.26 60.6326 123.452C55.4417 128.644 48.4035 131.564 41.0625 131.571ZM41.0625 77.5456C35.8454 77.5456 30.7454 79.0933 26.4077 81.9928C22.0699 84.8924 18.6893 89.0137 16.6934 93.8353C14.6975 98.657 14.1759 103.962 15.1947 109.081C16.2135 114.199 18.7268 118.9 22.4168 122.589C26.1068 126.278 30.8077 128.79 35.9249 129.806C41.0422 130.823 46.3458 130.299 51.1651 128.3C55.9844 126.301 60.1028 122.917 62.9994 118.577C65.896 114.236 67.4407 109.134 67.4381 103.916C67.4277 96.9227 64.645 90.2195 59.7005 85.276C54.756 80.3326 48.0533 77.5525 41.0625 77.5456Z" fill="white"/>
<path opacity="0.5" d="M164.835 62.9832C161.506 62.9832 158.253 61.996 155.486 60.1465C152.718 58.2969 150.562 55.6681 149.288 52.5924C148.014 49.5167 147.681 46.1324 148.33 42.8672C148.98 39.6021 150.582 36.6029 152.936 34.2489C155.289 31.8949 158.287 30.2918 161.552 29.6423C164.816 28.9928 168.199 29.3261 171.274 30.6001C174.349 31.8741 176.977 34.0315 178.826 36.7996C180.675 39.5676 181.662 42.8219 181.662 46.151C181.658 50.6141 179.884 54.8934 176.729 58.0493C173.574 61.2052 169.296 62.9797 164.835 62.9832ZM164.835 30.6308C161.766 30.6308 158.766 31.541 156.214 33.2464C153.663 34.9518 151.674 37.3757 150.5 40.2117C149.325 43.0476 149.018 46.1682 149.617 49.1789C150.216 52.1895 151.693 54.955 153.863 57.1255C156.033 59.296 158.798 60.7742 161.808 61.3731C164.817 61.9719 167.937 61.6646 170.772 60.4899C173.607 59.3152 176.031 57.3259 177.735 54.7736C179.44 52.2213 180.35 49.2206 180.35 46.151C180.343 42.0369 178.706 38.0933 175.798 35.1842C172.89 32.2751 168.947 30.6377 164.835 30.6308Z" fill="#5BA1F4"/>
<path opacity="0.5" d="M30.5303 278.849C27.9741 278.854 25.4737 278.101 23.3458 276.684C21.2178 275.267 19.5579 273.251 18.5761 270.89C17.5943 268.529 17.3347 265.93 17.8302 263.422C18.3257 260.913 19.554 258.608 21.3597 256.798C23.1654 254.988 25.4673 253.755 27.974 253.254C30.4808 252.753 33.0797 253.008 35.4418 253.985C37.804 254.962 39.8232 256.619 41.2439 258.744C42.6646 260.87 43.423 263.37 43.423 265.926C43.423 269.349 42.0655 272.632 39.6484 275.055C37.2313 277.478 33.9521 278.842 30.5303 278.849ZM30.5303 254.329C28.2329 254.324 25.9857 255.001 24.0731 256.274C22.1606 257.547 20.6687 259.359 19.7866 261.481C18.9044 263.603 18.6716 265.939 19.1175 268.193C19.5635 270.448 20.6682 272.519 22.2918 274.145C23.9154 275.771 25.9848 276.878 28.238 277.327C30.4911 277.775 32.8268 277.545 34.949 276.665C37.0713 275.785 38.8847 274.295 40.1598 272.383C41.4348 270.472 42.114 268.225 42.1114 265.926C42.1079 262.854 40.8871 259.908 38.7163 257.734C36.5456 255.56 33.6019 254.336 30.5303 254.329Z" fill="#5BA1F4"/>
</g>
</svg>
