<svg width="84" height="101" viewBox="0 0 84 101" fill="none" xmlns="http://www.w3.org/2000/svg">
<path d="M13.2638 100.192C11.9388 99.7298 11.2555 98.7545 10.7966 97.4468C7.33032 87.6025 3.81236 77.7761 0.316249 67.9417C-0.64518 65.2368 0.632091 63.4355 3.51439 63.4355C29.1711 63.4355 54.8277 63.4355 80.4824 63.4355C83.3647 63.4355 84.644 65.2368 83.6825 67.9417C80.1864 77.7761 76.6685 87.6025 73.2022 97.4468C72.7413 98.7545 72.058 99.7278 70.735 100.192H13.2638ZM42.0312 87.29C43.8726 87.2403 45.6723 86.9118 47.2237 85.7734C49.2359 84.2945 49.2121 82.1768 47.1939 80.694C44.5301 78.7374 39.4607 78.7354 36.8109 80.692C34.7569 82.2066 34.7628 84.3582 36.8486 85.8311C38.3881 86.9178 40.154 87.2482 42.0312 87.292V87.29Z" fill="#5DB8CA"/>
<path d="M55.9799 29.9C55.7435 35.5745 52.4937 39.6587 48.7592 43.3767C45.136 46.9852 38.988 46.9295 35.2614 43.4006C32.8479 41.1157 30.7622 38.5182 29.4273 35.4551C28.6764 33.7294 28.3209 31.8306 27.7865 30.0094C27.8799 29.9756 27.9713 29.9418 28.0646 29.9099C27.6316 29.7607 27.1727 29.6611 26.7695 29.4521C25.4545 28.7714 24.8903 27.0776 25.6511 25.7978C26.0186 25.1808 25.9193 24.731 25.6889 24.1518C24.0501 20.0457 23.2893 15.8182 24.3023 11.4394C25.5597 6.00372 29.2009 2.78332 34.3457 1.22685C40.3229 -0.582383 46.3119 -0.484855 52.0388 2.15237C57.7617 4.78761 60.2527 9.54656 60.1494 15.7445C60.0997 18.7181 59.4025 21.5683 58.2881 24.323C58.149 24.6673 58.0974 25.1788 58.2523 25.4913C59.2277 27.4777 58.4947 29.1695 56.3434 29.7607C56.2182 29.7945 56.101 29.8542 55.9818 29.9H55.9799Z" fill="#5DB8CA"/>
<path d="M76.4361 61.2659H66.8C64.752 61.2659 62.704 61.228 60.6579 61.2838C59.8137 61.3077 59.186 61.0887 58.6894 60.2547C59.1602 60.1194 59.6131 60.004 60.058 59.8607C61.6333 59.3531 62.259 58.4933 62.1934 56.8373C62.0623 53.5253 61.1049 50.4701 59.2913 47.6916C59.1483 47.4707 59.0072 47.2497 58.8682 47.0248C58.8543 47.0009 58.8662 46.9591 58.8662 46.8198C61.3393 47.4329 63.7885 48.0339 66.2338 48.645C67.2886 48.9077 68.3593 49.1326 69.3923 49.467C73.4605 50.7826 76.2355 54.5444 76.4321 58.967C76.4639 59.6875 76.4361 60.41 76.4361 61.2659Z" fill="#5DB8CA"/>
<path d="M7.61251 61.1945C7.16358 55.6971 9.51154 51.5293 14.2233 49.6663C15.6118 49.117 17.1672 48.9995 18.6411 48.6612C20.7209 48.1835 22.7948 47.6839 24.7454 47.2241C23.9965 48.9975 23.1325 50.767 22.5107 52.618C22.0975 53.852 21.9446 55.1975 21.8333 56.5072C21.6585 58.5612 22.3061 59.3932 24.2826 59.9564C24.5945 60.044 24.9083 60.1197 25.3493 60.472C24.8567 60.7367 24.366 61.2243 23.8694 61.2303C18.5935 61.286 13.3155 61.2641 8.03761 61.2601C7.91246 61.2601 7.78732 61.2223 7.61053 61.1964L7.61251 61.1945Z" fill="#5DB8CA"/>
<path d="M34.6317 48.1175C39.1886 52.0604 44.8697 52.0226 49.4882 48.02C49.2577 49.6402 49.1703 51.0354 48.8446 52.3749C48.1831 55.0977 47.3845 57.7867 46.6655 60.4956C46.5165 61.0609 46.2722 61.2917 45.6464 61.2818C43.2071 61.242 40.7658 61.2818 38.3264 61.244C38.0225 61.24 37.5319 60.9972 37.4524 60.7563C36.1533 56.8712 34.9873 52.9521 34.6337 48.84C34.6178 48.649 34.6317 48.4559 34.6317 48.1175Z" fill="#5DB8CA"/>
<path d="M53.1849 57.9603C54.2814 58.9575 55.3799 59.9546 56.4764 60.9518L56.3493 61.1727H48.7572C49.2419 59.459 49.7683 57.7414 50.2132 56.0038C51.117 52.4769 51.8798 48.93 51.4945 45.2419C51.4071 44.402 51.8659 44.0417 52.5512 44.5055C53.9298 45.437 55.3839 46.3645 56.4844 47.5845C58.7429 50.0884 59.7977 53.1755 60.0162 56.5352C60.0937 57.7095 59.6924 58.0976 58.5204 58.0499C57.6305 58.012 56.7446 57.9304 55.8567 57.8687C55.0104 57.809 54.1642 57.7473 53.32 57.6856C53.2743 57.7772 53.2286 57.8687 53.1849 57.9583V57.9603Z" fill="#5DB8CA"/>
<path d="M35.2754 61.2162H27.5144C28.6546 60.0319 29.7035 58.9432 30.9191 57.6793C29.2903 57.7868 27.8918 57.8783 26.4934 57.9699C26.0325 57.9997 25.5697 58.0734 25.1108 58.0495C24.3918 58.0117 23.9091 57.6634 23.9667 56.8632C24.3381 51.6704 26.3384 47.415 30.9887 44.7161C31.3482 44.5071 31.8389 44.527 32.2699 44.4414C32.3394 44.8415 32.4984 45.2475 32.4666 45.6396C32.1189 49.9527 33.2333 54.0409 34.3437 58.1291C34.6199 59.1442 34.9496 60.1434 35.2734 61.2162H35.2754Z" fill="#5DB8CA"/>
</svg>
