<svg width="100" height="67" viewBox="0 0 100 67" fill="none" xmlns="http://www.w3.org/2000/svg">
<path d="M49.4734 33.9639C51.9826 33.9639 54.4944 33.9539 57.0037 33.9639C62.6753 33.9915 67.1136 38.1745 67.2794 43.8088C67.3975 47.854 67.3196 51.9067 67.3045 55.957C67.2995 57.2703 66.7067 58.2653 65.5488 58.9295C61.4923 61.2578 57.4558 63.6288 53.3792 65.9246C50.8121 67.3708 48.1697 67.3532 45.6052 65.9021C41.5688 63.6188 37.57 61.2729 33.5436 58.9721C32.4811 58.3655 31.7527 57.5009 31.7527 56.2878C31.7477 51.7413 31.5744 47.1748 31.931 42.6508C32.3204 37.7109 36.6884 34.0491 41.6918 33.9664C44.2865 33.9238 46.8812 33.9589 49.4734 33.9589V33.9639Z" fill="#8B5CF6"/>
<path d="M17.6114 23.5906C20.3291 23.5906 23.0469 23.5429 25.7646 23.6031C28.6808 23.6682 31.0846 24.9039 32.9986 27.0794C34.1841 28.4278 34.051 29.7812 32.6193 30.8313C27.8494 34.3327 25.5863 39.0471 25.6717 44.9319C25.7018 47.0598 25.6968 49.1877 25.6717 51.3156C25.6491 53.1026 24.569 53.7668 23.0519 52.8971C16.4936 49.1426 9.94037 45.3831 3.41224 41.581C1.28225 40.3403 0.0288655 38.3929 0.00625947 35.9392C-0.011323 33.9267 -0.0389527 31.7562 0.651788 29.9266C2.16891 25.8989 5.35385 23.751 9.71431 23.5981C12.3442 23.5053 14.9815 23.5805 17.6164 23.5805V23.588L17.6114 23.5906Z" fill="#8B5CF6"/>
<path d="M73.4935 47.3454C73.3352 45.1875 73.3679 42.9944 72.9811 40.8766C72.2326 36.7662 70.0121 33.4954 66.6464 31.0041C64.8856 29.7009 64.7525 28.4226 66.247 26.8311C68.1986 24.7534 70.5974 23.6055 73.4684 23.5904C78.7381 23.5629 84.0078 23.5378 89.275 23.5954C94.5975 23.6531 98.7972 27.7284 99.076 33.0293C99.1313 34.0669 99.1313 35.1195 99.0333 36.1521C98.8048 38.5507 97.6368 40.4204 95.547 41.6335C89.0841 45.383 82.6037 49.1074 76.1233 52.8268C74.453 53.7867 73.3704 53.1501 73.3528 51.2352C73.3478 50.5686 73.3553 49.8994 73.3578 49.2327C73.3578 48.6061 73.3578 47.982 73.3578 47.3554C73.4031 47.3529 73.4483 47.3479 73.4935 47.3454Z" fill="#8B5CF6"/>
<path d="M81.3883 0.00061226C87.3212 -0.062046 92.1765 4.69246 92.2568 10.64C92.3372 16.6677 87.5874 21.5901 81.632 21.6528C75.4756 21.7155 70.5801 17.0411 70.4947 11.0134C70.4068 4.89547 75.1842 0.0657768 81.3883 0.00061226Z" fill="#8B5CF6"/>
<path d="M17.5963 0.000567259C23.6949 -0.0219897 28.5527 4.79017 28.5351 10.843C28.5175 16.8506 23.7125 21.6427 17.6917 21.6553C11.6333 21.6678 6.80062 16.9258 6.76545 10.9382C6.73029 4.8428 11.4977 0.025633 17.5963 0.00307604V0.000567259Z" fill="#8B5CF6"/>
<path d="M60.3671 21.2516C60.3671 27.2367 55.5194 32.089 49.5287 32.1015C43.4904 32.114 38.6376 27.2267 38.6628 21.1564C38.6879 15.1762 43.5658 10.3491 49.5589 10.3741C55.547 10.3992 60.3696 15.2514 60.3671 21.2516Z" fill="#8B5CF6"/>
</svg>
