<svg width="356" height="221" viewBox="0 0 356 221" fill="none" xmlns="http://www.w3.org/2000/svg">
<path d="M107.963 123.288C103.533 124.62 97.3398 117.042 94.124 106.36C90.9155 95.6775 91.8982 85.9405 96.3274 84.608C100.764 83.2755 106.958 90.8537 110.174 101.536C113.382 112.211 112.399 121.955 107.963 123.288Z" stroke="#231F20" stroke-miterlimit="10"/>
<path d="M107.963 123.288C103.533 124.62 97.3398 117.042 94.124 106.36C90.9155 95.6775 91.8982 85.9405 96.3274 84.608C100.764 83.2755 106.958 90.8537 110.174 101.536C113.382 112.211 112.399 121.955 107.963 123.288Z" stroke="#231F20" stroke-miterlimit="10"/>
<path d="M107.963 123.288C103.533 124.62 97.3398 117.042 94.124 106.36C90.9155 95.6775 91.8982 85.9405 96.3274 84.608C100.764 83.2755 106.958 90.8537 110.174 101.536C113.382 112.211 112.399 121.955 107.963 123.288Z" fill="#FEFFFF"/>
<path d="M107.963 123.288C103.533 124.62 97.3398 117.042 94.124 106.36C90.9155 95.6775 91.8982 85.9405 96.3274 84.608C100.764 83.2755 106.958 90.8537 110.174 101.536C113.382 112.211 112.399 121.955 107.963 123.288Z" fill="black"/>
<path d="M154.846 128.804L151.541 129.035" stroke="#231F20" stroke-miterlimit="10"/>
<path d="M131.307 56.2603L129.9 57.0047" stroke="#231F20" stroke-miterlimit="10"/>
<path d="M150.833 89.4392C140.754 55.9331 124.101 28.5311 106.637 13.5907H106.63C94.8459 3.49642 82.6747 -0.903082 71.9104 2.33513C45.2082 10.3674 37.2579 62.3872 54.1412 118.524C71.0246 174.66 106.362 213.66 133.064 205.628C144.044 202.322 151.853 191.588 156.067 176.193C157.265 171.824 158.173 167.074 158.784 162.012C161.24 141.541 158.806 115.948 150.833 89.4392ZM131.084 199.055C108.35 205.896 77.166 169.055 61.4439 116.767C45.7144 64.479 51.4018 16.5535 74.1362 9.71974C91.3322 4.54604 113.382 24.3773 129.9 57.005C135.216 67.4864 139.95 79.2854 143.776 92C147.625 104.782 150.193 117.303 151.533 129.035C155.702 165.265 148.258 193.888 131.084 199.055Z" fill="#F2C3C8"/>
<path d="M114.513 100.226C110.077 85.4717 101.449 74.8638 94.7417 75.571C94.3918 75.6082 94.0271 75.6826 93.6772 75.7869C92.5903 76.1144 91.63 76.7471 90.7963 77.6628C86.4563 82.427 85.8534 94.5982 89.7839 107.663C93.7516 120.861 101.077 130.74 107.367 132.176C108.499 132.429 109.585 132.415 110.62 132.109C110.814 132.05 111 131.99 111.178 131.908H111.186C117.543 129.251 119.062 115.345 114.513 100.226ZM107.963 123.288C103.533 124.621 97.3397 117.042 94.1238 106.36C90.9154 95.6776 91.898 85.9407 96.3273 84.6082C100.764 83.2757 106.958 90.8538 110.173 101.536C113.382 112.211 112.399 121.956 107.963 123.288Z" fill="#EA6B73"/>
<path d="M131.084 199.055C108.35 205.896 77.1663 169.055 61.4442 116.767C45.7147 64.479 51.402 16.5535 74.1365 9.71974C91.3325 4.54605 113.382 24.3773 129.901 57.005L94.7419 75.5708C94.3921 75.608 94.0273 75.6824 93.6774 75.7867C92.5906 76.1142 91.6303 76.747 90.7965 77.6626C86.4566 82.4269 85.8536 94.5981 89.7841 107.663C93.7519 120.861 101.077 130.739 107.367 132.176C108.499 132.429 109.586 132.414 110.62 132.109C110.814 132.05 111 131.99 111.179 131.908H111.186L151.533 129.035C155.702 165.265 148.258 193.888 131.084 199.055Z" fill="black"/>
<path d="M114.513 100.226C110.077 85.4714 101.449 74.8634 94.7417 75.5706L129.9 57.0049C135.216 67.4863 139.95 79.2853 143.776 91.9999C147.625 104.782 150.193 117.303 151.533 129.035L111.186 131.908C117.543 129.25 119.062 115.345 114.513 100.226Z" fill="#951F20"/>
<path d="M150.834 89.4394C158.806 115.948 161.241 141.541 158.784 162.02C197.337 119.752 246.052 104.737 281.434 93.7049C284.077 84.2359 284.91 73.6503 283.533 62.6925C280.451 38.164 267.089 18.2434 250.109 9.65283L246.149 10.829C164.099 38.5585 107.494 13.963 106.645 13.5908C124.109 28.5312 140.762 55.9332 150.841 89.4394H150.834ZM187.608 29.8414C187.608 29.8414 190.094 29.6702 194.114 29.2756C205.697 28.159 229.972 25.2558 244.027 19.5685C257.732 14.4618 267.491 44.6404 272.263 54.9357L192.96 31.427L187.608 29.8414Z" fill="#F5EFE7"/>
<path d="M283.533 62.6923C284.91 73.6501 284.076 84.2357 281.434 93.7047C290.143 90.995 298.042 88.5236 304.779 85.9479C347.791 69.4963 335.233 29.2978 335.233 29.2978C329.501 14.1638 318.908 6.6899 308.583 3.10181C294.431 -1.80389 280.779 0.578239 280.779 0.578239L250.116 9.66012C267.096 18.2507 280.459 38.1712 283.541 62.6998L283.533 62.6923ZM271.771 8.71471C271.771 8.71471 291.945 -4.06692 314.486 12.3475C314.486 12.3475 323.672 19.6427 327.759 44.3946C327.759 44.3946 301.801 9.17624 271.779 8.71471H271.771Z" fill="#F4E2DE"/>
<path d="M156.067 176.193C174.119 151.404 205.206 132.697 234.417 119.491C237.521 118.092 240.61 116.752 243.655 115.471C254.419 110.953 264.692 107.208 273.685 104.201C275.255 103.672 276.781 103.166 278.263 102.69C279.506 99.8313 280.57 96.8238 281.434 93.6973C246.052 104.73 197.337 119.744 158.784 162.012C158.174 167.067 157.265 171.824 156.067 176.193Z" fill="#D3D6DE"/>
<path d="M278.263 102.69C290.337 98.7965 299.561 96.3772 303.677 95.3499L303.759 95.335L305.709 94.7543V94.8586C305.933 94.8065 306.052 94.7767 306.052 94.7767C327.231 85.33 329.278 76.3301 329.278 76.3301C359.94 66.8239 354.714 34.5981 354.714 34.5981C344.903 -1.08178 317.464 1.30036 308.575 3.0944C318.908 6.68248 329.494 14.1564 335.226 29.2904C335.226 29.2904 347.784 69.4889 304.771 85.9405C298.035 88.5161 290.136 90.9876 281.427 93.6973C280.563 96.8238 279.499 99.8238 278.255 102.69H278.263Z" fill="#EA6B73"/>
<path d="M187.608 29.834L192.96 31.4196L272.263 54.9283C267.484 44.633 257.732 14.4544 244.027 19.5611C229.973 25.241 205.697 28.1442 194.114 29.2683C190.094 29.6628 187.608 29.834 187.608 29.834Z" fill="white"/>
<path d="M271.772 8.70702C301.801 9.16856 327.752 44.3869 327.752 44.3869C323.665 19.635 314.479 12.3398 314.479 12.3398C291.945 -4.06716 271.764 8.70702 271.764 8.70702H271.772Z" fill="white"/>
<path d="M265.28 208.166L292.943 199.844C299.91 196.069 300.439 189.481 300.439 189.481L305.687 94.8586V94.7544L303.744 95.335L303.662 95.3499C299.546 96.3772 290.322 98.7966 278.248 102.69C276.766 103.166 275.24 103.673 273.67 104.201L272.039 124.836L265.265 208.174L265.28 208.166Z" fill="#F5EFE7"/>
<path d="M251.963 212.178L265.28 208.166L272.054 124.836L248.769 131.886L257.114 129.891L251.963 212.178Z" fill="#F2C3C8"/>
<path d="M243.655 115.472L248.516 131.06L248.769 131.886L272.054 124.836L273.685 104.201C264.692 107.209 254.426 110.953 243.655 115.472Z" fill="black"/>
<path d="M234.417 119.498L238.861 134.26L248.776 131.886L248.523 131.059L243.662 115.471C240.617 116.752 237.536 118.092 234.424 119.491L234.417 119.498Z" fill="#F2C3C8"/>
<path d="M62.5684 220.993L71.7842 196.643L82.742 200.789C82.742 200.789 90.8115 168.377 91.1465 162.02L76.7867 191.484L67.876 189.831L62.5684 221V220.993Z" fill="white"/>
<path d="M0 105.556L25.7866 101.938L27.4168 113.536C27.4168 113.536 59.7245 105.035 65.4565 102.28L32.7171 103.844L29.8883 95.2383L0 105.556Z" fill="white"/>
<path d="M0 189.4L24.7295 161.439L37.3101 172.561C37.3101 172.561 64.6004 133.211 68.2778 124.866L34.057 157.062L22.9578 150.318L0 189.4Z" fill="white"/>
</svg>
