<?xml version="1.0" encoding="UTF-8"?><svg id="Layer_2" xmlns="http://www.w3.org/2000/svg" viewBox="0 0 1484.25 514.64"><defs><style>.cls-1,.cls-2,.cls-3,.cls-4{stroke-width:0px;}.cls-2{fill:#fec206;}.cls-3{fill:#fff;}.cls-4{fill:#fda905;}</style></defs><g id="Layer_1-2"><rect class="cls-4" x="27.06" y="28.66" width="1422.41" height="403.31" rx="201.66" ry="201.66"/><rect class="cls-2" x="0" y="0" width="1422.41" height="403.31" rx="201.66" ry="201.66"/><path class="cls-1" d="M1175.2,223.11s-.01.01-.02.02c0,0,0,0,0,0l.02-.02Z"/><path class="cls-1" d="M1278.45,138.57c-7.81.01-15.68,1.11-23.39-.56-4.08-.88-5.66.66-6.83,4.28-6.84,21.19-13.24,42.49-18.1,64.24-.77,3.43-2.09,6.74-3.16,10.1-4.71-10.42-8.22-20.92-11.83-31.37-4.77-13.82-9.61-27.61-14.46-41.4-1.1-3.13-2.71-5.94-6.69-5.46-5.35.65-10.63.11-15.93-.47-4.02-.44-6.42,1.02-7.82,5.11-6.95,20.27-13.85,40.55-20.29,60.99-1.49,4.73-2.99,9.55-6.15,14.52-2.58-10.98-4.72-21.05-7.51-30.96-2.86-10.19-6.16-20.28-8.16-30.7-1.8-2.07-2.11-4.61-2.32-7.19,0,0,.11-.17.11-.17-.93-.43-1.05-1.22-.97-2.11,0,0,.12.05.12.05-2-2.55-2.11-5.82-3.27-8.69-10.25-1.04-20.49.15-30.73.09-3.9-.02-3.99,2.43-3.02,5.53,4.81,15.37,9.62,30.74,14.21,46.18,6.61,22.23,13.05,44.51,20.62,66.45,1,2.9.79,6.24,4,7.98,0,0,.35-.02.35-.02,8.12-.01,16.25-.16,24.37.02,5.49.12,9.77-1.24,11.44-7.07l.22.2-.2-.22c.25-4.64,2.19-8.71,4.21-12.77-.03-.81-.05-1.62.8-2.08-.06-1.15.22-2.15,1.15-2.91v-.02c-.05-.97.06-1.87.92-2.51l-.11-.27.22-.19.9-1.6c.07-.48.13-.96.2-1.44-.12-.82-.17-1.61.7-2.08.1-1.13-.05-2.34,1.09-3.12-.08-.34.02-.62.3-.83-.14-.8-.21-1.58.71-2,.14-1.06-.13-2.26,1.01-2.97.03-.81-.05-1.67.89-2.1l-.07-.11c2.88-9.04,5.75-18.07,8.63-27.11.47.07.94.14,1.41.22,3.37,9.57,6.88,19.1,10.06,28.74,1.69,5.13,4.42,9.93,5,15.41.21.27.27.57.2.91,1.63,1.67,1.3,4.02,2.1,5.97h0c1.46,2.93,3.19,5.76,3.67,9.08.07.32.15.64.22.96,1.22.73,1.22,1.82.87,3,.13.3.18.61.15.94.27.36.55.71.82,1.07.29.2.36.47.22.79.41.7.82,1.41,1.23,2.11,1.53,1.39,3.24,2.17,5.39,2.14,8.32-.1,16.64-.16,24.96-.13,3.44.01,5.14-1.91,6.06-4.87,4.82-15.55,9.68-31.09,14.43-46.67,7.04-23.04,13.97-46.1,21.02-69.14,1.17-3.83.18-5.79-3.99-5.78Z"/><path class="cls-1" d="M1168.13,243.02s-.03.02-.05.03c0,0,0,.02,0,.03l.05-.06Z"/><path class="cls-1" d="M1121.79,138.71s.02.04.02.07c.05,0,.1,0,.15.01,0,0-.17-.07-.17-.08Z"/><path class="cls-1" d="M1174.19,226.09s-.01,0-.02.01c0,.01,0,.02,0,.04l.02-.05Z"/><path class="cls-1" d="M1172.11,232.01s-.03.02-.05.03c0,.02,0,.04,0,.06l.05-.08Z"/><path class="cls-1" d="M851.61,231.09s0-.03,0-.05c-.02,0-.03,0-.04,0l.05.05Z"/><path class="cls-1" d="M845.72,222.04s-.02-.05-.02-.07c0,0-.01-.01-.02-.02l.04.09Z"/><path class="cls-1" d="M820.38,141.36s.02.03.02.04c0,0,0,0,0,0,0,0-.02-.04-.02-.04Z"/><path class="cls-1" d="M910.06,138.41c-8.81.15-17.63.29-26.44.28-3.7,0-3.25,2.49-3.25,4.8-.04,17.79-.09,35.58-.08,53.38,0,5.37-1.1,10.71.06,16.8-2.67-1.56-4.08-3.2-4.95-5.37l-.03-.06c-1.3-.56-1.98-1.48-1.73-2.94l-.27-.12c-3.34-1.17-4.25-4.6-6.32-6.93-2.47-2.78-5.23-5.4-6.75-8.93l.08.05c-2-1.12-3.02-3.06-4.12-4.93l.22-.15-.22.14c-1.04-.34-1.54-1.09-1.62-2.16l-.23-.28c-.29-.23-.59-.47-.88-.7l-1.13-.88c-.28-.38-.57-.75-.85-1.13l-.06-.19c-1.05-1.26-2.1-2.51-3.14-3.77-1.68-.82-2.1-2.58-2.97-4.01-7.58-8.71-15.04-17.52-21.95-26.78-.33-.41-.66-.82-1-1.22,0,0,.03.04.03.04-1.01-.31-1.61-1.03-2.04-1.94-1.31-.22-2.25-.98-2.95-2.06h-.02c-9.73-2.08-19.57-.59-29.35-.92-3.01-.1-3.46,1.96-3.48,4.34-.05,4.82-.17,9.65-.18,14.47-.02,33.44-.04,66.88-.03,100.32,0,7.46.06,7.44,7.34,7.42,6.83-.02,13.67-.24,20.47.14,4.74.26,6.88-1.17,6.21-6.09-.18-1.28.15-2.64.24-3.96v-65.44c9.81,10.61,18.75,20.26,26.12,31.29h-.14c.65.08.95.48,1.06,1.06,1.47,1.04,2.7,2.24,2.72,4.22l.04.12c.35.28.69.56,1.04.84h0c2.08.56,1.85,2.35,2.09,3.89,3.83.18,3.75,4.24,5.95,6.04h-.03c.33.34.65.69.98,1.03l.03.03c.92.36.88,1.2,1,1.97h0c.35.32.71.65,1.06.97l-.05-.03c.33.36.65.71.98,1.07h0c2.44,3.25,5.49,6.07,7.04,9.94h-.04c.34.35.68.69,1.02,1.04v-.03c1.13.2,1.76.89,1.94,2.02l.04.05c.96.31.98,1.16,1.1,1.95,2.88,3.66,5.96,7.06,10.84,8,8.65-.13,17.3-.46,25.94-.29,4.08.08,5.12-1.54,5.11-5.27-.05-38.74-.02-77.49.09-116.23,0-3.37-1.1-4.95-4.54-4.89Z"/><path class="cls-1" d="M1067.98,161.61s.03-.07.03-.07c-1.23-.5-1.76-1.55-2.16-2.71,0,0,.08-.08.08-.08-.95-.07-1.41-.7-1.71-1.51-.67-.78-1.35-1.55-2.02-2.33-.63-.54-1.26-1.07-1.89-1.61,0,0-.02-.01-.02-.01-.36-.32-.72-.64-1.08-.96,0,0,.06.05.06.05-.45-.34-.91-.67-1.36-1.01-.27-.19-.53-.38-.8-.57-15.12-11.23-31.96-17.37-50.94-16.49-8.06.37-15.94,1.86-23.28,5.83-4.23,2.29-9.02,3.54-13.56,5.26,0,0-.24.17-.24.17l-.24-.17c-28.69,14.86-39.75,54.6-26.62,82,8.76,18.29,21.81,30.73,40.68,37.47.56.2,1.01.73,1.51,1.1,5.75.29,11.33,1.57,16.85,3.1,10.04-.4,19.95-1.22,29.81-3.75,17.35-4.45,30.77-13.78,40.06-29.1,12.38-20.43,13.61-41.49,3.58-63.12-1.86-4.02-4.5-7.67-6.78-11.5ZM1008.1,236.42c-18.83.05-35.33-16.7-35.5-35.92-.12-14.29,13.08-34.58,35.8-33.5,18.93-.15,36.7,15.05,36.85,31.5.21,22.58-14.76,37.85-37.16,37.91Z"/><path class="cls-1" d="M209.03,188.15s0-.02,0-.04c-.02,0-.03,0-.05,0l.05.04Z"/><path class="cls-1" d="M266.96,247.15c-9.54-22.24-17.41-45.13-26.29-67.63-4.62-11.72-9.32-23.4-14.1-35.06-1.61-3.93-4.24-6.26-9.07-6.12-8.41.24-16.82,1.99-25.26.17-2.86-.62-5.54.52-6.7,3.18-2.99,6.86-5.47,13.95-8.45,20.81-3.55,8.18-5.97,16.82-10.2,24.72.55,3.49-.96,6.34-2.82,9.08,0,0,.02.02.02.02.12,1.76-.34,3.2-2.18,3.87-.07.63-.01,1.32-.24,1.9-6.25,16.03-12.53,32.05-18.81,48.08-.1,4.91-4.08,8.92-3.22,14.05,0,0,.25.03.25.03l.02.26c9.15.14,18.3.2,27.45.46,5.24.15,8.72-1.49,9.16-7.28.07-.9.84-1.74,1.29-2.61h-.02c-.08-.98-.02-1.92.89-2.57.08-.46.15-.91.23-1.37.92-2.59-.03-6.2,3.91-7.14.89-.92,1.98-.9,3.12-.65.96-.01,1.91-.02,2.87-.03,2.76-.06,5.52-.12,8.28-.17,7.77-.67,15.54-.51,23.3.01,4.02-.04,9.06-1.92,10.16,4.27.66,3.74,2.67,7,3.22,10.62.74,4.91,3.05,7.35,8.07,7.04,8.74-.13,17.47-.27,26.21-.38,6.41-.08,6.5-.18,4.05-5.82-1.7-3.92-3.43-7.82-5.15-11.73ZM217.86,216.98c-7.93.15-15.86.29-23.79.43-2.82.05-3.44-1.3-2.48-3.78,3.68-9.51,6.84-19.23,11.38-28.4-.04-.82.1-1.57.89-2.03h0c-.16-1.75.7-3.16,1.66-4.8,2.08,1.92,1.74,4.52,2.3,6.79l.07.15c.94.7,1.3,1.63,1.14,2.77.66.09.72.55.67,1.1.29.17.39.42.28.74.82.52.88,1.33.82,2.18l.1.25c1.59,2.37,2.87,4.85,2.98,7.79l.03.05c1.13.69,1.18,1.78,1.09,2.92h-.02c2.74,3.57,3.09,8.05,4.49,12.12.38,1.08-.31,1.84-1.6,1.71Z"/><path class="cls-1" d="M494.92,151.22s-.18-.19-.18-.19c-.79-.22-1.28-.7-1.36-1.55,0,0,.09.07.09.07-.37-.33-.74-.65-1.11-.98,0,0,.07.1.07.1-.97.04-1.65-.38-2.04-1.28-7.38-5.48-16-7.67-24.81-9.33-12.58,0-25.16,0-37.74,0-2.98.18-5.95.46-8.93.51-13.73.24-13.88.22-13.92,14.01-.11,36.55-.06,73.09-.13,109.64,0,1.13.64,1.82.98,2.71,11.26-.03,22.51-.07,33.77-.1-.04-3.81-.14-7.61-.1-11.42.09-9.75.24-19.49.36-29.24.2-1.19.98-.99,1.78-.75.69.05,1.38.09,2.08.14,4.03-.05,8.06-.09,12.09-.14,4.78-.47,9.56-1.03,14.35-1.39,13.8-1.04,24.11-7.94,29.61-20.23,7.59-16.95,6.54-33.83-4.1-49.59-.25-.32-.51-.65-.76-.97ZM453.71,196.21q-13.92.69-14.05-13.04c-.04-3.99.24-8-.12-11.96-.43-4.8,1.33-6.82,6.16-6.13,1.14.16,2.32.02,3.49.02,11.59-.09,16.67,2.79,18.99,10.73,3.22,11.01-3.03,19.81-14.47,20.38Z"/><path class="cls-1" d="M351.78,139.15c-19.23-1.36-38.49-.36-57.72-.98-4.56-.15-5.65,1.24-5.61,5.53.2,22.08-.65,44.15-.28,66.23.31,18.09-.05,36.18-.11,54.27,1.89.53,3.95,1.84,5.63,1.46,7.41-1.67,14.87-.62,22.28-.75,6.43-.11,6.68.08,6.71-6.45.04-10.14.16-20.29.04-30.43-.04-3.19.9-4.42,4.25-4.25,9.29.46,18.55-.54,27.7-1.84,10.18-1.44,18.91-5.96,25.31-14.47,6.7-8.89,8.01-18.95,7.84-29.7-.34-20.94-14.91-36.75-36.04-38.65ZM350.99,185.97c-.95,4.46-3.55,7.39-7.84,8.88-.16.05-.31.13-.47.17-5.57,1.44-11.71,2.64-16.66.12-6.29-3.19-1.53-10.21-3.03-14.26,0-2.37,0-3.71,0-5.04.05-10.86-2.16-10.62,10.78-10.62,13.81,0,20.02,7.58,17.23,20.75Z"/><path class="cls-1" d="M596.07,241.93c0-3.88-1.49-5.25-5.37-5.16-9.81.23-19.63,0-29.45.26-3.93.1-5.06-1.17-5.07-5.14-.04-29.61-.33-59.21-.52-88.82-.01-1.7-.13-3.3-1.27-4.66-8.97-.55-17.92.39-26.88.39-3.81,0-5.2.99-5.32,4.97-1.19,39.18-.03,78.35.35,117.53.01,1.5-.21,3.51,2.17,3.85,6.26-1.23,12.58-.4,18.86-.31,16.31.23,32.61.19,48.92-.07,3.31-.05,4.43-1.17,4.24-4.4-.36-6.14-.65-12.29-.65-18.44Z"/><path class="cls-1" d="M704.77,137.8c-1.43.49-2.89.54-4.35.14-8.61.42-17.22.85-25.83,1.27-1.86.18-2.91,1.55-3.89,2.86-5.59,7.54-11.17,15.09-16.62,22.73-1.42,2-2.11,5.29-4.3,5.81-3.71.88-1.2-4.27-3.79-5.09-.15-.05-.27-.19-.4-.29-5.04-5.59-9.09-11.93-13.51-17.98-.18-.29-.36-.59-.55-.88-1.68-1.67-3.36-3.34-5.04-5.01-1.3-.74-2.6-1.49-3.9-2.23-6.8-1.64-13.71-.6-20.57-.81-4.43-.14-8.86-.2-13.29-.29-.42.09-.85.17-1.27.26-.27,1.01-.54,2.02-.81,3.04,2,2.77,4.01,5.55,6.01,8.33,8.68,12.06,17.22,24.24,26.13,36.14,3.05,4.07,6.66,7.7,8.89,12.35.81.37,1.2,1.01,1.22,1.89,0,0-.08-.04-.08-.04.27.39.55.78.82,1.17,0,0,.02.05.02.05,1.71,1.88,1.69,4.28,1.77,6.55.62,18.45,1.17,36.91.74,55.38.6.62,1.21,1.24,1.81,1.86,1.45-.04,3.2-1.45,4.1.93,6.78-2.28,13.79-1.14,20.59-.68,7.16.48,7.57.77,7.68-6.6.02-1.16.13-2.31.2-3.47-.67-14.61-.27-29.22.42-43.82-.37-2.76-.65-5.51.52-8.17-.06-1.11-.18-2.25,1.12-2.81l.96-1.15c.32-.35.64-.7.97-1.05,7.27-9.77,14.62-19.49,21.8-29.33,4.71-6.46,9.16-13.1,13.73-19.66.45-.47.91-.95,1.36-1.42,0,0-.08-.3-.08-.3l.25-.18c.08-1.17.74-1.82,1.85-2.07,0,0,.02-.02.02-.02q2.86-6.01-4.71-7.37Z"/><path class="cls-1" d="M1299.32,201.85c1.83,0,3.66,0,5.49,0,2.9,2.13,6.15,3.91,8.65,6.43,54.71,55.39,109.35,110.85,163.9,166.4,2.77,2.82,4.61,6.56,6.89,9.87v4.89c-2.53,7.82-7.99,10.7-16.06,10.56-16.98-.3-33.97-.09-50.96-.09h-3.61c.55,1.44.91,2.47,1.33,3.48,11.05,26.23,22.11,52.45,33.15,78.69,2.92,6.94.96,11.86-5.89,14.85-12.48,5.44-24.96,10.85-37.45,16.27-7.24,3.14-12.07,1.2-15.15-6.09-11.38-26.97-22.75-53.95-34.13-80.92-.53-1.27-1.1-2.52-1.75-3.99-1.08.91-1.87,1.54-2.62,2.2-13.34,11.8-26.71,23.56-39.99,35.42-2.98,2.66-6.27,4.09-10.25,3.78-7.28-.57-11.92-6.15-11.92-14.31,0-77.19.05-154.39-.08-231.58-.01-7.95,2.83-13.3,10.45-15.85ZM1455.72,380.35c-49.31-50.06-98.01-99.49-146.99-149.22v204.61c1.08-.92,1.86-1.57,2.61-2.23,12.8-11.33,25.58-22.68,38.4-33.98,6.86-6.04,13.84-4.39,17.41,4.06,11.97,28.37,23.94,56.74,35.91,85.11.45,1.07.96,2.13,1.49,3.3,7.64-3.33,14.96-6.53,22.36-9.76-.52-1.31-.92-2.35-1.35-3.37-11.68-27.72-23.37-55.44-35.05-83.15-3.72-8.83.54-15.33,10.05-15.34,6.61,0,13.22,0,19.83,0,11.48,0,22.97,0,35.34,0Z"/><path class="cls-3" d="M1455.72,380.35c-12.37,0-23.85,0-35.34,0-6.61,0-13.22,0-19.83,0-9.51.01-13.77,6.51-10.05,15.34,11.68,27.72,23.37,55.44,35.05,83.15.43,1.02.83,2.06,1.35,3.37-7.39,3.23-14.72,6.43-22.36,9.76-.53-1.17-1.04-2.22-1.49-3.3-11.97-28.37-23.93-56.74-35.91-85.11-3.57-8.45-10.55-10.1-17.41-4.06-12.82,11.3-25.6,22.65-38.4,33.98-.75.67-1.53,1.31-2.61,2.23v-204.61c48.99,49.73,97.68,99.16,146.99,149.22Z"/></g></svg>