<svg width="25" height="39" viewBox="0 0 25 39" fill="none" xmlns="http://www.w3.org/2000/svg">
<path d="M1.94997 0.102051C2.17806 0.102051 2.40617 0.102051 2.63427 0.102051C2.99573 0.366935 3.4008 0.588293 3.71241 0.901677C10.5316 7.78991 17.342 14.6868 24.1412 21.595C24.4865 21.9457 24.7158 22.4108 25 22.8224V23.4305C24.6847 24.403 24.0041 24.7612 22.9983 24.7437C20.8819 24.7064 18.7642 24.7325 16.6465 24.7325H16.1966C16.2651 24.9116 16.31 25.0397 16.3623 25.1653C17.7396 28.4272 19.1182 31.6879 20.4942 34.9511C20.8582 35.8142 20.6139 36.426 19.7601 36.7978C18.2045 37.4743 16.649 38.1471 15.0922 38.8212C14.1898 39.2116 13.5878 38.9704 13.2039 38.0638C11.7855 34.7099 10.3683 31.3547 8.94987 28.0007C8.88381 27.8428 8.81276 27.6873 8.73175 27.5045C8.59713 27.6177 8.49867 27.696 8.40519 27.7781C6.74246 29.2455 5.076 30.708 3.42075 32.1829C3.04932 32.5137 2.63924 32.6915 2.14317 32.653C1.23577 32.5821 0.65743 31.8882 0.65743 30.8734C0.65743 21.2741 0.663668 11.6736 0.647464 2.07438C0.646218 1.08573 1.0002 0.420409 1.94997 0.103294V0.102051ZM21.444 22.3001C15.2979 16.0747 9.22782 9.92764 3.12285 3.74328V29.1883C3.25747 29.0739 3.35469 28.9931 3.44817 28.911C5.04359 27.502 6.63652 26.0905 8.23443 24.6853C9.08947 23.9342 9.95948 24.1394 10.4044 25.1902C11.8964 28.7182 13.3884 32.2463 14.8804 35.7744C14.9364 35.9074 15 36.0392 15.0661 36.1847C16.0183 35.7706 16.9307 35.3727 17.8531 34.971C17.7882 34.8081 17.7384 34.6788 17.6848 34.5519C16.229 31.1047 14.7719 27.6575 13.3161 24.2115C12.8524 23.1134 13.3834 22.3051 14.5687 22.3038C15.3926 22.3038 16.2165 22.3038 17.0404 22.3038C18.4713 22.3038 19.9034 22.3038 21.4452 22.3038L21.444 22.3001Z" fill="black"/>
</svg>
