<svg width="19" height="34" viewBox="0 0 19 34" fill="none" xmlns="http://www.w3.org/2000/svg">
<path d="M18.444 19.2998C16.9021 19.2998 15.4713 19.2998 14.0391 19.2998C13.2152 19.2998 12.3914 19.2998 11.5675 19.2998C10.3821 19.301 9.85115 20.1094 10.3148 21.2075C11.7706 24.6547 13.2277 28.1019 14.6835 31.5479C14.7371 31.6747 14.787 31.8041 14.8518 31.967C13.9307 32.3687 13.0171 32.7666 12.0648 33.1807C11.9987 33.0352 11.9352 32.9047 11.8791 32.7703C10.3871 29.2423 8.89639 25.7142 7.40318 22.1862C6.9582 21.1353 6.0882 20.9301 5.23315 21.6813C3.63524 23.0865 2.04231 24.498 0.446896 25.907C0.353414 25.9903 0.256195 26.0699 0.121582 26.1843V0.739258C6.2278 6.92362 12.2966 13.0707 18.4427 19.2961L18.444 19.2998Z" fill="white"/>
</svg>
