<svg width="3600" height="446" viewBox="0 0 3600 446" fill="none" xmlns="http://www.w3.org/2000/svg">
<mask id="mask0_1324_148" style="mask-type:alpha" maskUnits="userSpaceOnUse" x="0" y="0" width="3600" height="446">
<path d="M0 0H3600V445.401L0 446V0Z" fill="#007CF5"/>
</mask>
<g mask="url(#mask0_1324_148)">
<path opacity="0.5" d="M1949.94 207.675C1886.01 231.163 1816.5 245.549 1746.7 254.944C1671.91 264.926 1595.66 269.036 1519.7 267.862C1448.14 266.687 1375.99 261.109 1306.19 248.778C1219.08 233.511 1134.03 212.373 1049.86 190.06C965.391 167.747 881.512 144.259 796.459 123.414C711.994 102.569 626.355 85.2473 539.249 72.0356C452.144 58.8239 364.159 49.7226 275.294 45.6123C187.016 41.502 98.1505 41.7956 10.1654 47.961C-76.3534 53.8329 -162.579 64.6958 -246.458 81.7241C-323.298 96.9909 -398.966 119.01 -465.248 153.067C-481.085 161.288 -496.336 170.389 -511 179.784C-409.524 166.866 -306.581 160.407 -203.932 160.407C-100.989 160.407 1.66015 167.16 103.136 180.078C202.56 192.702 301.69 208.263 396.713 234.392C480.886 257.586 560.366 288.413 638.966 320.708C717.273 352.71 794.7 386.473 875.059 415.245C953.953 443.43 1036.07 467.211 1122 479.836C1200.02 491.286 1280.38 493.634 1359.56 487.763C1439.04 481.891 1517.35 468.092 1591.85 446.072C1665.75 424.347 1735.55 394.694 1797.14 357.114C1826.18 339.498 1852.28 319.828 1878.09 299.276C1901.85 280.486 1927.66 260.816 1942.91 237.328C1948.48 228.814 1953.17 217.951 1949.94 207.675Z" fill="url(#paint0_linear_1324_148)"/>
<g opacity="0.5">
<path d="M44.0891 176.197C44.374 175.806 76.0277 131.497 144.587 78.4314C207.905 29.4827 316.397 -37.3202 474.306 -77.4316C648.035 -121.593 791.761 -88.9647 930.798 -57.5035C1035.53 -33.8051 1143.85 -9.28676 1261.96 -19.398C1461.44 -36.4329 1616.04 -103.048 1728.96 -151.665C1770.64 -169.663 1806.49 -185.181 1836.87 -194.644C1942.98 -228.157 2063.91 -216.018 2065.14 -215.866L2065.38 -217.636C2064.15 -217.788 1943.05 -229.901 1836.44 -196.307C1806.08 -186.676 1770.04 -171.3 1728.35 -153.302C1615.61 -104.712 1461.17 -38.1234 1261.86 -21.1151C1143.92 -11.0304 1035.77 -35.5754 931.208 -59.3004C792.002 -90.735 647.938 -123.31 473.871 -79.0954C315.624 -38.9308 206.82 28.0944 143.36 77.2387C74.6581 130.5 43.0044 174.809 42.7196 175.2L44.0891 176.197Z" fill="url(#paint1_linear_1324_148)"/>
<path d="M45.4264 212.193C51.0607 205.069 187.022 36.5827 479.698 -35.4915C526.756 -46.8863 574.443 -53.1831 621.212 -54.3116C723.076 -56.494 819.612 -38.6083 913.142 -21.1153C1026.64 -0.0110348 1143.91 21.8865 1267.28 5.57662C1307.33 0.308577 1348.29 -8.04615 1392.53 -19.6912C1508.92 -50.6652 1610.19 -93.9846 1691.5 -128.79C1746.69 -152.378 1794.42 -172.713 1834.84 -184.449C1934.72 -213.517 2050.78 -204.769 2063.27 -201.365L2063.71 -202.993C2051.05 -206.37 1934.48 -215.038 1834.43 -185.944C1794.01 -174.208 1746.28 -153.873 1690.95 -130.089C1609.64 -95.2837 1508.37 -51.9643 1392.12 -21.1859C1347.9 -9.37187 1307.09 -1.2128 1267.04 4.05524C1144 20.3119 1031.94 -0.49817 913.409 -22.7165C819.88 -40.2095 723.148 -58.2377 621.141 -55.8596C574.177 -54.8736 526.489 -48.5767 479.289 -36.9862C185.964 35.3635 49.6911 204.072 44.0834 211.365L45.4264 212.193Z" fill="url(#paint2_linear_1324_148)"/>
<path d="M46.7639 248.187C48.0457 246.426 194.586 74.7144 485.09 6.44698C532.201 -4.60972 579.825 -10.2038 626.949 -10.1756C715.824 -10.1392 803.653 3.05454 888.644 15.829C1008.95 33.9557 1133.33 52.6535 1258.93 32.875C1263.49 32.1562 1268.06 31.4375 1272.6 30.5497C1311.01 23.6351 1350.91 13.0203 1394.99 -1.88974C1485.12 -32.3674 1567.31 -68.1773 1639.79 -99.6853C1714.21 -132.02 1778.41 -159.973 1833.09 -174.647C1935.37 -201.668 2045.79 -191.338 2061.73 -186.919L2062.17 -188.547C2046.09 -192.771 1935.28 -203.385 1832.57 -175.777C1777.71 -161.076 1713.51 -133.123 1638.92 -100.762C1566.45 -69.2541 1484.4 -33.6399 1394.27 -3.16223C1350.36 11.7212 1310.43 22.167 1272.19 29.0549C1142.14 52.4792 1013.32 33.0946 888.742 14.2544C803.751 1.47992 715.727 -11.8562 626.852 -11.8927C579.728 -11.9209 531.935 -6.30014 484.655 4.78317C193.475 73.1571 46.6762 245.429 45.3678 247.021L46.7639 248.187Z" fill="url(#paint3_linear_1324_148)"/>
<path d="M48.2703 284.156C53.3349 277.815 95.3614 234.471 171.971 184.122C239.326 139.908 349.132 80.3473 490.677 48.5295C538.349 37.7311 586.106 32.9822 632.687 33.9621C706.242 35.7181 781.813 44.7789 854.911 53.5362C994.417 70.3719 1138.5 87.6988 1278.11 55.6668C1316.23 46.8928 1354.09 34.3466 1397.5 16.2513C1456.35 -8.26076 1511.92 -33.8151 1565.71 -58.5695C1667.49 -105.26 1755.55 -145.632 1831.42 -164.336C1926.84 -187.677 2033.79 -179.573 2060.2 -172.472L2060.63 -174.1C2033.13 -181.548 1928.09 -189.607 1830.87 -165.636C1754.8 -147.073 1666.74 -106.702 1564.79 -59.9844C1510.98 -35.399 1455.41 -9.84471 1396.73 14.6408C1353.49 32.7094 1315.62 45.2556 1277.68 54.003C1138.41 85.9818 994.32 68.6549 855.009 51.9616C781.911 43.2043 706.314 33.9744 632.59 32.245C585.813 31.1227 537.913 36.0673 490.046 46.7233C348.332 78.5677 238.188 138.182 170.691 182.591C93.9386 233.136 51.7697 276.675 46.7051 283.016L48.2703 284.156Z" fill="url(#paint4_linear_1324_148)"/>
<path d="M49.6347 320.321C57.1472 310.822 104.351 267.356 181.022 219.596C249.488 176.939 359.863 119.888 496.096 90.6388C544.523 80.241 592.361 75.9992 638.452 78.2689C693.6 80.8448 749.2 86.2944 807.976 92.11C966.877 107.797 1131.2 123.842 1283.46 80.8107C1321.11 70.2038 1359.09 55.0421 1399.84 34.4192C1418.92 24.6588 1438.02 15.0674 1456.76 5.36027C1592.4 -63.9848 1720.52 -129.374 1829.25 -153.946C1923.46 -175.018 2025.01 -167.103 2058.49 -157.998L2058.93 -159.626C2018.57 -170.593 1916.17 -175.084 1828.84 -155.441C1719.94 -130.842 1591.65 -65.4263 1455.85 3.94538C1437.08 13.4835 1418 23.2439 1398.92 33.0043C1358.34 53.6006 1320.36 68.7623 1282.88 79.3425C1130.94 122.152 966.779 106.08 808.074 90.5354C749.129 84.7464 693.529 79.2968 638.381 76.7209C592.29 74.4513 544.284 78.7196 495.687 89.1441C359.285 118.42 248.742 175.498 180.133 218.35C103.151 266.333 55.9733 309.968 48.2918 319.493L49.6347 320.321Z" fill="url(#paint5_linear_1324_148)"/>
<path d="M50.9715 356.317C60.8159 344.026 113.171 300.268 190.215 254.875C259.819 213.944 370.397 159.286 501.487 132.579C551.008 122.529 598.953 118.963 643.994 122.264C675.37 124.599 707.165 127.388 740.872 130.222C917.752 145.676 1118.16 163.142 1288.61 105.812C1326.79 93.0438 1363.85 75.4264 1402.13 52.2492C1543.37 -33.2228 1692.63 -116.147 1827.38 -143.777C1911.97 -161.082 2008.82 -156.585 2056.93 -143.719L2057.36 -145.347C2009.06 -158.355 1911.85 -162.968 1826.95 -145.441C1691.85 -117.758 1542.45 -34.6377 1401.04 50.8609C1362.94 74.0115 1325.84 91.4599 1288 104.175C1117.9 161.451 917.655 143.959 740.944 128.478C707.21 125.475 675.415 122.687 644.065 120.521C598.686 117.273 550.547 120.696 501.025 130.746C369.766 157.48 259.019 212.165 189.273 253.291C112.06 298.711 59.3932 342.691 49.5753 355.151L50.9715 356.317Z" fill="url(#paint6_linear_1324_148)"/>
<path d="M52.3102 392.311C62.2704 379.655 115.631 336.779 199.24 290.178C269.956 250.805 380.621 198.904 506.711 174.544C557.326 164.841 605.404 162.121 649.563 166.427C783.813 179.587 970.149 197.883 1140.21 171.103C1193.79 162.665 1245.65 149.822 1293.76 130.812C1332.1 115.766 1369.25 95.3642 1404.27 70.273C1561.51 -42.3175 1703.16 -110.877 1825.55 -133.442C1913.08 -149.651 2004.03 -143.012 2055.42 -129.104L2055.86 -130.732C2004.3 -144.614 1912.98 -151.368 1825.28 -135.132C1702.56 -112.514 1560.76 -43.759 1403.55 69.0005C1368.7 94.0651 1331.69 114.271 1293.35 129.317C1092.35 208.262 826.132 182.104 649.804 164.657C605.449 160.208 557.229 163.124 506.445 172.854C380.186 197.241 269.209 249.364 198.494 288.737C114.715 335.364 61.0432 378.463 51.1096 391.287L52.3102 392.311Z" fill="url(#paint7_linear_1324_148)"/>
<path d="M53.8163 428.281C65.3698 413.642 122.725 370.829 208.629 325.6C280.314 287.98 391.183 238.472 512.441 216.432C564.319 207.05 612.503 205.006 655.613 210.344C767.488 224.428 878.068 229.188 975.343 224.264C1104.08 217.849 1213.23 194.772 1299.41 155.734C1338.71 137.94 1374.98 115.251 1406.93 88.2194C1502.63 7.3193 1652.8 -95.15 1823.68 -123.273C1899.5 -135.732 1987.67 -132.467 2053.88 -114.656L2054.32 -116.283C1987.92 -134.237 1899.38 -137.618 1823.42 -124.963C1652.2 -96.7871 1501.88 5.87779 1405.73 87.1958C1373.78 114.228 1337.84 136.863 1298.52 154.489C1212.48 193.331 1103.68 216.354 974.934 222.769C877.659 227.694 767.248 222.907 655.373 208.822C612.068 203.342 563.715 205.413 511.667 214.822C390.24 236.888 279.202 286.422 207.348 324.069C120.314 369.823 64.0629 411.942 52.0822 427.168L53.8163 428.281Z" fill="url(#paint8_linear_1324_148)"/>
<path d="M55.1802 464.445C85.0875 426.647 307.605 294.076 517.716 258.736C571.054 249.817 619.344 248.449 661.065 254.872C760.129 270.107 873.423 273.401 980.077 264.228C1107.93 253.276 1220.16 224.515 1304.64 181.242C1345.03 160.503 1380.23 135.386 1409.29 106.555C1528.83 -12.2246 1672.56 -89.5998 1814.55 -111.961C1816.92 -112.333 1819.45 -112.733 1821.82 -113.105C1898.56 -124.15 1980.36 -119.535 2052.35 -100.209L2052.78 -101.837C1980.6 -121.305 1898.63 -125.893 1821.72 -114.822C1676.9 -93.9217 1530.16 -15.8983 1408.21 105.167C1379.28 133.802 1344.26 158.893 1304.01 179.436C1125.61 270.933 852.664 282.387 661.449 252.906C619.558 246.51 571.072 247.736 517.593 256.85C307.17 292.412 84.0028 425.259 53.953 463.252L55.1802 464.445Z" fill="url(#paint9_linear_1324_148)"/>
<path d="M56.5181 500.439C77.4621 473.928 179.537 413.679 298.297 365.874C384.161 331.391 546.195 276.771 666.777 298.839C778.454 319.364 929.756 316.499 1061.67 291.741C1136.72 277.671 1203.83 257.228 1261.38 231.017C1325.56 201.854 1376.02 165.844 1411.75 124.357C1489.48 33.8149 1586.17 -34.2473 1691.42 -72.1294C1747.3 -92.3636 1805.42 -103.941 1863.88 -106.737C1925.8 -109.558 1988.56 -102.638 2050.81 -85.7627L2051.25 -87.3906C1989 -104.266 1925.87 -111.302 1863.81 -108.285C1804.99 -105.604 1746.9 -93.8584 1690.84 -73.5976C1585.45 -35.5198 1488.42 32.5957 1410.38 123.36C1374.96 164.625 1324.47 200.466 1260.63 229.575C1203.26 255.76 1136.31 276.177 1061.43 290.22C929.685 314.951 778.695 317.594 667.214 297.211C546.098 275.054 383.726 329.727 297.719 364.405C178.791 412.237 76.4306 472.877 55.3175 499.416L56.5181 500.439Z" fill="url(#paint10_linear_1324_148)"/>
</g>
<path d="M0 0H3600V445.401L0 446V0Z" fill="url(#paint11_linear_1324_148)"/>
<path fill-rule="evenodd" clip-rule="evenodd" d="M3410.41 150.884H3410.44C3410.84 131.767 3393.99 111.929 3360.3 91.7687C3357.52 90.1031 3354.61 88.4376 3351.61 86.772L3350.63 86.25L3350.3 86.076C3342.11 81.5765 3333.02 77.0521 3323.33 72.652C3323.2 72.5526 3323.08 72.478 3322.93 72.4034C3322.33 72.0803 3321.7 71.9062 3321.07 71.9062C3318.9 71.9062 3317.04 73.9198 3316.49 76.9029C3315.79 80.6567 3317.32 84.7087 3319.97 86.1754L3320.57 86.4488C3320.6 86.4613 3320.62 86.4675 3320.64 86.4737C3320.66 86.4799 3320.67 86.4861 3320.7 86.4986L3320.85 86.5483C3324.56 88.1393 3328.31 89.8545 3332 91.6195C3351.21 100.867 3368.34 111.681 3380.26 122.022C3392.38 132.575 3398.92 142.512 3398.91 150.309C3398.88 150.655 3398.84 151.015 3398.79 151.356C3396.77 165.55 3381.29 177.806 3354.04 186.78L3353.81 186.855C3349.63 188.222 3345.4 189.44 3341.19 190.509C3339.61 190.931 3338.03 191.304 3336.45 191.677L3336.45 191.677C3335.99 191.801 3335.52 191.905 3335.06 192.008C3334.78 192.071 3334.5 192.133 3334.22 192.199C3333.22 192.423 3332.22 192.647 3331.24 192.846C3316.82 195.903 3304.17 197.246 3298.76 197.246C3296.13 197.246 3294 200.303 3294 204.057C3294 207.811 3296.13 210.869 3298.76 210.869H3298.88C3307.45 210.62 3317.79 209.501 3328.69 207.463C3329.09 207.388 3329.5 207.308 3329.9 207.227C3330.31 207.146 3330.72 207.065 3331.12 206.991C3331.27 206.941 3331.42 206.916 3331.57 206.891C3333.52 206.493 3335.48 206.071 3337.43 205.623C3350.63 202.59 3364.11 198.215 3375.73 192.423C3375.78 192.398 3375.83 192.373 3375.89 192.348C3375.95 192.324 3376 192.299 3376.05 192.274C3379.56 190.534 3382.79 188.694 3385.77 186.78C3400.87 177.085 3409.11 165.525 3410.32 152.3C3410.37 151.828 3410.39 151.356 3410.41 150.884Z" fill="url(#paint12_linear_1324_148)"/>
<path fill-rule="evenodd" clip-rule="evenodd" d="M3348.68 183.375L3376.4 85.2062L3376.05 82.9192C3376.04 82.9461 3376.03 82.9803 3376.03 83.0179C3376.02 83.0497 3376.01 83.0839 3376 83.1181L3375.88 81.6265L3375.23 76.9281L3374.75 73.4727L3374.2 69.4704C3374.19 69.5201 3374.17 69.576 3374.16 69.632C3374.15 69.6879 3374.14 69.7438 3374.12 69.7936L3373.92 67.432L3373 60.8691L3337.78 185.612C3338.86 185.413 3339.93 185.215 3341.04 184.991C3341.29 184.937 3341.54 184.885 3341.79 184.834C3341.52 186.011 3341.25 187.165 3340.99 188.272C3340.69 189.49 3340.41 190.683 3340.16 191.827C3340.05 192.322 3339.94 192.804 3339.83 193.275C3339.68 193.94 3339.53 194.582 3339.38 195.208C3339.08 196.476 3338.81 197.669 3338.56 198.763C3338.44 199.256 3338.34 199.729 3338.23 200.18C3338.06 200.934 3337.9 201.63 3337.76 202.268C3337.44 203.669 3337.18 204.768 3337.01 205.513C3336.85 206.168 3336.77 206.548 3336.75 206.618C3336.77 206.576 3336.83 206.418 3336.92 206.153C3337.17 205.475 3337.67 204.098 3338.36 202.168C3338.6 201.495 3338.86 200.75 3339.15 199.946C3339.3 199.502 3339.47 199.041 3339.63 198.564C3339.8 198.108 3339.97 197.635 3340.14 197.146C3340.39 196.436 3340.65 195.69 3340.94 194.91C3341.15 194.285 3341.38 193.636 3341.62 192.967C3341.8 192.465 3341.98 191.952 3342.16 191.429C3342.46 190.609 3342.76 189.763 3343.07 188.894C3343.2 188.525 3343.33 188.152 3343.47 187.775C3343.68 187.176 3343.9 186.558 3344.12 185.93C3344.32 185.371 3344.52 184.803 3344.73 184.235C3346.04 183.963 3347.35 183.676 3348.68 183.375Z" fill="url(#paint13_linear_1324_148)"/>
<path d="M3319.6 138.38C3320.88 136.913 3322.13 135.471 3323.38 134.03C3327.41 129.431 3331.44 124.807 3335.48 120.208C3335.73 119.934 3335.95 119.86 3336.28 119.934C3338.16 120.407 3340.04 120.829 3341.91 121.277C3342.04 121.302 3342.19 121.351 3342.44 121.401C3336.98 127.641 3331.59 133.781 3326.18 139.946C3329.59 148.199 3333 156.428 3336.45 164.731C3336.23 164.706 3336.13 164.681 3336 164.656C3334.07 164.209 3332.15 163.761 3330.24 163.289C3330.04 163.239 3329.82 163.065 3329.72 162.841C3326.36 154.787 3323.03 146.708 3319.67 138.629C3319.65 138.579 3319.65 138.504 3319.6 138.38Z" fill="url(#paint14_linear_1324_148)"/>
<path d="M3379.31 152.475C3375.9 144.221 3372.49 136.018 3369.04 127.715C3369.24 127.74 3369.36 127.765 3369.49 127.789C3371.42 128.237 3373.35 128.709 3375.25 129.157C3375.53 129.231 3375.68 129.38 3375.83 129.704C3379.11 137.659 3382.39 145.589 3385.69 153.519C3385.87 153.966 3385.79 154.165 3385.54 154.463C3380.33 160.405 3375.12 166.346 3369.94 172.287C3369.74 172.536 3369.54 172.61 3369.26 172.536C3367.24 172.039 3365.21 171.566 3363.03 171.069C3368.51 164.805 3373.9 158.664 3379.31 152.475Z" fill="url(#paint15_linear_1324_148)"/>
<g opacity="0.488653">
<g opacity="0.488653" filter="url(#filter0_d_1324_148)">
<path d="M450.515 143.789C460.037 143.789 467.756 136.071 467.756 126.549C467.756 117.027 460.037 109.309 450.515 109.309C440.993 109.309 433.274 117.027 433.274 126.549C433.274 136.071 440.993 143.789 450.515 143.789Z" fill="black"/>
</g>
<path opacity="0.488653" d="M450.515 143.789C460.037 143.789 467.756 136.071 467.756 126.549C467.756 117.027 460.037 109.309 450.515 109.309C440.993 109.309 433.274 117.027 433.274 126.549C433.274 136.071 440.993 143.789 450.515 143.789Z" fill="url(#paint16_linear_1324_148)"/>
</g>
<path opacity="0.182152" d="M2920.33 65.8329C2971.87 65.8329 3013.65 24.0509 3013.65 -27.4898C3013.65 -79.0305 2971.87 -120.812 2920.33 -120.812C2868.78 -120.812 2827 -79.0305 2827 -27.4898C2827 24.0509 2868.78 65.8329 2920.33 65.8329Z" fill="url(#paint17_linear_1324_148)"/>
<path d="M1298.25 143.04C1302.8 143.04 1306.49 139.348 1306.49 134.794C1306.49 130.24 1302.8 126.549 1298.25 126.549C1293.69 126.549 1290 130.24 1290 134.794C1290 139.348 1293.69 143.04 1298.25 143.04Z" fill="url(#paint18_linear_1324_148)"/>
<g filter="url(#filter1_d_1324_148)">
<path d="M309.214 134.794C311.491 134.794 313.337 132.948 313.337 130.672C313.337 128.395 311.491 126.549 309.214 126.549C306.937 126.549 305.091 128.395 305.091 130.672C305.091 132.948 306.937 134.794 309.214 134.794Z" fill="black"/>
</g>
<path d="M309.214 134.794C311.491 134.794 313.337 132.948 313.337 130.672C313.337 128.395 311.491 126.549 309.214 126.549C306.937 126.549 305.091 128.395 305.091 130.672C305.091 132.948 306.937 134.794 309.214 134.794Z" fill="url(#paint19_linear_1324_148)"/>
<g filter="url(#filter2_d_1324_148)">
<path d="M905.528 163.279C906.77 163.279 907.777 162.272 907.777 161.03C907.777 159.788 906.77 158.781 905.528 158.781C904.286 158.781 903.279 159.788 903.279 161.03C903.279 162.272 904.286 163.279 905.528 163.279Z" fill="black"/>
</g>
<path d="M905.528 163.279C906.77 163.279 907.777 162.272 907.777 161.03C907.777 159.788 906.77 158.781 905.528 158.781C904.286 158.781 903.279 159.788 903.279 161.03C903.279 162.272 904.286 163.279 905.528 163.279Z" fill="url(#paint20_linear_1324_148)"/>
<g filter="url(#filter3_d_1324_148)">
<path d="M760.854 68.0815C762.096 68.0815 763.103 67.0747 763.103 65.8327C763.103 64.5908 762.096 63.584 760.854 63.584C759.612 63.584 758.605 64.5908 758.605 65.8327C758.605 67.0747 759.612 68.0815 760.854 68.0815Z" fill="black"/>
</g>
<path d="M760.854 68.0815C762.096 68.0815 763.103 67.0747 763.103 65.8327C763.103 64.5908 762.096 63.584 760.854 63.584C759.612 63.584 758.605 64.5908 758.605 65.8327C758.605 67.0747 759.612 68.0815 760.854 68.0815Z" fill="url(#paint21_linear_1324_148)"/>
<g filter="url(#filter4_d_1324_148)">
<path d="M565.955 109.308C567.197 109.308 568.204 108.301 568.204 107.059C568.204 105.817 567.197 104.811 565.955 104.811C564.713 104.811 563.706 105.817 563.706 107.059C563.706 108.301 564.713 109.308 565.955 109.308Z" fill="black"/>
</g>
<path d="M565.955 109.308C567.197 109.308 568.204 108.301 568.204 107.059C568.204 105.817 567.197 104.811 565.955 104.811C564.713 104.811 563.706 105.817 563.706 107.059C563.706 108.301 564.713 109.308 565.955 109.308Z" fill="url(#paint22_linear_1324_148)"/>
<path opacity="0.307757" d="M1967.99 123.55C1977.93 123.55 1985.98 115.496 1985.98 105.56C1985.98 95.6247 1977.93 87.5703 1967.99 87.5703C1958.05 87.5703 1950 95.6247 1950 105.56C1950 115.496 1958.05 123.55 1967.99 123.55Z" fill="url(#paint23_linear_1324_148)"/>
<path opacity="0.307757" d="M221.884 111.557C238.03 111.557 251.119 98.4687 251.119 82.3235C251.119 66.1782 238.03 53.0898 221.884 53.0898C205.738 53.0898 192.649 66.1782 192.649 82.3235C192.649 98.4687 205.738 111.557 221.884 111.557Z" fill="url(#paint24_linear_1324_148)"/>
</g>
<defs>
<filter id="filter0_d_1324_148" x="378.274" y="94.3086" width="144.482" height="144.48" filterUnits="userSpaceOnUse" color-interpolation-filters="sRGB">
<feFlood flood-opacity="0" result="BackgroundImageFix"/>
<feColorMatrix in="SourceAlpha" type="matrix" values="0 0 0 0 0 0 0 0 0 0 0 0 0 0 0 0 0 0 127 0" result="hardAlpha"/>
<feOffset dy="40"/>
<feGaussianBlur stdDeviation="27.5"/>
<feColorMatrix type="matrix" values="0 0 0 0 0.25901 0 0 0 0 0.0313298 0 0 0 0 0.634086 0 0 0 0.214926 0"/>
<feBlend mode="normal" in2="BackgroundImageFix" result="effect1_dropShadow_1324_148"/>
<feBlend mode="normal" in="SourceGraphic" in2="effect1_dropShadow_1324_148" result="shape"/>
</filter>
<filter id="filter1_d_1324_148" x="250.091" y="111.549" width="118.246" height="118.245" filterUnits="userSpaceOnUse" color-interpolation-filters="sRGB">
<feFlood flood-opacity="0" result="BackgroundImageFix"/>
<feColorMatrix in="SourceAlpha" type="matrix" values="0 0 0 0 0 0 0 0 0 0 0 0 0 0 0 0 0 0 127 0" result="hardAlpha"/>
<feOffset dy="40"/>
<feGaussianBlur stdDeviation="27.5"/>
<feColorMatrix type="matrix" values="0 0 0 0 0 0 0 0 0 0 0 0 0 0 0 0 0 0 0.133973 0"/>
<feBlend mode="normal" in2="BackgroundImageFix" result="effect1_dropShadow_1324_148"/>
<feBlend mode="normal" in="SourceGraphic" in2="effect1_dropShadow_1324_148" result="shape"/>
</filter>
<filter id="filter2_d_1324_148" x="848.279" y="143.781" width="114.498" height="114.497" filterUnits="userSpaceOnUse" color-interpolation-filters="sRGB">
<feFlood flood-opacity="0" result="BackgroundImageFix"/>
<feColorMatrix in="SourceAlpha" type="matrix" values="0 0 0 0 0 0 0 0 0 0 0 0 0 0 0 0 0 0 127 0" result="hardAlpha"/>
<feOffset dy="40"/>
<feGaussianBlur stdDeviation="27.5"/>
<feColorMatrix type="matrix" values="0 0 0 0 0 0 0 0 0 0 0 0 0 0 0 0 0 0 0.133973 0"/>
<feBlend mode="normal" in2="BackgroundImageFix" result="effect1_dropShadow_1324_148"/>
<feBlend mode="normal" in="SourceGraphic" in2="effect1_dropShadow_1324_148" result="shape"/>
</filter>
<filter id="filter3_d_1324_148" x="703.605" y="48.584" width="114.498" height="114.497" filterUnits="userSpaceOnUse" color-interpolation-filters="sRGB">
<feFlood flood-opacity="0" result="BackgroundImageFix"/>
<feColorMatrix in="SourceAlpha" type="matrix" values="0 0 0 0 0 0 0 0 0 0 0 0 0 0 0 0 0 0 127 0" result="hardAlpha"/>
<feOffset dy="40"/>
<feGaussianBlur stdDeviation="27.5"/>
<feColorMatrix type="matrix" values="0 0 0 0 0 0 0 0 0 0 0 0 0 0 0 0 0 0 0.133973 0"/>
<feBlend mode="normal" in2="BackgroundImageFix" result="effect1_dropShadow_1324_148"/>
<feBlend mode="normal" in="SourceGraphic" in2="effect1_dropShadow_1324_148" result="shape"/>
</filter>
<filter id="filter4_d_1324_148" x="508.706" y="89.8105" width="114.498" height="114.497" filterUnits="userSpaceOnUse" color-interpolation-filters="sRGB">
<feFlood flood-opacity="0" result="BackgroundImageFix"/>
<feColorMatrix in="SourceAlpha" type="matrix" values="0 0 0 0 0 0 0 0 0 0 0 0 0 0 0 0 0 0 127 0" result="hardAlpha"/>
<feOffset dy="40"/>
<feGaussianBlur stdDeviation="27.5"/>
<feColorMatrix type="matrix" values="0 0 0 0 0 0 0 0 0 0 0 0 0 0 0 0 0 0 0.133973 0"/>
<feBlend mode="normal" in2="BackgroundImageFix" result="effect1_dropShadow_1324_148"/>
<feBlend mode="normal" in="SourceGraphic" in2="effect1_dropShadow_1324_148" result="shape"/>
</filter>
<linearGradient id="paint0_linear_1324_148" x1="-511" y1="-545.345" x2="1951.11" y2="623.164" gradientUnits="userSpaceOnUse">
<stop offset="0.0614296" stop-color="#ABE1FF" stop-opacity="0.5"/>
<stop offset="1" stop-color="#D7EDFD" stop-opacity="0"/>
</linearGradient>
<linearGradient id="paint1_linear_1324_148" x1="2062.16" y1="-236.999" x2="28.2079" y2="83.2979" gradientUnits="userSpaceOnUse">
<stop offset="0.0614296" stop-color="#ABE1FF"/>
<stop offset="1" stop-color="#D7EDFD" stop-opacity="0"/>
</linearGradient>
<linearGradient id="paint2_linear_1324_148" x1="2064.65" y1="-197.452" x2="30.1964" y2="122.923" gradientUnits="userSpaceOnUse">
<stop offset="0.0614296" stop-color="#ABE1FF"/>
<stop offset="1" stop-color="#D7EDFD" stop-opacity="0"/>
</linearGradient>
<linearGradient id="paint3_linear_1324_148" x1="2067" y1="-158.005" x2="32.1335" y2="162.435" gradientUnits="userSpaceOnUse">
<stop offset="0.0614296" stop-color="#ABE1FF"/>
<stop offset="1" stop-color="#D7EDFD" stop-opacity="0"/>
</linearGradient>
<linearGradient id="paint4_linear_1324_148" x1="2069.19" y1="-119.542" x2="33.9138" y2="200.963" gradientUnits="userSpaceOnUse">
<stop offset="0.0614296" stop-color="#ABE1FF"/>
<stop offset="1" stop-color="#D7EDFD" stop-opacity="0"/>
</linearGradient>
<linearGradient id="paint5_linear_1324_148" x1="2069.02" y1="-96.0653" x2="33.3358" y2="224.504" gradientUnits="userSpaceOnUse">
<stop offset="0.0614296" stop-color="#ABE1FF"/>
<stop offset="1" stop-color="#D7EDFD" stop-opacity="0"/>
</linearGradient>
<linearGradient id="paint6_linear_1324_148" x1="2068.83" y1="-72.7153" x2="32.7371" y2="247.919" gradientUnits="userSpaceOnUse">
<stop offset="0.0614296" stop-color="#ABE1FF"/>
<stop offset="1" stop-color="#D7EDFD" stop-opacity="0"/>
</linearGradient>
<linearGradient id="paint7_linear_1324_148" x1="2068.63" y1="-49.4438" x2="32.128" y2="271.255" gradientUnits="userSpaceOnUse">
<stop offset="0.0614296" stop-color="#ABE1FF"/>
<stop offset="1" stop-color="#D7EDFD" stop-opacity="0"/>
</linearGradient>
<linearGradient id="paint8_linear_1324_148" x1="2068.42" y1="-26.2524" x2="31.503" y2="294.511" gradientUnits="userSpaceOnUse">
<stop offset="0.0614296" stop-color="#ABE1FF"/>
<stop offset="1" stop-color="#D7EDFD" stop-opacity="0"/>
</linearGradient>
<linearGradient id="paint9_linear_1324_148" x1="2068.19" y1="-3.16266" x2="30.8637" y2="317.665" gradientUnits="userSpaceOnUse">
<stop offset="0.0614296" stop-color="#ABE1FF"/>
<stop offset="1" stop-color="#D7EDFD" stop-opacity="0"/>
</linearGradient>
<linearGradient id="paint10_linear_1324_148" x1="2067.94" y1="19.8045" x2="30.2059" y2="340.697" gradientUnits="userSpaceOnUse">
<stop offset="0.0614296" stop-color="#ABE1FF"/>
<stop offset="1" stop-color="#D7EDFD" stop-opacity="0"/>
</linearGradient>
<linearGradient id="paint11_linear_1324_148" x1="1932.24" y1="70.6621" x2="1932.24" y2="436.665" gradientUnits="userSpaceOnUse">
<stop stop-color="#007CF5" stop-opacity="0.1"/>
<stop offset="1" stop-color="white" stop-opacity="0"/>
</linearGradient>
<linearGradient id="paint12_linear_1324_148" x1="3352.22" y1="126.123" x2="3328.71" y2="211.61" gradientUnits="userSpaceOnUse">
<stop stop-color="#D1E5FC"/>
<stop offset="1" stop-color="white" stop-opacity="0"/>
</linearGradient>
<linearGradient id="paint13_linear_1324_148" x1="3356.58" y1="117.734" x2="3309.01" y2="173.868" gradientUnits="userSpaceOnUse">
<stop stop-color="#D1E5FC"/>
<stop offset="1" stop-color="white" stop-opacity="0"/>
</linearGradient>
<linearGradient id="paint14_linear_1324_148" x1="3331.02" y1="137.395" x2="3319.88" y2="162.018" gradientUnits="userSpaceOnUse">
<stop stop-color="#D1E5FC"/>
<stop offset="1" stop-color="white" stop-opacity="0"/>
</linearGradient>
<linearGradient id="paint15_linear_1324_148" x1="3374.41" y1="145.213" x2="3363.23" y2="169.815" gradientUnits="userSpaceOnUse">
<stop stop-color="#D1E5FC"/>
<stop offset="1" stop-color="white" stop-opacity="0"/>
</linearGradient>
<linearGradient id="paint16_linear_1324_148" x1="450.515" y1="143.789" x2="450.515" y2="109.309" gradientUnits="userSpaceOnUse">
<stop stop-color="#A75BFF"/>
<stop offset="1" stop-color="#E2CBFF"/>
</linearGradient>
<linearGradient id="paint17_linear_1324_148" x1="3029.96" y1="-10.4918" x2="2846.56" y2="30.2919" gradientUnits="userSpaceOnUse">
<stop stop-color="#D7CBFF" stop-opacity="0"/>
<stop offset="1" stop-color="#5F58FF"/>
</linearGradient>
<linearGradient id="paint18_linear_1324_148" x1="1304.51" y1="129.334" x2="1291.96" y2="140.341" gradientUnits="userSpaceOnUse">
<stop stop-color="#D7CBFF"/>
<stop offset="1" stop-color="#5F58FF"/>
</linearGradient>
<linearGradient id="paint19_linear_1324_148" x1="309.931" y1="133.77" x2="307.487" y2="127.043" gradientUnits="userSpaceOnUse">
<stop stop-color="#0354D0"/>
<stop offset="0.715617" stop-color="#3099FF"/>
<stop offset="1" stop-color="#74B9FF"/>
</linearGradient>
<linearGradient id="paint20_linear_1324_148" x1="903.279" y1="158.781" x2="907.777" y2="163.279" gradientUnits="userSpaceOnUse">
<stop stop-color="#FFD3A5"/>
<stop offset="1" stop-color="#FD6585"/>
</linearGradient>
<linearGradient id="paint21_linear_1324_148" x1="758.605" y1="63.584" x2="763.103" y2="68.0817" gradientUnits="userSpaceOnUse">
<stop stop-color="#ABDCFF"/>
<stop offset="1" stop-color="#0396FF"/>
</linearGradient>
<linearGradient id="paint22_linear_1324_148" x1="563.706" y1="104.811" x2="568.204" y2="109.308" gradientUnits="userSpaceOnUse">
<stop stop-color="#F6D242"/>
<stop offset="1" stop-color="#FF52E5"/>
</linearGradient>
<linearGradient id="paint23_linear_1324_148" x1="1950" y1="111.817" x2="1985.98" y2="101.749" gradientUnits="userSpaceOnUse">
<stop stop-color="#C2E998" stop-opacity="0"/>
<stop offset="1" stop-color="#02CC87"/>
</linearGradient>
<linearGradient id="paint24_linear_1324_148" x1="192.649" y1="96.9602" x2="251.119" y2="82.3224" gradientUnits="userSpaceOnUse">
<stop stop-color="#91D1E8" stop-opacity="0"/>
<stop offset="1" stop-color="#49CDFF"/>
</linearGradient>
</defs>
</svg>