<svg width="509" height="488" viewBox="0 0 509 488" fill="none" xmlns="http://www.w3.org/2000/svg">
<g clip-path="url(#clip0_873_1477)">
<path d="M190.62 105.098C193.636 112.812 205.391 125.364 214.399 121.049C218.852 118.923 223.533 113.958 225.035 109.197C225.556 107.529 226.256 103.609 225.098 102.043C223.75 100.222 220.951 102.106 219.144 102.603C216.053 103.456 212.783 103.698 209.628 103.099C206.727 102.552 201.447 100.859 200.124 97.9056C201.295 96.6835 203.254 97.8292 204.615 98.1602C206.155 98.5294 207.707 98.4784 209.284 98.7076C212.045 99.1149 214.933 99.395 217.732 98.7712C223.139 97.5746 227.21 92.5336 227.885 87.1616C228.215 84.5392 228.139 80.1856 226.396 78.047C222.935 79.5873 219.679 81.3822 216.18 82.757C213.457 83.8263 207.478 86.105 204.704 83.9154C201.206 81.1531 212.376 79.1035 214.017 78.518C217.897 77.1304 223.61 74.7881 224.297 70.2436C224.869 66.4501 222.248 61.3708 220.735 57.9847C219.971 56.2916 219.119 54.3694 217.948 52.9436C216.282 50.8941 215.137 52.218 213.992 54.2421C211.727 58.2393 211.523 64.566 206.434 66.5773C203.025 67.9267 203.216 64.5406 204.691 62.4019C205.887 60.6452 207.465 59.1813 208.915 57.6537C212.694 53.682 212.605 48.781 209.793 44.3001C207.427 40.5193 203.839 36.242 200.569 33.1487C203.356 38.4443 195.697 41.2322 193.139 44.2364C190.073 47.8517 190.48 51.8489 191.346 56.1516C188.916 52.0144 188.203 48.9719 188.178 44.3128C186.053 46.9606 183.992 49.7357 181.842 52.409C179.692 55.095 176.002 58.1247 176.995 62.0201C177.898 65.559 181.269 68.3341 184.476 69.5816C185.531 69.989 188.623 70.0399 188.992 70.7909C190.15 73.1587 186.447 73.286 185.213 73.1078C183.114 72.8277 181.269 71.8475 179.794 70.2945C179.132 69.5943 177.822 66.6919 176.918 66.6792C175.035 66.6537 172.135 77.4359 171.88 78.7853C171.295 81.9041 170.786 86.7797 174.539 87.8744C177.465 88.7273 181.74 87.2379 184.399 88.4346C188.788 90.4077 180.226 93.0046 178.369 92.9409C174.387 92.8264 172.237 91.2097 169.845 88.2818C168.165 89.9876 168.216 94.9904 167.987 97.2691C167.72 99.8278 167.173 102.858 167.453 105.391C168.267 112.774 178.878 111.921 183.687 109.719C186.091 108.624 188.992 107.478 190.175 105.085" fill="#A6D2AC"/>
<path d="M166.435 149.373C174.361 147.361 188.254 137.687 185.366 128.827C183.941 124.447 179.806 119.559 175.392 117.662C173.852 117 170.137 115.944 168.445 116.86C166.486 117.93 167.898 120.73 168.127 122.474C168.509 125.453 168.267 128.521 167.237 131.411C166.282 134.059 163.878 138.82 160.812 139.749C159.794 138.527 161.193 136.821 161.702 135.573C162.275 134.173 162.453 132.709 162.911 131.271C163.713 128.737 164.4 126.064 164.196 123.391C163.827 118.223 159.514 113.882 154.387 112.698C151.893 112.112 147.644 111.73 145.316 113.143C146.308 116.529 147.58 119.763 148.407 123.174C149.044 125.822 150.392 131.653 147.873 134.008C144.68 136.986 144.311 126.344 143.98 124.753C143.191 120.985 141.741 115.397 137.428 114.289C133.815 113.36 128.51 115.269 124.998 116.339C123.242 116.873 121.245 117.471 119.693 118.414C117.466 119.763 118.586 120.959 120.393 122.245C123.955 124.778 130.062 125.631 131.283 130.596C132.097 133.918 128.84 133.384 126.97 131.793C125.443 130.494 124.247 128.865 122.975 127.35C119.667 123.404 114.896 122.971 110.126 125.135C106.118 126.955 101.436 129.858 97.9629 132.595C103.51 130.545 105.113 137.992 107.67 140.691C110.736 143.937 114.68 143.962 118.993 143.606C114.617 145.452 111.563 145.783 107.047 145.324C109.311 147.59 111.716 149.805 113.993 152.084C116.283 154.375 118.7 158.131 122.619 157.609C126.194 157.138 129.375 154.274 131.041 151.409C131.588 150.467 132.085 147.578 132.873 147.31C135.341 146.47 134.922 149.945 134.578 151.091C133.993 153.026 132.784 154.643 131.067 155.865C130.291 156.412 127.288 157.329 127.135 158.182C126.843 159.938 136.894 163.77 138.166 164.152C141.117 165.03 145.774 166.011 147.377 162.624C148.636 159.977 147.809 155.827 149.349 153.472C151.893 149.589 153.178 157.838 152.86 159.582C152.173 163.286 150.29 165.132 147.097 167.054C148.509 168.798 153.369 169.269 155.557 169.728C158 170.237 160.875 171.064 163.369 171.077C170.659 171.077 171.359 161.084 169.921 156.361C169.196 153.994 168.509 151.18 166.359 149.818" fill="#A6D2AC"/>
<path d="M181.473 120.438C186.435 121.94 192.758 123.913 197.605 125.682C203.915 127.999 207.16 125.822 208.457 119.33C210.06 111.31 206.969 101.012 203.61 93.6921C202.414 91.1079 201.969 90.7769 199.284 92.5082C197.3 93.7812 195.659 95.2578 193.572 96.4035C189.526 98.6185 185.849 100.197 181.206 100.057C173.878 99.8406 179.832 95.3979 183.369 94.5068C187.478 93.4629 191.6 91.8462 195.226 89.4657C201.447 85.3794 178.661 71.3638 173.127 70.7655C172.911 74.2535 167.466 81.8278 163.42 81.9296C159.858 82.0188 162.148 79.511 163.585 78.047C165.239 76.3667 166.918 74.9791 167.745 72.7896C171.117 63.8023 147.542 65.5845 142.797 66.1191C136.563 66.832 134.044 64.5152 130.621 59.8306C128.408 66.2719 125.265 75.6029 129.069 81.7896C130.914 84.7939 134.654 85.8886 137.708 87.1744C139.807 88.0654 145.914 91.5025 140.125 91.3625C136.079 91.2606 132.67 88.1546 128.535 88.1546C127.632 91.0188 127.67 98.784 129.985 100.999C132.759 103.647 139.502 100.515 142.924 101.063C140.647 105.773 134.082 104.041 130.036 104.627C129.82 110.712 131.754 121.456 136.766 125.848C144.082 132.251 149.323 118.223 150.01 115.626C150.519 113.716 151.601 110.495 152.58 114.073C153.445 117.204 149.985 124.295 148.267 126.993C147.428 128.305 144.094 130.672 144.082 132.264C144.069 134.071 167.173 148.647 175.595 146.394C184.348 144.051 184.641 127.108 181.498 120.45L181.473 120.438Z" fill="#004F56"/>
<path d="M211.613 46.0059C208.165 51.7089 204.03 56.7372 201.486 62.9748C199.043 68.9706 197.007 75.2082 195.417 81.4841C193.954 87.2634 192.783 93.0937 191.295 98.8731C189.552 105.62 189.654 112.087 189.018 118.948C188.916 120.043 187.198 119.992 187.3 118.884C187.885 112.672 187.669 106.626 189.119 100.515C190.659 94.0103 192.147 87.4671 193.776 80.9876C195.43 74.4699 197.567 67.9649 200.137 61.7528C202.656 55.6806 206.778 50.6905 210.15 45.1021C210.722 44.1601 212.172 45.0766 211.6 46.0186L211.613 46.0059Z" fill="#488288"/>
<path d="M210.455 46.3113C211.155 45.0383 213.152 43.7653 214.628 43.9054C216.358 44.0708 216.129 45.6875 215.2 46.7314C214.17 47.9025 212.567 48.399 211.205 49.0864C209.806 49.7866 208.686 51.0723 207.236 51.556C207.516 50.4612 208.597 49.0992 209.284 48.2208C210.01 47.2915 210.506 46.1967 211.205 45.2675" fill="#488288"/>
<path d="M209.005 48.921C210.366 46.8205 213.292 44.8983 213.19 42.0723C213.127 40.2264 211.994 39.3735 210.366 40.4174C209.132 41.2067 208.776 42.7088 208.648 44.0581C208.483 45.7894 208.343 47.928 208.534 49.6338" fill="#488288"/>
<path d="M204.73 54.0637C203.738 51.3777 202.414 48.017 203.496 45.1019C204.17 43.2815 205.659 44.6818 206.028 45.8402C206.893 48.4753 206.218 51.7851 205.239 54.2929L204.73 54.0764V54.0637Z" fill="#488288"/>
<path d="M201.447 59.8687C199.755 56.8135 197.516 53.0073 198.28 49.2775C198.763 46.9606 200.811 48.3609 201.473 49.6848C203 52.7018 202.821 56.8263 202.096 60.0342L201.435 59.8687H201.447Z" fill="#488288"/>
<path d="M196.091 74.3934C193.89 71.682 191.015 68.3213 191.13 64.5151C191.193 62.1473 193.458 63.1784 194.348 64.3623C196.384 67.061 196.918 71.1473 196.778 74.4444L196.104 74.3934H196.091Z" fill="#488288"/>
<path d="M192.796 87.3524C189.425 84.9464 185.112 82.0313 184.03 77.665C183.356 74.9408 186.257 75.4118 187.656 76.4683C190.824 78.8998 192.72 83.3934 193.585 87.1869L192.796 87.3524Z" fill="#488288"/>
<path d="M197.529 69.1105C196.066 65.3552 194.107 60.6578 195.57 56.5843C196.473 54.051 198.598 55.9987 199.157 57.6154C200.442 61.2943 199.577 65.9153 198.254 69.416L197.529 69.1105Z" fill="#488288"/>
<path d="M206.015 54.8787C208.865 54.6368 212.478 54.4076 214.653 52.1926C216.015 50.8051 214.119 50.054 212.91 50.2068C210.162 50.5505 207.452 52.5491 205.608 54.5095L206.015 54.8787Z" fill="#488288"/>
<path d="M198.038 67.7867C201.066 66.6028 204.933 65.1898 206.587 62.0582C207.618 60.1105 205.315 59.9069 204.043 60.4543C201.155 61.7145 198.839 64.7824 197.453 67.5066L198.025 67.7739L198.038 67.7867Z" fill="#488288"/>
<path d="M196.575 77.614C199.832 76.341 203.967 74.8262 205.748 71.4782C206.855 69.3905 204.386 69.1614 203.025 69.7597C199.934 71.1091 197.453 74.3934 195.964 77.3212L196.575 77.614Z" fill="#488288"/>
<path d="M194.145 86.6778C198.369 84.832 203.75 82.6424 206.129 77.9706C207.618 75.0554 204.437 74.8263 202.669 75.6792C198.636 77.6141 195.353 82.2224 193.356 86.2959L194.132 86.6778H194.145Z" fill="#488288"/>
<path d="M194.641 80.7456C192.72 79.5108 190.659 78.747 189.17 76.9394C187.873 75.3736 187.453 73.375 187.567 71.3892C187.618 70.5108 187.567 69.4415 188.254 68.7668C189.221 67.8248 189.654 69.3015 189.997 70.1544C190.71 71.962 191.549 73.7697 192.453 75.4882C192.949 76.4302 193.394 77.334 193.789 78.3015C194.056 78.938 194.857 79.9691 194.908 80.5038" fill="#488288"/>
<path d="M202.694 83.5716C200.735 85.1247 194.819 90.6622 192.389 92.5971C192.173 93.4755 191.944 94.3538 191.702 95.2449C196.46 93.1318 203.547 88.6636 204.971 86.9068C205.582 86.1431 206.651 84.2845 206.32 83.3043C205.735 81.5348 203.547 82.8969 202.694 83.5716Z" fill="#488288"/>
<path d="M204.539 97.7528C201.753 99.064 193.114 104.029 189.666 105.645C189.158 106.638 188.636 107.631 188.102 108.624C194.386 107.428 204.132 104.092 206.333 102.374C207.287 101.635 209.068 99.7132 208.966 98.4402C208.763 96.1616 205.76 97.1672 204.552 97.7401L204.539 97.7528Z" fill="#488288"/>
<path d="M190.837 97.0016C189.692 96.1869 184.539 95.1176 181.231 88.3835C180.761 87.4288 180.226 86.1176 180.863 85.1119C181.74 83.7244 182.885 85.0228 183.585 85.863C184.972 87.5179 189.756 94.1883 191.155 95.6905" fill="#488288"/>
<path d="M189.819 102.399C191.282 101.814 193.051 101.648 194.603 101.088C196.269 100.49 204.615 96.047 206.587 93.7683C207.44 92.7754 209.475 91.3369 208.725 89.8475C208.012 88.4091 205.9 88.8037 204.666 89.2365C201.816 90.2422 191.689 99.2676 189.399 101.941" fill="#488288"/>
<path d="M189.17 103.596C183.292 101.775 175.812 94.3793 175.863 93.0045C175.952 90.0384 179.997 91.426 181.435 92.5208C184.641 94.9649 189.488 102.807 189.056 103.316" fill="#488288"/>
<path d="M113.853 121.583C120.723 121.201 127.326 119.839 134.247 120.552C140.901 121.227 147.58 122.385 154.069 123.964C160.048 125.427 165.952 127.171 171.944 128.61C178.941 130.278 184.806 133.511 191.371 136.235C192.427 136.668 193.203 135.077 192.147 134.631C186.193 132.162 180.786 129.043 174.488 127.401C167.809 125.657 161.104 123.849 154.412 122.207C147.657 120.565 140.685 119.368 133.764 118.719C126.995 118.082 120.443 119.432 113.713 119.814C112.568 119.877 112.708 121.647 113.853 121.583Z" fill="#488288"/>
<path d="M114.706 120.667C113.204 120.679 111.08 121.889 110.495 123.314C109.807 124.969 111.398 125.555 112.797 125.211C114.362 124.829 115.596 123.607 116.868 122.703C118.192 121.761 119.909 121.367 121.054 120.272C119.922 120.005 118.153 120.323 117.021 120.527C115.812 120.743 114.578 120.667 113.395 120.858" fill="#488288"/>
<path d="M117.784 120.603C115.202 120.832 112.047 122.576 109.502 121.125C107.848 120.17 107.619 118.732 109.362 117.751C110.685 117.013 112.212 117.408 113.522 117.955C115.189 118.643 117.199 119.559 118.662 120.552" fill="#488288"/>
<path d="M124.54 119.177C122.568 116.975 120.138 114.136 116.945 113.716C114.96 113.461 115.52 115.486 116.385 116.389C118.37 118.452 121.716 119.445 124.476 119.75L124.527 119.177H124.54Z" fill="#488288"/>
<path d="M131.423 118.986C129.451 115.956 127.059 112.074 123.293 110.966C120.94 110.279 121.232 112.838 122.123 114.085C124.133 116.949 127.988 118.77 131.258 119.661L131.423 118.986Z" fill="#488288"/>
<path d="M147.275 121.125C145.863 117.79 144.183 113.551 140.672 111.807C138.484 110.724 138.318 113.283 138.967 114.671C140.443 117.84 143.916 120.31 146.995 121.761L147.275 121.125Z" fill="#488288"/>
<path d="M160.697 124.384C160.137 120.145 159.552 114.785 156.092 111.692C153.929 109.77 152.949 112.634 153.255 114.429C153.942 118.502 157.122 122.41 160.176 125.033L160.697 124.396V124.384Z" fill="#488288"/>
<path d="M141.766 119.877C139.044 116.72 135.71 112.659 131.283 112.023C128.522 111.628 129.286 114.505 130.481 115.804C133.217 118.757 137.848 120.208 141.69 120.692L141.766 119.877Z" fill="#488288"/>
<path d="M124.667 120.756C123.064 123.238 121.118 126.433 118.026 127.35C116.105 127.923 116.334 125.822 117.059 124.804C118.701 122.461 121.843 120.947 124.527 120.208L124.667 120.768V120.756Z" fill="#488288"/>
<path d="M140.303 119.712C137.746 121.914 134.591 124.753 130.939 124.766C128.662 124.766 129.591 122.563 130.698 121.672C133.242 119.636 137.161 119.012 140.329 119.063L140.303 119.712Z" fill="#488288"/>
<path d="M149.985 123.136C147.25 125.491 143.866 128.546 139.947 128.546C137.504 128.546 138.497 126.179 139.693 125.224C142.415 123.047 146.626 122.372 150.01 122.436L149.985 123.136Z" fill="#488288"/>
<path d="M159.438 125.288C155.71 128.254 151.105 132.111 145.685 132.034C142.313 131.984 143.636 128.967 145.265 127.757C148.98 125.02 154.781 124.244 159.463 124.384L159.438 125.288Z" fill="#488288"/>
<path d="M153.776 122.881C153.586 120.539 153.865 118.273 152.949 116.046C152.148 114.111 150.532 112.749 148.662 111.896C147.835 111.514 146.893 110.941 145.939 111.246C144.603 111.679 145.748 112.787 146.372 113.512C147.682 115.04 148.929 116.669 150.049 118.337C150.672 119.253 151.283 120.094 151.97 120.921C152.415 121.468 152.975 122.703 153.433 123.009" fill="#488288"/>
<path d="M152.466 131.614C154.832 130.57 162.758 127.846 165.684 126.561C166.588 126.79 167.504 127.006 168.432 127.21C164.196 130.532 156.702 134.86 154.4 135.306C153.407 135.497 151.194 135.573 150.456 134.797C149.12 133.409 151.423 132.06 152.453 131.614H152.466Z" fill="#488288"/>
<path d="M164.514 140.143C167.058 138.234 175.773 132.747 178.916 130.367C180.073 130.392 181.219 130.379 182.389 130.367C178.254 135.535 170.493 142.817 167.86 144C166.728 144.51 164.094 145.21 163 144.497C161.015 143.211 163.394 140.958 164.501 140.118L164.514 140.143Z" fill="#488288"/>
<path d="M170.455 127.273C170.252 125.835 171.778 120.603 167.236 114.327C166.588 113.436 165.646 112.316 164.438 112.405C162.745 112.532 163.382 114.213 163.814 115.256C164.667 117.319 168.432 124.918 169.119 126.93" fill="#488288"/>
<path d="M175.875 128.954C174.641 130.01 173.623 131.551 172.364 132.696C171.015 133.931 162.911 139.418 159.883 140.105C158.573 140.411 156.257 141.556 155.265 140.169C154.298 138.819 155.685 137.075 156.677 136.172C158.967 134.058 172.109 129.157 175.659 128.368" fill="#488288"/>
<path d="M177.287 128.928C178.471 122.678 175.328 112.265 174.069 111.641C171.321 110.292 170.621 114.658 170.926 116.491C171.613 120.603 176.422 128.826 177.097 128.674" fill="#488288"/>
<path d="M334.766 302.958C331.751 295.244 319.995 282.693 310.988 287.008C306.535 289.134 301.853 294.098 300.352 298.859C299.83 300.527 299.13 304.448 300.288 306.014C301.637 307.834 304.436 305.95 306.242 305.454C309.334 304.601 312.603 304.359 315.759 304.957C318.659 305.504 323.939 307.198 325.262 310.151C324.092 311.373 322.133 310.227 320.771 309.896C319.232 309.527 317.68 309.578 316.102 309.349C313.341 308.942 310.453 308.661 307.654 309.285C302.247 310.482 298.176 315.523 297.502 320.895C297.171 323.517 297.247 327.871 298.99 330.009C302.451 328.469 305.708 326.674 309.207 325.299C311.929 324.23 317.909 321.951 320.682 324.141C324.181 326.903 313.011 328.953 311.369 329.538C307.489 330.926 301.777 333.268 301.09 337.813C300.517 341.606 303.138 346.686 304.652 350.072C305.415 351.765 306.268 353.687 307.438 355.113C309.105 357.162 310.25 355.838 311.395 353.814C313.659 349.817 313.863 343.49 318.952 341.479C322.362 340.13 322.171 343.516 320.695 345.655C319.499 347.411 317.921 348.875 316.471 350.403C312.693 354.374 312.782 359.275 315.593 363.756C317.96 367.537 321.547 371.814 324.817 374.908C322.031 369.612 329.69 366.824 332.247 363.82C335.313 360.205 334.906 356.208 334.041 351.905C336.471 356.042 337.183 359.085 337.209 363.744C339.333 361.096 341.394 358.321 343.544 355.647C345.695 352.961 349.384 349.932 348.392 346.036C347.488 342.497 344.117 339.722 340.911 338.475C339.855 338.068 336.763 338.017 336.394 337.266C335.237 334.898 338.939 334.77 340.173 334.949C342.272 335.229 344.117 336.209 345.593 337.762C346.254 338.462 347.565 341.365 348.468 341.377C350.351 341.403 353.252 330.621 353.506 329.271C354.091 326.152 354.6 321.277 350.847 320.182C347.921 319.329 343.646 320.819 340.987 319.622C336.598 317.649 345.16 315.052 347.03 315.116C351.013 315.23 353.163 316.847 355.554 319.775C357.234 318.069 357.183 313.066 357.412 310.787C357.679 308.229 358.226 305.199 357.946 302.666C357.132 295.282 346.522 296.135 341.712 298.338C339.308 299.432 336.407 300.578 335.224 302.971" fill="#A6D2AC"/>
<path d="M358.951 258.684C351.025 260.695 337.132 270.37 340.02 279.23C341.445 283.609 345.58 288.497 349.995 290.394C351.534 291.056 355.249 292.113 356.941 291.196C358.9 290.127 357.488 287.326 357.259 285.582C356.878 282.603 357.119 279.535 358.15 276.646C359.104 273.998 361.509 269.237 364.575 268.308C365.592 269.53 364.193 271.236 363.684 272.483C363.112 273.883 362.933 275.347 362.475 276.786C361.674 279.319 360.987 281.992 361.19 284.666C361.559 289.834 365.872 294.175 370.999 295.359C373.493 295.944 377.742 296.326 380.071 294.913C379.078 291.527 377.806 288.294 376.979 284.882C376.343 282.234 374.994 276.404 377.513 274.049C380.707 271.07 381.076 281.712 381.406 283.304C382.195 287.072 383.646 292.66 387.958 293.767C391.572 294.697 396.877 292.787 400.388 291.718C402.144 291.183 404.141 290.585 405.694 289.643C407.92 288.294 406.8 287.097 404.994 285.811C401.432 283.278 395.325 282.425 394.103 277.461C393.289 274.138 396.546 274.673 398.416 276.264C399.943 277.562 401.139 279.192 402.411 280.707C405.719 284.653 410.49 285.086 415.261 282.922C419.268 281.101 423.95 278.199 427.424 275.462C421.877 277.511 420.274 270.064 417.716 267.366C414.65 264.12 410.706 264.094 406.393 264.451C410.77 262.605 413.823 262.274 418.34 262.732C416.075 260.466 413.671 258.251 411.393 255.972C409.103 253.681 406.686 249.926 402.755 250.448C399.18 250.919 395.999 253.783 394.332 256.647C393.785 257.589 393.289 260.479 392.5 260.746C390.032 261.586 390.452 258.098 390.796 256.965C391.381 255.03 392.589 253.414 394.307 252.192C395.083 251.644 398.086 250.728 398.238 249.875C398.531 248.118 388.48 244.286 387.208 243.905C384.256 243.026 379.6 242.046 377.997 245.432C376.737 248.08 377.564 252.23 376.025 254.585C373.48 258.468 372.195 250.219 372.513 248.475C373.2 244.77 375.083 242.924 378.277 241.002C376.864 239.258 372.005 238.787 369.816 238.329C367.374 237.82 364.498 236.992 362.005 236.979C354.715 236.979 354.015 246.972 355.453 251.695C356.178 254.063 356.865 256.876 359.015 258.238" fill="#A6D2AC"/>
<path d="M343.914 287.619C338.952 286.117 332.629 284.144 327.781 282.374C321.471 280.057 318.227 282.234 316.929 288.727C315.326 296.746 318.418 307.045 321.776 314.364C322.972 316.949 323.418 317.28 326.102 315.548C328.087 314.275 329.728 312.799 331.814 311.653C335.86 309.438 339.537 307.86 344.181 308C351.509 308.216 345.555 312.659 342.018 313.55C337.908 314.594 333.786 316.21 330.161 318.591C323.939 322.677 346.725 336.693 352.259 337.291C352.476 333.803 357.921 326.229 361.967 326.127C365.529 326.038 363.239 328.546 361.801 330.009C360.147 331.69 358.468 333.077 357.641 335.267C354.27 344.254 377.844 342.472 382.59 341.937C388.824 341.225 391.343 343.541 394.765 348.226C396.979 341.785 400.121 332.454 396.317 326.267C394.473 323.263 390.732 322.168 387.679 320.882C385.58 319.991 379.473 316.554 385.261 316.694C389.307 316.796 392.717 319.902 396.852 319.902C397.755 317.038 397.717 309.273 395.401 307.058C392.628 304.41 385.885 307.541 382.463 306.994C384.74 302.284 391.305 304.015 395.35 303.43C395.567 297.345 393.633 286.601 388.62 282.209C381.305 275.806 376.063 289.834 375.376 292.431C374.867 294.34 373.786 297.561 372.806 293.984C371.941 290.852 375.402 283.762 377.119 281.063C377.959 279.752 381.292 277.384 381.305 275.793C381.317 273.985 358.214 259.41 349.791 261.663C341.038 264.005 340.746 280.949 343.888 287.606L343.914 287.619Z" fill="#004F56"/>
<path d="M313.774 362.038C317.222 356.335 321.356 351.307 323.901 345.069C326.344 339.073 328.379 332.835 329.97 326.56C331.433 320.78 332.603 314.95 334.092 309.171C335.835 302.424 335.733 295.957 336.369 289.096C336.471 288.001 338.188 288.052 338.086 289.159C337.501 295.371 337.718 301.418 336.267 307.528C334.728 314.033 333.239 320.577 331.611 327.056C329.957 333.574 327.819 340.079 325.25 346.291C322.73 352.363 318.608 357.353 315.237 362.942C314.664 363.884 313.214 362.967 313.787 362.025L313.774 362.038Z" fill="#488288"/>
<path d="M314.932 361.732C314.232 363.005 312.235 364.278 310.759 364.138C309.029 363.973 309.258 362.356 310.186 361.312C311.217 360.141 312.82 359.645 314.181 358.957C315.581 358.257 316.7 356.971 318.151 356.488C317.871 357.582 316.789 358.944 316.102 359.823C315.377 360.752 314.881 361.847 314.181 362.776" fill="#488288"/>
<path d="M316.395 359.135C315.034 361.236 312.107 363.158 312.209 365.984C312.273 367.83 313.405 368.683 315.034 367.639C316.268 366.85 316.624 365.348 316.751 363.998C316.916 362.267 317.056 360.128 316.866 358.423" fill="#488288"/>
<path d="M320.657 353.993C321.649 356.679 322.972 360.039 321.891 362.954C321.217 364.775 319.728 363.375 319.359 362.216C318.494 359.581 319.168 356.271 320.148 353.763L320.657 353.98V353.993Z" fill="#488288"/>
<path d="M323.952 348.188C325.644 351.243 327.883 355.049 327.12 358.779C326.636 361.096 324.588 359.695 323.927 358.372C322.4 355.355 322.578 351.23 323.303 348.022L323.965 348.188H323.952Z" fill="#488288"/>
<path d="M329.295 333.663C331.496 336.374 334.372 339.735 334.257 343.541C334.194 345.909 331.929 344.878 331.038 343.694C329.003 340.995 328.468 336.909 328.608 333.612L329.283 333.663H329.295Z" fill="#488288"/>
<path d="M332.591 320.704C335.962 323.11 340.275 326.025 341.356 330.391C342.031 333.116 339.13 332.645 337.73 331.588C334.563 329.157 332.667 324.663 331.802 320.869L332.591 320.704Z" fill="#488288"/>
<path d="M327.858 338.946C329.321 342.701 331.28 347.399 329.83 351.472C328.926 354.005 326.802 352.058 326.242 350.441C324.957 346.762 325.822 342.141 327.145 338.64L327.871 338.946H327.858Z" fill="#488288"/>
<path d="M319.372 353.165C316.522 353.407 312.909 353.636 310.733 355.851C309.372 357.239 311.268 357.99 312.476 357.837C315.224 357.493 317.934 355.495 319.779 353.534L319.372 353.165Z" fill="#488288"/>
<path d="M327.349 340.27C324.321 341.454 320.453 342.867 318.799 345.998C317.769 347.946 320.072 348.15 321.344 347.602C324.232 346.342 326.547 343.274 327.934 340.55L327.362 340.283L327.349 340.27Z" fill="#488288"/>
<path d="M328.812 330.442C325.555 331.715 321.42 333.23 319.639 336.578C318.532 338.666 321 338.895 322.362 338.296C325.453 336.947 327.934 333.663 329.423 330.735L328.812 330.442Z" fill="#488288"/>
<path d="M331.242 321.366C327.018 323.212 321.636 325.401 319.257 330.073C317.769 332.988 320.949 333.217 322.718 332.365C326.751 330.43 330.033 325.821 332.031 321.748L331.255 321.366H331.242Z" fill="#488288"/>
<path d="M330.746 327.311C332.667 328.546 334.728 329.309 336.216 331.117C337.514 332.683 337.934 334.681 337.819 336.667C337.768 337.546 337.819 338.615 337.132 339.29C336.165 340.232 335.733 338.755 335.389 337.902C334.677 336.094 333.837 334.287 332.934 332.568C332.438 331.626 331.992 330.722 331.598 329.755C331.331 329.118 330.529 328.087 330.479 327.553" fill="#488288"/>
<path d="M322.692 324.472C324.652 322.919 330.568 317.381 332.998 315.446C333.214 314.568 333.443 313.69 333.685 312.799C328.926 314.912 321.84 319.38 320.415 321.137C319.804 321.9 318.736 323.759 319.067 324.739C319.652 326.509 321.84 325.147 322.692 324.472Z" fill="#488288"/>
<path d="M320.86 310.304C323.647 308.993 332.285 304.028 335.733 302.411C336.242 301.418 336.763 300.425 337.298 299.432C331.013 300.629 321.267 303.964 319.066 305.683C318.112 306.421 316.331 308.343 316.433 309.616C316.636 311.895 319.639 310.889 320.848 310.316L320.86 310.304Z" fill="#488288"/>
<path d="M334.55 311.055C335.695 311.869 340.847 312.939 344.155 319.673C344.626 320.628 345.16 321.939 344.524 322.944C343.646 324.332 342.501 323.034 341.802 322.193C340.415 320.538 335.631 313.868 334.232 312.366" fill="#488288"/>
<path d="M335.567 305.645C334.104 306.23 332.336 306.396 330.784 306.956C329.117 307.554 320.771 311.997 318.799 314.275C317.947 315.268 315.911 316.707 316.662 318.196C317.374 319.635 319.486 319.24 320.72 318.807C323.57 317.802 333.697 308.776 335.987 306.103" fill="#488288"/>
<path d="M336.216 304.46C342.094 306.281 349.575 313.677 349.524 315.052C349.435 318.018 345.389 316.63 343.952 315.535C340.746 313.091 335.898 305.25 336.331 304.741" fill="#488288"/>
<path d="M411.533 286.473C404.663 286.855 398.06 288.217 391.139 287.504C384.485 286.83 377.806 285.671 371.318 284.093C365.338 282.629 359.435 280.885 353.443 279.446C346.445 277.779 340.58 274.545 334.015 271.821C332.959 271.388 332.183 272.98 333.239 273.425C339.193 275.895 344.601 279.014 350.898 280.656C357.577 282.4 364.282 284.207 370.974 285.85C377.73 287.492 384.702 288.688 391.623 289.337C398.391 289.974 404.943 288.625 411.673 288.243C412.818 288.179 412.678 286.41 411.533 286.473Z" fill="#488288"/>
<path d="M410.694 287.39C412.195 287.377 414.32 286.168 414.905 284.742C415.592 283.087 414.002 282.502 412.602 282.845C411.037 283.227 409.803 284.449 408.531 285.353C407.208 286.295 405.49 286.69 404.345 287.785C405.478 288.052 407.246 287.734 408.378 287.53C409.587 287.314 410.821 287.39 412.004 287.199" fill="#488288"/>
<path d="M407.615 287.454C410.198 287.224 413.353 285.48 415.897 286.932C417.551 287.886 417.78 289.325 416.037 290.305C414.714 291.043 413.187 290.649 411.877 290.101C410.21 289.414 408.2 288.497 406.737 287.504" fill="#488288"/>
<path d="M400.846 288.867C402.818 291.069 405.248 293.908 408.442 294.328C410.426 294.582 409.867 292.558 409.002 291.654C407.017 289.592 403.671 288.599 400.91 288.294L400.859 288.867H400.846Z" fill="#488288"/>
<path d="M393.964 289.058C395.936 292.087 398.327 295.97 402.093 297.077C404.447 297.765 404.154 295.206 403.264 293.959C401.254 291.094 397.399 289.274 394.129 288.383L393.964 289.058Z" fill="#488288"/>
<path d="M378.112 286.932C379.524 290.267 381.203 294.506 384.715 296.25C386.903 297.332 387.068 294.773 386.419 293.386C384.944 290.216 381.47 287.746 378.391 286.295L378.112 286.932Z" fill="#488288"/>
<path d="M364.689 283.673C365.249 287.912 365.834 293.271 369.295 296.365C371.458 298.287 372.437 295.423 372.132 293.628C371.445 289.554 368.264 285.646 365.211 283.024L364.689 283.66V283.673Z" fill="#488288"/>
<path d="M383.633 288.167C386.356 291.324 389.689 295.384 394.116 296.021C396.877 296.415 396.114 293.539 394.918 292.24C392.183 289.287 387.552 287.836 383.709 287.352L383.633 288.167Z" fill="#488288"/>
<path d="M400.719 287.288C402.322 284.806 404.269 281.611 407.36 280.694C409.281 280.121 409.052 282.222 408.327 283.24C406.686 285.582 403.544 287.097 400.859 287.835L400.719 287.275V287.288Z" fill="#488288"/>
<path d="M385.083 288.345C387.641 286.142 390.796 283.304 394.447 283.291C396.724 283.291 395.796 285.493 394.689 286.384C392.144 288.421 388.226 289.045 385.058 288.994L385.083 288.345Z" fill="#488288"/>
<path d="M375.402 284.92C378.137 282.565 381.521 279.51 385.44 279.51C387.882 279.51 386.89 281.878 385.694 282.833C382.972 285.01 378.76 285.684 375.364 285.621L375.389 284.92H375.402Z" fill="#488288"/>
<path d="M365.949 282.756C369.676 279.79 374.282 275.933 379.702 276.009C383.073 276.06 381.75 279.077 380.122 280.287C376.407 283.024 370.605 283.8 365.923 283.66L365.949 282.756Z" fill="#488288"/>
<path d="M371.61 285.175C371.801 287.517 371.521 289.783 372.437 292.011C373.239 293.946 374.855 295.308 376.725 296.161C377.552 296.543 378.493 297.116 379.447 296.81C380.783 296.377 379.638 295.27 379.015 294.544C377.704 293.017 376.458 291.387 375.338 289.719C374.715 288.803 374.104 287.963 373.417 287.135C372.972 286.588 372.412 285.353 371.954 285.048" fill="#488288"/>
<path d="M372.921 276.442C370.554 277.486 362.628 280.21 359.702 281.496C358.799 281.267 357.883 281.05 356.954 280.847C361.191 277.524 368.684 273.196 370.987 272.751C371.979 272.56 374.193 272.483 374.931 273.26C376.267 274.647 373.964 275.997 372.934 276.442H372.921Z" fill="#488288"/>
<path d="M360.873 267.9C358.328 269.81 349.613 275.297 346.471 277.677C345.313 277.652 344.168 277.664 342.998 277.677C347.132 272.509 354.893 265.227 357.527 264.043C358.659 263.534 361.292 262.834 362.387 263.547C364.371 264.833 361.992 267.086 360.885 267.926L360.873 267.9Z" fill="#488288"/>
<path d="M354.931 280.783C355.135 282.222 353.608 287.454 358.15 293.729C358.799 294.621 359.74 295.741 360.949 295.652C362.641 295.524 362.005 293.844 361.572 292.8C360.72 290.738 356.954 283.138 356.267 281.127" fill="#488288"/>
<path d="M349.511 279.103C350.746 278.046 351.763 276.506 353.023 275.36C354.371 274.125 362.476 268.639 365.504 267.951C366.814 267.646 369.13 266.5 370.122 267.888C371.089 269.237 369.702 270.981 368.71 271.885C366.42 273.998 353.277 278.899 349.728 279.688" fill="#488288"/>
<path d="M348.099 279.115C346.916 285.366 350.058 295.779 351.318 296.403C354.066 297.752 354.766 293.386 354.46 291.553C353.773 287.441 348.964 279.217 348.29 279.37" fill="#488288"/>
<path d="M125.736 444.553C125.736 447.099 97.5939 449.174 62.8743 449.174C28.1548 449.174 0.0126953 447.112 0.0126953 444.553C0.0126953 441.994 28.1548 439.932 62.8743 439.932C97.5939 439.932 125.736 441.994 125.736 444.553Z" fill="#F2F2F2"/>
<path d="M104.489 169.74C108.166 168.429 111.843 166.889 115.507 165.17L120.393 181.999C116.003 185.003 111.576 187.715 107.161 190.006C103.09 192.132 98.9933 193.876 94.9603 195.175C88.4083 197.288 81.4745 197.822 74.7316 196.715C73.4085 196.498 72.1108 196.206 70.8004 195.875C63.4086 193.902 60.4189 185.003 65.1389 178.982C67.2635 176.271 70.5586 174.756 74.0064 174.921C83.9808 175.341 94.2351 173.406 104.477 169.727L104.489 169.74Z" fill="#004F56"/>
<path d="M174.959 143.542C169.807 149.449 157.847 149.614 157.847 149.614C148.267 159.276 137.555 169.257 126.474 177.62L121.919 161.937C132.555 156.272 142.949 149.118 152.758 141.251C154.54 137.865 156.193 135.599 157.644 134.148C159.552 132.225 162.669 134.504 161.473 136.923L160.328 140.092L163.369 138.259C165.634 136.63 167.682 135.675 169.438 135.14C174.374 133.715 178.356 139.685 174.985 143.555L174.959 143.542Z" fill="#B38273"/>
<path d="M121.919 161.924L126.512 177.747L120.94 183.921L115.494 165.157C117.632 164.152 119.782 163.057 121.907 161.924H121.919Z" fill="#A6D2AC"/>
<path d="M167.911 120.947C167.567 121.265 167.237 121.583 166.906 121.901C167.402 121.43 167.898 120.972 168.394 120.514C168.229 120.667 168.063 120.807 167.911 120.947Z" fill="#009CFA"/>
<path d="M209.31 134.682C203.012 136.184 196.676 139.965 194.628 146.126C193.127 150.633 193.712 156.527 189.692 159.073C186.409 161.16 182.046 159.505 178.789 157.405C175.506 155.279 172.16 152.631 168.254 152.784C168.814 162.561 171.639 172.21 176.448 180.726C176.728 181.223 177.033 181.719 177.364 182.216C177.364 182.216 177.376 182.241 177.389 182.254C181.804 178.638 187.643 176.704 193.928 177.391C203.992 178.498 212.16 186.544 213.406 196.588C213.661 198.612 213.635 200.585 213.368 202.494C213.406 202.507 213.445 202.52 213.483 202.532C216.434 203.589 219.182 205.257 221.867 206.912C226.956 210.043 232.032 213.175 237.121 216.306C237.185 216.344 237.261 216.395 237.325 216.433H255.543V165.17C251.561 170.033 245.531 173.165 238.788 173.266C237.897 173.266 236.994 173.216 236.078 173.114C225.963 171.917 217.847 163.694 216.74 153.561C215.798 144.892 219.857 137.101 226.396 132.684C226.243 132.696 226.103 132.722 225.951 132.735C220.391 133.384 214.742 133.371 209.297 134.669L209.31 134.682Z" fill="#6CA8FB"/>
<path d="M166.919 196.613C165.583 194.003 165.875 190.897 165.379 188.008C164.832 184.787 163.293 181.846 161.779 178.957C158.229 172.172 147.58 155.928 144.934 149.118C133.484 168.009 126.703 190.044 126.194 213.62C126.168 214.499 126.156 215.402 126.156 216.294C126.156 216.332 126.156 216.383 126.156 216.421H173.611C173.611 216.421 173.611 216.332 173.611 216.294C173.7 215.135 173.75 213.977 173.763 212.844C173.763 212.716 173.763 212.576 173.763 212.449C171.142 208.923 169.539 204.582 169.399 199.872C169.348 199.808 169.285 199.745 169.234 199.694C168.369 198.726 167.504 197.759 166.906 196.613H166.919Z" fill="#6CA8FB"/>
<path d="M232.897 88.4601C235.887 90.3313 237.617 93.8321 238.177 97.3328C238.749 100.974 238.241 104.691 237.719 108.344C237.528 109.655 237.248 111.107 236.18 111.858C235.518 112.316 234.691 112.405 233.902 112.405C229.78 112.405 226.091 110.05 222.325 108.344C218.559 106.664 213.839 105.684 210.544 108.191C208.394 109.821 207.376 112.812 208.088 115.422C208.788 118.032 211.193 120.094 213.877 120.399C216.358 120.679 218.775 119.597 221.18 118.884C225.734 117.522 230.963 117.548 234.907 120.208C236.141 121.049 237.261 122.182 237.706 123.607C238.279 125.491 237.554 127.528 236.243 129.017C236.243 129.03 236.218 129.043 236.205 129.056C236.994 128.967 237.795 128.916 238.61 128.903C245.429 128.954 251.536 132.098 255.556 136.999V86.3596C247.821 86.3978 240.251 87.1107 232.897 88.4473V88.4601Z" fill="#6CA8FB"/>
<path d="M237.706 123.607C237.274 122.169 236.141 121.048 234.907 120.208C230.963 117.535 225.735 117.522 221.18 118.884C218.775 119.597 216.358 120.679 213.877 120.399C211.193 120.081 208.788 118.031 208.088 115.422C207.376 112.812 208.381 109.821 210.544 108.191C213.839 105.696 218.559 106.664 222.325 108.344C226.091 110.05 229.78 112.405 233.902 112.405C234.691 112.405 235.518 112.316 236.18 111.857C237.261 111.106 237.541 109.655 237.719 108.344C238.228 104.691 238.75 100.973 238.177 97.3327C237.617 93.8192 235.887 90.3313 232.897 88.46H232.885C232.541 88.5236 232.21 88.5873 231.879 88.6636C231.434 88.7528 230.989 88.8291 230.544 88.9182C229.933 89.0455 229.322 89.1601 228.712 89.3001C228.215 89.402 227.719 89.5165 227.223 89.6311C226.663 89.7584 226.103 89.8857 225.544 90.0257C224.946 90.1658 224.348 90.3313 223.75 90.484C223.292 90.5986 222.847 90.7132 222.389 90.8277C221.358 91.1078 220.327 91.4006 219.31 91.6934C219.004 91.7825 218.699 91.8843 218.394 91.9734C217.643 92.2025 216.88 92.4317 216.129 92.6736C215.773 92.7881 215.417 92.9154 215.048 93.03C214.348 93.2591 213.661 93.501 212.974 93.7429C212.618 93.8702 212.249 93.9975 211.893 94.1375C211.205 94.3921 210.506 94.6467 209.819 94.9013C209.475 95.0286 209.144 95.1559 208.814 95.2959C208.088 95.576 207.363 95.8688 206.638 96.1743C206.358 96.2888 206.066 96.4034 205.786 96.5307C204.959 96.8744 204.132 97.2436 203.305 97.6C203.139 97.6764 202.961 97.7528 202.796 97.8292C200.748 98.7584 198.725 99.7259 196.727 100.757C196.676 100.782 196.613 100.821 196.562 100.846C195.646 101.317 194.743 101.801 193.839 102.297C193.648 102.399 193.47 102.501 193.28 102.616C192.503 103.048 191.74 103.481 190.977 103.914C190.748 104.041 190.531 104.181 190.302 104.309C189.577 104.741 188.852 105.174 188.127 105.62C187.911 105.76 187.682 105.887 187.465 106.027C186.715 106.498 185.977 106.969 185.239 107.44C185.061 107.555 184.883 107.669 184.692 107.797C183.839 108.357 182.987 108.942 182.135 109.528C182.084 109.566 182.046 109.592 181.995 109.63C180.175 110.903 178.382 112.214 176.626 113.576C176.46 113.703 176.308 113.831 176.142 113.958C175.455 114.493 174.781 115.027 174.107 115.575C173.865 115.778 173.623 115.969 173.382 116.173C172.796 116.657 172.211 117.153 171.626 117.65C171.359 117.879 171.092 118.121 170.812 118.35C170.265 118.821 169.718 119.304 169.183 119.788C168.903 120.03 168.636 120.285 168.356 120.527C167.86 120.985 167.364 121.456 166.868 121.914C166.55 122.22 166.232 122.512 165.914 122.818C165.43 123.289 164.947 123.773 164.463 124.244C164.158 124.549 163.853 124.842 163.547 125.147C163.064 125.631 162.593 126.128 162.122 126.624C161.83 126.93 161.524 127.235 161.232 127.553C160.761 128.05 160.303 128.559 159.845 129.068C159.552 129.387 159.272 129.692 158.98 130.01C158.535 130.519 158.089 131.029 157.644 131.538C156.804 132.505 155.977 133.498 155.163 134.491C155.036 134.657 154.896 134.809 154.769 134.975C154.272 135.586 153.802 136.21 153.318 136.834C153.127 137.075 152.949 137.305 152.759 137.546C152.275 138.183 151.792 138.832 151.308 139.481C151.143 139.71 150.977 139.927 150.812 140.143C150.329 140.818 149.845 141.505 149.362 142.18C149.222 142.384 149.082 142.587 148.942 142.791C148.446 143.504 147.975 144.23 147.491 144.955C147.377 145.133 147.262 145.299 147.148 145.477C146.652 146.241 146.168 147.005 145.685 147.768C145.596 147.909 145.507 148.049 145.43 148.189C145.24 148.494 145.049 148.787 144.871 149.092V149.118C147.517 155.928 158.166 172.172 161.715 178.957C163.229 181.846 164.769 184.8 165.316 188.008C165.812 190.897 165.519 194.003 166.855 196.613C167.453 197.759 168.318 198.726 169.183 199.694C169.234 199.757 169.285 199.821 169.349 199.872C169.349 199.655 169.336 199.439 169.336 199.223C169.336 193.952 171.168 189.128 174.234 185.322C175.163 184.189 176.206 183.158 177.338 182.228C177.338 182.228 177.326 182.203 177.313 182.19C176.982 181.706 176.664 181.197 176.397 180.701C171.588 172.172 168.763 162.522 168.204 152.759C172.109 152.606 175.455 155.254 178.738 157.38C181.995 159.493 186.371 161.148 189.641 159.047C193.648 156.501 193.076 150.62 194.577 146.101C196.626 139.94 202.961 136.159 209.259 134.657C214.717 133.358 220.366 133.371 225.913 132.722C226.065 132.709 226.205 132.684 226.358 132.671C229.22 130.736 232.554 129.463 236.154 129.043C236.154 129.03 236.18 129.017 236.192 129.005C237.516 127.515 238.228 125.478 237.655 123.594L237.706 123.607Z" fill="#A6D2AC"/>
<path d="M173.611 216.294C173.611 216.294 173.611 216.383 173.611 216.421H177.567C176.142 215.263 174.87 213.926 173.776 212.449C173.776 212.577 173.776 212.717 173.776 212.844C173.776 213.977 173.712 215.135 173.623 216.294H173.611Z" fill="#A6D2AC"/>
<path d="M221.867 206.912C219.182 205.257 216.434 203.589 213.483 202.533C213.445 202.52 213.406 202.507 213.368 202.494C212.821 206.466 211.205 210.107 208.839 213.124C208.712 213.277 208.597 213.442 208.47 213.595C207.592 214.626 206.625 215.581 205.569 216.434H237.337C237.274 216.395 237.197 216.344 237.134 216.306C232.045 213.175 226.968 210.043 221.88 206.912H221.867Z" fill="#A6D2AC"/>
<path d="M69.8208 153.472C69.8208 153.472 66.5257 164.738 65.3044 174.552C64.7319 179.173 76.5256 184.596 77.009 184.418C77.5815 184.202 78.0395 183.642 77.9886 182.916C77.7088 178.091 77.8869 169.537 81.6273 162.968L69.8081 153.472H69.8208Z" fill="#A97261"/>
<path d="M65.3934 159.086C68.7012 165.145 75.3805 170.721 80.813 169.499C86.4236 168.226 90.533 161.67 91.7034 155.814C91.7543 155.827 91.8179 155.839 91.8815 155.827C92.5686 155.687 93.4973 155.419 93.5482 154.757C93.5991 154.159 92.8103 153.612 92.0342 153.23C92.0724 152.39 92.0724 152.835 91.9706 151.995C89.8968 132.824 83.2812 129.489 75.9021 130.494C72.7215 130.927 69.6427 133.931 67.3399 137.89C63.2178 144.981 64.2484 157.303 65.4061 159.086H65.3934Z" fill="#B38273"/>
<path d="M86.1946 158.856C84.9223 158.016 83.701 156.54 83.7392 154.032C83.7392 153.828 83.9173 153.663 84.1208 153.663C84.3244 153.663 84.4898 153.828 84.4898 154.044C84.4262 158.525 88.8663 159.187 89.0571 159.213C89.2607 159.238 89.4006 159.429 89.3752 159.633C89.3498 159.837 89.1589 159.977 88.9554 159.951C88.9299 159.951 87.5432 159.747 86.2073 158.856H86.1946Z" fill="#004F56"/>
<path d="M87.3777 151.129C87.3777 152.364 87.8611 153.383 88.4591 153.383C89.0698 153.383 89.5659 152.377 89.5659 151.142C89.5659 149.895 89.0825 148.889 88.4845 148.889C87.8739 148.889 87.3777 149.895 87.3777 151.129Z" fill="#004F56"/>
<path d="M85.1258 147.31C85.1258 147.31 85.1004 147.31 85.0877 147.298C84.9095 147.196 84.8332 146.979 84.935 146.789C86.08 144.612 88.1156 144.841 89.0316 145.248C89.2225 145.337 89.2988 145.554 89.2097 145.745C89.1207 145.936 88.9298 146.025 88.7136 145.936C88.65 145.91 86.6907 145.045 85.5838 147.145C85.4948 147.31 85.2912 147.387 85.1131 147.323L85.1258 147.31Z" fill="#004F56"/>
<path d="M74.668 434.255C70.3932 445.546 79.0827 445.724 101.118 445.66C104.184 445.635 106.321 442.402 101.118 440.798L84.1844 433.885C84.1844 433.885 76.4237 433.784 74.8207 433.885L74.668 434.255Z" fill="#004F56"/>
<path d="M23.4602 433.402C19.1854 444.693 28.6255 444.604 50.6481 444.54C53.7142 444.515 55.8515 441.282 50.6481 439.678L34.7577 432.765C34.7577 432.765 25.3304 432.663 23.7273 432.765L23.4602 433.402Z" fill="#004F56"/>
<path d="M87.594 265.24H48.7014C66.5383 318.489 74.8333 374.832 74.8206 433.873H84.108C92.9628 378.612 94.1969 322.41 87.594 265.24Z" fill="#009CFA"/>
<path d="M73.6629 265.24H42.3148C36.2716 278.505 43.3199 294.137 43.3199 294.137C43.2817 338.87 36.1953 386.454 23.7273 432.753H34.7577C55.368 387.243 68.3322 330.086 73.6502 265.227L73.6629 265.24Z" fill="#009CFA"/>
<path d="M87.5942 265.24H42.3149C50.9789 235.325 40.203 206.988 48.4599 189.077C51.6023 182.267 56.157 177.162 62.7345 174.476C72.4036 170.53 83.6502 175.609 86.8435 185.551C88.7901 191.623 88.0395 199.783 86.64 208.949C84.439 223.397 84.3881 238.1 86.0929 252.612L87.5814 265.24H87.5942Z" fill="#A6D2AC"/>
<path d="M93.5228 134.351C93.472 133.6 93.3193 132.938 92.9249 132.276C92.7213 131.933 92.6068 131.64 92.2379 131.474C91.5 131.131 91.5636 131.665 91.2837 130.876C91.0674 130.278 91.0801 129.616 90.8257 129.03C90.3804 127.961 89.4389 127.248 88.5229 126.713C87.6196 126.179 86.5509 125.593 85.495 125.542C85.1515 125.517 84.808 125.67 84.4645 125.67C83.9047 125.67 84.2482 125.746 83.7265 125.466C81.462 124.142 78.7521 123.913 76.1949 124.269C74.3501 124.524 68.4214 125.873 69.1339 128.967C67.5309 129.387 66.1187 129.425 64.5665 130.316C62.2002 131.691 60.2027 133.524 59.1595 136.312C58.5488 137.941 58.3071 139.176 59.7829 139.965C58.7905 140.373 58.2307 140.385 57.4038 141.225C56.2206 142.448 55.9662 144.242 55.7626 145.948C55.4954 148.265 56.0552 150.493 56.5259 152.733C57.0857 155.368 58.1926 157.227 59.6684 159.353C62.3528 163.21 66.9202 163.948 70.9023 162.306C72.5435 161.631 73.7903 160.18 74.5537 158.424C73.0779 158.296 71.5384 156.82 70.8387 154.694C69.9863 152.122 70.686 149.576 72.4036 149.016C73.0142 148.812 73.6885 148.902 74.3119 149.207C73.9557 147.972 74.0575 145.006 74.0575 145.006C74.8844 145.897 76.3603 146.037 77.4798 146.037C79.261 146.037 80.0498 145.07 81.0803 143.682C82.0726 144.548 83.5993 144.421 84.7952 144.408C86.2838 144.408 87.8359 143.746 88.5229 142.18C91.7926 142.053 93.701 137.648 93.5101 134.364L93.5228 134.351Z" fill="#004F56"/>
<path d="M101.958 185.016C105.864 184.787 109.82 184.329 113.815 183.705V201.234C108.764 202.902 103.752 204.264 98.8789 205.231C94.3752 206.135 89.9605 206.67 85.7239 206.797C78.8411 207.001 72.0345 205.575 65.8642 202.622C64.6555 202.036 63.4851 201.4 62.3273 200.712C55.788 196.753 55.3936 187.371 61.6021 182.916C64.4011 180.905 67.9761 180.383 71.2585 181.49C80.724 184.685 91.1055 185.678 101.97 185.016H101.958Z" fill="#004F56"/>
<path d="M176.944 179.542C170.354 183.769 158.814 180.586 158.814 180.586C146.919 187.193 133.84 193.787 120.876 198.714V182.381C132.67 179.911 144.654 175.952 156.257 171.128C158.916 168.378 161.13 166.672 162.924 165.667C165.303 164.356 167.656 167.411 165.824 169.397L163.84 172.121L167.275 171.217C169.908 170.288 172.135 169.944 173.967 169.919C179.107 169.919 181.269 176.767 176.944 179.555V179.542Z" fill="#B38273"/>
<path d="M120.876 182.381V198.866L113.815 203.233V183.692C116.156 183.323 118.522 182.878 120.876 182.381Z" fill="#A6D2AC"/>
<path d="M169.412 199.923C169.552 204.633 171.142 208.961 173.776 212.5C173.763 208.414 173.038 204.557 170.583 201.31C170.214 200.827 169.819 200.368 169.412 199.923Z" fill="#009CFA"/>
<path d="M182.071 185.551C183.712 185.627 185.239 184.711 186.88 184.583C190.481 184.265 193.267 187.689 194.806 190.974C196.346 194.258 197.605 198.026 200.684 199.885C203.496 201.552 206.982 201.183 210.2 201.705C211.282 201.883 212.325 202.176 213.356 202.532C213.623 200.636 213.648 198.65 213.394 196.626C212.147 186.582 203.966 178.524 193.916 177.429C187.631 176.742 181.791 178.677 177.376 182.292C178.547 183.998 180.074 185.462 182.058 185.551H182.071Z" fill="#009CFA"/>
<path d="M295.619 279.306C294.525 269.173 286.395 260.963 276.281 259.753C275.365 259.639 274.461 259.601 273.571 259.601C266.828 259.715 260.798 262.847 256.815 267.697V267.277C256.688 267.417 256.574 267.557 256.446 267.697V216.459H237.325C239.869 218.025 242.401 219.591 244.945 221.144C246.625 222.175 248.342 223.257 249.475 224.873C250.569 226.439 251.001 228.374 251.065 230.271C251.357 239.207 244.258 246.629 236.816 251.568C229.373 256.507 220.849 260.313 215.34 267.34C209.055 275.335 207.783 286.066 206.943 296.212C206.803 297.918 206.511 299.891 204.997 300.718C203.966 301.291 202.669 301.087 201.575 300.629C197.86 299.063 195.849 295.002 194.882 291.094C193.903 287.186 193.623 283.049 191.855 279.421C190.773 277.193 189.17 275.233 188.19 272.954C184.73 264.973 189.437 254.954 185.252 247.329C182.224 241.791 175.175 238.978 173.14 232.995C172.453 230.971 172.44 228.743 172.593 226.592C172.809 223.295 173.331 219.845 173.598 216.459H126.143C126.143 216.459 126.143 216.484 126.143 216.51C126.143 274.189 163.649 323.084 215.569 340.155C216.74 336.527 219.03 333.281 221.282 330.162C222.719 328.176 224.259 326.101 226.536 325.223C231.078 323.479 236.752 327.12 240.772 324.408C246.027 320.844 241.574 312.137 244.335 306.408C244.716 305.606 245.289 304.855 246.116 304.55C246.892 304.27 247.744 304.435 248.559 304.601C251.141 305.11 253.851 305.492 256.434 305.174V295.855C256.548 295.995 256.675 296.135 256.803 296.275V295.855C258.635 298.096 260.899 299.954 263.469 301.329C264.703 299.623 265.263 297.51 264.614 295.512C262.782 289.834 252.859 287.81 254.258 282.018C255.365 277.473 262.044 277.906 266.217 279.994C270.428 282.107 274.474 284.997 276.637 289.172C278.813 293.335 278.622 299.012 275.187 302.233C276.281 302.933 277.489 303.251 278.762 303.34C289.258 300.82 296.84 290.827 295.593 279.306H295.619Z" fill="#009CFA"/>
<path d="M276.662 289.172C274.487 284.997 270.454 282.107 266.243 279.994C262.07 277.906 255.403 277.486 254.284 282.018C252.884 287.81 262.795 289.834 264.64 295.512C265.288 297.51 264.729 299.611 263.495 301.329C266.561 302.971 270.059 303.926 273.774 303.951C275.505 303.939 277.184 303.722 278.787 303.34C277.515 303.251 276.306 302.933 275.212 302.233C278.634 299.012 278.825 293.335 276.662 289.172Z" fill="#A6D2AC"/>
<path d="M248.584 304.601C247.77 304.448 246.917 304.27 246.141 304.55C245.314 304.855 244.742 305.606 244.36 306.408C241.599 312.124 246.065 320.844 240.798 324.408C236.778 327.12 231.103 323.492 226.561 325.223C224.284 326.101 222.732 328.176 221.307 330.162C219.055 333.281 216.765 336.527 215.595 340.155C228.368 344.356 242.019 346.622 256.192 346.622C256.281 346.622 256.37 346.622 256.472 346.622V305.173C253.889 305.479 251.179 305.11 248.597 304.601H248.584Z" fill="#A6D2AC"/>
<path d="M173.153 233.008C175.175 238.991 182.236 241.804 185.264 247.342C189.45 254.967 184.73 264.985 188.203 272.967C189.183 275.246 190.799 277.193 191.867 279.434C193.636 283.074 193.916 287.212 194.895 291.107C195.862 295.028 197.872 299.089 201.587 300.642C202.681 301.113 203.979 301.316 205.01 300.731C206.524 299.903 206.816 297.918 206.956 296.224C207.796 286.079 209.068 275.347 215.353 267.353C220.862 260.326 229.386 256.52 236.828 251.581C244.271 246.642 251.37 239.22 251.078 230.284C251.014 228.374 250.581 226.439 249.487 224.886C248.368 223.257 246.65 222.187 244.958 221.156C242.414 219.591 239.882 218.038 237.337 216.472H205.569C206.625 215.619 207.592 214.664 208.47 213.633C208.597 213.48 208.712 213.327 208.839 213.162C211.205 210.145 212.821 206.517 213.368 202.533C212.338 202.176 211.294 201.883 210.213 201.705C206.994 201.17 203.508 201.552 200.697 199.885C197.605 198.026 196.358 194.245 194.819 190.974C193.279 187.689 190.493 184.278 186.893 184.583C185.252 184.711 183.725 185.627 182.084 185.551C180.086 185.462 178.572 183.998 177.402 182.292C176.27 183.221 175.226 184.252 174.298 185.385C171.231 189.192 169.399 194.029 169.399 199.286C169.399 199.503 169.399 199.719 169.412 199.936C169.819 200.394 170.214 200.839 170.583 201.323C173.038 204.557 173.763 208.426 173.776 212.513C174.87 213.989 176.142 215.326 177.567 216.484H173.611C173.343 219.871 172.822 223.32 172.605 226.617C172.453 228.769 172.466 230.984 173.153 233.021V233.008Z" fill="#94C89C"/>
<path d="M226.142 488.013C265.96 488.013 298.24 485.944 298.24 483.392C298.24 480.84 265.96 478.771 226.142 478.771C186.323 478.771 154.043 480.84 154.043 483.392C154.043 485.944 186.323 488.013 226.142 488.013Z" fill="#F2F2F2"/>
<path d="M344.155 313.079C338.888 319.711 325.987 320.513 325.987 320.513C310.479 337.724 292.006 355.915 273.342 366.735L269.411 344.992C287.031 337.736 304.347 325.63 320.046 311.742C321.789 307.999 323.468 305.466 324.944 303.811C326.916 301.634 330.389 303.951 329.219 306.612L328.138 310.1L331.344 307.961C333.697 306.09 335.873 304.957 337.73 304.282C342.985 302.487 347.59 308.725 344.155 313.079Z" fill="#F0D2C8"/>
<path d="M273.355 366.722C269.067 369.23 264.742 371.318 260.454 372.935C253.482 375.544 246.04 376.486 238.686 375.633C237.248 375.468 235.836 375.226 234.399 374.92C226.32 373.176 222.63 363.718 227.414 356.984C229.577 353.942 233.05 352.147 236.778 352.134C247.579 352.083 258.546 349.461 269.411 344.98L273.342 366.722H273.355Z" fill="#004F56"/>
<path d="M259.716 304.524C261.179 303.926 262.515 302.882 263.469 301.596C263.508 301.545 263.546 301.507 263.571 301.456C261.001 300.081 258.737 298.21 256.905 295.982V296.403C256.777 296.262 256.663 296.122 256.536 295.982V305.301C256.663 305.288 256.777 305.275 256.905 305.263C257.859 305.122 258.8 304.893 259.716 304.524Z" fill="#009CFA"/>
<path d="M374.944 216.573C374.944 216.573 374.893 216.663 374.867 216.701C371.089 222.302 366.038 227.025 362.361 232.715C354.829 244.426 353.875 259.002 350.415 272.483C349.041 277.868 346.878 283.851 341.585 286.524C337.565 288.536 331.789 287.403 329.944 283.291C328.418 279.866 329.957 275.92 329.97 272.178C329.97 266.882 326.827 261.892 327.234 256.596C327.272 256.049 327.362 255.501 327.476 254.954C327.476 254.903 327.489 254.852 327.502 254.801C324.703 255.654 321.675 255.972 318.532 255.629C308.469 254.521 300.301 246.476 299.054 236.432C298.278 230.182 300.123 224.351 303.621 219.896C303.749 219.743 303.863 219.578 303.99 219.425C304.868 218.394 305.835 217.439 306.891 216.586H255.849V216.484H255.632V216.612H256.536V267.849C256.65 267.709 256.777 267.569 256.905 267.429V267.849C260.887 262.987 266.917 259.855 273.66 259.753C274.551 259.753 275.454 259.804 276.37 259.906C286.484 261.103 294.601 269.326 295.708 279.459C296.955 290.98 289.372 300.973 278.876 303.493C278.965 303.493 279.067 303.506 279.156 303.519C281.357 303.62 283.711 303.111 285.925 302.793C289.525 302.258 294.08 302.933 295.276 306.37C295.746 307.707 295.555 309.171 295.759 310.571C296.344 314.594 300.632 317.661 304.614 316.898C305.619 316.719 306.598 316.299 307.286 315.561C308.876 313.83 308.38 311.157 308.252 308.827C308.138 306.485 309.143 303.493 311.471 303.455C311.446 306.994 315.67 309.005 319.194 308.942C322.718 308.865 326.28 307.63 329.702 308.471C333.112 309.323 335.873 313.881 333.354 316.35L336.127 319.355C343.163 313.868 349.613 307.681 355.389 300.883C372.819 280.376 383.989 254.368 385.987 225.828C386.19 222.824 386.292 219.794 386.305 216.739C386.305 216.714 386.305 216.701 386.305 216.675C386.305 216.65 386.305 216.624 386.305 216.612H374.944V216.573Z" fill="#6CA8FB"/>
<path d="M333.354 316.312C335.86 313.842 333.112 309.285 329.702 308.432C326.28 307.592 322.718 308.827 319.194 308.903C315.67 308.967 311.446 306.943 311.471 303.417C309.143 303.455 308.125 306.446 308.252 308.789C308.38 311.118 308.876 313.804 307.286 315.523C306.598 316.261 305.619 316.681 304.614 316.859C300.632 317.623 296.331 314.555 295.759 310.533C295.555 309.132 295.759 307.669 295.276 306.332C294.08 302.908 289.525 302.233 285.925 302.755C283.711 303.073 281.357 303.595 279.156 303.48C279.054 303.48 278.965 303.48 278.876 303.455C277.261 303.837 275.581 304.053 273.864 304.066C270.149 304.04 266.65 303.086 263.584 301.444C263.546 301.495 263.508 301.533 263.482 301.584C262.528 302.857 261.192 303.913 259.729 304.512C258.826 304.881 257.884 305.123 256.917 305.25C256.803 305.263 256.676 305.275 256.548 305.288V346.737C256.676 346.737 256.79 346.737 256.917 346.737C269.894 346.673 282.413 344.725 294.22 341.123C295.912 340.613 297.578 340.066 299.232 339.48C300.848 338.92 302.451 338.309 304.029 337.686C304.092 337.66 304.156 337.635 304.219 337.609C315.759 333.026 326.484 326.827 336.127 319.304L333.354 316.299V316.312Z" fill="#A6D2AC"/>
<path d="M327.234 256.584C326.827 261.879 329.97 266.869 329.97 272.165C329.957 275.908 328.405 279.866 329.944 283.278C331.789 287.39 337.565 288.523 341.585 286.512C346.878 283.838 349.041 277.868 350.415 272.47C353.875 259.002 354.829 244.414 362.361 232.702C366.025 227.012 371.089 222.289 374.867 216.688C374.893 216.65 374.918 216.599 374.944 216.561H334.906C339.893 220.622 343.074 226.821 343.074 233.746C343.074 239.016 341.242 243.841 338.176 247.647C335.428 250.982 331.738 253.49 327.514 254.776C327.514 254.827 327.489 254.878 327.489 254.929C327.374 255.476 327.285 256.023 327.247 256.571L327.234 256.584Z" fill="#A6D2AC"/>
<path d="M246.625 324.115L238.381 339.646L253.253 343.414L257.693 325.745L246.625 324.115Z" fill="#E0B8AB"/>
<path d="M209.462 388.465C209.462 388.465 191.269 421.996 214.73 424.911C218.177 425.344 221.676 425.038 225.048 424.249C239.513 420.875 251.548 416.522 252.935 419.208C254.589 422.377 259.576 439.079 253.444 471.642L263.673 470.866C281.688 416.369 279.907 382.609 237.019 396.218L236.905 388.809L209.45 388.465H209.462Z" fill="#009CFA"/>
<path d="M206.727 411.875C206.727 411.875 215.925 454.228 215.009 456.01C215.009 456.01 200.875 466.436 169.031 457.308V467.148C242.821 492.545 240.772 470.916 232.083 411.875H206.727Z" fill="#009CFA"/>
<path d="M164.629 483.29H158.496C153.471 482.933 157.262 471.057 157.848 469.656C158.84 467.238 159.145 461.165 158.84 458.619C158.802 458.263 158.814 457.907 158.865 457.576C159.272 455.297 161.957 454.215 163.993 455.31C165.316 456.023 167.122 456.353 169.018 457.308V467.148L166.13 468.638C165.036 470.178 164.616 476.021 165.481 477.625L166.27 479.089C167.097 480.642 166.333 482.59 164.629 483.303V483.29Z" fill="#004F56"/>
<path d="M253.571 471.273C249.029 483.264 258.266 483.455 281.663 483.392C284.907 483.366 287.184 479.929 281.663 478.223L263.673 470.878C263.673 470.878 255.429 470.776 253.724 470.878L253.559 471.273H253.571Z" fill="#004F56"/>
<path d="M246.701 396.612C246.701 396.612 215.379 401.908 204.234 399.324C204.234 399.324 211.396 350.034 234.119 339.481C242.783 335.458 253.075 335.814 260.95 341.225C265.696 344.483 266.383 347.017 267.859 352.707C270.81 364.164 265.289 376.092 255.149 382.177C250.416 385.015 254.106 395.645 246.714 396.599L246.701 396.612Z" fill="#004F56"/>
<path d="M330.326 277.804C326.802 285.506 314.486 289.388 314.486 289.388C303.571 309.82 290.008 331.919 274.487 346.915L265.454 326.751C280.81 315.472 294.716 299.547 306.624 282.298C307.413 278.237 308.443 275.386 309.474 273.425C310.873 270.841 314.792 272.254 314.296 275.118L314.079 278.759L316.675 275.92C318.519 273.54 320.352 271.91 321.993 270.816C326.662 267.811 332.629 272.75 330.339 277.817L330.326 277.804Z" fill="#F0D2C8"/>
<path d="M274.474 346.915C270.912 350.377 267.223 353.445 263.444 356.042C257.312 360.256 250.302 362.955 242.961 363.897C241.523 364.075 240.098 364.189 238.635 364.24C230.366 364.482 224.526 356.195 227.541 348.506C228.903 345.031 231.841 342.459 235.467 341.543C245.938 338.895 255.95 333.714 265.429 326.751L274.462 346.915H274.474Z" fill="#004F56"/>
<path d="M243.126 325.032C248.444 329.73 256.841 332.785 261.65 329.704C266.625 326.522 268.304 318.744 267.401 312.684C267.464 312.684 267.515 312.684 267.566 312.633C268.189 312.251 268.991 311.679 268.8 311.017C268.635 310.418 267.693 310.164 266.803 310.062C266.548 309.234 266.701 309.667 266.319 308.891C257.63 291.107 250.073 290.191 243.292 293.742C240.378 295.27 238.444 299.254 237.605 303.875C236.091 312.162 241.396 323.696 243.126 325.019V325.032Z" fill="#F0D2C8"/>
<path d="M263.126 317.547C261.599 317.178 259.907 316.185 259.067 313.754C259.004 313.55 259.106 313.333 259.309 313.27C259.513 313.206 259.729 313.308 259.793 313.512C261.294 317.865 265.81 316.949 266.001 316.911C266.205 316.86 266.408 317 266.459 317.203C266.51 317.407 266.37 317.611 266.167 317.662C266.141 317.662 264.729 317.954 263.126 317.56V317.547Z" fill="#004F56"/>
<path d="M261.587 309.667C262.019 310.864 262.833 311.679 263.419 311.462C264.004 311.258 264.131 310.113 263.711 308.916C263.279 307.72 262.464 306.905 261.879 307.121C261.294 307.325 261.167 308.471 261.587 309.667Z" fill="#004F56"/>
<path d="M258.062 306.765C258.062 306.765 258.037 306.765 258.024 306.765C257.808 306.739 257.668 306.548 257.693 306.332C258.037 303.824 260.085 303.34 261.116 303.417C261.332 303.43 261.485 303.62 261.459 303.837C261.447 304.053 261.281 304.206 261.052 304.193C260.976 304.193 258.788 304.041 258.457 306.447C258.431 306.637 258.253 306.79 258.062 306.778V306.765Z" fill="#004F56"/>
<path d="M258.927 301.749L258.94 301.724L258.927 301.736V301.749Z" fill="#004F56"/>
<path d="M264.233 290.916C263.889 289.478 260.022 280.834 259.932 279.828C259.894 282.807 259.436 285.684 257.248 287.823C256.955 286.728 256.777 285.557 256.485 284.437C256.078 282.871 255.238 281.611 254.742 280.159C254.767 283.826 250.149 287.046 247.248 288.421C247.363 287.033 246.129 285.722 245.213 284.793C244.92 286.957 243.775 288.765 242.503 290.458C240.963 292.495 233.89 298.961 232.121 306.243C231.154 310.266 230.951 314.696 233.304 318.247C235.734 321.926 238.457 325.109 242.859 326.458C246.866 327.68 249.971 326.674 253.698 325.058C252.821 323.683 245.353 313.244 257.312 301.406C257.413 302.984 257.006 304.613 256.434 306.077C263.953 301.342 264.411 296.823 264.589 295.461C264.78 294.009 264.551 292.304 264.22 290.903L264.233 290.916Z" fill="#DF9C07"/>
<path d="M258.711 281.101C258.711 280.949 258.711 280.809 258.711 280.656C258.686 280.783 258.686 280.936 258.711 281.101Z" fill="#004F56"/>
<path d="M253.775 318.667C252.795 320.564 250.238 321.188 248.05 320.067C245.874 318.947 244.895 316.49 245.874 314.594C246.854 312.697 249.411 312.073 251.599 313.193C253.775 314.314 254.754 316.77 253.775 318.667Z" fill="#F0D2C8"/>
<path d="M446.138 449.403C480.856 449.403 509 447.334 509 444.782C509 442.23 480.856 440.161 446.138 440.161C411.421 440.161 383.277 442.23 383.277 444.782C383.277 447.334 411.421 449.403 446.138 449.403Z" fill="#F2F2F2"/>
<path d="M463.746 189.281L462.754 188.135C461.469 186.671 459.777 185.614 457.894 185.067C457.601 185.003 457.309 184.927 456.99 184.863C455.26 184.545 453.428 184.176 451.533 183.769C451.507 183.769 451.482 183.769 451.456 183.756C436.456 180.548 417.093 175.087 410.095 173.063C408.391 172.566 407.411 172.286 407.411 172.286C407.411 172.286 406.749 171.357 405.643 169.715C401.063 162.943 388.9 144.306 385.541 132.582C385.503 129.31 385.312 122.029 384.269 117.764C382.577 114.862 381.661 118.146 381.114 124.422L377.246 114.123C376.101 111.081 371.814 110.89 370.49 113.869C367.971 119.648 374.244 130.405 378.976 135.382C382.513 150.2 395.261 171.23 399.04 177.251C399.091 177.34 399.154 177.429 399.23 177.518C401.164 180.917 404.065 183.68 407.564 185.436C414.459 188.912 426.622 194.933 435.579 198.904C441.215 201.412 446.876 203.525 452.054 204.76C454.268 205.295 457.856 204.977 459.993 204.162C466.1 201.858 468.021 194.194 463.746 189.293V189.281Z" fill="#F0D2C8"/>
<g filter="url(#filter0_d_873_1477)">
<path d="M408.95 203.322C408.518 204.073 408.047 204.811 407.564 205.524H418.925C418.925 191.941 416.826 178.842 412.958 166.52C412.983 166.736 413.034 166.953 413.06 167.169C415.019 179.377 415.095 192.591 408.938 203.309L408.95 203.322Z" fill="#009CFA"/>
<path d="M375.325 108.382C376.61 109.528 377.882 110.699 379.116 111.896C377.869 110.699 376.61 109.528 375.325 108.382Z" fill="#009CFA"/>
<path d="M408.95 203.322C415.121 192.591 415.044 179.39 413.072 167.182C413.047 166.965 412.996 166.749 412.971 166.533C412.869 166.227 412.767 165.921 412.678 165.616C412.462 164.929 412.233 164.254 412.004 163.566C411.864 163.159 411.711 162.752 411.571 162.344C411.355 161.733 411.139 161.122 410.922 160.524C410.757 160.078 410.579 159.633 410.413 159.187C410.197 158.627 409.994 158.067 409.765 157.52C409.574 157.049 409.383 156.578 409.192 156.107C408.976 155.585 408.76 155.063 408.543 154.541C408.34 154.057 408.123 153.573 407.907 153.09C407.691 152.593 407.462 152.084 407.233 151.588C407.004 151.104 406.775 150.607 406.546 150.124C406.317 149.64 406.088 149.156 405.859 148.685C405.617 148.189 405.375 147.705 405.134 147.221C404.892 146.75 404.663 146.279 404.421 145.821C404.167 145.337 403.912 144.854 403.658 144.37C403.416 143.911 403.162 143.453 402.907 142.995C402.64 142.511 402.373 142.04 402.106 141.569C401.851 141.111 401.584 140.665 401.33 140.207C401.05 139.736 400.783 139.265 400.503 138.794C400.236 138.349 399.956 137.89 399.688 137.445C399.409 136.986 399.116 136.528 398.836 136.07C398.543 135.612 398.264 135.166 397.971 134.721C397.678 134.275 397.398 133.842 397.106 133.397C396.8 132.938 396.495 132.493 396.177 132.035C395.884 131.614 395.592 131.194 395.299 130.774C394.968 130.316 394.638 129.858 394.307 129.387C394.014 128.992 393.734 128.585 393.442 128.19C393.086 127.706 392.729 127.235 392.36 126.752C392.08 126.382 391.801 126.026 391.521 125.657C391.126 125.148 390.719 124.651 390.325 124.142C390.07 123.824 389.816 123.493 389.549 123.175C389.103 122.627 388.645 122.092 388.187 121.545C387.958 121.278 387.742 121.01 387.513 120.743C386.991 120.132 386.457 119.534 385.923 118.935C385.757 118.745 385.592 118.554 385.427 118.375C384.778 117.65 384.116 116.937 383.455 116.237C383.404 116.173 383.34 116.109 383.289 116.059C382.068 114.773 380.821 113.525 379.549 112.29C379.409 112.15 379.269 112.023 379.142 111.883C377.895 110.687 376.635 109.515 375.35 108.37C375.198 108.242 375.058 108.102 374.905 107.975C373.582 106.804 372.233 105.658 370.859 104.538C370.796 104.487 370.732 104.436 370.669 104.385C363.328 98.4531 355.338 93.2975 346.814 89.0584C344.066 88.842 341.305 88.9184 338.544 89.3385C335.695 89.7713 332.12 92.0881 333.455 94.6341L335.376 94.9269C332.972 94.6723 330.504 94.4304 328.188 95.0415C325.86 95.6652 323.646 97.3456 323.137 99.7133C322.285 103.57 326.076 106.868 329.715 108.395C333.354 109.923 337.616 110.992 339.753 114.315C340.72 115.855 341.089 117.688 341.916 119.317C342.743 120.947 344.282 122.462 346.102 122.322C341.356 125.122 334.448 124.588 331.433 129.196C329.664 131.882 330.109 135.726 332.259 138.107C334.397 140.474 338.023 141.327 341.076 140.334C343.85 139.443 346.305 137.203 349.206 137.381C351.28 137.521 353.023 138.87 354.994 139.52C358.493 140.704 362.348 139.634 365.974 140.283C369.613 140.92 373.162 145.095 370.948 148.049C369.116 150.467 365.325 149.627 362.539 148.405C358.519 146.636 354.549 144.548 350.224 143.784C345.885 143.008 340.987 143.771 337.972 146.979C335.949 149.143 335.198 152.402 333.15 154.452C330.86 156.756 327.73 157.431 326.191 160.639C323.99 165.234 326.636 170.581 326.56 175.673C326.496 181.325 323.036 187.104 325.173 192.336C326.394 195.289 329.282 197.352 332.387 198.052C335.491 198.752 338.786 198.243 341.776 197.122C344.689 196.028 347.399 194.373 350.402 193.482C357.819 191.292 362.87 196.155 361.648 203.398C360.694 209.114 356.356 215.733 358.989 221.538C360.185 224.199 362.424 226.337 363.213 229.125C364.587 233.988 361.19 238.762 360.147 243.739C364.371 242.454 368.073 239.946 370.808 236.61C373.875 232.804 375.707 227.98 375.707 222.709C375.707 215.772 372.526 209.585 367.539 205.511H407.576C408.06 204.799 408.531 204.06 408.963 203.309L408.95 203.322Z" fill="#A6D2AC"/>
<path d="M349.244 90.3313C349.982 90.7132 350.707 91.1078 351.432 91.5152C350.707 91.1206 349.982 90.7259 349.244 90.3313Z" fill="#009CFA"/>
<path d="M351.432 91.5151C352.183 91.9225 352.921 92.3299 353.659 92.7627C352.921 92.3426 352.183 91.9225 351.432 91.5151Z" fill="#009CFA"/>
<path d="M356.725 94.5833C357.246 94.9015 357.755 95.2197 358.264 95.5507C357.755 95.2325 357.234 94.9015 356.725 94.5833Z" fill="#009CFA"/>
<path d="M346.789 89.071C346.789 89.071 346.789 89.071 346.776 89.071C346.865 89.1092 346.954 89.1602 347.043 89.1983C346.954 89.1602 346.878 89.1092 346.789 89.071Z" fill="#009CFA"/>
<path d="M365.834 100.706C366.203 100.974 366.572 101.254 366.928 101.521C366.559 101.241 366.203 100.974 365.834 100.706Z" fill="#009CFA"/>
<path d="M365.936 140.283C362.297 139.621 358.442 140.703 354.956 139.52C352.984 138.858 351.241 137.521 349.168 137.381C346.267 137.19 343.812 139.443 341.038 140.334C337.985 141.315 334.359 140.474 332.221 138.107C330.071 135.713 329.626 131.882 331.394 129.196C334.41 124.587 341.318 125.122 346.063 122.322C344.257 122.462 342.705 120.947 341.878 119.33C341.051 117.701 340.682 115.88 339.715 114.327C337.578 111.005 333.316 109.935 329.677 108.408C326.026 106.88 322.234 103.583 323.099 99.726C323.608 97.371 325.835 95.6779 328.15 95.0541C330.478 94.4431 332.947 94.6977 335.338 94.9396L333.417 94.6468C332.069 92.1008 335.644 89.7967 338.506 89.3512C341.267 88.9311 344.015 88.8547 346.763 89.0711C329.333 80.3893 309.703 75.4756 288.901 75.4756C288.812 75.4756 288.723 75.4756 288.634 75.4756V126.115C288.507 125.975 288.38 125.835 288.265 125.695V126.115C284.245 121.214 278.138 118.07 271.319 118.006C270.505 118.006 269.703 118.057 268.914 118.159C265.314 118.579 261.981 119.865 259.118 121.787C252.579 126.191 248.52 133.995 249.462 142.664C250.556 152.797 258.686 161.008 268.787 162.217C269.703 162.332 270.607 162.37 271.497 162.37C278.24 162.255 284.27 159.136 288.253 154.274V154.694C288.367 154.554 288.494 154.414 288.622 154.274V205.511H289.156H289.525H339.524C338.468 206.364 337.501 207.319 336.623 208.35C336.496 208.503 336.369 208.668 336.254 208.821C332.756 213.277 330.911 219.094 331.687 225.357C332.934 235.401 341.114 243.459 351.165 244.567C354.308 244.91 357.336 244.592 360.134 243.739C361.19 238.762 364.587 233.988 363.201 229.125C362.399 226.325 360.173 224.186 358.977 221.538C356.343 215.733 360.682 209.114 361.636 203.398C362.857 196.155 357.794 191.292 350.389 193.482C347.374 194.373 344.677 196.028 341.763 197.122C338.761 198.243 335.478 198.764 332.374 198.052C329.27 197.339 326.382 195.289 325.16 192.336C323.023 187.104 326.484 181.325 326.547 175.672C326.624 170.581 323.977 165.221 326.178 160.638C327.718 157.443 330.847 156.769 333.137 154.452C335.186 152.39 335.936 149.143 337.959 146.979C340.974 143.759 345.873 142.995 350.211 143.784C354.537 144.548 358.493 146.648 362.526 148.405C365.325 149.627 369.116 150.467 370.936 148.049C373.15 145.095 369.6 140.933 365.961 140.283H365.936Z" fill="#009CFA"/>
<path d="M366.928 101.521C368.175 102.463 369.422 103.418 370.643 104.398C369.422 103.418 368.188 102.463 366.928 101.521Z" fill="#009CFA"/>
<path d="M358.277 95.5505C359.295 96.1998 360.312 96.849 361.305 97.5237C360.3 96.849 359.295 96.187 358.277 95.5505Z" fill="#009CFA"/>
</g>
<path d="M483.491 203.907C482.359 188.415 470.031 145.566 467.194 141.429C467.194 141.429 461.303 136.032 449.7 142.957C441.622 147.781 436.749 155.814 434.815 164.839C432.054 177.798 430.515 190.91 431.711 204.162C432.169 209.279 432.996 214.359 434.166 219.361C434.357 220.163 437.016 230.538 438.161 229.698C439.166 228.96 441.774 224.861 441.202 223.524C442.105 225.637 452.041 240.786 453.275 240.162C456.85 238.698 459.993 236.509 462.665 233.721C464.306 232.015 469.509 226.872 469.484 224.428C469.509 227.229 468.059 229.393 467.321 231.951C472.257 228.183 477.385 225.268 480.4 219.591C482.932 214.83 483.86 209.254 483.466 203.907H483.491Z" fill="#488288"/>
<path d="M421.813 280.299C421.813 280.299 421.8 280.236 421.8 280.198C421.8 280.198 421.813 280.287 421.813 280.299Z" fill="#6CA8FB"/>
<path d="M438.416 200.127C450.744 198.981 457.843 190.21 460.756 185.334L458.721 181.897C457.449 179.784 456.431 177.569 455.642 175.24L453.428 168.722L444.535 172.554C445.706 175.787 445.528 179.097 444.217 182.47C443.619 184.036 442.372 185.334 440.909 186.124L440.858 186.149L437.411 187.766C428.836 199.032 438.428 200.127 438.428 200.127H438.416Z" fill="#E0B8AB"/>
<path d="M464.051 167.207C465.667 164.954 466.367 161.39 464.369 160.346C463.771 160.027 462.97 159.964 462.118 160.091C463.542 152.364 461.609 142.282 456.621 139.672C450.108 136.248 442.843 137.114 434.459 154.223C431.138 160.982 432.78 170.275 438.924 174.234C443.543 177.213 451.622 174.285 456.749 169.766C459.217 170.059 462.016 170.071 464.051 167.22V167.207Z" fill="#F0D2C8"/>
<path d="M439.586 160.944C439.586 160.944 439.523 160.918 439.497 160.906C438.759 160.46 437.805 159.773 438.021 158.984C438.327 157.889 440.808 157.761 441.851 157.761C442.067 157.761 442.258 157.94 442.258 158.169C442.258 158.385 442.08 158.576 441.864 158.576C440.375 158.576 438.887 158.882 438.797 159.213C438.797 159.213 438.772 159.531 439.917 160.231C440.108 160.346 440.172 160.6 440.057 160.778C439.955 160.931 439.764 161.008 439.599 160.957L439.586 160.944Z" fill="#004F56"/>
<path d="M438.467 165.73C438.047 165.552 437.792 165.412 437.792 165.412C437.576 165.285 437.5 165.005 437.627 164.788C437.754 164.572 438.009 164.483 438.25 164.623C438.454 164.737 443.238 167.411 446.52 163.032C446.673 162.828 446.952 162.79 447.156 162.942C447.36 163.095 447.398 163.375 447.245 163.579C444.243 167.576 440.082 166.405 438.467 165.743V165.73Z" fill="#004F56"/>
<path d="M453.441 156.565C453.275 156.514 453.148 156.374 453.123 156.183C452.728 153.306 450.146 153.497 450.031 153.497C449.777 153.523 449.56 153.332 449.535 153.077C449.51 152.822 449.7 152.606 449.955 152.581C451.189 152.479 453.619 153.064 454.026 156.043C454.064 156.298 453.886 156.527 453.632 156.552C453.568 156.552 453.504 156.552 453.441 156.54V156.565Z" fill="#004F56"/>
<path d="M442.538 150.353C442.41 150.416 442.245 150.391 442.131 150.289C440.299 148.685 438.759 150.225 438.695 150.289C438.543 150.442 438.301 150.442 438.148 150.289C437.996 150.136 437.996 149.894 438.148 149.742C438.874 149.003 440.744 148.036 442.639 149.703C442.792 149.843 442.818 150.085 442.678 150.251C442.639 150.289 442.601 150.327 442.55 150.353H442.538Z" fill="#004F56"/>
<path d="M449.179 157.838C448.823 158.831 448.148 159.505 447.678 159.34C447.207 159.174 447.105 158.232 447.461 157.227C447.818 156.234 448.492 155.559 448.963 155.725C449.433 155.89 449.535 156.832 449.179 157.838Z" fill="#004F56"/>
<path d="M440.49 154.745C440.133 155.738 439.459 156.412 438.988 156.247C438.517 156.081 438.416 155.139 438.772 154.134C439.128 153.141 439.802 152.466 440.273 152.631C440.744 152.797 440.846 153.739 440.49 154.745Z" fill="#004F56"/>
<path d="M437.754 434.827C437.818 435.069 437.856 435.311 437.919 435.553C435.108 435.769 432.576 436.177 429.764 436.444C429.764 436.444 429.764 436.406 429.764 436.355C429.065 433.351 412.475 360.116 413.81 336.451C413.887 335.076 413.632 332.67 413.632 331.805C413.632 331.397 413.632 331.003 413.658 330.557V330.341C413.632 326.433 413.632 323.186 413.658 320.348H437.347C436.724 325.822 436.138 331.703 435.591 337.52C433.747 357.29 432.118 376.321 432.118 376.321C435.629 377.772 435.248 382.355 434.981 386.021C434.739 389.624 434.752 420.315 437.767 434.84L437.754 434.827Z" fill="#F0D2C8"/>
<path d="M468.797 314.466H441.774C441.164 309.782 440.617 305.275 440.12 301.1C439.395 304.626 438.695 309.26 438.034 314.466H413.67C413.759 306.09 413.938 300.731 413.861 287.835C413.861 287.466 413.861 287.785 413.861 287.492C413.709 272.916 420.146 259.626 423.747 246.196H450.489C451.8 253.528 457.41 258.926 461.112 265.138C465.158 271.974 467.677 279.663 469.128 287.441C469.7 290.42 469.395 301.253 468.784 314.466H468.797Z" fill="#6CA8FB"/>
<path d="M485.209 435.12C485.082 435.197 484.954 435.286 484.84 435.349C483.504 436.19 482.194 436.941 480.883 437.717C480.018 438.214 479.153 438.736 478.262 439.27C469.509 422.467 459.777 398.802 452.296 377.148C450.489 371.865 447.652 355.711 445.019 337.839C444.154 332.085 443.327 326.14 442.551 320.348H468.517C467.41 343.032 464.84 369.714 465.12 376.677C473.237 375.697 476.341 422.199 485.209 435.133V435.12Z" fill="#F0D2C8"/>
<path d="M462.207 187.766L460.743 185.335C454.777 183.043 450.286 193.113 440.591 194.933C436.494 195.709 433.937 190.388 437.258 187.868C437.309 187.842 437.36 187.817 437.385 187.766L436.087 188.364C432.487 190.159 428.937 191.967 426.202 194.436C422.754 197.517 420.642 201.552 421.558 207.739L425.082 221.386C426.52 227.623 426.304 233.67 425.235 239.64C424.841 241.855 424.319 244.019 423.747 246.209H450.476C450.451 246.107 450.451 246.031 450.426 245.942C450.146 244.325 450.375 242.161 450.896 239.653C453.428 227.7 463.25 208.032 463.771 204.964C465.069 197.301 460.909 195.442 462.207 187.779V187.766Z" fill="#DF9C07"/>
<path d="M457.83 153.09C457.945 154.21 458.288 158.372 457.334 161.466C456.723 163.452 456.151 165.463 455.209 167.334C453.288 171.141 451.316 175.023 449.764 179.008C447.181 185.64 443.543 191.687 442.665 198.841C442.385 201.094 442.296 203.233 442.258 205.524C443.339 201.985 443.924 197.899 445.935 194.716C447.131 192.82 448.441 190.961 450.12 189.497C451.723 188.11 453.644 186.977 455.146 185.487C460.044 180.599 461.303 172.363 462.932 165.921C463.428 163.948 464.013 161.708 464.166 159.658C464.268 158.131 463.224 154.783 464.166 153.599" fill="#488288"/>
<path d="M467.194 146.547C467.194 146.547 467.257 146.661 467.296 146.712L468.008 146.279C467.83 146.305 467.525 146.585 467.194 146.534V146.547Z" fill="#DF9C07"/>
<path d="M454.255 133.893C444.014 132.149 437.207 140.729 428.721 144.497C429.841 145.604 431.418 145.426 432.805 145.872C430.986 147.768 429.485 148.621 427.233 149.767C432.627 151.677 440.121 150.085 445.4 148.71C448.021 148.023 450.502 146.916 453.021 145.897C455.935 149.245 458.441 154.974 458.275 158.996C458.11 163.121 457.309 166.66 454.751 170.097C460.146 167.143 466.927 166.38 468.657 152.097C469.726 143.275 466.939 136.082 454.255 133.918V133.893Z" fill="#488288"/>
<path d="M465.515 189.828L464.344 188.861C462.83 187.639 460.985 186.862 459.039 186.646C458.734 186.633 458.441 186.608 458.123 186.595C456.367 186.569 454.484 186.506 452.55 186.417C452.525 186.417 452.5 186.417 452.474 186.417C437.156 185.729 417.157 183.552 409.918 182.725C408.149 182.521 407.144 182.407 407.144 182.407C407.144 182.407 406.33 181.592 404.968 180.166C399.332 174.247 384.256 157.889 379.002 146.878C378.417 143.657 377.03 136.503 375.287 132.48C373.137 129.909 372.781 133.282 373.277 139.571L367.755 130.049C366.127 127.248 361.865 127.757 361.051 130.914C359.524 137.025 367.488 146.61 372.984 150.722C378.913 164.75 394.969 183.374 399.701 188.683C399.778 188.759 399.841 188.848 399.93 188.912C402.411 191.954 405.719 194.182 409.459 195.34C416.839 197.619 429.815 201.54 439.319 203.984C445.286 205.524 451.227 206.67 456.533 207.026C458.797 207.179 462.283 206.275 464.255 205.13C469.904 201.858 470.527 193.965 465.489 189.841L465.515 189.828Z" fill="#F0D2C8"/>
<path d="M439.815 314.466V320.335H412.869L411.24 314.466H439.815Z" fill="#009CFA"/>
<path d="M470.311 314.466L468.67 320.335H441.736V314.466H470.311Z" fill="#009CFA"/>
<path d="M484.954 434.305C489.153 444.998 480.883 445.279 459.929 445.469C457.016 445.469 454.942 442.427 459.866 440.836L475.616 434.051C475.616 434.051 483.275 433.873 484.802 433.949L484.954 434.305Z" fill="#DF9C07"/>
<path d="M438.301 434.305C442.5 444.998 434.23 445.279 413.276 445.469C410.363 445.469 408.289 442.427 413.213 440.836L428.963 434.051C428.963 434.051 436.622 433.873 438.149 433.949L438.301 434.305Z" fill="#DF9C07"/>
<path d="M345.873 53.9494C345.033 54.4458 344.079 54.8532 343.137 54.7895C342.234 54.7259 341.458 54.2549 340.746 53.7457C340.084 53.2747 339.41 52.7018 338.761 52.0653C334.054 47.4953 331.395 41.1049 331.547 34.5363C331.598 32.6268 331.827 30.7046 332.247 28.7951C332.501 27.6622 332.921 26.4019 333.977 25.8418C335.211 25.1798 336.751 25.8418 337.45 26.9493C338.137 28.0441 338.201 29.4443 338.239 30.7682C338.099 27.4585 341.076 24.6706 343.901 22.5957C346.382 20.7753 349.015 19.0695 351.954 18.2675C354.893 17.4783 358.201 17.7456 360.364 19.6041C360.593 19.7951 360.809 20.0115 360.872 20.3043C361.063 21.0553 360.224 21.6918 359.562 22.1756C356.89 24.1487 355.287 27.4712 355.516 30.59C356.483 30.9083 357.527 31.2774 357.997 32.1431C358.684 33.4033 357.832 35.0582 356.738 36.153C355.644 37.2478 354.282 38.1516 353.557 39.4882C352.845 40.8249 352.896 42.3524 352.717 43.8036C352.208 47.8645 349.55 51.7726 345.86 53.9239L345.873 53.9494Z" fill="#A6D2AC"/>
<path d="M337.565 61.2692C338.049 50.9961 342.87 38.1517 349.435 29.6609C350.122 28.7698 351.394 29.8009 350.707 30.6792C347.425 34.931 345.237 40.0102 343.367 44.8985C341.395 50.0669 339.524 55.6553 339.27 61.0909C339.219 62.1602 337.514 62.3639 337.565 61.2819V61.2692Z" fill="#004F56"/>
<path d="M342.336 44.8857C338.723 41.0794 336.331 36.5858 335.275 31.392C335.071 30.3736 336.7 29.7498 336.903 30.7809C337.896 35.6692 340.071 39.9847 343.481 43.5745C344.193 44.3255 343.061 45.6494 342.336 44.8984V44.8857Z" fill="#004F56"/>
<path d="M344.817 38.0242C347.03 36.2421 349.435 34.7909 352.03 33.6452C353.061 33.1869 353.57 34.7399 352.539 35.1982C350.084 36.2803 347.845 37.6678 345.746 39.3609C344.868 40.0738 343.952 38.7371 344.817 38.0242Z" fill="#004F56"/>
<path d="M345.618 35.924C346.433 33.2634 346.814 30.5901 346.738 27.8787C346.713 26.8094 348.417 26.6184 348.443 27.6877C348.519 30.5265 348.137 33.3652 347.285 36.1531C346.967 37.1969 345.288 36.9678 345.618 35.924Z" fill="#004F56"/>
<path d="M454.141 104.551C453.556 103.952 453.021 103.265 452.869 102.476C452.729 101.725 452.958 100.974 453.225 100.286C453.467 99.637 453.81 98.975 454.192 98.3003C456.965 93.463 461.66 89.9368 467.092 88.702C468.67 88.3456 470.311 88.1292 471.952 88.0782C472.932 88.0528 474.051 88.1291 474.738 88.8802C475.54 89.7586 475.311 91.1716 474.548 91.9608C473.784 92.7628 472.665 93.0938 471.571 93.412C474.255 92.6101 477.181 94.4686 479.471 96.3527C481.481 98.0075 483.441 99.8279 484.713 102.081C485.985 104.334 486.443 107.109 485.374 109.286C485.26 109.515 485.133 109.732 484.916 109.846C484.344 110.152 483.644 109.604 483.097 109.159C480.922 107.364 477.855 106.753 475.336 107.593C475.286 108.459 475.196 109.388 474.573 109.961C473.683 110.788 472.143 110.432 471.011 109.77C469.879 109.108 468.861 108.166 467.601 107.848C466.354 107.542 465.108 107.911 463.874 108.064C460.426 108.484 456.66 107.122 454.128 104.538L454.141 104.551Z" fill="#488288"/>
<path d="M446.393 99.2551C454.942 97.4983 466.507 98.7841 474.866 102.412C475.744 102.794 475.158 104.054 474.293 103.672C470.12 101.865 465.477 101.126 461.075 100.604C456.418 100.057 451.431 99.7006 446.915 100.617C446.024 100.795 445.502 99.4333 446.393 99.2551Z" fill="#004F56"/>
<path d="M460.846 99.7516C463.225 95.9835 466.405 93.0684 470.464 91.1207C471.265 90.7388 472.118 91.9482 471.303 92.3428C467.487 94.1886 464.395 96.8746 462.169 100.426C461.698 101.165 460.375 100.515 460.846 99.7643V99.7516Z" fill="#004F56"/>
<path d="M467.016 100.363C468.95 101.814 470.642 103.481 472.13 105.378C472.716 106.129 471.545 106.868 470.96 106.116C469.548 104.322 467.945 102.768 466.113 101.394C465.349 100.821 466.253 99.777 467.016 100.35V100.363Z" fill="#004F56"/>
<path d="M468.899 100.579C471.253 100.694 473.53 100.439 475.744 99.8153C476.609 99.5734 477.13 100.936 476.265 101.177C473.95 101.839 471.532 102.119 469.064 101.992C468.148 101.941 467.983 100.528 468.912 100.566L468.899 100.579Z" fill="#004F56"/>
<path d="M81.6147 54.4332C81.5383 53.6312 81.3602 52.7911 80.864 52.18C80.3933 51.5944 79.6936 51.3017 79.0066 51.0598C78.3704 50.8307 77.658 50.6652 76.9201 50.5251C71.5766 49.5322 65.9788 50.8052 61.6277 54.064C60.3554 55.0188 59.1723 56.1008 58.0908 57.2974C57.4547 58.0103 56.8059 58.9014 56.9331 59.8816C57.073 61.04 58.269 61.7529 59.3504 61.6892C60.4191 61.6256 61.386 61.0018 62.302 60.3908C59.9992 61.8802 59.5412 65.2282 59.503 68.1306C59.4649 70.6765 59.5794 73.2862 60.4572 75.6539C61.3351 78.0217 63.1035 80.1221 65.3935 80.695C65.6225 80.7586 65.877 80.7968 66.106 80.695C66.7039 80.4658 66.7294 79.5875 66.7421 78.9128C66.7803 76.1631 68.2561 73.4898 70.4825 72.1405C71.1568 72.6369 71.9074 73.1716 72.7217 73.0698C73.9049 72.9297 74.6046 71.5549 74.8209 70.2946C75.0372 69.0344 74.9863 67.6723 75.5461 66.5393C76.1058 65.4191 77.1618 64.719 78.0524 63.8915C80.546 61.5874 81.9073 57.9339 81.5892 54.395L81.6147 54.4332Z" fill="#A6D2AC"/>
<path d="M82.5689 45.3058C75.8642 50.5632 69.503 59.9834 66.9203 68.4997C66.6531 69.3907 67.9508 69.7599 68.218 68.8688C69.503 64.617 71.8948 60.6962 74.2993 57.0809C76.8311 53.262 79.7191 49.3285 83.2559 46.5406C83.9557 45.9932 83.2559 44.7457 82.5689 45.2931V45.3058Z" fill="#004F56"/>
<path d="M73.8031 56.3936C69.5029 55.7826 65.3172 56.3173 61.2969 58.0994C60.5081 58.4559 60.8643 59.8562 61.6659 59.4997C65.4444 57.8194 69.4011 57.2211 73.4596 57.7939C74.312 57.9085 74.6555 56.5082 73.8031 56.3936Z" fill="#004F56"/>
<path d="M70.3553 61.3708C70.2153 63.7259 70.3935 66.0427 70.8642 68.3468C71.055 69.2634 72.34 68.856 72.1492 67.9522C71.7039 65.7754 71.5639 63.5858 71.6912 61.3581C71.742 60.4288 70.4062 60.4416 70.3426 61.3708H70.3553Z" fill="#004F56"/>
<path d="M69.3248 62.9111C67.9253 64.7315 66.2968 66.2846 64.4266 67.5321C63.6887 68.0285 64.3757 69.2761 65.1136 68.7796C67.0729 67.4684 68.8032 65.8517 70.279 63.9295C70.826 63.2167 69.8718 62.1855 69.312 62.9111H69.3248Z" fill="#004F56"/>
<path d="M145.189 24.3014C146.028 23.7668 146.843 23.1048 147.224 22.2264C147.593 21.3863 147.53 20.457 147.402 19.5786C147.288 18.7639 147.084 17.8856 146.817 17.0072C144.909 10.6295 140.405 5.24478 134.426 2.32964C132.683 1.47674 130.838 0.789322 128.942 0.280127C127.81 -0.0253901 126.474 -0.229068 125.482 0.458345C124.311 1.26033 124.197 2.96613 124.858 4.09909C125.52 5.23205 126.741 5.94492 127.924 6.59415C125.024 4.92653 121.118 6.28863 117.937 7.86714C115.151 9.25469 112.365 10.8205 110.278 13.0991C108.192 15.3778 106.894 18.4839 107.543 21.2972C107.607 21.5899 107.708 21.8827 107.925 22.0864C108.51 22.6083 109.477 22.1501 110.227 21.7809C113.243 20.2915 116.983 20.4061 119.68 22.0737C119.515 23.0921 119.362 24.1996 119.922 25.0397C120.736 26.2491 122.619 26.2491 124.12 25.7781C125.622 25.3071 127.059 24.4924 128.611 24.4796C130.138 24.4542 131.487 25.2307 132.886 25.7399C136.779 27.1784 141.525 26.6182 145.189 24.2887V24.3014Z" fill="#488288"/>
<path d="M155.647 20.2407C146.181 15.8743 132.377 14.2067 121.665 16.1417C120.545 16.3453 120.876 17.962 121.983 17.7711C127.339 16.8036 132.924 17.211 138.192 17.8093C143.764 18.4458 149.654 19.375 154.667 21.6919C155.647 22.1374 156.626 20.6989 155.634 20.2407H155.647Z" fill="#004F56"/>
<path d="M138.687 16.8799C136.957 11.8516 134.031 7.5871 129.845 4.21368C129.018 3.55173 127.695 4.72287 128.535 5.39756C132.466 8.58003 135.329 12.5518 136.97 17.2873C137.313 18.2802 139.031 17.8728 138.687 16.8799Z" fill="#004F56"/>
<path d="M131.347 15.8996C128.7 17.058 126.283 18.5474 124.031 20.3424C123.141 21.0552 124.298 22.2391 125.189 21.5262C127.314 19.8204 129.616 18.4583 132.11 17.3508C133.153 16.8926 132.39 15.4414 131.347 15.8996Z" fill="#004F56"/>
<path d="M129.095 15.6451C126.321 15.1359 123.739 14.2321 121.334 12.8954C120.393 12.3735 119.413 13.8247 120.367 14.3466C122.886 15.7469 125.622 16.7271 128.522 17.2618C129.604 17.4654 130.189 15.8488 129.095 15.6451Z" fill="#004F56"/>
<path d="M25.8012 215.44C25.8521 214.677 25.8139 213.875 25.4449 213.238C25.0887 212.627 24.4907 212.245 23.8928 211.927C23.333 211.621 22.7096 211.354 22.0353 211.112C17.2262 209.394 11.8446 209.737 7.31543 212.118C5.9923 212.805 4.73277 213.633 3.54959 214.588C2.84985 215.148 2.11195 215.886 2.0865 216.815C2.04834 217.91 3.05341 218.75 4.05848 218.852C5.06356 218.954 6.05591 218.521 6.99737 218.088C4.64372 219.132 3.71498 222.175 3.24425 224.861C2.82441 227.216 2.54451 229.66 3.00252 231.977C3.46053 234.306 4.79639 236.521 6.83198 237.4C7.03554 237.489 7.26454 237.565 7.49355 237.514C8.07878 237.387 8.24417 236.585 8.35867 235.948C8.80396 233.402 10.5851 231.136 12.837 230.22C13.384 230.793 14.0074 231.391 14.7835 231.416C15.9031 231.467 16.7555 230.296 17.1499 229.151C17.5443 228.018 17.697 226.745 18.384 225.777C19.071 224.822 20.1524 224.339 21.1066 223.702C23.7656 221.945 25.5722 218.75 25.8012 215.415V215.44Z" fill="#488288"/>
<path d="M28.0402 207.115C21.0302 210.998 13.7275 218.789 10.0634 226.299C9.68172 227.088 10.8267 227.623 11.2084 226.834C13.0404 223.078 15.8394 219.794 18.6002 216.803C21.5263 213.646 24.7833 210.412 28.4855 208.363C29.2107 207.955 28.7654 206.695 28.0275 207.102L28.0402 207.115Z" fill="#004F56"/>
<path d="M18.2568 216.09C14.351 214.881 10.3943 214.753 6.39948 215.81C5.61069 216.013 5.73791 217.376 6.53943 217.159C10.2925 216.166 14.0584 216.204 17.7352 217.35C18.4985 217.592 19.0329 216.332 18.2568 216.103V216.09Z" fill="#004F56"/>
<path d="M14.3129 220.202C13.8294 222.366 13.6513 224.542 13.7404 226.757C13.7785 227.636 15.038 227.458 14.9999 226.579C14.9108 224.492 15.1144 222.442 15.5597 220.393C15.7505 219.54 14.5037 219.349 14.3129 220.202Z" fill="#004F56"/>
<path d="M13.1295 221.474C11.5519 222.964 9.82168 224.148 7.90059 225.026C7.14996 225.37 7.59525 226.63 8.3586 226.286C10.3687 225.357 12.2262 224.11 13.8674 222.557C14.4781 221.971 13.7529 220.889 13.1295 221.474Z" fill="#004F56"/>
<path d="M157.364 365.322C156.69 364.979 155.927 364.699 155.201 364.788C154.502 364.877 153.916 365.284 153.382 365.704C152.886 366.099 152.39 366.57 151.906 367.092C148.446 370.86 146.665 375.939 147.084 381.044C147.212 382.533 147.479 384.01 147.886 385.474C148.128 386.339 148.522 387.294 149.362 387.689C150.354 388.147 151.525 387.561 152.008 386.67C152.491 385.779 152.479 384.697 152.453 383.666C152.491 386.238 154.921 388.287 157.212 389.764C159.222 391.062 161.346 392.284 163.662 392.768C165.977 393.252 168.547 392.895 170.15 391.355C170.316 391.202 170.468 391.011 170.519 390.795C170.634 390.209 169.959 389.738 169.425 389.395C167.25 387.982 165.863 385.474 165.914 383.03C166.652 382.737 167.44 382.406 167.771 381.706C168.255 380.7 167.517 379.453 166.613 378.638C165.723 377.836 164.616 377.199 163.993 376.181C163.382 375.175 163.356 373.991 163.153 372.858C162.568 369.727 160.341 366.799 157.364 365.297V365.322Z" fill="#488288"/>
<path d="M150.583 360.001C151.423 367.97 155.736 377.747 161.219 384.061C161.792 384.723 162.733 383.87 162.161 383.208C159.425 380.051 157.491 376.194 155.825 372.477C154.056 368.543 152.364 364.278 151.919 360.065C151.83 359.237 150.494 359.161 150.583 359.988V360.001Z" fill="#004F56"/>
<path d="M155.023 372.527C152.377 375.646 150.723 379.249 150.125 383.335C150.011 384.137 151.308 384.557 151.423 383.742C151.983 379.898 153.471 376.448 155.965 373.508C156.486 372.897 155.545 371.916 155.023 372.527Z" fill="#004F56"/>
<path d="M157.25 377.759C159.056 379.045 160.977 380.064 163.051 380.84C163.865 381.146 164.196 379.924 163.382 379.605C161.423 378.867 159.616 377.887 157.911 376.665C157.199 376.155 156.537 377.237 157.25 377.747V377.759Z" fill="#004F56"/>
<path d="M157.962 379.351C158.713 381.375 159.133 383.45 159.184 385.55C159.209 386.378 160.545 386.454 160.519 385.626C160.456 383.411 160.036 381.222 159.247 379.096C158.955 378.307 157.657 378.549 157.962 379.351Z" fill="#004F56"/>
<path d="M145.647 421.525C145.621 422.556 145.469 423.638 144.896 424.452C144.349 425.229 143.484 425.662 142.644 426.031C141.856 426.375 140.965 426.655 140.036 426.884C133.331 428.59 126.143 427.457 120.342 423.676C118.65 422.581 117.059 421.308 115.584 419.882C114.706 419.03 113.815 417.96 113.892 416.7C113.981 415.223 115.431 414.218 116.805 414.205C118.166 414.205 119.451 414.905 120.66 415.605C117.619 413.912 116.754 409.699 116.461 406.02C116.194 402.799 116.118 399.476 117.034 396.409C117.95 393.341 120.011 390.515 122.874 389.585C123.166 389.496 123.484 389.42 123.777 389.509C124.553 389.751 124.667 390.858 124.731 391.724C125.011 395.212 127.11 398.484 130.049 399.998C130.863 399.298 131.779 398.573 132.81 398.624C134.324 398.7 135.329 400.38 135.711 401.971C136.092 403.55 136.143 405.281 136.945 406.669C137.746 408.044 139.146 408.833 140.354 409.813C143.713 412.512 145.749 417.044 145.634 421.563L145.647 421.525Z" fill="#A6D2AC"/>
<path d="M147.632 433.02C138.688 426.909 129.833 415.503 125.838 404.912C125.418 403.805 127.034 403.232 127.454 404.327C129.451 409.622 132.797 414.383 136.156 418.762C139.693 423.383 143.675 428.144 148.408 431.378C149.336 432.014 148.573 433.656 147.632 433.02Z" fill="#004F56"/>
<path d="M135.583 419.691C130.176 420.837 124.833 420.506 119.579 418.584C118.548 418.202 118.892 416.394 119.935 416.776C124.871 418.584 129.935 419.017 135.036 417.935C136.105 417.706 136.665 419.462 135.583 419.691Z" fill="#004F56"/>
<path d="M130.787 413.67C130.405 410.692 130.444 407.738 130.838 404.772C130.991 403.601 132.67 403.996 132.505 405.167C132.123 407.967 132.136 410.755 132.492 413.569C132.645 414.752 130.94 414.842 130.787 413.658V413.67Z" fill="#004F56"/>
<path d="M129.349 411.812C127.416 409.622 125.227 407.789 122.759 406.363C121.792 405.803 122.556 404.161 123.535 404.721C126.131 406.223 128.459 408.133 130.494 410.437C131.245 411.303 130.125 412.677 129.362 411.812H129.349Z" fill="#004F56"/>
</g>
<defs>
<filter id="filter0_d_873_1477" x="249.327" y="75.4756" width="169.598" height="171.177" filterUnits="userSpaceOnUse" color-interpolation-filters="sRGB">
<feFlood flood-opacity="0" result="BackgroundImageFix"/>
<feColorMatrix in="SourceAlpha" type="matrix" values="0 0 0 0 0 0 0 0 0 0 0 0 0 0 0 0 0 0 127 0" result="hardAlpha"/>
<feOffset dy="1.95"/>
<feColorMatrix type="matrix" values="0 0 0 0 0 0 0 0 0 0 0 0 0 0 0 0 0 0 0.1 0"/>
<feBlend mode="normal" in2="BackgroundImageFix" result="effect1_dropShadow_873_1477"/>
<feBlend mode="normal" in="SourceGraphic" in2="effect1_dropShadow_873_1477" result="shape"/>
</filter>
<clipPath id="clip0_873_1477">
<rect width="509" height="488" fill="white"/>
</clipPath>
</defs>
</svg>
